<?xml version="1.0" encoding="utf-8"?>
<!-- Generator: Adobe Illustrator 27.0.0, SVG Export Plug-In . SVG Version: 6.00 Build 0)  -->
<svg version="1.1" id="Layer_1" xmlns="http://www.w3.org/2000/svg" xmlns:xlink="http://www.w3.org/1999/xlink" x="0px" y="0px"
	 viewBox="0 0 500 500" style="enable-background:new 0 0 500 500;" xml:space="preserve">
<style type="text/css">
	.st0{fill:#EBEBEB;}
	.st1{fill:#F0F0F0;}
	.st2{fill:#E0E0E0;}
	.st3{fill:#FFA8A7;}
	.st4{fill:#F28F8F;}
	.st5{fill:#263238;}
	.st6{fill:#455A64;}
	.st7{fill:#003366;}
	.st8{opacity:0.1;enable-background:new    ;}
	.st9{fill:#F0997A;}
	.st10{fill:#37474F;}
	.st11{fill:#B16668;}
	.st12{opacity:0.25;enable-background:new    ;}
	.st13{fill:#FAFAFA;}
	.st14{opacity:0.15;enable-background:new    ;}
	.st15{fill:#F5F5F5;}
	.st16{opacity:0.3;enable-background:new    ;}
	.st17{opacity:0.6;fill:#003366;enable-background:new    ;}
</style>
<g id="freepik--background-complete--inject-4">
	<rect x="11.7" y="403.4" class="st0" width="476.7" height="0.2"/>
	<rect x="434.8" y="421.2" class="st0" width="36.7" height="0.3"/>
	<rect x="330.4" y="424.2" class="st0" width="9.6" height="0.3"/>
	<rect x="412.5" y="410.9" class="st0" width="21.3" height="0.3"/>
	<rect x="31.1" y="412.8" class="st0" width="47.9" height="0.3"/>
	<rect x="88.8" y="412.8" class="st0" width="7" height="0.3"/>
	<rect x="118.7" y="417.5" class="st0" width="103.8" height="0.3"/>
	<path class="st0" d="M235.6,354h-214c-3.5,0-6.3-2.8-6.3-6.3V46.8c0-3.5,2.8-6.3,6.3-6.3h214c3.5,0,6.3,2.8,6.3,6.3c0,0,0,0,0,0
		v300.7C241.9,351.1,239.1,354,235.6,354z M21.6,40.8c-3.3,0-6,2.7-6,6.1v300.8c0,3.3,2.7,6,6,6.1h214c3.3,0,6-2.7,6.1-6.1V46.8
		c0-3.3-2.7-6-6.1-6.1H21.6z"/>
	<path class="st0" d="M475.3,354h-214c-3.5,0-6.3-2.8-6.3-6.3V46.8c0-3.5,2.9-6.3,6.3-6.3h214c3.5,0,6.3,2.8,6.3,6.3v300.8
		C481.6,351.1,478.8,353.9,475.3,354z M261.3,40.8c-3.3,0-6,2.7-6.1,6.1v300.8c0,3.3,2.7,6,6.1,6.1h214c3.3,0,6-2.7,6.1-6.1V46.8
		c0-3.3-2.7-6-6.1-6.1H261.3z"/>
	<rect x="361.8" y="52.6" class="st1" width="72.4" height="14.1"/>
	<rect x="367.1" y="66.6" class="st2" width="61.9" height="7.2"/>
	<rect x="373.5" y="73.8" class="st1" width="49" height="322.2"/>
	<rect x="379.5" y="73.8" class="st2" width="37" height="322.2"/>
	<rect x="390.5" y="73.8" class="st1" width="15.1" height="322.2"/>
	<rect x="361.8" y="403.3" class="st1" width="72.4" height="14.1"/>
	<rect x="367.1" y="396.1" class="st2" width="61.9" height="7.2"/>
	<rect x="65.8" y="52.6" class="st1" width="72.4" height="14.1"/>
	<rect x="71.1" y="66.6" class="st2" width="61.9" height="7.2"/>
	<rect x="77.5" y="73.8" class="st1" width="49" height="322.2"/>
	<rect x="83.5" y="73.8" class="st2" width="37" height="322.2"/>
	<rect x="94.4" y="73.8" class="st1" width="15.1" height="322.2"/>
	<rect x="65.8" y="403.3" class="st1" width="72.4" height="14.1"/>
	<rect x="71.1" y="396.1" class="st2" width="61.9" height="7.2"/>
</g>
<g id="freepik--character-3--inject-55">
	<g id="freepik--Character--inject-55">
		<g id="freepik--Bottom--inject-55">
			<path class="st3" d="M194.9,345c2.8-9.2,14.4-41.4,24.5-57.1l53.9,4.6L240,345.9c5.3-1.1,16.6,2.3,16.6,2.3
				c9.8,2.3,28.2,8.9,36.1,9.5s7.5-2.3,14-1.3c4.8,0.7,7,6.7,7.5,11.9s5.8,10.4,8.7,14.1c2.9,3.7,2.7,9,0.6,13.5
				c-3.4,7.2-8.7,10.3-10.9,11.2c-3.8,1.4-5-3.1-5.1-8.2c-0.1-4.3-6.9-15.5-13.8-20c-4.2-0.7-8.5-1-12.8-1.1
				c-5.9,0-37.8,1.4-57.1,1.8c-20,0.4-24.6-4.6-28.3-8.9C191.9,366.6,191.9,354.8,194.9,345z"/>
			<path class="st4" d="M228.5,379.6h0.8h1.7h0.8h1.8h0.8l2.5-0.1h0.5l2.1-0.1h1.1h1.5h1.3l1.5-0.1h1.1l1.5-0.1h1.3l2.4-0.1
				c5.8-0.2,11.3-0.4,16.1-0.6c-7.2-8.9-12.3-9.9-12.3-9.9s5.5-7.7,11.8-17.1c-3.4-1-6.7-2-9.4-2.7l-0.8-0.1c0,0-11.3-3.3-16.6-2.3
				l33.3-53.4l-49.2-4.6v0.3l-4.9-0.4c-0.8,1.3-1.6,2.7-2.5,4.1c-0.1,14.1,10,23.1,10,23.1s-8.8,24.3-12.2,36.4
				c-4.3,15.4-3.1,22.3,1.5,27.7c2.1,0.1,4.6,0.2,7.2,0.1h0.6h2.3h0.8L228.5,379.6z"/>
			<path class="st5" d="M311.2,356.1c2.6,0.2,2.6,0.7,4.2,4.3c1.7,3.6,0.6,8.6,2.5,11.2c1.9,2.5,7.7,9.3,9.2,12.6s3.6,8-1.7,16.7
				c-5.3,8.7-11.4,10.3-13,10.2c-1.6-0.1-4.1-5.3-4.1-5.3L311.2,356.1z"/>
			<path class="st6" d="M294.3,357.9c0.7,0,1.3,0,1.9-0.1c0,0,1.9,3.6,1.9,6.2c-0.2,2.4,0.7,4.7,2.6,6.2c-2.4-1-5.1-0.5-7.1,1.1
				c-2.1,2-4.6,5.6-4.2,7.1c0.4,1.4,3.6,0.1,6.6,2.5s9.7,13.4,10.1,15.8s-1.9,9.8,4.7,12.4c4.6-0.7,12.1-6.7,14.7-14.2
				s-0.2-10.6-5.2-17.4s-5.5-6.8-5.6-10.9c-0.3-3.8-1.5-7.6-3.6-10.8c-4.3-2.5-9.3-0.9-11.8,0C297,356.9,294.5,356.2,294.3,357.9z"
				/>
			<path class="st3" d="M220.8,288.1l61.8,5.3c1.3,9,1.1,19.7-2.7,29.6c-5.6,14.5-28,45.4-28,45.4s6.3,1.4,15.1,13.7
				c6.1,8.5,11.1,20.6,18.3,28c2.6,2.7,5.7,2.9,9.1,3.9c1.3,0.3,2.5,0.8,3.5,1.6c1.8,1.6,2.8,3.8,2.7,6.2c-0.1,2.3-0.3,4.7-0.8,7
				c-0.4,2.8-0.4,5.7,0.1,8.6c0.5,2.7,1.7,5.2,2.4,7.8c0.7,2.1,1,4.3,0.7,6.5c-0.3,1.3-0.8,2.4-1.4,3.5c-1.6,2.8-3.9,5.2-6.6,7
				c-1.4,0.8-2.9,1.6-4.5,2.2c-1.6,0.8-2.8,1.5-4.7,0.9c-2.3-0.8-3.7-3.3-3.1-5.7c0.5-1.6,1.3-3.1,1.5-4.8c0.2-4.7-0.4-9.5-1.9-14
				c-0.6-1.4-1.3-2.7-2-4c-1.3-2.4-2.4-5.3-4.3-7.3c-1.4-1.5-2.8-2.9-4.3-4.3c-7.8-7.4-16.5-13.8-24.7-20.7
				c-19.2-15.9-21.7-18.1-27.3-24.6c-4.7-5.5-5.9-12.3-1.6-27.9c3.4-12.1,12.2-36.4,12.2-36.4S218.2,304.7,220.8,288.1z"/>
			<path class="st4" d="M251.9,368.4l1.5,0.6c0.3,0.1,0.6,0.3,1,0.5l-5.7,3.3L251.9,368.4z"/>
			<path class="st5" d="M301,414.9c2.4,1.1,2.2,1.6,2.7,5.8c0.4,4.2-2.1,8.8-1.1,12s4.4,12,4.8,15.8s0.9,9.2-7,16
				c-7.8,6.8-14.1,6.1-15.6,5.5s-2.2-6.6-2.2-6.6L301,414.9z"/>
			<path class="st6" d="M285.2,410l0.9,1.3c0,0,0.7,4.2-0.2,6.9c-1,2.3-0.8,4.9,0.5,7.1c-1.9-1.8-4.7-2.3-7.1-1.3
				c-2.6,1.2-6.2,4-6.2,5.5c-0.1,1.6,3.4,1.4,5.5,4.9s5,16.7,4.6,19.3c-0.4,2.6-4.9,9.1,0.5,14c4.7,0.9,13.7-2.4,18.5-8.9
				s3.2-10.6,0.6-19.1s-3.1-8.6-1.9-12.7c1-3.9,1-8,0-12c-3.3-4-8.6-4.2-11.2-4.2S286.2,408.5,285.2,410z"/>
			<path class="st7" d="M222.4,281.6c-17.1,17.4-31.9,68.9-31.9,68.9s2.1,8,24.4,13.9c13.2,3.6,27.1,3.8,40.4,0.7
				c0,0,17.4-23.9,24.8-38.7s3.8-32.1,0.3-41.2L222.4,281.6z"/>
			<path class="st8" d="M242.9,311.9c-2.4-0.1-4.8-0.5-7.1-1.1c-4.5-1-8.5-3.2-11.7-6.6c-4.2-4.8-5.4-11.4-5.7-17.8
				c-15.3,20.6-27.8,64.1-27.8,64.1s2.1,7.9,23.8,13.8c1.3-7.9,4-15.5,7.8-22.6c5.6-10.4,17-19.5,26.1-26.8c0.9-0.7,1.8-2,1-2.8
				C247.1,312.1,245,312.1,242.9,311.9z"/>
		</g>
		<g id="freepik--Top--inject-55">
			<path class="st5" d="M248.6,177.8c0,0.3,0,0.5,0,0.7c0,1.7,0.2,3.4,0.5,4.9c0,0,0,0.1,0,0.2c0.2,1,0.5,2,0.8,3
				c0.1,0.3,0.3,0.7,0.4,1c0.5,1.1,1,2.2,1.6,3.3c0.2,0.5,0.6,1,0.9,1.5c0.9,1.2,1.9,2.5,3.1,3.6c4.4,4.4,10.5,7.2,17.4,7.2h2.8
				c0.6,0,1.3,0,1.9-0.1c2.3-0.2,4.6-0.7,6.7-1.5c9.5-3.5,16.2-12.6,16.2-23.3l0,0v-1.6c-0.2-6.9-3.1-13.1-7.6-17.5
				c-3.6-3.7-8.4-6.1-13.6-6.8c-0.1,0-0.1,0-0.2,0c-1.2-0.2-2.5-0.2-3.8-0.2c-0.1,0-0.2,0-0.3,0l-2.9,0.1
				c-11.9,0.4-21.7,9.5-23.6,21.1c0,0.1,0,0.1,0,0.1c-0.1,0.5-0.2,1-0.2,1.5c-0.1,0.5-0.1,1-0.1,1.5l0,0
				C248.8,177,248.8,177.3,248.6,177.8z"/>
			<path class="st5" d="M294.9,137.7c6.4,2.8,9.8,9.5,7.4,15.2c-2.5,5.7-9.6,8-16,5.3c-6.4-2.7-9.7-9.5-7.4-15.1
				C281.3,137.5,288.5,134.9,294.9,137.7z"/>
			<path class="st5" d="M275.8,152.1l0.1,0.1c1.2,1.2,3.2,1.1,4.4-0.1l-4.5-4.6C274.5,148.7,274.5,150.7,275.8,152.1z"/>
			<g id="freepik--Arm--inject-55">
				<path class="st3" d="M192,184.3c-1.9,6-0.4,7.7,7.5,16.2c12.7,13.7,29.8,29.6,29.8,29.6l18-18.1c-5.5-2.1-9.3-3.3-12.1-5.8
					c-11.4-10.3-19.7-18.2-22.3-21l0,0c0,0,8.4-24.2,9.7-26.9c1.3-2.7,4.6-4.9,5.2-5.5c5-4,5.6-6.4,7.9-12.3c0.4-1,0.8-2,1.1-3
					c0.2-0.5,0.4-1,0.6-1.5c0.2-0.4,0.4-0.8,0-1.3c-0.3-0.3-0.8-0.4-1.2-0.4c-1.5,0-2.9,0.7-3.9,1.8c-1,1.1-1.8,2.3-2.6,3.6
					c-0.6,0.9-1.1-0.3-1.1-0.9c-0.6-2.9,1.1-7.4,2.1-10.2c0.8-1.8,1.5-3.6,2-5.4c0.3-1.2,0.2-2.4-0.3-3.5c-0.3-0.8-0.9-1.3-1.8-0.8
					c-0.5,0.4-0.9,0.9-1.2,1.4c-0.7,1.1-1.4,0.8-2.8,1.1c-0.9,0.1-1.7,0.3-2.6,0.6c-1,0.5-1.8,1.3-2.3,2.2c-0.9-0.4-1.9-0.1-2.5,0.7
					c-2.1,2.3-3.7,5-4.9,7.9c-1.2,3.5-1.9,7.1-1.9,10.8c-0.2,2.3-0.7,4.5-1.7,6.6c-1.1,2.6-3.9,7.6-8.8,16
					C197.1,174.6,193.9,178.3,192,184.3z"/>
				<path class="st9" d="M226.7,141.7c-3.5,1.2-6.2,4.1-7.2,7.6c-0.1-1.9,0.5-3.8,1.7-5.3C222.6,142.4,224.6,141.6,226.7,141.7z"/>
			</g>
			<path class="st6" d="M281,285.2c-0.8-4.1-1.2-8.3-1.1-12.4c0.1-4.2,2.3-7.9,6.5-17.7c3.7-9,5-18.7,3.8-28.4
				c-3.2-2.6-6.8-4.8-10.6-6.4c-3.3-1.5-7.6-2.1-11.7-3.4c-6-2-9.8-3.5-13.6-4c-3.3-0.4-7.1-0.7-7.1-0.7s-12.6,9.6-20.6,18.9
				c-5.4,6.3-6.2,15.2-0.4,21.7l-0.1,14.4l-5,15.1c0,0,0.6,7.7,20.9,10.8C262.4,296.2,281,285.2,281,285.2z"/>
			<path class="st10" d="M261.4,258.3c-3.7,2.6-15.5,4.4-21.4-3.8C240.1,262.4,256.5,266.9,261.4,258.3z"/>
			<g id="freepik--arm--inject-55">
				<path class="st3" d="M318.7,212.5c-20.8,28.1-24.4,31.8-32,43.5c-5.9-1.1-15.2-22.1-4.2-34.4c8-8.4,15-17.8,20.8-27.9
					c0.5-5.1,1.5-29.4,0.7-38.6c-0.2-1.5-0.9-2.9-2-4c-3.2-3.1-4.6-6.9-6.7-10.4c-1.7-2.7-3.4-3.7-2.9-4.3c0.6-0.8,2.4-2,4.9-0.7
					c1.2,0.7,4.1,4.1,5.1,4.6c1.1,0.5-0.4-4.8-3.2-10.2c-1.6-3.1-2.4-5.8-1.7-8.2c0.3-1.1,1.1-1.8,2-1.4c0.3,0.2,0.6,0.4,0.8,0.6
					c-0.2-0.8,0-1.7,0.7-2.3c1.1-1.1,2.1-0.4,2.8,0.6l0.9,1.3c1.2-0.5,2.6-0.1,3.3,0.9c0.3,0.4,0.9,1.4,0.9,1.4c1-0.4,2.5-0.7,4,1.5
					c1.7,2.2,3.2,4.6,4.5,7.1c0.9,2.1,1.7,4.3,2.1,6.5c0.6,2.2,1,4.5,1.1,6.9c-0.4,5.4-0.2,10.8,0.5,16.2c1.5,13,1.8,16.4,3.7,34
					C325.5,202.1,325.2,203.8,318.7,212.5z"/>
				<path class="st9" d="M304.7,140.6c3.7,0.5,6.4,5.4,7.1,9.1C312.1,145.1,310.3,140.8,304.7,140.6z"/>
			</g>
			<g id="freepik--Head--inject-55">
				<path class="st3" d="M276.6,215.1c0.7-4.2,2.6-13.6,2.6-13.6c0.5,1.3,3.9,3.4,8.3,0.7c3.5-2.3,4.8-6.8,2.9-10.6
					c-1.9-3.4-5.8-3.8-8.9-0.3c-2.7-0.1-12.2-12-10.5-28.6c-10.4,0.6-13.7,4.4-16.6,7.7c-2.9,3.4-5.8,7.6-7,12.9
					c-2.3,10.3-1.4,15.6,1.9,19c1.7,1.7,3.7,2.8,7.7,3.7c0,0-0.3,1.4-0.8,4.3c-0.3,1.5-0.7,2.5-2,2.4c-2.4,1.8-8.9,5.2,1.4,8.7
					c13.2,4.6,22.1,0.1,23.9-1.2C276.9,219.1,276.3,217.1,276.6,215.1z"/>
				<path class="st4" d="M257.2,206c7.3,1.5,14,0.6,18.4-3.6c-0.9,2.1-2.6,3.9-4.8,4.9c-8.1,3.1-14.1,0.9-14.1,0.9L257.2,206z"/>
				<path class="st11" d="M257.9,194.8l7.5-0.7c0.3,2-1,3.8-3,4.1c-0.1,0-0.2,0-0.2,0C260.1,198.3,258.2,196.9,257.9,194.8z"/>
				<path class="st3" d="M260.6,198c0.5,0.2,1.1,0.2,1.6,0.2c1.4-0.1,2.6-1,3-2.3C263.4,195.4,261.5,196.3,260.6,198z"/>
				<path class="st5" d="M271,184.8c-0.3,1.1-0.9-0.6-2-0.9c-1.1-0.3-2.3,0.9-2-0.2c0.3-1.1,1.5-1.7,2.6-1.4
					C270.6,182.7,271.2,183.7,271,184.8L271,184.8z"/>
				<path class="st5" d="M256.8,181.2c-0.3,1.1-0.9-0.5-2-0.8s-2.3,0.8-2-0.3s1.5-1.7,2.6-1.4C256.4,179.1,257,180.2,256.8,181.2
					L256.8,181.2z"/>
				<polygon class="st4" points="264.6,178.1 260.1,191.1 254.4,187 				"/>
				<path class="st5" d="M252.8,176l4.9-0.8c-0.2-1.3-1.3-2.2-2.6-2.1c-0.1,0-0.1,0-0.2,0C253.6,173.4,252.6,174.6,252.8,176z"/>
				<path class="st5" d="M274.4,181.3l-4-3c0.8-1.1,2.3-1.3,3.4-0.5c0,0,0,0,0.1,0.1C275,178.7,275.2,180.2,274.4,181.3z"/>
			</g>
			<path class="st10" d="M275,175.2c1.8,5.6,4,10.9,6.6,16.3c-7.5-3.1-12.7-9.9-13.6-18c-0.4-4.1,1-8.3,3.7-11.5
				C271.6,162,272.1,166.6,275,175.2z"/>
		</g>
	</g>
</g>
<g id="freepik--Book--inject-55">
	<g id="freepik--book--inject-55">
		<g id="freepik--Comic--inject-55">
			<path class="st7" d="M296.7,50.6c3.2,1.9,6.2,4.1,9,6.5c4.7,3.9,9.2,7.8,11.9,11.8c1.1,1.7,1.7,4.3,2.4,5l-44.5,12.2
				c-0.7-0.7-1.5-3.1-2.4-5c-2.4-5-5.4-7.9-10.2-11.4c-4.2-3.1-9.6-6.1-10.8-7c-0.3-0.2-0.2-0.4,0.1-0.5l43.5-11.9
				C296,50.4,296.4,50.4,296.7,50.6z"/>
			<path class="st12" d="M296.7,50.6c3.2,1.9,6.2,4.1,9,6.5c4.7,3.9,9.2,7.8,11.9,11.8c1.1,1.7,1.7,4.3,2.4,5l-44.5,12.2
				c-0.7-0.7-1.5-3.1-2.4-5c-2.4-5-5.4-7.9-10.2-11.4c-4.2-3.1-9.6-6.1-10.8-7c-0.3-0.2-0.2-0.4,0.1-0.5l43.5-11.9
				C296,50.4,296.4,50.4,296.7,50.6z"/>
			<path class="st12" d="M253.9,61.8l41.8-11.4c0.3-0.1,0.7,0,1,0.2c3.2,1.9,6.2,4.1,9,6.5c4.7,3.9,9.2,7.8,11.9,11.8
				c1.1,1.7,1.7,4.3,2.4,5l-44,12c-1.1-0.7-1.2-2-1.7-3.1c-0.9-2.5-2.1-4.8-3.7-7c-2.8-3.8-6.1-7.2-10-9.9
				C258.5,64.4,256.3,63,253.9,61.8z"/>
			<path class="st7" d="M325.1,76.3c4,2.7,7,5.7,11.9,11.8c2.4,2.8,4.6,5.8,6.6,9c0.1,0.3,0.1,0.5-0.2,0.6l-43.5,11.9
				c-0.3,0.1-0.7,0-0.9-0.3c-0.9-1.1-2.5-4.4-6.1-9.4c-5.1-7.1-7.5-9.7-11.3-11.4c-3.4-1.6-5.3-1.6-6.1-2.4l44.6-12.2
				C320.8,74.7,321.9,74.2,325.1,76.3z"/>
			<path class="st12" d="M286.7,90.5c-2.3-1.8-4.9-3.1-7.7-3.8c-1-0.3-2.3-0.5-3.1-0.7l44-12c0.7,0.7,1.9,0.3,5,2.4
				c4,2.7,7,5.7,11.9,11.8c2.1,2.5,4,5.1,5.8,7.8l-42.7,11.7c0,0-1.6-2.8-4.1-6.6C293.3,97.1,290.3,93.5,286.7,90.5z"/>
			<path class="st2" d="M253.6,54.9l44.6-12.2c0,0,4.8,2.3,10.8,8.8c4.2,4.4,7.1,7.6,9.5,14c1.1,3.2,1.3,5.7,2.1,6.4l-0.3,1
				l-44.5,12.2c-0.7-0.7-1.2-3.3-2.1-5.2c-1.9-4-4.6-8.7-11.5-14.5c-3-2.5-6.1-4.8-9.5-6.7L253.6,54.9z"/>
			<path class="st1" d="M298.2,42.8c0,0,4.8,2.3,10.8,8.8c4.2,4.4,7.1,7.6,9.5,14c1.1,3.2,1.3,5.7,2.1,6.4L276,84.2
				c-0.7-0.7-1.1-3.3-1.7-5.3c-1.7-5.2-2.5-8.5-10.6-16.5c-3-2.9-6.4-5.4-10-7.4L298.2,42.8z"/>
			<path class="st1" d="M276,84.2L320.6,72c0.7,0.7,2.5,0.2,6.5,1.1s7.8,1.8,13.1,7.5c2.4,2.5,4.4,5.3,6,8.3l-1.1,4.5l-44.7,12.3
				c0,0-3-4.8-6.3-9.3c-4.7-6.4-7-7.7-12-9.5c-4.2-1.6-5.7-1-6.4-1.7L276,84.2z"/>
			<path class="st13" d="M320.6,72c0.7,0.7,2.5,0.2,6.5,1.1s7.8,1.8,13.1,7.5c2.4,2.5,4.4,5.3,6,8.3l-44.6,12.2c0,0-2.1-3.3-6-8.3
				c-3.1-4.2-7.7-7-12.9-7.8c-4-0.7-6.1-0.1-6.8-0.9L320.6,72z"/>
			<path class="st2" d="M318.6,93.2c-1.3-1.9-2.7-3.8-4.3-5.5c-5.3-5.7-9.1-6.6-13.1-7.5h-0.1c-0.7-0.2-1.3-0.3-1.9-0.4l-0.7,0.2
				c0.8,0.1,1.7,0.3,2.5,0.4h0.1c4,0.9,7.7,1.8,12.9,7.4c1.5,1.7,3,3.5,4.2,5.4L318.6,93.2z"/>
			<path class="st2" d="M314.3,94.4c-1.3-1.9-2.7-3.8-4.3-5.5c-5.3-5.7-9.1-6.6-13.1-7.5h-0.1c-0.7-0.2-1.3-0.3-1.9-0.4l-0.7,0.2
				c0.7,0.1,1.5,0.2,2.5,0.5h0.1c3.9,0.9,7.7,1.8,12.9,7.4c1.6,1.7,3,3.5,4.3,5.4L314.3,94.4z"/>
			<path class="st2" d="M315.7,94c-1.3-1.9-2.7-3.8-4.3-5.5c-5.3-5.7-9.1-6.6-13.1-7.5h-0.1c-0.7-0.2-1.3-0.3-1.9-0.4l-0.7,0.2
				c0.8,0.1,1.7,0.3,2.5,0.4h0.1c3.9,0.9,7.7,1.8,12.9,7.4c1.6,1.7,3,3.5,4.3,5.4H315.7z"/>
			<path class="st2" d="M317.1,93.6c-1.3-1.9-2.7-3.8-4.3-5.5c-5.3-5.7-9.1-6.6-13.1-7.5h-0.1c-0.7-0.2-1.3-0.3-1.9-0.4l-0.7,0.2
				c0.7,0.1,1.5,0.2,2.5,0.5h0.1c4,0.9,7.7,1.8,12.9,7.4c1.6,1.7,3,3.5,4.3,5.4L317.1,93.6z"/>
			<path class="st2" d="M323,92c-1.3-1.9-2.8-3.8-4.4-5.5c-5.3-5.7-9.1-6.6-13.1-7.5h-0.1c-0.7-0.2-1.3-0.3-1.8-0.4l-0.7,0.2
				c0.7,0.1,1.5,0.2,2.4,0.5h0.1c3.9,0.9,7.7,1.8,12.9,7.4c1.6,1.7,3,3.5,4.3,5.4L323,92z"/>
			<path class="st2" d="M320.1,92.8c-1.3-1.9-2.7-3.8-4.3-5.5c-5.3-5.7-9.1-6.6-13.1-7.5h-0.1c-0.7-0.2-1.3-0.3-1.8-0.4l-0.7,0.2
				c0.7,0.1,1.5,0.2,2.5,0.5h0.1c3.9,0.9,7.7,1.8,12.9,7.4c1.6,1.7,3,3.5,4.3,5.4L320.1,92.8z"/>
			<path class="st2" d="M321.5,92.4c-1.3-1.9-2.8-3.8-4.4-5.5c-5.3-5.7-9.1-6.6-13.1-7.5h-0.1c-0.7-0.2-1.3-0.3-1.8-0.4l-0.7,0.2
				c0.7,0.1,1.5,0.2,2.5,0.4h0.1c3.9,0.9,7.7,1.8,12.9,7.4c1.6,1.7,3,3.5,4.3,5.4H321.5z"/>
			<path class="st2" d="M288.2,83.8h-0.1c-0.7-0.2-1.3-0.3-1.9-0.4l-0.7,0.2c0.9,0.1,1.7,0.3,2.5,0.5h0.1c4,0.9,7.7,1.8,12.9,7.4
				c1.6,1.7,3,3.4,4.3,5.3l0.3-0.1c-1.3-1.9-2.7-3.8-4.3-5.5C295.9,85.6,292.2,84.7,288.2,83.8z"/>
			<path class="st2" d="M324.4,91.6c-1.3-1.9-2.7-3.8-4.3-5.5c-5.3-5.7-9.1-6.6-13.1-7.5h-0.1c-0.7-0.2-1.3-0.3-1.8-0.4l-0.7,0.2
				c0.8,0.1,1.6,0.3,2.4,0.4h0.1c4,0.9,7.7,1.8,12.9,7.4c1.6,1.7,3,3.5,4.3,5.4L324.4,91.6z"/>
			<path class="st2" d="M312.8,94.8c-1.3-1.9-2.7-3.8-4.3-5.5c-5.3-5.7-9.1-6.6-13.1-7.5h-0.1c-0.7-0.2-1.3-0.3-1.9-0.4l-0.7,0.2
				c0.7,0.1,1.5,0.2,2.5,0.4h0.1c4,0.9,7.7,1.8,12.9,7.4c1.6,1.6,3,3.4,4.3,5.3L312.8,94.8L312.8,94.8z"/>
			<path class="st2" d="M310,95.6c-1.3-1.9-2.7-3.8-4.3-5.5c-5.3-5.7-9.1-6.6-13.1-7.5h-0.1c-0.7-0.2-1.3-0.3-1.9-0.4l-0.7,0.2
				c0.7,0.1,1.5,0.2,2.5,0.5h0.1c3.9,0.9,7.7,1.8,12.9,7.4c1.6,1.7,3,3.5,4.3,5.4L310,95.6z"/>
			<path class="st2" d="M311.4,95.2c-1.3-1.9-2.7-3.8-4.3-5.5c-5.3-5.7-9.1-6.6-13.1-7.5h-0.1c-0.7-0.2-1.3-0.3-1.9-0.4l-0.7,0.2
				c0.8,0.1,1.7,0.3,2.5,0.5h0.1c4,0.9,7.7,1.8,12.9,7.4c1.6,1.7,3,3.5,4.3,5.4L311.4,95.2z"/>
			<path class="st2" d="M291.1,83H291c-0.7-0.2-1.3-0.3-1.9-0.4l-0.7,0.2c0.8,0.1,1.7,0.3,2.5,0.5h0.1c3.9,0.9,7.7,1.8,12.9,7.4
				c1.6,1.7,3,3.4,4.3,5.3l0.3-0.1c-1.3-1.9-2.7-3.8-4.3-5.5C298.8,84.8,295.1,83.9,291.1,83z"/>
			<path class="st2" d="M331.6,89.6c-1.3-1.9-2.8-3.8-4.4-5.5c-5.3-5.7-9.1-6.6-13.1-7.5H314c-0.7-0.2-1.3-0.3-1.8-0.4l-0.7,0.2
				c0.8,0.1,1.6,0.3,2.4,0.4h0.1c4,0.9,7.7,1.8,12.9,7.4c1.6,1.7,3,3.5,4.3,5.4L331.6,89.6z"/>
			<path class="st2" d="M340.3,87.3c-1.3-2-2.8-3.8-4.4-5.5c-5.3-5.7-9.1-6.6-13.1-7.5h-0.1c-0.7-0.1-1.2-0.3-1.8-0.3l-0.7,0.2
				c0.7,0.1,1.5,0.2,2.4,0.4h0.1c3.9,0.9,7.7,1.8,12.9,7.4c1.6,1.7,3,3.5,4.3,5.4L340.3,87.3z"/>
			<path class="st2" d="M338.9,87.7c-1.3-1.9-2.8-3.8-4.4-5.5c-5.3-5.7-9.1-6.6-13.1-7.5h-0.1c-0.7-0.1-1.2-0.3-1.8-0.3l-0.7,0.2
				c0.7,0.1,1.5,0.2,2.4,0.4h0.1c3.9,0.9,7.7,1.8,12.9,7.4c1.6,1.7,3,3.5,4.3,5.4L338.9,87.7z"/>
			<path class="st2" d="M307.1,96.4c-1.3-1.9-2.7-3.8-4.3-5.5c-5.3-5.7-9.1-6.6-13.1-7.5h-0.1c-0.7-0.2-1.3-0.3-1.9-0.4l-0.7,0.2
				c0.7,0.1,1.6,0.2,2.5,0.5h0.1c3.9,0.9,7.7,1.8,12.9,7.4c1.6,1.7,3,3.5,4.2,5.4L307.1,96.4z"/>
			<path class="st2" d="M337.4,88.1c-1.3-2-2.7-3.8-4.4-5.5c-5.3-5.7-9.1-6.6-13.1-7.5h-0.1c-0.7-0.1-1.3-0.3-1.8-0.3l-0.7,0.2
				c0.7,0.1,1.5,0.2,2.4,0.4h0.1c3.9,0.9,7.7,1.8,12.9,7.4c1.6,1.7,3,3.5,4.3,5.4L337.4,88.1z"/>
			<path class="st2" d="M333.1,89.3c-1.3-2-2.8-3.8-4.4-5.5c-5.3-5.7-9.1-6.6-13.1-7.5h-0.1c-0.7-0.2-1.3-0.3-1.8-0.3l-0.7,0.2
				c0.7,0.1,1.5,0.2,2.4,0.4h0.1c4,0.9,7.7,1.8,12.9,7.4c1.6,1.7,3,3.5,4.3,5.4L333.1,89.3z"/>
			<path class="st2" d="M336,88.5c-1.3-2-2.8-3.8-4.4-5.5c-5.3-5.7-9.1-6.6-13.1-7.5h-0.1c-0.7-0.1-1.3-0.3-1.8-0.3l-0.6,0.2
				c0.8,0.1,1.6,0.2,2.4,0.4h0.1c3.9,0.9,7.7,1.8,12.9,7.4c1.6,1.7,3,3.5,4.3,5.4L336,88.5z"/>
			<path class="st2" d="M330.2,90.1c-1.3-2-2.7-3.8-4.4-5.5c-5.3-5.7-9.1-6.6-13.1-7.5h-0.1c-0.7-0.2-1.3-0.3-1.8-0.4l-0.7,0.2
				c0.7,0.1,1.5,0.2,2.4,0.4h0.1c4,0.9,7.7,1.8,12.9,7.4c1.6,1.7,3,3.5,4.3,5.4L330.2,90.1z"/>
			<path class="st2" d="M327.3,90.8c-1.3-1.9-2.7-3.8-4.3-5.5c-5.3-5.7-9.1-6.6-13.1-7.5h-0.1c-0.7-0.2-1.3-0.3-1.8-0.4l-0.7,0.2
				c0.8,0.1,1.6,0.3,2.4,0.4h0.1c3.9,0.9,7.7,1.8,12.9,7.4c1.6,1.7,3,3.5,4.3,5.4L327.3,90.8z"/>
			<path class="st2" d="M328.7,90.4c-1.3-2-2.7-3.8-4.4-5.5c-5.3-5.7-9.1-6.6-13.1-7.5h-0.1c-0.7-0.2-1.3-0.3-1.8-0.4l-0.7,0.2
				c0.8,0.1,1.6,0.3,2.4,0.4h0.1c3.9,0.9,7.7,1.8,12.9,7.4c1.6,1.7,3,3.5,4.3,5.4H328.7z"/>
			<path class="st2" d="M334.5,88.9c-1.3-1.9-2.8-3.8-4.4-5.5c-5.3-5.7-9.1-6.6-13.1-7.5l0,0c-0.7-0.1-1.3-0.3-1.8-0.3l-0.7,0.2
				c0.8,0.1,1.6,0.3,2.4,0.4h0.1c3.9,0.9,7.7,1.8,12.9,7.4c1.6,1.7,3,3.5,4.3,5.4L334.5,88.9z"/>
			<path class="st2" d="M325.9,91.2c-1.3-1.9-2.7-3.8-4.3-5.5c-5.3-5.7-9.1-6.6-13.1-7.5h-0.1c-0.7-0.2-1.3-0.3-1.8-0.4l-0.7,0.2
				c0.8,0.1,1.6,0.3,2.4,0.4h0.1c4,0.9,7.7,1.8,12.9,7.4c1.6,1.7,3,3.5,4.3,5.4L325.9,91.2z"/>
			<polygon class="st2" points="300.4,105.7 301.6,101.1 346.2,89 345,93.5 			"/>
			<path class="st14" d="M323.3,98.5l-2.7,0.8l2.7-0.7l2.7-0.7l5.4-1.5l5.4-1.5c1.8-0.5,3.6-1,5.4-1.6c-1.8,0.4-3.6,0.9-5.5,1.4
				l-5.4,1.5l-5.4,1.5L323.3,98.5z M340.7,91.6l4.6-1.3l-4.7,1.2l-4.7,1.2l-9.4,2.5l-9.3,2.6l-4.7,1.3l-4.6,1.3l4.7-1.2l4.7-1.2
				l9.4-2.5l9.3-2.6L340.7,91.6z M295.8,95.4c0.3,0.3,0.5,0.7,0.8,1c-0.9-1.4-2-2.7-3.1-4c-0.6-0.6-1.2-1.2-1.8-1.7
				c-0.3-0.3-0.7-0.5-1-0.8c-0.3-0.2-0.7-0.5-1.1-0.7c0.7,0.5,1.3,1,2,1.6c0.6,0.6,1.2,1.1,1.8,1.7c0.6,0.6,1.1,1.2,1.7,1.9
				C295.3,94.7,295.5,95,295.8,95.4L295.8,95.4z M304.8,102.5l-2.7,0.8l2.7-0.7l2.7-0.7l5.5-1.5l5.4-1.5c1.8-0.5,3.6-1,5.4-1.6
				l-5.5,1.4l-5.4,1.5l-5.4,1.6L304.8,102.5z M264.5,64.3l0.6,0.6L264.5,64.3l-0.6-0.7l-0.6-0.6l-0.6-0.6c-0.9-0.8-1.8-1.5-2.7-2.3
				c-0.9-0.8-1.8-1.4-2.8-2c-1-0.6-2-1.3-3-1.8c0.5,0.3,1,0.6,1.4,1c0.5,0.3,1,0.7,1.4,1c0.9,0.7,1.9,1.4,2.8,2.1s1.8,1.4,2.7,2.2
				l0.7,0.6l0.6,0.6L264.5,64.3z M266.2,66.9c0.7,0.7,1.3,1.4,1.9,2.2c1.2,1.5,2.3,3.1,3.2,4.8c0.9,1.7,1.7,3.4,2.4,5.2
				c0.2,0.4,0.3,0.9,0.5,1.4s0.3,0.9,0.4,1.4s0.3,0.9,0.5,1.4s0.4,0.9,0.6,1.3c-0.2-0.4-0.4-0.9-0.6-1.3c-0.1-0.4-0.3-0.9-0.4-1.4
				s-0.3-0.9-0.4-1.4s-0.3-0.9-0.4-1.4c-0.3-0.9-0.7-1.8-1.1-2.7s-0.8-1.7-1.3-2.6c-0.5-0.8-1-1.7-1.5-2.5c-0.6-0.8-1.1-1.5-1.8-2.3
				C267.6,68.2,266.9,67.5,266.2,66.9c-0.6-0.8-1.3-1.4-2-2C264.9,65.5,265.6,66.2,266.2,66.9L266.2,66.9z M253.6,58.1
				c1.3,0.8,2.5,1.7,3.8,2.6c1.3,0.9,2.4,1.8,3.6,2.8c1.2,1,2.3,2,3.4,3l0.8,0.8c0.3,0.3,0.5,0.5,0.8,0.8c0.6,0.5,1.1,1.1,1.6,1.6
				c-0.5-0.6-1-1.1-1.5-1.7c-0.3-0.3-0.5-0.6-0.8-0.8c-0.3-0.3-0.5-0.6-0.8-0.8c-1.1-1.1-2.2-2.1-3.4-3c-1.2-0.9-2.4-1.9-3.6-2.7
				c-0.6-0.4-1.3-0.9-1.9-1.3C255,59,254.3,58.5,253.6,58.1L253.6,58.1z M286.7,88.2c-0.8-0.4-1.7-0.7-2.6-1
				c1.7,0.6,3.4,1.4,4.9,2.5s2.9,2.4,4,3.8c1.2,1.4,2.3,2.9,3.3,4.4c1,1.5,2.1,3,3.1,4.6c-0.5-0.8-1-1.6-1.4-2.3s-1-1.6-1.5-2.3
				s-1-1.5-1.6-2.3c-0.5-0.8-1.1-1.5-1.7-2.2c-1.2-1.4-2.5-2.7-4-3.8C288.4,89.2,287.6,88.7,286.7,88.2z M276.2,84.9
				c0.4,0.2,0.8,0.2,1.1,0.3l1.1,0.1c0.8,0.1,1.5,0.1,2.3,0.2c1.5,0.2,3,0.5,4.4,1s2.8,1.1,4.1,1.8c0.7,0.4,1.3,0.8,1.9,1.3
				c0.6,0.4,1.1,0.9,1.8,1.4c-1.1-1.1-2.3-2-3.6-2.8c-1.3-0.8-2.7-1.4-4.2-1.9s-3-0.8-4.5-0.9c-0.8-0.1-1.5-0.1-2.3-0.2l-1.1-0.1
				C277,85.1,276.6,85.1,276.2,84.9z"/>
			<path class="st12" d="M275.2,79.5c0.1-4.4-1-8.8-3-12.7c-2.7-5.2-6.2-10-10.6-14l36.6-10c0,0,4.8,2.3,10.8,8.8
				c4.2,4.4,7.1,7.6,9.5,14c1.1,3.2,1.3,5.7,2.1,6.4L276,84.2C275.3,82.7,275,81.1,275.2,79.5z"/>
			<path class="st15" d="M261.1,49.2L305.7,37l0,0c1.8,2.6,4.7,4.8,9.2,11.9c3.5,5,5.3,11,5.2,17.2c0,2.2-0.2,5.1,0.5,5.9L276,84.2
				c-0.7-0.9-0.5-3.7-0.5-5.9c0.1-6.1-1.7-12.1-5.2-17.1C265.7,54,262.9,51.8,261.1,49.2L261.1,49.2z"/>
			<path class="st2" d="M304.4,70.4c0.1-6.2-1.7-12.2-5.2-17.2c-1.9-3-4.1-5.9-6.4-8.6l-0.3,0.1c2.4,2.7,4.6,5.6,6.5,8.6
				c3.5,5,5.3,11,5.2,17.1c0,0.3,0,0.6,0,0.9c0,0.3,0,0.6,0,0.8l0.3-0.1c0-0.3,0-0.5,0-0.7C304.4,71,304.4,70.7,304.4,70.4z"/>
			<path class="st2" d="M305.8,70c0.1-6.1-1.7-12.2-5.2-17.2c-1.9-3-4.1-5.8-6.5-8.5l-0.3,0.1c2.4,2.7,4.6,5.6,6.5,8.7
				c3.5,5,5.3,10.9,5.2,17c0,0.3,0,0.6,0,0.9c0,0.3,0,0.5,0,0.8l0.3-0.1c0-0.2,0-0.5,0-0.7C305.8,70.6,305.8,70.3,305.8,70z"/>
			<path class="st2" d="M302.9,70.8c0.1-6.2-1.7-12.2-5.2-17.2c-1.9-3-4.1-5.9-6.4-8.6l-0.3,0.1c2.4,2.7,4.6,5.6,6.5,8.6
				c3.5,5,5.3,11,5.2,17.1c0,0.3,0,0.6,0,0.9s0,0.5,0,0.8l0.3-0.1c0-0.2,0-0.5,0-0.7C302.9,71.4,302.9,71.1,302.9,70.8z"/>
			<path class="st2" d="M301.5,71.2c0.1-6.2-1.7-12.2-5.2-17.2c-1.9-3-4.1-5.9-6.4-8.5l-0.3,0.1c2.4,2.7,4.5,5.6,6.5,8.6
				c3.5,5,5.3,11,5.2,17.1c0,0.3,0,0.6,0,0.9s0,0.5,0,0.8l0.3-0.1c0-0.3,0-0.5,0-0.7C301.6,72,301.5,71.5,301.5,71.2z"/>
			<path class="st2" d="M307.3,69.6c0.1-6.1-1.7-12.2-5.2-17.2c-1.9-3-4.1-5.9-6.4-8.6l-0.3,0.1c2.4,2.7,4.6,5.6,6.5,8.7
				c3.5,5,5.3,11,5.2,17c0,0.3,0,0.6,0,0.9s0,0.6,0,0.8l0.3-0.1c0-0.3,0-0.5,0-0.7C307.3,70.2,307.3,69.9,307.3,69.6z"/>
			<path class="st2" d="M300.1,71.6c0.1-6.1-1.7-12.2-5.2-17.2c-1.9-3-4.1-5.9-6.4-8.5l-0.3,0.1c2.4,2.7,4.5,5.6,6.5,8.6
				c3.5,5,5.3,11,5.2,17.1c0,0.3,0,0.6,0,0.9s0,0.5,0,0.8l0.3-0.1c0-0.3,0-0.5,0-0.7C300.1,72.2,300.1,71.9,300.1,71.6z"/>
			<path class="st2" d="M317.3,66.9c0.1-6.1-1.7-12.2-5.2-17.2c-1.9-3-4.1-5.9-6.5-8.6l-0.3,0.1c2.4,2.7,4.6,5.6,6.5,8.7
				c3.5,5,5.3,11,5.2,17c0,0.3,0,0.6,0,0.9s0,0.6,0,0.8l0.3-0.1c0-0.3,0-0.5,0-0.7C317.3,67.5,317.3,67.2,317.3,66.9z"/>
			<path class="st2" d="M314.4,67.7c0.1-6.2-1.7-12.2-5.2-17.2c-1.9-3-4.1-5.9-6.4-8.6l-0.3,0.1c2.4,2.7,4.6,5.6,6.5,8.6
				c3.5,5,5.3,11,5.1,17.1c0,0.3,0,0.6,0,0.9s0,0.5,0,0.8l0.3-0.1c0-0.2,0-0.5,0-0.7C314.4,68.4,314.4,67.9,314.4,67.7z"/>
			<path class="st2" d="M313,68.1c0.1-6.1-1.7-12.2-5.2-17.2c-1.9-3-4.1-5.9-6.4-8.6l-0.3,0.1c2.4,2.7,4.6,5.6,6.5,8.6
				c3.5,5,5.3,11,5.2,17.1c0,0.3,0,0.6,0,0.9s0,0.5,0,0.8l0.3-0.1c0-0.3,0-0.5,0-0.7C313,68.6,313,68.3,313,68.1z"/>
			<path class="st2" d="M298.6,72c0.1-6.1-1.7-12.2-5.2-17.2c-1.9-3-4.1-5.9-6.4-8.6l-0.3,0.1c2.4,2.7,4.5,5.6,6.5,8.6
				c3.5,5,5.3,11,5.2,17.1c0,0.3,0,0.6,0,0.9c0,0.3,0,0.6,0,0.8l0.3-0.1c0-0.3,0-0.5,0-0.7C298.6,72.6,298.6,72.3,298.6,72z"/>
			<path class="st2" d="M308.7,69.2c0.1-6.1-1.7-12.2-5.2-17.2c-1.9-3-4.1-5.9-6.4-8.6l-0.3,0.1c2.4,2.7,4.5,5.6,6.5,8.6
				c3.5,5,5.3,11,5.2,17.1c0,0.3,0,0.6,0,0.9s0,0.6,0,0.8l0.3-0.1c0-0.3,0-0.5,0-0.7C308.7,69.9,308.7,69.6,308.7,69.2z"/>
			<path class="st2" d="M310.1,68.8c0.1-6.1-1.7-12.2-5.2-17.2c-1.9-3-4.1-5.9-6.4-8.6l-0.3,0.1c2.4,2.7,4.5,5.6,6.5,8.6
				c3.5,5,5.3,11,5.2,17.1c0,0.3,0,0.6,0,0.9s0,0.6,0,0.8l0.3-0.1c0-0.3,0-0.5,0-0.7C310.1,69.4,310.1,69.1,310.1,68.8z"/>
			<path class="st2" d="M311.6,68.4c0.1-6.1-1.7-12.2-5.2-17.2c-1.9-3-4.1-5.8-6.5-8.5l-0.3,0.1c2.4,2.7,4.5,5.6,6.5,8.6
				c3.5,5,5.3,10.9,5.2,17c0,0.3,0,0.6,0,0.9c0,0.3,0,0.5,0,0.8l0.3-0.1c0-0.3,0-0.5,0-0.7C311.6,69,311.6,68.7,311.6,68.4z"/>
			<path class="st2" d="M315.9,67.3c0.1-6.2-1.7-12.2-5.2-17.2c-1.9-3-4.1-5.9-6.4-8.6H304c2.4,2.7,4.6,5.6,6.5,8.6
				c3.5,5,5.3,11,5.2,17.1c0,0.3,0,0.6,0,0.9s0,0.6,0,0.8l0.3-0.1c0-0.3,0-0.5,0-0.7C315.9,67.9,315.9,67.5,315.9,67.3z"/>
			<path class="st2" d="M284.3,75.9c0.1-6.1-1.7-12.2-5.2-17.2c-1.9-3-4.1-5.9-6.4-8.6l-0.3,0.1c2.4,2.7,4.6,5.6,6.5,8.7
				c3.5,5,5.3,11,5.2,17c0,0.3,0,0.6,0,0.9c0,0.3,0,0.6,0,0.8l0.3-0.1c0-0.3,0-0.5,0-0.7C284.3,76.5,284.3,76.2,284.3,75.9z"/>
			<path class="st2" d="M282.8,76.3c0.1-6.1-1.7-12.2-5.2-17.2c-1.9-3-4.1-5.9-6.4-8.6l-0.3,0.1c2.4,2.7,4.6,5.6,6.5,8.6
				c3.5,5,5.3,11,5.2,17c0,0.3,0,0.6,0,0.9s0,0.6,0,0.8l0.3-0.1c0-0.3,0-0.5,0-0.7C282.8,76.9,282.8,76.6,282.8,76.3z"/>
			<path class="st2" d="M285.7,75.5c0.1-6.1-1.7-12.2-5.2-17.2c-1.9-3-4.1-5.9-6.4-8.6l-0.3,0.1c2.4,2.7,4.5,5.6,6.5,8.6
				c3.5,5,5.3,11,5.2,17.1c0,0.3,0,0.6,0,0.9c0,0.3,0,0.5,0,0.8l0.3-0.1c0-0.3,0-0.5,0-0.7C285.7,76.1,285.7,75.8,285.7,75.5z"/>
			<path class="st2" d="M279.9,77.1c0.1-6.1-1.7-12.2-5.2-17.2c-1.9-3-4.1-5.9-6.4-8.6l-0.3,0.1c2.4,2.7,4.6,5.6,6.5,8.6
				c3.5,5,5.3,11,5.2,17.1c0,0.3,0,0.6,0,0.9s0,0.5,0,0.8l0.3-0.1c0-0.2,0-0.5,0-0.7C280,77.7,279.9,77.4,279.9,77.1z"/>
			<path class="st2" d="M297.2,72.4c0.1-6.1-1.7-12.2-5.2-17.2c-1.9-3-4.1-5.9-6.4-8.6l-0.3,0.1c2.4,2.7,4.5,5.6,6.5,8.6
				c3.5,5,5.3,11,5.2,17.1c0,0.3,0,0.6,0,0.9c0,0.3,0,0.6,0,0.8l0.3-0.1c0-0.3,0-0.5,0-0.7C297.2,73,297.2,72.6,297.2,72.4z"/>
			<path class="st2" d="M281.4,76.7c0.1-6.1-1.7-12.2-5.2-17.2c-1.9-3-4.1-5.9-6.4-8.6l-0.3,0.1c2.4,2.7,4.6,5.6,6.5,8.6
				c3.5,5,5.3,11,5.2,17.1c0,0.3,0,0.6,0,0.9s0,0.6,0,0.8l0.3-0.1c0-0.3,0-0.5,0-0.7C281.4,77.3,281.4,77,281.4,76.7z"/>
			<path class="st2" d="M287.1,75.1c0.1-6.1-1.7-12.2-5.2-17.2c-1.9-3-4.1-5.9-6.4-8.6l-0.3,0.1c2.4,2.7,4.5,5.6,6.5,8.7
				c3.5,5,5.3,11,5.2,17.1c0,0.3,0,0.6,0,0.9s0,0.6,0,0.8l0.3-0.1c0-0.3,0-0.5,0-0.7C287.2,75.9,287.1,75.4,287.1,75.1z"/>
			<path class="st2" d="M294.3,73.2c0.1-6.1-1.7-12.2-5.2-17.2c-1.9-3-4.1-5.9-6.4-8.6l-0.3,0.1c2.4,2.7,4.6,5.6,6.5,8.7
				c3.5,5,5.3,11,5.2,17c0,0.3,0,0.6,0,0.9s0,0.6,0,0.8l0.3-0.1c0-0.3,0-0.5,0-0.7C294.3,73.8,294.3,73.4,294.3,73.2z"/>
			<path class="st2" d="M295.8,72.8c0.1-6.1-1.7-12.2-5.2-17.2c-1.9-3-4.1-5.9-6.4-8.6l-0.3,0.1c2.4,2.7,4.6,5.6,6.5,8.7
				c3.5,5,5.3,11,5.2,17c0,0.3,0,0.6,0,0.9s0,0.5,0,0.8l0.3-0.1c0-0.2,0-0.5,0-0.7C295.9,73.5,295.8,73,295.8,72.8z"/>
			<path class="st2" d="M292.9,73.5c0.1-6.1-1.7-12.2-5.2-17.2c-1.9-3-4.1-5.9-6.4-8.6l-0.3,0.1c2.4,2.7,4.6,5.6,6.5,8.6
				c3.5,5,5.3,11,5.2,17.1c0,0.3,0,0.6,0,0.9s0,0.6,0,0.8l0.3-0.1c0-0.2,0-0.5,0-0.7C292.9,74.1,292.9,73.8,292.9,73.5z"/>
			<path class="st2" d="M288.6,74.7c0.1-6.2-1.7-12.2-5.2-17.2c-1.9-3-4.1-5.9-6.4-8.5l-0.3,0.1c2.4,2.7,4.6,5.6,6.5,8.6
				c3.5,5,5.3,11,5.1,17.1c0,0.3,0,0.6,0,0.9s0,0.5,0,0.8l0.3-0.1c0-0.3,0-0.5,0-0.7C288.6,75.3,288.6,75,288.6,74.7z"/>
			<path class="st2" d="M291.4,73.9c0.1-6.2-1.7-12.2-5.2-17.2c-1.9-3-4.1-5.9-6.4-8.6l-0.3,0.1c2.4,2.7,4.6,5.6,6.5,8.7
				c3.5,5,5.3,11,5.2,17.1c0,0.3,0,0.6,0,0.9s0,0.5,0,0.8l0.3-0.1c0-0.2,0-0.5,0-0.7C291.5,74.6,291.4,74.2,291.4,73.9z"/>
			<path class="st2" d="M290,74.3c0.1-6.2-1.7-12.2-5.2-17.2c-1.9-3-4.1-5.9-6.4-8.6l-0.3,0.1c2.4,2.7,4.6,5.6,6.5,8.6
				c3.5,5,5.3,11,5.2,17.1c0,0.3,0,0.6,0,0.9s0,0.5,0,0.8l0.3-0.1c0-0.3,0-0.5,0-0.7C290,74.9,290,74.6,290,74.3z"/>
			<path id="freepik--Shadow--inject-55" class="st14" d="M320.6,72L276,84.2l44.2-12.9C320.3,71.5,320.4,71.8,320.6,72z"/>
		</g>
	</g>
</g>
<g id="freepik--Folder--inject-55">
	<g id="freepik--Carpet--inject-55">
		<polygon class="st7" points="183,156.1 172.3,109.3 118.9,101 128.5,147.6 		"/>
		<polygon class="st12" points="183,156.1 172.3,109.3 118.9,101 128.5,147.6 		"/>
		<polygon class="st1" points="179.9,152.8 169.2,113.2 112.4,104.5 128.3,144.8 		"/>
		<path class="st13" d="M159.8,129.5c-6.3-5.2-11.1-11.8-14.1-19.4c-5.2-12.8-4-22.6-4-22.6l-51.8-7.4c-0.2,7.2,0.8,14.4,3.1,21.2
			c3.1,9.5,12,20.1,12,20.1L159.8,129.5z"/>
		<path class="st1" d="M159.8,129.5c-12.3-10-19.2-26.3-18.4-42c1.6,0.9-51.9-7.2-51.6-6.9l0.5-0.4c-0.2,7.5,0.9,14.9,3.3,22
			c2.6,7,7,13.2,11.6,19C104.2,120.8,160.1,129.6,159.8,129.5L159.8,129.5z M159.8,129.5c-0.2-0.1-55-7.7-55.1-8
			c-4.7-5.9-9.1-12.1-11.8-19.2c-2.6-7.3-3.7-15-3.4-22.7l0.5,0.1c0.3,0.1,51.8,7.5,52,7.6C141.1,102.8,147.7,119.3,159.8,129.5
			L159.8,129.5z"/>
		<polygon class="st7" points="103.9,109.4 128.5,147.6 183,156.1 160.1,120.4 126.3,116.1 122.5,112.9 		"/>
	</g>
</g>
<g id="freepik--Lines--inject-55">
	<g id="freepik--lines--inject-55">
		<path class="st6" d="M253.3,448.2l-3.1,0.1c-0.5,0-1,0-1.6,0H247l-3.1-0.1c-1-0.1-2.1-0.2-3.1-0.2c-2.1-0.1-4.1-0.5-6.2-0.8
			c-4.1-0.7-8.1-1.8-12-3.1c-3.9-1.4-7.7-3.1-11.3-5.2c-7.2-4.1-13.8-9.4-19.4-15.5c-2.8-3.1-5.4-6.3-7.8-9.8
			c-2.4-3.4-4.5-7-6.3-10.8c3.4,7.7,8,14.8,13.6,21.1c5.6,6.3,12.1,11.7,19.4,15.9c3.7,2.1,7.5,3.8,11.5,5.2l3,1c1,0.3,2,0.5,3,0.8
			l1.5,0.4l1.5,0.3c1,0.2,2.1,0.4,3.1,0.5c2.1,0.2,4.2,0.6,6.3,0.6l3.1,0.2h3.1h1.6c0.5,0,1.1-0.1,1.6-0.1l3.1-0.2
			c2.1-0.2,4.2-0.5,6.2-0.8l-3.1,0.3C255.4,448.1,254.4,448.2,253.3,448.2z"/>
		<path class="st6" d="M240.9,457.3c-5.6,0.3-11.1,0.1-16.6-0.7c-5.5-0.8-10.9-2.2-16-4.4c-0.6-0.2-1.3-0.5-1.9-0.9l-1.9-0.9
			c-0.6-0.3-1.2-0.7-1.8-1s-1.2-0.7-1.8-1.1c-2.4-1.5-4.6-3.2-6.6-5.1c0.9,1,1.9,2,3,2.9c0.5,0.4,1,0.9,1.6,1.4l1.7,1.2
			c0.6,0.4,1.2,0.8,1.8,1.2c0.6,0.4,1.2,0.8,1.8,1.1l1.9,1c0.6,0.3,1.3,0.7,1.9,0.9c5.2,2.3,10.6,3.9,16.2,4.7
			c5.6,0.8,11.2,1,16.9,0.5c2.8-0.3,5.6-0.6,8.4-1.2c2.8-0.6,5.5-1.2,8.2-1.9c-2.8,0.5-5.5,1.2-8.3,1.4
			C246.4,456.7,243.7,457.1,240.9,457.3z"/>
		<path class="st6" d="M200.2,98.3c0.7-0.9,1.6-1.7,2.4-2.5c0.4-0.4,0.8-0.8,1.3-1.2c0.4-0.4,0.8-0.8,1.3-1.1
			c3.5-2.9,7.5-5.2,11.8-6.8c4.2-1.7,8.7-2.8,13.2-3.3c2.3-0.3,4.5-0.5,6.8-0.6s4.6,0,6.9,0.1c-4.6-0.7-9.2-0.8-13.8-0.3
			s-9.1,1.5-13.5,3.2c-4.3,1.7-8.3,4.1-11.9,7.1c-3.5,3-6.4,6.7-8.6,10.7C197.3,101.9,198.7,100,200.2,98.3z"/>
		<path class="st6" d="M221,95c-2.7,1.4-5.2,3.1-7.5,5c-1.1,1-2.2,2-3.2,3.2c-0.5,0.6-1,1.2-1.4,1.8c-0.4,0.6-0.8,1.3-1.2,1.9
			c0.5-0.6,1-1.2,1.4-1.7c0.5-0.6,1-1.1,1.5-1.6c1-1.1,2.2-2,3.3-2.9c2.4-1.8,4.9-3.4,7.5-4.7c2.6-1.4,5.4-2.6,8.2-3.5
			c1.4-0.5,2.8-0.9,4.3-1.2c1.4-0.4,2.9-0.6,4.4-0.8c-3,0-6,0.5-8.9,1.4C226.6,92.5,223.7,93.6,221,95z"/>
	</g>
</g>
<g>
	<path class="st7" d="M167.2,264.7l-23.3,45.2c-1.4,2.4-3.9,4.1-6.8,4.3l-5.5,0.3c-2,0-3.8-0.7-5.4-1.9c-0.6-0.5-1.3-1.1-1.7-1.7
		l0,0l-0.2-0.2l-35.2-54.8c-2.6-4-2.8-9.1-0.7-13.3l21.9-42.5c0.7-1.1,1.7-1.7,2.9-1.8l10.8-0.5c1.1,0,2.4,0.7,3,1.6l40,62
		c0.3,0.5,0.6,1.1,0.5,1.7C167.6,263.5,167.5,264.2,167.2,264.7z"/>
	<path class="st16" d="M152,266.3c0.7-1.6,0.7-3.5-0.2-5.1L114,202.5c-1.5-2.3-3.7-2.2-5,0.3l-20.5,39.8c-2.2,4.3-1.9,9.2,0.7,13.3
		l35.2,54.8c1.5,2.3,3.7,2.2,5-0.3L152,266.3z"/>
	<path class="st17" d="M102.9,214.7c-1.4,3.3-1.3,6.9,0.4,9.9l35.9,55.8c1.8,2.6,4.3,2.5,5.7-0.3l7.8-15.1c0.5-0.9,1.3-1.5,2.3-1.5
		l10.2-0.4l-40.9-65.4l-11.2,0.5c-1,0-1.9,0.6-2.3,1.5L102.9,214.7z"/>
	<path class="st7" d="M124.1,197.6l-11.2,0.5c-0.5,0.1-1,0.2-1.4,0.5l42.1,65.3c0.4-0.2,0.9-0.4,1.4-0.4l10.2-0.4L124.1,197.6z"/>
	<path class="st10" d="M120.2,244.8l5.6,8.7c0.9,1.6,1,3.3,0.3,5l-0.9,1.8c-0.7,1.3-2.1,1.5-2.8,0.1l-5.6-8.7c-0.9-1.5-1-3.3-0.3-5
		l0.9-1.8C118,243.5,119.3,243.5,120.2,244.8z"/>
	<path class="st5" d="M139.5,215.5l-3.2,6.3l-4.7,0.3l4.9-9.5c0.2-0.4,0.7-0.5,1,0L139.5,215.5z"/>
	<path class="st6" d="M155.2,232l-6,11.7l-3.5,0.2l-1.3-1.9l4.9-9.5c0.3-0.6,0.2-1.2-0.1-1.8l-9.7-15.1l-1.9-3.1
		c-0.3-0.5-0.8-0.4-1,0l-4.9,9.5l-1.3-1.9l6-11.7l0.1-0.1c0.3-0.4,0.8-0.7,1.4-0.8l1.5-0.1c0.6,0,1.1,0.3,1.6,0.8l14.2,22.1
		C155.3,230.7,155.4,231.4,155.2,232z"/>
	<path class="st10" d="M151.6,232.1l-6,11.7l-1.3-1.9l4.9-9.5c0.3-0.6,0.2-1.2-0.1-1.8l-9.6-15l-1.9-3.1c-0.3-0.5-0.8-0.4-1,0
		l-4.9,9.5l-1.3-1.9l6-11.7l0.1-0.1c0.3-0.3,0.6-0.4,1,0.1l14.2,22.1C151.8,230.9,151.9,231.5,151.6,232.1z"/>
</g>
<path class="st6" d="M389.4,158l-0.4-0.2c0,0-14-7.8-16.4-7.8s-0.4,3.8-2.2,3.8c-1.8,0-1.9-6.9,0.8-6.9s19.9,9.1,19.9,9.1l0.2,0.1
	L389.4,158z"/>
<path class="st6" d="M371.2,135.4l-0.4-0.2c0,0-14-7.8-16.4-7.8s-0.4,3.8-2.2,3.8c-1.8,0-1.9-6.9,0.8-6.9c2.7,0,19.9,9.1,19.9,9.1
	l0.2,0.1L371.2,135.4z"/>
<path class="st6" d="M392,156.1c-1.5-2.6-3.5-4.9-5.9-6.8c-2.3-1.6-3.5-1.7-4.5-2.8c-0.9-1.2-0.9-2.5-2-5.2c-1.5-2.6-3.4-5-5.6-7.1
	c-0.6-0.8-1.6-1.3-2.4-0.5s-0.5,1.6-1.2,2.4c-2.4,2.5-5.2,5.7-2.5,9.3c5.3,7.4,10.4-0.3,12.1,2.6c0.5,1.1-1.4,2.4-2.3,4
	c-0.4,0.7-0.6,1.3-0.7,2c-0.6,4.2,4.3,7.6,7.3,6.3c1.7-0.4,3.5-2,5.1-2.2C390.3,158.3,392.5,157.4,392,156.1z M375.6,146.8
	c-0.8,0.4-1.8,0.7-2.8,0.6c-1.4-0.1-2.7-0.9-3.5-2.1c-1.4-1.4-1.6-3.6-0.5-5.2c0.1-0.2,0.2-0.4,0.3-0.5c0.8-1.2,2.9-3.5,4.1-3.4
	c2,0.2,6,5.3,5.5,8.2C378.3,145.4,376.9,146.3,375.6,146.8z M387.9,152.6c2.6,3.3,1.9,4-1.8,6c-1.4,0.9-3.2,1-4.7,0.5
	c-2.6-1.1-3.7-4.7-2.1-6.6C382.1,148.2,384.2,149,387.9,152.6L387.9,152.6z"/>
</svg>
