<?xml version="1.0" encoding="utf-8"?>
<!-- Generator: Adobe Illustrator 27.0.0, SVG Export Plug-In . SVG Version: 6.00 Build 0)  -->
<svg version="1.1" id="Layer_1" xmlns="http://www.w3.org/2000/svg" xmlns:xlink="http://www.w3.org/1999/xlink" x="0px" y="0px"
	 viewBox="0 0 750 500" style="enable-background:new 0 0 750 500;" xml:space="preserve">
<style type="text/css">
	.st0{fill:#EBEBEB;}
	.st1{fill:#F0F0F0;}
	.st2{fill:#E0E0E0;}
	.st3{fill:#003366;}
	.st4{fill:#263238;}
	.st5{fill:#455A64;}
	.st6{fill:#37474F;}
	.st7{fill:#DBDBDB;}
	.st8{fill:#C7C7C7;}
	.st9{fill:#1A2930;}
	.st10{fill:#FFFFFF;}
	.st11{fill:#EC4D33;}
	.st12{fill:#E8F0FE;}
</style>
<g id="freepik--background-complete--inject-67">
	<g id="freepik--background-complete--inject-4">
		<rect x="451.2" y="431.9" class="st0" width="40.6" height="0.3"/>
		<rect x="335.7" y="435.2" class="st0" width="10.7" height="0.3"/>
		<rect x="426.5" y="420.5" class="st0" width="23.5" height="0.3"/>
		<rect x="68.4" y="422.5" class="st0" width="7.8" height="0.3"/>
		<rect x="101.4" y="427.7" class="st0" width="114.9" height="0.3"/>
		<path class="st0" d="M270.6,357.4H33.8c-3.9,0-7-3.1-7-7V17.6c0-3.8,3.2-6.9,7-6.9h236.8c3.9,0,7,3.1,7,7l0,0v332.8
			C277.6,354.3,274.5,357.4,270.6,357.4z M33.8,10.9c-3.7,0-6.7,3-6.7,6.7v332.8c0,3.7,3,6.7,6.7,6.7h236.8c3.7,0,6.7-3,6.7-6.7
			V17.6c0-3.7-3-6.7-6.7-6.7C270.6,10.9,33.8,10.9,33.8,10.9z"/>
		<path class="st0" d="M720.5,357.4H483.7c-3.9,0-7-3.1-7-7V17.6c0-3.8,3.2-6.9,7-6.9h236.8c3.8,0,6.9,3.1,7,6.9v332.8
			C727.4,354.3,724.3,357.4,720.5,357.4z M483.7,10.9c-3.7,0-6.7,3-6.7,6.7v332.8c0,3.7,3,6.7,6.7,6.7h236.8c3.7,0,6.7-3,6.7-6.7
			V17.6c0-3.7-3-6.7-6.7-6.7C720.5,10.9,483.7,10.9,483.7,10.9z"/>
		<rect x="627.1" y="23.9" class="st1" width="80.1" height="15.6"/>
		<rect x="632.9" y="39.5" class="st2" width="68.5" height="8"/>
		<rect x="640" y="47.5" class="st1" width="54.2" height="356.6"/>
		<rect x="646.6" y="47.5" class="st2" width="41" height="356.6"/>
		<rect x="658.8" y="47.5" class="st1" width="16.7" height="356.6"/>
		<rect x="370.5" y="412.1" class="st1" width="80.1" height="15.6"/>
		<rect x="376.3" y="404.1" class="st2" width="68.5" height="8"/>
		<rect x="42.9" y="23.9" class="st1" width="80.1" height="15.6"/>
		<rect x="48.7" y="39.5" class="st2" width="68.5" height="8"/>
		<rect x="55.8" y="47.5" class="st1" width="54.2" height="356.6"/>
		<rect x="62.5" y="47.5" class="st2" width="41" height="356.6"/>
		<rect x="74.6" y="47.5" class="st1" width="16.7" height="356.6"/>
		<rect x="42.9" y="412.1" class="st1" width="80.1" height="15.6"/>
		<rect x="48.7" y="404.1" class="st2" width="68.5" height="8"/>
	</g>
</g>
<g id="freepik--Plant--inject-67">
	<path class="st3" d="M128.9,286.6c-23.4,31.6-47.7,68.3-53.7,108c-0.1,0.6,0.9,0.8,1,0.2c2.7-10.8,6.1-21.4,10.3-31.8
		c15.4-4.2,30.4-7.7,38.5-22.9c8.2-15.7,7.2-36.1,5.6-53.2C130.6,286.1,129.4,286,128.9,286.6z"/>
	<path class="st4" d="M86.9,362.8c10.5-23.5,24-47.2,41.1-66.5c0.1-0.1,0.3,0,0.2,0.2c-11.2,13.8-19.7,28.8-28,44.1
		c7.7-7.9,16.2-14.9,23.5-23.2c0.1-0.2,0.4,0.1,0.2,0.2c-7.3,8.7-15.2,18.2-24.7,24.7c-2.5,4.7-5.1,9.4-7.7,14.1
		c0.6-0.4,1.3-0.7,2-1c0.1,0,0.2,0.1,0.1,0.2c-0.7,0.4-1.4,0.8-2.2,1.1c-1.2,2.2-2.4,4.5-3.7,6.7C87.3,363.7,86.7,363.3,86.9,362.8z
		"/>
	<path class="st4" d="M94.7,354.6c6.3-3.5,12.3-7.5,17.9-12c0.2-0.1,0.4,0.1,0.2,0.2c-5.5,4.8-11.5,8.9-17.9,12.2
		C94.7,355.1,94.4,354.7,94.7,354.6z"/>
	<path class="st3" d="M72.6,388.7c0,0.5,0.9,0.5,0.8,0c0.1-13.1,0-26.2,0.2-39.3c3.3-6.8,10.5-10.5,15.5-15.9c3.6-4,6.7-8.3,9.3-13
		c6.2-11,9.5-23.5,10.8-36c1.4-14-3.9-60.1-9.8-58.5c-3,0.8-12.9,23.7-15.6,31.2c-4.3,12.5-7.4,25.3-9.3,38.3
		C69.8,326.2,70.2,357.8,72.6,388.7z"/>
	<path class="st4" d="M72.5,332.4L72.5,332.4c0.8-16.6,4.5-33.3,8-49.3c3.8-17.3,8.2-33.5,17-48.9c0.1-0.1,0.2-0.2,0.4-0.1
		c0.1,0.1,0.2,0.2,0.1,0.3c-6,12-10.6,24.6-13.8,37.6c0.6-0.9,1.3-1.8,1.9-2.7c0.2-0.4,0.8,0,0.6,0.3c-0.8,1.4-1.7,2.7-2.8,3.9
		l-0.1,0.1c-3.1,12.3-5.2,25-7.1,37.6c0.1-0.2,0.3-0.3,0.4-0.5c0.1,0,0.1,0,0.2,0v0.1c-0.2,0.4-0.5,0.8-0.8,1.2
		c-1,6.4-1.8,12.8-2.7,19.1c11.4-9.7,21.1-21.2,26.6-35.3c0,0,0,0,0.1,0l0,0c-5.4,14.6-13.8,27.7-26.9,36.6l-0.7,5.1
		c0,0.4-0.6,0.3-0.6-0.1c0-1.5,0.1-3,0.1-4.5C72.4,332.8,72.3,332.6,72.5,332.4L72.5,332.4z"/>
	<path class="st4" d="M77.9,308.4c8.7-13,16.8-25.6,23.2-39.9c0.1-0.2,0.3,0,0.3,0.1c-5.4,14.3-12.9,28.7-23,40.2
		C78.1,309,77.7,308.7,77.9,308.4z"/>
	<path class="st4" d="M89.4,265.3c3.6-6.4,7.4-12.6,10.8-19.1c0.1-0.2,0.3,0,0.3,0.1c-2.8,6.8-6.3,13.2-10.5,19.3
		C89.7,265.9,89.2,265.6,89.4,265.3z"/>
	<path class="st4" d="M88,268.1C88,268.1,88.1,268.1,88,268.1c0,0.1,0,0.1,0,0.1V268.1L88,268.1z"/>
	<path class="st3" d="M63.7,351c-0.2,8.7-1.2,17.3-3,25.7c0.1,0.9,0.3,1.9,0.4,2.8c2.7-9.3,4.2-19,4.6-28.7c0.2-0.3,0.2-0.6,0-0.9
		l0,0c0.4-13-0.5-26.1-2.8-38.9c-4-24-12.9-47-29.6-65.1c-0.5-0.4-1.3-0.4-1.7,0.1c-0.1,0.1-0.1,0.2-0.2,0.2
		c-6.8,17.2-4.4,37.7,1.4,54.8c3.1,9.3,7.6,18,13.3,26C51.8,335.3,59.1,342.1,63.7,351z"/>
	<path class="st4" d="M35.2,254c15.9,25.8,26.9,56.3,28.3,86.7c0,0.5-0.9,0.7-1,0.1c-0.4-2.7-0.8-5.4-1.2-8.1l0,0
		c-6.6-6.3-13.3-12.9-18-20.8c-0.1-0.1,0.1-0.3,0.2-0.2c5.7,6.5,11,13.2,17.5,19c-1.1-6.7-2.5-13.4-4.1-19.9c-0.4-0.5-0.8-1-1.3-1.5
		c-0.3-0.3,0.2-0.8,0.5-0.5l0.4,0.4c-2.2-8.9-5-17.7-8.3-26.3c-4-4.8-8.6-9-11.5-14.8c0-0.1,0-0.1,0-0.2c0.1,0,0.1,0,0.2,0l0,0
		c2.3,3.4,4.7,6.6,7.3,9.7c1.1,1.2,2.2,2.4,3.3,3.6c-3.7-9.3-8-18.4-13-27.1c-0.1-0.2,0-0.4,0.1-0.5C34.9,253.8,35.1,253.9,35.2,254
		z"/>
	<path class="st4" d="M38.4,285.8c5.1,6.9,11,13.5,15.7,20.6c0.1,0.2-0.2,0.4-0.3,0.2c-6.1-5.7-11.3-13.6-15.8-20.7
		C37.9,285.8,38.3,285.6,38.4,285.8z"/>
	<path class="st4" d="M54.9,308l0.2,0.2c0.2,0.1-0.1,0.4-0.2,0.2l-0.2-0.2C54.5,308.1,54.7,307.8,54.9,308z"/>
	<path class="st3" d="M10.3,303.5c1.3,13.2,8.2,29.1,16.7,39.3c3.7,4.4,8.4,8,13.6,10.6c5.9,2.9,12,6.3,18.1,8.6
		c2.9,7.4,5,15,6.4,22.8c0.2-0.7,0.4-1.4,0.6-2c-3.9-33.5-25.6-62.2-53.4-80.6c-0.6-0.4-1.5-0.2-1.9,0.4
		C10.4,302.9,10.3,303.2,10.3,303.5z"/>
	<path class="st4" d="M19.9,313.5c-0.2-0.2,0.1-0.5,0.3-0.4c14.7,10.9,28,26.8,35.4,43.6c0.2,0.5-0.4,0.9-0.7,0.4
		c-1.3-2.3-2.6-4.5-4-6.6l0,0c-6.3-1.2-12.3-5.6-17-9.9c-0.1-0.1,0.1-0.3,0.2-0.2c2.4,2.2,5.1,4.1,8,5.6c2.6,1.3,5.4,2.1,8.1,3.2
		c-2.3-3.7-4.8-7.3-7.3-10.8c-6.8-2.3-13.3-6.5-19-10.7c-0.2-0.1,0-0.4,0.2-0.3c5.7,3.5,11.6,6.6,17.7,9.5c-3.9-5.1-8-10-12.5-14.6
		c-2.2-1.1-4.3-2.3-6.4-3.5c-0.2-0.1,0-0.4,0.1-0.3c1.7,0.6,3.4,1.4,4.9,2.4C25.3,318.4,22.7,315.9,19.9,313.5z"/>
	<path class="st4" d="M20.5,325c0.4,0.2,0.7,0.5,1.1,0.8c0.1,0.1,0,0.2-0.1,0.2c-0.4-0.2-0.8-0.4-1.1-0.6
		C20.2,325.2,20.3,324.9,20.5,325z"/>
	<polygon class="st5" points="41,372.9 101.2,372.9 95.3,435 46.9,435 	"/>
	<polygon class="st6" points="42.1,384.9 41,372.9 101.2,372.9 100.5,380.6 	"/>
	<rect x="36.9" y="362.3" class="st5" width="68.4" height="15.1"/>
</g>
<g id="freepik--Device--inject-67">
	<rect x="143.2" y="41.9" class="st7" width="463.5" height="310"/>
	<rect x="146.6" y="45.7" class="st4" width="456.8" height="302.5"/>
	<rect x="82.9" y="424" class="st8" width="584.2" height="21.5"/>
	<polygon class="st7" points="82.9,424 143.2,352 606.8,352 667.1,424 	"/>
	<polygon class="st4" points="606.7,384.6 145,384.6 168.7,352 583.1,352 	"/>
	<polygon class="st6" points="598.5,373.2 153.3,373.2 154.2,371.9 597.5,371.9 	"/>
	<polygon class="st6" points="589.8,361.3 161.9,361.3 162.9,360 588.8,360 	"/>
	<polygon class="st4" points="303.5,415.9 318.5,392.9 432.2,392.9 448.2,415.9 	"/>
	<polygon class="st7" points="417.9,432.6 333.9,432.6 331.8,424 419.9,424 	"/>
	<rect x="171.5" y="68.7" class="st7" width="406.4" height="257"/>
	<rect x="172.1" y="68.7" class="st9" width="405.8" height="57.4"/>
	<rect x="172.1" y="68.7" class="st10" width="33.8" height="257"/>
	<rect x="172.1" y="68.7" class="st11" width="33.8" height="33.8"/>
	<path class="st7" d="M192.4,131.7h-6.9c-2.4,0-4.3-1.9-4.3-4.3v-6.9c0-2.4,1.9-4.3,4.3-4.3h6.9c2.4,0,4.3,1.9,4.3,4.3v6.9
		C196.7,129.8,194.8,131.7,192.4,131.7z"/>
	<path class="st10" d="M339.6,112.8H230.6c-2.1,0-3.9-1.7-3.9-3.9v0c0-2.1,1.7-3.9,3.9-3.9h109.1c2.1,0,3.9,1.7,3.9,3.9v0
		C343.5,111.1,341.8,112.8,339.6,112.8z"/>
	<path class="st10" d="M269.8,89.4h-41.4c-0.9,0-1.7-0.8-1.7-1.7v-0.5c0-0.9,0.8-1.7,1.7-1.7h41.4c0.9,0,1.7,0.8,1.7,1.7v0.5
		C271.5,88.7,270.7,89.4,269.8,89.4z"/>
	<path class="st7" d="M192.4,165.2h-6.9c-2.4,0-4.3-1.9-4.3-4.3V154c0-2.4,1.9-4.3,4.3-4.3h6.9c2.4,0,4.3,1.9,4.3,4.3v6.9
		C196.7,163.3,194.8,165.2,192.4,165.2z"/>
	<path class="st12" d="M467.2,177.6H316.6c-4,0-7.3-3.3-7.3-7.3v-4.8c0-4,3.3-7.3,7.3-7.3h150.6c4,0,7.3,3.3,7.3,7.3v4.8
		C474.5,174.3,471.2,177.6,467.2,177.6z"/>
	<path class="st12" d="M467.2,209.6H316.6c-4,0-7.3-3.3-7.3-7.3v-4.8c0-4,3.3-7.3,7.3-7.3h150.6c4,0,7.3,3.3,7.3,7.3v4.8
		C474.5,206.4,471.2,209.6,467.2,209.6z"/>
	<path class="st11" d="M340.6,236.2H316c-3.7,0-6.7-3-6.7-6.7v-2.1c0-3.7,3-6.7,6.7-6.7h24.6c3.7,0,6.7,3,6.7,6.7v2.1
		C347.3,233.2,344.3,236.2,340.6,236.2z"/>
	<circle class="st4" cx="322.8" cy="167.9" r="2.7"/>
	<circle class="st4" cx="332.8" cy="167.9" r="2.7"/>
	<circle class="st4" cx="342.8" cy="167.9" r="2.7"/>
	<circle class="st4" cx="352.7" cy="167.9" r="2.7"/>
	<circle class="st4" cx="362.7" cy="167.9" r="2.7"/>
	<circle class="st4" cx="372.6" cy="167.9" r="2.7"/>
	<circle class="st4" cx="322.8" cy="199.9" r="2.7"/>
	<circle class="st4" cx="332.8" cy="199.9" r="2.7"/>
	<circle class="st4" cx="342.8" cy="199.9" r="2.7"/>
	<circle class="st4" cx="352.7" cy="199.9" r="2.7"/>
	<circle class="st4" cx="362.7" cy="199.9" r="2.7"/>
	<circle class="st4" cx="372.6" cy="199.9" r="2.7"/>
</g>
<g id="freepik--u5Zjqx--inject-2">
	<path class="st10" d="M475.5,41.5l-0.3,0.3l-0.1,0.2c-1.4-1.4-3.7-1.4-5.1,0l-0.1-0.1l-0.3-0.3l0,0l0,0c0.1-0.1,0.2-0.2,0.3-0.3
		c0.5-0.4,1.2-0.7,1.8-0.8c0.2,0,0.3,0,0.5-0.1s0.4,0,0.4,0h0.4c0.3,0,0.6,0.1,0.9,0.2c0.2,0.1,0.4,0.2,0.6,0.3s0.4,0.3,0.6,0.4
		L475.5,41.5L475.5,41.5z"/>
	<path class="st10" d="M470.8,42.7l-0.4-0.4c0.5-0.5,1.1-0.8,1.7-0.9c0.9-0.1,1.9,0.2,2.6,0.9l-0.4,0.4
		C473.3,41.7,471.8,41.7,470.8,42.7L470.8,42.7z"/>
	<path class="st10" d="M473.9,43.1l-0.4,0.4c-0.2-0.2-0.6-0.4-0.9-0.4s-0.7,0.1-0.9,0.4l-0.4-0.4C471.9,42.4,473.1,42.4,473.9,43.1
		C473.8,43.1,473.8,43.1,473.9,43.1z"/>
	<path class="st10" d="M472.9,43.9c0,0.2-0.2,0.4-0.4,0.4c-0.2,0-0.4-0.2-0.4-0.4s0.2-0.4,0.4-0.4l0,0
		C472.8,43.6,472.9,43.7,472.9,43.9z"/>
</g>
<path class="st10" d="M449.6,42.3c0-0.6,0.5-1.1,1.1-1.1s1.1,0.5,1.1,1.1s-0.5,1.1-1.1,1.1C450.1,43.4,449.6,42.9,449.6,42.3
	L449.6,42.3z"/>
<path class="st10" d="M453,42.3c0-0.6,0.5-1.1,1.1-1.1s1.1,0.5,1.1,1.1s-0.5,1.1-1.1,1.1l0,0C453.5,43.4,453,42.9,453,42.3L453,42.3
	z"/>
<path class="st10" d="M456.5,42.3c0-0.6,0.5-1.1,1.1-1.1s1.1,0.5,1.1,1.1s-0.5,1.1-1.1,1.1S456.5,42.9,456.5,42.3L456.5,42.3z"/>
<path class="st10" d="M459.9,42.3c0-0.6,0.5-1.1,1.1-1.1s1.1,0.5,1.1,1.1s-0.5,1.1-1.1,1.1C460.4,43.4,459.9,42.9,459.9,42.3
	L459.9,42.3z"/>
<path class="st10" d="M463.4,42.3c0-0.6,0.5-1.1,1.1-1.1s1.1,0.5,1.1,1.1s-0.5,1.1-1.1,1.1l0,0C463.9,43.4,463.4,42.9,463.4,42.3
	L463.4,42.3z"/>
<path class="st10" d="M591.9,44.7H583v-4.1h8.9V44.7z M583.4,44.2h8V41h-8V44.2z"/>
<rect x="583.7" y="41.2" class="st10" width="5.8" height="2.7"/>
<rect x="591.9" y="41.5" class="st10" width="0.8" height="2.2"/>
<path class="st10" d="M530.2,38.6h-17.4c-0.6,0-1.1-0.5-1.1-1.1l0,0c0-0.6,0.5-1.1,1.1-1.1h17.4c0.6,0,1.1,0.5,1.1,1.1l0,0
	C531.3,38.1,530.8,38.6,530.2,38.6L530.2,38.6z"/>
<image style="overflow:visible;" width="2543" height="1297" xlink:href="F677660D.jpg"  transform="matrix(1 0 0 1 829.4787 -293.4841)">
</image>
</svg>
