<?xml version="1.0" encoding="utf-8"?>
<!-- Generator: Adobe Illustrator 26.0.3, SVG Export Plug-In . SVG Version: 6.00 Build 0)  -->
<svg version="1.1" id="Layer_1" xmlns="http://www.w3.org/2000/svg" xmlns:xlink="http://www.w3.org/1999/xlink" x="0px" y="0px"
	 viewBox="0 0 250 251.3" style="enable-background:new 0 0 250 251.3;" xml:space="preserve">
<style type="text/css">
	.st0{fill:#263238;}
	.st1{fill:#C8856A;}
	.st2{fill:#AF6152;}
	.st3{fill:#FFA8A7;}
</style>
<g>
	<path class="st0" d="M246.4,169.1c-2-4.7-4.8-9-8.3-12.6c-9.2-9.5-21.1-13.7-28.8-24.8c-4.1-5.9-8.1-18.6-4.4-25.4
		c1.3-2.9,3.4-5.5,5.9-7.5c13.5-9.5,20.3-25.9,17.5-42.1C219-4.3,130.2-11.2,87.7,13C70.3,23,54.9,38.4,56.9,60.1
		c-16.7,4.4-27.6,21.6-30.3,38.7s0.8,34.5,3.7,51.6c1,5.2,1.1,10.5,0.4,15.8c-1.4,8.6-6.7,13.4-12.2,20.2S6.7,199.5,4,207.9
		c-38.6,36.7,213,67.5,226.4,16.1c12.1-4.9,18.2-22.2,19.5-34.4C250.4,182.6,249.2,175.5,246.4,169.1z"/>
	<g id="freepik--Head--inject-95">
		<path class="st1" d="M90.7,213.9c0-15.6-0.8-52.8-0.8-52.8c-2.5,4.4-17.2,12-31.8-0.7c-11.5-10.4-13.4-27.8-4.3-40.4
			c8.9-11.1,23.4-10.5,32.9,4.1c9.9,1.1,14.1-7.6,6.8-26.7c-2.3-22.2,20.7-24.3,28.1-54.5c30.6,11.1,55.6-4.5,76.8,14.6
			c5.2,10.3,11.8,27,13.6,57.3c2.3,39.2-3.7,55.3-13.1,65.4c-6,6.4-16.5,11.1-31.8,11.9c0,0,0,6.6,0,11.3c0,4.7,3,7.2,5.9,6.4
			c7.8,8.2,30,32.7-9.6,39.5c-51,8.8-80.9-12.7-86.6-18.5C88.3,226.9,90.8,221.6,90.7,213.9z"/>
		<path class="st2" d="M167,192c-27.5,1.1-51.7-5.9-65.2-24c2.7,8.2,7.8,15.4,14.6,20.6c20.4,13.9,50.6,10.7,50.6,10.7L167,192z"/>
		<path class="st2" d="M173.7,152.6l-27-7.1c-2.2,7,1.6,14.5,8.6,16.7c0.2,0.1,0.5,0.2,0.7,0.2C163.6,164.3,171.3,160,173.7,152.6z"
			/>
		<path class="st3" d="M162.1,162.6c-2,0.4-4.1,0.3-6-0.2c-5-1.3-8.7-5.3-9.7-10.4C153.3,151.8,159.7,156.1,162.1,162.6z"/>
		<path class="st0" d="M130.9,106.8c0.4,4.2,4.2,7.2,8.3,6.8c4.2-0.4,7.2-4.2,6.8-8.3c-0.4-4.1-4.1-7.2-8.3-6.8
			C133.6,98.8,130.5,102.5,130.9,106.8C130.9,106.7,130.9,106.8,130.9,106.8z"/>
		<path class="st0" d="M184.5,101.8c0.4,4.2,4.2,7.2,8.3,6.8c4.2-0.4,7.2-4.2,6.8-8.3c-0.4-4.1-4.1-7.2-8.3-6.8
			C187.2,93.9,184.1,97.6,184.5,101.8C184.5,101.8,184.5,101.8,184.5,101.8z"/>
		<polygon class="st2" points="160.1,91.3 169,141.5 192.2,129.7 		"/>
		<path class="st0" d="M200.7,88.3l-17.4-6c1.4-4.7,6.4-7.4,11.1-5.9c0.1,0,0.2,0.1,0.3,0.1C199.5,78.2,202.1,83.4,200.7,88.3z"/>
		<path class="st0" d="M122.1,96.3l16.3-9c-2.2-4.4-7.6-6.2-12-4c-0.1,0.1-0.3,0.1-0.4,0.2C121.5,86,119.8,91.6,122.1,96.3z"/>
		<path class="st2" d="M139.3,125.6c0.2,6.5-6.8,12-15.7,12.2c-8.8,0.3-16.1-4.8-16.3-11.1c-0.2-6.4,6.8-12,15.6-12.2
			C131.8,114.2,139.1,119.1,139.3,125.6z"/>
		<path class="st2" d="M226.2,120.6c-0.7,6.4-8.3,10.9-17.2,10c-8.8-0.9-15.3-6.9-14.6-13.4c0.7-6.4,8.3-10.9,17.2-9.9
			C220.4,108.2,226.9,114.2,226.2,120.6z"/>
	</g>
</g>
</svg>
