<?xml version="1.0" encoding="utf-8"?>
<!-- Generator: Adobe Illustrator 26.3.0, SVG Export Plug-In . SVG Version: 6.00 Build 0)  -->
<svg version="1.1" id="Layer_1" xmlns="http://www.w3.org/2000/svg" xmlns:xlink="http://www.w3.org/1999/xlink" x="0px" y="0px"
	 viewBox="0 0 200 194" style="enable-background:new 0 0 200 194;" xml:space="preserve">
<style type="text/css">
	.st0{fill:#FFFFFF;}
	.st1{fill:#263238;}
	.st2{fill:#FFB573;}
	.st3{fill:#407BFF;}
	.st4{opacity:0.2;enable-background:new    ;}
	.st5{fill:#ED893E;}
</style>
<g>
	<path class="st0" d="M170.1,94.6c0,40-32.1,72.5-72,73.1H97c-0.7,0-1.4,0-2.1,0c-2.1-0.1-4.1-0.2-6.1-0.4c-1.5-0.2-3-0.4-4.6-0.6
		c-7.3-1.3-14.3-3.7-20.9-7.1c-1.7-0.9-3.3-1.8-4.9-2.8c-1.2-0.8-2.5-1.6-3.7-2.4l0,0c-1-0.7-1.9-1.4-2.8-2.1
		C20.1,127.2,14.6,81.2,39.5,49.5c24.9-31.7,70.9-37.3,102.6-12.4C159.8,51,170.1,72.2,170.1,94.6L170.1,94.6z"/>
	<path class="st1" d="M103.8,48.5c-10.2-11.8-28.7-5.7-30.3,2.3c-29.3,14.6,9,38.4,21.8,72.3c18.5,4,35.9-10.9,44.7-31.6
		C106.5,91.6,114,60.4,103.8,48.5z"/>
	<path class="st2" d="M111.8,101.7c0.1,0.4,0.3,1,0.5,1.6l0.6,1.7c0.4,1.1,0.9,2.2,1.4,3.3c1,2.2,2,4.3,3.2,6.4
		c2.3,4,5.3,7.7,8.7,10.8l0.3,0.3l0,0h-0.1c-0.1,0-0.2,0,0,0c0.7-0.2,1.4-0.5,1.9-1c1.8-1.4,3.4-3.1,4.8-4.9c1.5-1.9,3-3.9,4.4-5.9
		s2.8-4.2,4.1-6.3l3.9,1.9c-1.9,5-4.3,9.7-7.1,14.2c-1.5,2.4-3.3,4.7-5.4,6.6c-1.3,1.3-3,2.2-4.7,2.8c-1.9,0.5-4,0.3-5.7-0.7
		c-0.3-0.2-0.5-0.3-0.8-0.5l-0.4-0.3c-2.2-1.7-4.3-3.7-6.2-5.8c-1.9-2.1-3.5-4.3-5-6.7c-1.5-2.3-2.8-4.8-3.9-7.3
		c-0.6-1.2-1.1-2.5-1.5-3.8c-0.2-0.6-0.5-1.3-0.7-2s-0.4-1.3-0.6-2.1L111.8,101.7z"/>
	<path class="st3" d="M107,92.6c3.4,1.3,9,13.8,9,13.8l-11.8,9.1c0,0-8.3-13.1-6.4-17.4C99.8,93.6,102.1,90.7,107,92.6z"/>
	<path class="st4" d="M101.9,102.2c1.1,1.5,2.7,7.9,2.2,13c-1.7-2.7-3.2-5.6-4.5-8.5C100.3,103.7,101.2,101.4,101.9,102.2z"/>
	<path class="st3" d="M107.1,92.6c0,0,3.6,2.3-15.2,48.9L58.4,134c3.6-13.5,5.5-21.9,5.3-51.4c4.9,0.1,9.8,0.5,14.7,1.3
		c5.2,0.8,10.2,1.9,15.2,3.4C100.1,89.4,107.1,92.6,107.1,92.6z"/>
	<path class="st4" d="M63.8,87.1c2.7,1.9,4.6,4.7,5.4,7.9c0.9,4-4.7,10.9-6,12.4C63.6,102,63.8,95.5,63.8,87.1z"/>
	<path class="st2" d="M83.4,69c-0.1,5.1-0.8,12.5-5,15c0,0,0.3,6.5,10.3,16c8.6-7.7,4.9-12.6,4.9-12.6c-5.2-2.5-4.5-4.7-2.7-8.3
		L83.4,69z"/>
	<path class="st4" d="M86.4,73.1l4.5,6c-0.4,0.8-0.8,1.7-1.1,2.6c-2-0.8-4.9-3.3-4.8-5.7C85.1,74.9,86.2,73.5,86.4,73.1z"/>
	<path class="st2" d="M76.9,62.2c2.1,8.1,2.8,11.6,7.8,15.1c7.5,5.2,17,0.8,17.4-7.8c0.4-7.7-3.1-19.8-11.8-21.5
		C84,46.7,78,50.7,76.7,56.9C76.3,58.6,76.4,60.4,76.9,62.2z"/>
	<path class="st1" d="M77.6,54.2c5.8,4.8,17.2-5.2,22.3-1.4C100.7,46,80.2,40,77.6,54.2z"/>
	<path class="st1" d="M75.9,51.9c6,1.4,8.8,7.2,3.6,16C71.5,60.7,74,54.8,75.9,51.9z"/>
	<path class="st1" d="M139.9,146.6c-0.7,3-1.5,5.9-2.3,8.8c-6,4-12.6,7.1-19.6,9.2c0.7-3.3,1.3-6.7,1.6-10.1
		c-3.5,4.4-12.4,9.4-19.7,12.2c-0.9,0.4-1.8,0.7-2.7,1H97c-0.7,0-1.4,0-2.1,0c-2.1-0.1-4.1-0.2-6.1-0.4c-1.5-0.2-3-0.4-4.6-0.6
		c-12.5-6.4-17-18.2-16.8-28.9c0-0.5,0-1,0-1.6l1,0.2l0.3,0.1l3.4,0.8l3,0.7l0,0l1.4,0.3l0.2,0.1l1,0.2l1.9,0.4l2.4,0.6l1.1,0.2l0,0
		l1.4,0.3l4,0.9l1.6,0.4l1.9,0.4c0.4-0.4,0.8-0.7,1.3-1.1l0,0c5.5-4.1,18.2-8,29-8.3c2.4-0.1,4.7,0.1,7.1,0.4
		C136.8,134,141.8,138,139.9,146.6z"/>
	<path class="st4" d="M99.9,166.7c-0.6,0.3-1.2,0.7-1.8,0.9H97c-0.7,0-1.4,0-2.1,0c-2.1-0.1-4.1-0.2-6.1-0.4c-2.1-6.1-5-15.4-3-14.2
		c1.9,1.2,3.7,2.5,5.4,4C94.4,159.9,97.4,163.1,99.9,166.7z"/>
	<path class="st1" d="M94.9,167.6c-2.1-0.1-4.1-0.2-6.1-0.4c-1.5-0.2-3-0.4-4.6-0.6c-7.3-1.3-14.3-3.7-20.9-7.1
		c-1.7-0.9-3.3-1.8-4.9-2.8c-0.4-1-0.9-2-1.2-3c-0.6-1.5-1-3.1-1.4-4.6c-0.1-0.4-0.2-0.9-0.3-1.3c-0.2-1.1-0.3-2.3-0.4-3.4l0,0
		c-0.1-3.1,0.7-6.2,2.3-8.9c0.3-0.5,0.6-0.9,1-1.4l3.1,0.7l1.6,0.4l1,0.2l1.5,0.3l1.8,0.4l0,0l1,0.2l0.3,0.1l3.4,0.8l3,0.7l0,0
		l1.4,0.3h0.2l1,0.2l1.9,0.4l2.4,0.6l1.1,0.2l0,0c0,0.1,0.4,0.7,0.9,1.8c1.4,2.8,4.2,8.5,7,15.6C92.4,160.3,93.7,163.9,94.9,167.6z"
		/>
	<path class="st1" d="M90.4,61.8c0.1,0.7,0.6,1.1,1,1.1s0.7-0.7,0.6-1.4s-0.6-1.1-1-1.1S90.3,61.2,90.4,61.8z"/>
	<path class="st1" d="M98,60.4c0.1,0.7,0.6,1.1,1,1.1s0.7-0.7,0.6-1.4s-0.6-1.1-1-1.1S97.9,59.7,98,60.4z"/>
	<path class="st1" d="M98.4,59.1l1.5-0.8C99.9,58.3,99.3,59.7,98.4,59.1z"/>
	<path class="st5" d="M95.9,62c0.9,1.4,2,2.7,3.2,3.8c-0.6,0.6-1.4,1-2.3,0.9L95.9,62z"/>
	<path class="st1" d="M93.6,70.1c0.3,0,0.7-0.1,1-0.1c0.1,0,0.2-0.1,0.2-0.2c0-0.1-0.1-0.2-0.2-0.2c0,0,0,0,0,0
		c-1.7,0.4-3.4-0.1-4.7-1.2c-0.1-0.1-0.2-0.1-0.3,0c-0.1,0.1-0.1,0.2,0,0.3C90.7,69.6,92.1,70.2,93.6,70.1z"/>
	<path class="st2" d="M76.4,69.3c0.9,1.4,2.3,2.3,3.8,2.7c2.1,0.5,3-1.5,2.3-3.4c-0.6-1.7-2.5-4-4.5-3.6c-1.5,0.3-2.4,1.8-2.1,3.3
		C76.1,68.6,76.2,69,76.4,69.3z"/>
	<path class="st1" d="M87.4,59.3c0.2,0,0.3-0.1,0.4-0.3c0.5-1.8,2.8-2.6,2.8-2.6c0.2-0.1,0.3-0.3,0.2-0.5c-0.1-0.2-0.3-0.3-0.5-0.2
		c-0.1,0-2.7,1-3.3,3.1c-0.1,0.2,0.1,0.4,0.3,0.5L87.4,59.3z"/>
	<path class="st1" d="M100.4,56c0.1,0,0.3-0.1,0.3-0.2c0.1-0.2,0-0.4-0.1-0.5c0,0,0,0,0,0c-1.1-0.7-2.5-0.7-3.6-0.2
		c-0.2,0.1-0.3,0.3-0.2,0.5c0,0,0,0,0,0c0.1,0.2,0.4,0.3,0.5,0.2c0.9-0.4,2-0.3,2.9,0.2C100.3,56,100.4,56,100.4,56z"/>
	<path class="st1" d="M90.8,60.5l1.5-0.8C92.3,59.8,91.7,61.2,90.8,60.5z"/>
	<path class="st0" d="M58.4,131.9l-1.5,2.8c-0.2,0.2,0.1,0.5,0.4,0.6l34.5,7.8c0.3,0.1,0.6,0,0.6-0.2l1-2.9c0.1-0.2-0.1-0.4-0.5-0.5
		l-34-7.7C58.8,131.7,58.5,131.8,58.4,131.9z"/>
	<path class="st1" d="M62.2,136.8l-0.9-0.2c-0.2,0-0.3-0.2-0.3-0.3l1.3-3.8c0-0.1,0.2-0.2,0.4-0.1l0.9,0.2c0.2,0,0.3,0.2,0.3,0.3
		l-1.3,3.8C62.6,136.8,62.4,136.8,62.2,136.8z"/>
	<path class="st1" d="M89.2,142.9l-0.9-0.2c-0.2,0-0.3-0.2-0.3-0.3l1.3-3.8c0-0.1,0.2-0.2,0.4-0.1l0.9,0.2c0.2,0,0.3,0.2,0.3,0.3
		l-1.3,3.8C89.5,142.8,89.4,142.9,89.2,142.9z"/>
	<path class="st1" d="M75.7,139.8l-0.9-0.2c-0.2,0-0.3-0.2-0.3-0.3l1.3-3.8c0-0.1,0.2-0.2,0.4-0.1l0.9,0.2c0.2,0,0.3,0.2,0.3,0.3
		l-1.3,3.8C76.1,139.8,75.9,139.9,75.7,139.8z"/>
	<path class="st2" d="M147.2,97.9l-2.6,1.9l-3,8.3l2.1,3.5c3.5,0.6,5.5-5.6,5.5-5.6l2.2-4.2L147.2,97.9z"/>
	<path class="st2" d="M65.2,95.6C65,96,64.6,96.5,64.3,97s-0.6,1-0.9,1.5c-0.6,1-1.2,2-1.7,3.1c-1.1,2.1-2.2,4.2-3.2,6.3
		s-1.9,4.3-2.7,6.5c-0.4,1.1-0.8,2.2-1.2,3.3l-0.3,0.8l-0.1,0.4l-0.1,0.3c-0.1,0.5-0.2,0.9-0.3,1.4c-0.3,2.2-0.5,4.4-0.4,6.7
		c0,2.3,0.2,4.7,0.4,7.1s0.5,4.8,0.9,7.2s0.7,4.9,1.1,7.2l-4.1,1.1c-0.9-2.4-1.6-4.8-2.3-7.2s-1.3-4.9-1.8-7.4
		c-0.5-2.5-1-5.1-1.2-7.6c-0.3-2.7-0.4-5.4-0.1-8.1c0.1-0.7,0.2-1.5,0.4-2.2l0.1-0.6l0.1-0.5l0.2-0.9c0.3-1.3,0.7-2.5,1-3.7
		c0.8-2.5,1.6-4.9,2.6-7.3s2.1-4.8,3.3-7.1c0.6-1.1,1.2-2.3,1.9-3.4c0.3-0.6,0.7-1.1,1-1.7s0.7-1.1,1.2-1.7L65.2,95.6z"/>
	<path class="st3" d="M63.8,82.6c-3.6,0.3-10.2,10.9-10.2,10.9l10.2,11c0,0,7.6-7.4,7.2-12C70.5,87.7,67.9,82.3,63.8,82.6z"/>
	<path class="st2" d="M61.9,152.5l-6.2-4.6l0,0l-0.2-0.2l-0.9-0.7l-3.5,0.1c-0.1,0.2-0.1,0.4-0.2,0.6l0,0c-0.2,1.5,0.2,3.1,1,4.4
		c0.9,0.7,1.9,1.4,2.8,2.1l0,0c1.2,0.9,2.4,1.7,3.7,2.4c1.6,1,3.2,1.9,4.9,2.8l0.5-0.1L61.9,152.5z"/>
	<path class="st3" d="M97,168.7c-40.9,0-74.1-33.2-74.1-74.1S56.1,20.5,97,20.5s74.1,33.2,74.1,74.1C171,135.5,137.9,168.6,97,168.7
		z M97,22.5c-39.8,0-72.1,32.3-72.1,72.1s32.3,72.1,72.1,72.1s72.1-32.3,72.1-72.1C169.1,54.8,136.8,22.6,97,22.5z"/>
</g>
</svg>
