<?xml version="1.0" encoding="utf-8"?>
<!-- Generator: Adobe Illustrator 26.3.0, SVG Export Plug-In . SVG Version: 6.00 Build 0)  -->
<svg version="1.1" id="Layer_1" xmlns="http://www.w3.org/2000/svg" xmlns:xlink="http://www.w3.org/1999/xlink" x="0px" y="0px"
	 viewBox="0 0 500 500" style="enable-background:new 0 0 500 500;" xml:space="preserve">
<style type="text/css">
	.st0{fill:#407BFF;}
	.st1{opacity:0.9;fill:#FFFFFF;enable-background:new    ;}
	.st2{fill:#F5F5F5;}
	.st3{opacity:0.8;fill:#FFFFFF;enable-background:new    ;}
	.st4{opacity:0.2;enable-background:new    ;}
	.st5{fill:#263238;}
	.st6{opacity:0.2;fill:#FFFFFF;enable-background:new    ;}
	.st7{opacity:0.5;fill:#FFFFFF;enable-background:new    ;}
	.st8{opacity:0.6;fill:#407BFF;enable-background:new    ;}
	.st9{opacity:0.3;fill:#FFFFFF;enable-background:new    ;}
	.st10{fill:#FFB573;}
	.st11{fill:#FFFFFF;}
	.st12{fill:#ED893E;}
</style>
<g id="freepik--background-simple--inject-209">
	<path class="st0" d="M371.5,351.3c11.4-19.2,1-52.4-8.7-67.3c-11.2-17.2-30.9-24.6-49.4-30.1c-23.2-7-36.5-12.3-45.3-37.4
		c-7.7-22.1-10.9-45.7-20.8-66.8c-20.4-43.3-53.8-87.2-105.1-71.4c-47.1,14.4-75.4,63-49.6,109c21.8,38.8,73.2,7.4,80.4,60.1
		c6.7,49.1-49.2,91.5-17.2,138c31.8,46.3,75.4-22.9,109.4-41.8c21.9-12.1,25.2,17,42.5,27.1C328.7,382.8,357.1,375.6,371.5,351.3z"
		/>
	<path class="st1" d="M371.5,351.3c11.4-19.2,1-52.4-8.7-67.3c-11.2-17.2-30.9-24.6-49.4-30.1c-23.2-7-36.5-12.3-45.3-37.4
		c-7.7-22.1-10.9-45.7-20.8-66.8c-20.4-43.3-53.8-87.2-105.1-71.4c-47.1,14.4-75.4,63-49.6,109c21.8,38.8,73.2,7.4,80.4,60.1
		c6.7,49.1-49.2,91.5-17.2,138c31.8,46.3,75.4-22.9,109.4-41.8c21.9-12.1,25.2,17,42.5,27.1C328.7,382.8,357.1,375.6,371.5,351.3z"
		/>
</g>
<g id="freepik--Shadow--inject-209">
	<ellipse id="freepik--path--inject-209" class="st2" cx="250" cy="416.2" rx="193.9" ry="11.3"/>
</g>
<g id="freepik--Books--inject-209">
	<path class="st0" d="M230.1,413.6c0.3,1-0.2,2.2-1.3,2.5c-0.2,0.1-0.5,0.1-0.7,0.1H88.8c-4.3,0-4.3-28.3,0-28.3h139.3
		c1.1-0.1,2,0.8,2.1,1.9c0,0.2,0,0.5-0.1,0.7C228.4,395.9,228.4,408.2,230.1,413.6z"/>
	<path class="st3" d="M229.9,391.2h-84.5c-3.3,0-3.3,21.7,0,21.7h84.5C228.5,407.5,228.5,396.7,229.9,391.2z"/>
	<path class="st4" d="M141.2,413.6c0.3,1-0.2,2.2-1.3,2.5c-0.2,0.1-0.5,0.1-0.7,0.1H88.8c-4.3,0-4.3-28.3,0-28.3h50.4
		c1.1-0.1,2,0.8,2.1,1.9c0,0.2,0,0.5-0.1,0.7C139.5,395.9,139.5,408.2,141.2,413.6z"/>
	<path class="st0" d="M110.3,387.9H98.8c-4.3,0-4.3,28.3,0,28.3h11.5C106,416.2,106,387.9,110.3,387.9z"/>
	<path class="st0" d="M119.4,387.9h-4.5c-4.3,0-4.3,28.3,0,28.3h4.5C115,416.2,115,387.9,119.4,387.9z"/>
	<path class="st5" d="M80.7,385.6c-0.5,1.2,0.7,2.4,2.3,2.4h125.3c5.1,0,5.1-25.5,0-25.5H83c-1.6,0-2.8,1.2-2.3,2.4
		C82.7,369.6,82.7,380.7,80.7,385.6z"/>
	<path class="st4" d="M80.7,385.6c-0.5,1.2,0.7,2.4,2.3,2.4h61.4c5.1,0,5.1-25.5,0-25.5H83c-1.6,0-2.8,1.2-2.3,2.4
		C82.7,369.6,82.7,380.7,80.7,385.6z"/>
	<path class="st3" d="M80.9,365.4h61c3.9,0,3.9,19.5,0,19.5h-61C82.6,380,82.6,370.3,80.9,365.4z"/>
	<path class="st6" d="M162.2,368.1c-0.4-1.1,0.7-2.2,2.2-2.2h35.1c3.7,0,3.7,18.6,0,18.6h-35.1c-1.5,0-2.6-1.1-2.2-2.2
		C163.3,377.7,162.8,372.8,162.2,368.1z"/>
	<path class="st0" d="M415.7,374.2c0.4,1.2-0.3,2.5-1.5,2.9c-0.2,0.1-0.4,0.1-0.6,0.1H266.5c-4.6,0-4.6-33,0-33h147.2
		c1.3,0.1,2.3,1.2,2.2,2.5c0,0.2,0,0.3-0.1,0.5C413.9,353.6,413.9,367.9,415.7,374.2z"/>
	<path class="st7" d="M415.7,374.2c0.4,1.2-0.3,2.5-1.5,2.9c-0.2,0.1-0.4,0.1-0.6,0.1H266.5c-4.6,0-4.6-33,0-33h147.2
		c1.3,0.1,2.3,1.2,2.2,2.5c0,0.2,0,0.3-0.1,0.5C413.9,353.6,413.9,367.9,415.7,374.2z"/>
	<path class="st3" d="M415.5,348.1h-89.3c-3.5,0-3.5,25.3,0,25.3h89.3C414,367,414,354.5,415.5,348.1z"/>
	<path class="st8" d="M321.8,374.2c0.4,1.2-0.3,2.5-1.5,2.9c-0.2,0.1-0.4,0.1-0.6,0.1h-53.2c-4.6,0-4.6-33,0-33h53.2
		c1.3,0.1,2.3,1.2,2.2,2.5c0,0.2,0,0.3-0.1,0.5C320,353.6,320,367.9,321.8,374.2z"/>
	<path class="st7" d="M300.2,346.7c0.4-0.9-0.1-1.9-1-2.3c-0.2-0.1-0.3-0.1-0.5-0.1h-20.3c-4.6,0-4.6,33,0,33h20.3
		c1-0.1,1.7-1,1.6-1.9c0-0.2-0.1-0.3-0.1-0.5C298.1,368.7,298.1,352.8,300.2,346.7z"/>
	<path class="st0" d="M405.2,412.6c0.4,1.5-0.5,3.1-2,3.5c-0.3,0.1-0.6,0.1-0.9,0.1H249.3c-6.5,0-6.5-39,0-39h153
		c1.6-0.1,2.9,1.1,3,2.7c0,0.3,0,0.6-0.1,0.9C402.6,388.2,402.6,405.2,405.2,412.6z"/>
	<path class="st6" d="M405.2,412.6c0.4,1.5-0.5,3.1-2,3.5c-0.3,0.1-0.6,0.1-0.9,0.1H249.3c-6.5,0-6.5-39,0-39h153
		c1.6-0.1,2.9,1.1,3,2.7c0,0.3,0,0.6-0.1,0.9C402.6,388.2,402.6,405.2,405.2,412.6z"/>
	<path class="st3" d="M404.9,381.8h-92.5c-5,0-5,29.9,0,29.9h92.5C402.7,404.2,402.7,389.3,404.9,381.8z"/>
	<path class="st8" d="M306.1,412.6c0.4,1.5-0.5,3.1-2,3.5c-0.3,0.1-0.6,0.1-0.9,0.1h-53.9c-6.5,0-6.5-39,0-39h53.9
		c1.6-0.1,2.9,1.1,3,2.7c0,0.3,0,0.6-0.1,0.9C303.5,388.3,303.5,405.2,306.1,412.6z"/>
	<path class="st7" d="M273.8,378.6c0.3-0.4,0.1-1-0.3-1.2c-0.2-0.1-0.3-0.1-0.5-0.1h-9.1c-6.5,0-6.5,39,0,39h9.2
		c0.5,0,0.9-0.3,1-0.8c0-0.2,0-0.4-0.1-0.5C269.9,408.9,269.9,384.6,273.8,378.6z"/>
	<path class="st7" d="M288.1,378.6c0.3-0.4,0.1-1-0.3-1.2c-0.2-0.1-0.3-0.1-0.5-0.1h-9.1c-6.5,0-6.5,39,0,39h9.1
		c0.5,0,0.9-0.3,1-0.8c0-0.2,0-0.4-0.1-0.5C284.2,408.9,284.2,384.6,288.1,378.6z"/>
	<path class="st0" d="M403.7,323.5c-0.2-2.8-0.8-5.5-1.9-8.1l0.9-0.4c1.1,2.7,1.8,5.5,2,8.4L403.7,323.5z"/>
	<rect x="372.6" y="311.1" class="st0" width="24.8" height="1"/>
	<path class="st0" d="M235.5,341.5c-0.5,1.4,0.7,2.7,2.4,2.7h159.5c5.4,0,5.4-29.6,0-29.6H237.9c-1.7,0-2.9,1.4-2.4,2.7
		C237.6,323,237.6,335.9,235.5,341.5z"/>
	<path class="st4" d="M235.5,341.5c-0.5,1.4,0.7,2.7,2.4,2.7h92c5.4,0,5.4-29.6,0-29.6h-92c-1.7,0-2.9,1.4-2.4,2.7
		C237.6,323,237.6,335.9,235.5,341.5z"/>
	<path class="st3" d="M235.8,318.1h91.5c4.1,0,4.1,22.7,0,22.7h-91.5C237.5,335.1,237.5,323.8,235.8,318.1z"/>
	<path class="st6" d="M348.7,321.2c-0.4-1.3,0.8-2.6,2.4-2.6h37.1c3.9,0,3.9,21.6,0,21.6H351c-1.6,0-2.8-1.3-2.4-2.6
		C350,333.5,350,325.4,348.7,321.2z"/>
</g>
<g id="freepik--Character--inject-209">
	<path class="st5" d="M220.6,98c-4.5,4.8-15.5,0-17.2,13.3c-1.8,14.3,5.1,21.2-3.8,25c-14,5.9-24,29.2-4.6,38s60.8-0.4,56.2-18.3
		s-3.7-27.5,1.8-35.9c7.3-11.1,5.7-25.4-0.2-30.6C243.5,81.4,230.8,87,220.6,98z"/>
	<path class="st5" d="M244.7,155.5c-0.2,0-0.3-0.1-0.3-0.3c0-0.2,0.1-0.3,0.2-0.3c0,0,0,0,0,0c3.9-0.5,6.2-1.5,7.2-3
		c1.3-1.9,0.8-4.7,0-8.3c-1.2-5.8-2.8-13.7,2.4-23.7c6.3-12.2,4-25.5-1.9-29.8c-0.1-0.1-0.2-0.3-0.1-0.4c0.1-0.1,0.3-0.2,0.4-0.1
		c6.2,4.5,8.5,18.2,2.1,30.6c-5.1,9.8-3.5,17.6-2.3,23.3c0.8,3.7,1.4,6.6-0.1,8.7C251.1,153.9,248.7,155,244.7,155.5L244.7,155.5z"
		/>
	<path class="st5" d="M194.2,138.2c-0.6,0-1.3,0-1.9-0.1c-0.2,0-0.3-0.2-0.3-0.3c0,0,0,0,0,0c0-0.2,0.2-0.3,0.3-0.3c0,0,0,0,0,0
		c2.8,0.4,4.9-0.1,6.3-1.3c2.6-2.3,2.6-7.1,2.7-12.6c0-6.3,0.1-13.4,4.2-18.2c0.1-0.1,0.3-0.2,0.4,0c0.1,0.1,0.2,0.3,0,0.4
		c-3.9,4.7-4,11.7-4,17.8c0,5.7-0.1,10.6-2.9,13.1C197.8,137.8,196,138.3,194.2,138.2z"/>
	<path class="st0" d="M292.4,314.6c-6.7-0.1-9.3-0.5-12.4-0.5s-3.8,0.6-7,0.5c-2.2-0.1-2.2-2.7-1.3-4.4c0.6-1.4,1.5-2.8,2.2-4.5
		l8.5,0.6c1.1,3.2,6.8,4.6,11.8,5.7C296.1,312.5,295.1,314.6,292.4,314.6z"/>
	<path class="st5" d="M248.3,191.8c0,0,22.4,19.2,45,39.7c9.6,8.6-10.5,74.6-10.5,74.6c-0.4,1.4-7.9-0.6-9-1.7
		c0,0-1.1-51.2,3.7-61.5c-50.2-12.7-58-37.3-58-37.3l3.6-15.3L248.3,191.8z"/>
	<path class="st4" d="M222.8,211.6c2.8,3.9,6.1,7.4,9.9,10.5c5-5.9,3.6-15.3,3.6-15.3L222.8,211.6z"/>
	<path class="st5" d="M284.5,303.2c-0.1,1-0.4,2.8-0.5,4.1c0,0.4-0.4,0.8-0.9,0.8c-3.3-0.3-6.7-0.8-9.9-1.7
		c-0.3-0.1-0.5-0.4-0.5-0.7l-0.1-3.6c0-0.5,0.4-0.9,0.8-0.9c0,0,0.1,0,0.1,0l10.3,1.2C284.3,302.4,284.6,302.7,284.5,303.2
		C284.5,303.2,284.5,303.2,284.5,303.2z"/>
	<path class="st9" d="M284.5,303.2c-0.1,1-0.4,2.8-0.5,4.1c0,0.4-0.4,0.8-0.9,0.8c-3.3-0.3-6.7-0.8-9.9-1.7
		c-0.3-0.1-0.5-0.4-0.5-0.7l-0.1-3.6c0-0.5,0.4-0.9,0.8-0.9c0,0,0.1,0,0.1,0l10.3,1.2C284.3,302.4,284.6,302.7,284.5,303.2
		C284.5,303.2,284.5,303.2,284.5,303.2z"/>
	<path class="st0" d="M194.5,362.4c-6.8,0-9-2.5-12.8-3.2c-3.2-0.6-4.1-0.3-6.6-0.8c-2.2-0.4-2.3-1.9-1-4c0.9-1.5,1.6-3.1,2.2-4.7
		l10.3,0.7c1.1,2.8,3.5,8.3,7.3,9C197.4,360,197.2,362.4,194.5,362.4z"/>
	<path class="st5" d="M246.7,191.7c0,0-23.6,42.1-33.2,68.1c-10,27.3-25.9,72-27.1,90.5c-1.7,0.8-7.3,0.5-10.3-0.7
		c0,0-2.8-64,16.5-89.6c4.6-54.9,12.2-63.7,20.3-70.4L246.7,191.7z"/>
	<path class="st5" d="M187.7,346.5c-0.1,1.3-0.2,2.5-0.1,3.8c0,0.5-0.3,0.9-0.8,0.9c-3.8,0.4-9.2-0.9-10.9-1.3
		c-0.3-0.1-0.6-0.4-0.6-0.7l-0.1-3.6c0-0.5,0.4-0.9,0.8-0.9c0,0,0,0,0.1,0l10.8,0.9C187.5,345.7,187.8,346.1,187.7,346.5
		C187.7,346.5,187.7,346.5,187.7,346.5z"/>
	<path class="st9" d="M187.7,346.5c-0.1,1.3-0.2,2.5-0.1,3.8c0,0.5-0.3,0.9-0.8,0.9c-3.8,0.4-9.2-0.9-10.9-1.3
		c-0.3-0.1-0.6-0.4-0.6-0.7l-0.1-3.6c0-0.5,0.4-0.9,0.8-0.9c0,0,0,0,0.1,0l10.8,0.9C187.5,345.7,187.8,346.1,187.7,346.5
		C187.7,346.5,187.7,346.5,187.7,346.5z"/>
	<path class="st10" d="M253,150.4c1,1.9,2.1,4,3.2,6c1.1,2,2.2,4,3.3,5.9c2.3,3.9,4.6,7.8,7.1,11.4l-1.4-1.2c1,0.7,2.1,1.3,3.3,1.6
		c1.4,0.5,2.9,0.8,4.3,1.1c1.5,0.3,3.1,0.5,4.8,0.6s3.3,0.2,4.9,0.3h0.2c1.5,0.1,2.7,1.4,2.6,3c-0.1,1.1-0.8,2.1-1.9,2.5
		c-1.8,0.6-3.6,1.1-5.5,1.4c-1.9,0.3-3.7,0.5-5.6,0.6c-2,0.1-4,0-6-0.4c-2.2-0.3-4.4-1.1-6.4-2.1c-0.4-0.2-0.8-0.5-1.1-0.9l-0.3-0.3
		c-1.6-1.9-3.1-3.8-4.6-5.8s-2.8-4-4.1-6s-2.5-4.1-3.7-6.2s-2.3-4.2-3.4-6.5c-1.2-2.8,0.1-6.1,2.9-7.4
		C248.5,147,251.5,148,253,150.4L253,150.4z"/>
	<path class="st0" d="M247.5,142.4c6.5,2.1,7.6,5.1,11.2,15.9c-2.4,6.5-12,9.8-12,9.8S235.3,149.6,247.5,142.4z"/>
	<path class="st0" d="M256.4,156.5c-0.4,3.6-1.3,7.9-3.2,16.2c-1.5,7.1-1.5,21-3.9,21.7c-4.6,2.3-16.1,1.4-36.3-4.8
		c0.6-10.4,1.9-17.5-1.6-41.3c-0.8-4.6,2.3-9.1,6.9-9.9c0.6-0.1,1.2-0.1,1.8-0.1c1.5,0,3,0.1,4.6,0.3c5.5,0.3,11,1.1,16.5,2.2
		c1.8,0.4,3.6,0.9,5.3,1.4C252.8,143.9,257,149.9,256.4,156.5z"/>
	<path class="st10" d="M185.9,197.8l2-1.8c0.8-0.7,1.1-1.7,1-2.7l-0.6-4.8c-0.2-1.9-1.3-3.6-3-4.5l-1-0.6c-3.6,2.8-5.4,8.5-5.4,8.5
		l-0.7,1.6c-0.6,1.3-0.1,2.9,1.2,3.5c0,0,0,0,0,0l3.1,1.4C183.8,198.8,185,198.6,185.9,197.8z"/>
	<path class="st10" d="M290.9,173.8l-2.6-1c-1-0.4-2-0.2-2.9,0.3l-4,2.7c-1.6,1.1-2.6,2.9-2.6,4.8v1.2c4.1,1.9,10,0.9,10,0.9
		l1.7-0.1c1.5,0,2.6-1.3,2.6-2.7c0,0,0,0,0,0l-0.2-3.4C292.8,175.2,292,174.2,290.9,173.8z"/>
	<path class="st10" d="M217.3,151.5l-1.3,0.6l-1.4,0.6c-0.9,0.4-1.9,0.9-2.8,1.4c-1.9,1-3.6,2-5.4,3.1s-3.5,2.2-5.1,3.4
		s-3.2,2.5-4.7,3.8l0.7-0.8c-0.5,0.7-0.9,1.5-1.3,2.3c-0.4,0.9-0.9,1.9-1.2,2.9c-0.8,2-1.6,4.1-2.3,6.3s-1.4,4.3-2.2,6.5l-2.2,6.6
		l0,0c-0.5,1.5-2.1,2.3-3.5,1.8c-1.2-0.4-2-1.5-1.9-2.8c0.1-2.4,0.3-4.8,0.6-7.1s0.6-4.7,1-7.1s0.9-4.7,1.6-7.1
		c0.3-1.2,0.7-2.4,1.1-3.7c0.5-1.4,1.1-2.7,1.8-4c0.1-0.2,0.3-0.4,0.4-0.6l0.2-0.2c1.6-1.8,3.4-3.5,5.3-5.1c1.8-1.6,3.8-3,5.8-4.4
		c2-1.3,4-2.6,6.1-3.7c1.1-0.6,2.1-1.1,3.2-1.6c0.6-0.2,1.1-0.5,1.7-0.8s1.1-0.4,1.8-0.7c2.9-1.1,6.1,0.2,7.3,3.1
		c1.1,2.8-0.2,6-2.9,7.2L217.3,151.5z"/>
	<path class="st0" d="M227,140.9c-4.9-3.5-7.9-3.9-19.7,1.3c-1.4,7.5,3.2,18.4,3.2,18.4S226.2,152.3,227,140.9z"/>
	<path class="st10" d="M228.3,120.1c0.7,5.5,1.2,15.4-2.7,18.5c0,0,5.1-0.1,14.9,7.9c3.7-4,1.6-5.7,1.6-5.7
		c-5.8-2.2-5.4-6.6-4.1-10.6L228.3,120.1z"/>
	<path class="st11" d="M238.4,144.9c-3.6,0-5.4,5.2-5.4,5.2s-8.6-6.8-9.8-11.6c1.1-0.5,2.3-1,3.3-1.6
		C226.6,136.9,236.6,142.6,238.4,144.9z"/>
	<path class="st11" d="M241.8,144.8c0,0,2.7,1,3.6,5c1.8-7.6-1.7-8.8-1.7-8.8c-0.9-0.7-2-1-3.1-0.9
		C242.1,141.2,242.6,143.1,241.8,144.8z"/>
	<path class="st4" d="M232.2,124.2l5.7,6c-0.3,0.9-0.5,1.9-0.7,2.9c-2.2-0.6-5.2-3.5-5.3-6C231.8,126.1,231.9,125.1,232.2,124.2z"/>
	<path class="st10" d="M222.1,112.1c2,8.5,2.7,12.2,7.9,16.1c7.7,5.9,17.7,2.1,18.3-6.8c0.5-8-2.9-20.6-12-23
		c-6-1.8-12.2,1.6-14,7.5C221.6,108,221.6,110.1,222.1,112.1z"/>
	<path class="st5" d="M223.8,118.3c3.1-1.5,6.5-9.1,2-12.7c3.7,0.7,7.9-0.3,11.8-3.3c5.1-4,12.6,5.9,10.1,0.1
		c-3.6-8.4-14.3-10.5-24-3.5S214.7,114.3,223.8,118.3z"/>
	<path class="st4" d="M234,113c-1.1-0.5-2.3-0.5-3.4-0.1C231.7,113.2,232.9,113.2,234,113z"/>
	<path class="st4" d="M233.9,113.8c-1.1-0.2-2.2,0-3,0.7C231.9,114.4,233,114.2,233.9,113.8z"/>
	<path class="st5" d="M235.9,112.9c0.1,0.7,0.6,1.3,1.1,1.2s0.7-0.7,0.6-1.4s-0.6-1.3-1.1-1.2S235.7,112.2,235.9,112.9z"/>
	<path class="st5" d="M244.6,111.9c0.1,0.7,0.6,1.3,1.1,1.2s0.7-0.7,0.6-1.4s-0.6-1.3-1.1-1.2S244.5,111.2,244.6,111.9z"/>
	<path class="st5" d="M245,110.6l1.6-0.7C246.6,109.9,246,111.3,245,110.6z"/>
	<path class="st12" d="M243,113.3c0.9,1.6,1.9,3.1,3.2,4.5c-0.7,0.6-1.6,0.8-2.5,0.7L243,113.3z"/>
	<path class="st5" d="M239.9,121.7c0.4,0,0.8,0,1.2,0c0.1,0,0.2-0.1,0.2-0.2c0,0,0,0,0,0c0-0.1-0.1-0.2-0.2-0.2
		c-1.8,0.2-3.7-0.4-5-1.7c-0.1-0.1-0.2-0.1-0.3,0c0,0,0,0,0,0c-0.1,0.1-0.1,0.2,0,0.3C236.8,121,238.3,121.6,239.9,121.7z"/>
	<path class="st10" d="M220.1,119.8c1,1.4,2.5,2.3,4.2,2.5c2.1,0.2,2.5-2.2,1.5-4.4c-0.9-1.9-3.2-4.4-5-3.5S218.7,118,220.1,119.8z"
		/>
	<path class="st5" d="M233.1,107.4c0.1,0,0.2-0.1,0.3-0.1c0.7-0.8,1.7-1.3,2.7-1.2c0.2,0,0.4-0.1,0.5-0.3c0,0,0,0,0,0
		c0-0.2-0.2-0.4-0.4-0.5c-1.3-0.1-2.6,0.4-3.5,1.5c-0.1,0.2-0.1,0.5,0.1,0.6C232.9,107.3,233,107.4,233.1,107.4L233.1,107.4z"/>
	<path class="st5" d="M246.3,107c0.1,0,0.2,0,0.3-0.1c0.2-0.2,0.2-0.4,0-0.6c0,0,0,0,0,0c-0.9-1.1-2.2-1.7-3.6-1.7
		c-0.2,0-0.4,0.2-0.4,0.4c0,0,0,0,0,0c0,0.2,0.2,0.4,0.5,0.4c1.1,0,2.2,0.5,2.9,1.4C246,106.9,246.1,107,246.3,107z"/>
	<path class="st5" d="M236.2,111.5l1.6-0.7C237.9,110.8,237.2,112.3,236.2,111.5z"/>
</g>
</svg>
