<?xml version="1.0" encoding="utf-8"?>
<!-- Generator: Adobe Illustrator 26.0.3, SVG Export Plug-In . SVG Version: 6.00 Build 0)  -->
<svg version="1.1" id="Layer_1" xmlns="http://www.w3.org/2000/svg" xmlns:xlink="http://www.w3.org/1999/xlink" x="0px" y="0px"
	 viewBox="0 0 114.8 253.9" style="enable-background:new 0 0 114.8 253.9;" xml:space="preserve">
<style type="text/css">
	.st0{fill:#C8856A;}
	.st1{fill:#263238;}
	.st2{fill:#37474F;}
	.st3{fill:#FAFAFA;}
	.st4{fill:#F0F0F0;}
	.st5{fill:#EBEBEB;}
	.st6{fill:#455A64;}
	.st7{fill:#003366;}
	.st8{opacity:0.18;enable-background:new    ;}
	.st9{opacity:0.5;enable-background:new    ;}
	.st10{opacity:0.4;enable-background:new    ;}
	.st11{opacity:0.3;enable-background:new    ;}
	.st12{opacity:0.1;enable-background:new    ;}
	.st13{opacity:0.6;fill:#FFFFFF;enable-background:new    ;}
	.st14{opacity:0.2;enable-background:new    ;}
	.st15{opacity:0.6;fill:#003366;enable-background:new    ;}
	.st16{opacity:0.2;fill:#FFFFFF;enable-background:new    ;}
	.st17{opacity:0.15;enable-background:new    ;}
	.st18{opacity:0.4;fill:#FFFFFF;enable-background:new    ;}
	.st19{opacity:0.35;enable-background:new    ;}
	.st20{opacity:0.5;fill:#003366;enable-background:new    ;}
	.st21{fill:#9A4A4D;}
	.st22{fill:#B16668;}
	.st23{fill:#AF6152;}
	.st24{fill:#FFA8A7;}
</style>
<g id="freepik--bottom--inject-82_00000020387293981446951600000014619356223606669739_">
	<path class="st0" d="M68.6,213.9c0.1-4.2,1.2-36.6,1.2-36.6l-17.6,9.6c1.9,18.8,3.7,27.6,3.8,30.9l0,0c0.1,0.2,0.1,0.4,0.1,0.7
		c-0.1,3.7,4.4,5.9,7.8,8.4c3,2.3,6.1,4.3,9.4,6.1c2.5,1.3,8.4,0.7,9.1-0.8c-4.2-3.2-8.5-6-11.5-9.9
		C69.4,220.2,68.5,217.8,68.6,213.9z"/>
	<path class="st1" d="M89.1,237.3c0.4,1.1,0.1,2.4-0.8,3.2c-1.4,1-5.6,2.7-10.9,1.9s-8.2-2.5-10.3-4.2s-5.1-4.2-7.5-4.8
		c-1.9-0.4-3.7-1.1-5.4-2.2c-0.7-0.7-0.5-3.5-0.5-3.5L89.1,237.3z"/>
	<path class="st2" d="M55.9,216.8c0,0-0.4,0-0.5,0.6s-0.4,3.1-0.8,4.3c-0.6,2.2-0.9,4.6-0.8,6.9c0.2,1.5,3.9,2.6,6.2,3.5
		c2.7,1.2,5.2,2.8,7.5,4.7c3.3,2.4,7.2,3.9,11.2,4.3c5.4,0.3,8.9-1,10-2.7c1.4-2.1,1-4.4-5.1-7.2c-2.3-1.2-4.4-2.5-6.5-4
		c-3.6-2.8-4.5-4-6.4-7.6c-0.2-0.6-0.5-1.1-0.8-1.6c-0.5-0.6-1.3-0.8-2-0.6c-1.8,0.2-3.5,0.6-5.3,1c-0.8,0.3-2,0.7-2.1,1.7
		c0,0.3,0.1,0.7,0.2,1c0.1,0.2,0.1,0.5-0.1,0.6s-0.4,0-0.6-0.2c-0.6-0.6-1.1-1.2-1.6-1.9c-0.3-0.3-0.6-0.7-0.9-0.9
		c-0.3-0.2-0.7-0.4-1-0.7C56.2,217.7,56,217.3,55.9,216.8z"/>
	<path class="st3" d="M84.7,231.7c-7.8,0.2-11,5.4-11.4,8.1c1.8,0.7,3.6,1.1,5.5,1.2c5.4,0.3,9.1-0.9,10.2-2.7
		C90.3,236.4,90.1,233.8,84.7,231.7z"/>
	<path class="st4" d="M72.4,232.3c-0.1,0-0.2,0-0.2-0.1c-0.1-0.1-0.2-0.3,0-0.5l0,0c1.1-1.2,4.9-3.6,7.7-3.2c0.2,0,0.3,0.2,0.3,0.4
		l0,0c0,0.2-0.2,0.3-0.4,0.3c-2.6-0.3-6.1,2-7,3C72.7,232.3,72.5,232.3,72.4,232.3z"/>
	<path class="st4" d="M69.2,230.4c-0.1,0-0.2,0-0.2-0.1c-0.1-0.1-0.2-0.3,0-0.5l0,0c1.1-1.2,4.9-3.6,7.7-3.2c0.2,0,0.3,0.2,0.3,0.4
		l0,0c0,0.2-0.2,0.3-0.4,0.3l0,0c-2.6-0.4-6.1,2-7,3C69.4,230.4,69.3,230.4,69.2,230.4z"/>
	<path class="st4" d="M66.1,228.3c-0.1,0-0.2,0-0.2-0.1c-0.1-0.1-0.2-0.3,0-0.5l0,0c1.1-1.2,5.7-4.1,8.5-3.7c0.2,0,0.3,0.2,0.3,0.4
		l0,0c0,0.2-0.2,0.3-0.4,0.3l0,0c-2.6-0.4-6.9,2.5-7.8,3.5C66.4,228.2,66.2,228.3,66.1,228.3z"/>
	<path class="st4" d="M63.2,226.1c-0.1,0-0.2,0-0.2-0.1c-0.1-0.1-0.2-0.3,0-0.5l0,0c1.5-1.7,6.3-4.1,9.2-3.7c0.2,0,0.3,0.2,0.3,0.4
		s-0.2,0.3-0.4,0.3c-2.5-0.3-7.1,2-8.5,3.5C63.4,226.1,63.3,226.1,63.2,226.1z"/>
	<path class="st0" d="M31.7,195.8l-17-2.5c-0.8,10.4-0.5,19.5-1.6,28.8c-0.2,1.7-2.2,13.5-2,17.2c0.2,5.5,7.5,6.2,8.3,3.1
		s4.7-17.9,4.9-19.3c1.6-5.6,3.2-11.8,6.5-23.6C30.9,198.8,31.5,196.3,31.7,195.8z"/>
	<path class="st1" d="M22.2,244.6c-0.1,3.4-1.2,6.2-2.8,7.6c-1.7,1.5-4,2-6.2,1.4c-2.3-0.6-5.1-2.3-5.8-5c-1-3.3-0.5-5.1,0.2-8.1
		L22.2,244.6z"/>
	<path class="st2" d="M13.1,220.9c-1,0-1.5,4.3-2.2,8.6c-0.8,4.6-2.4,6.4-3.1,10.1c-0.8,4.3-0.5,6.7,1,9.4s7.2,5.5,10.3,1.9
		c2.5-2.9,3.5-6.1,3.5-10.4c0.1-3.6,0.3-7.3,0.8-10.9c0.3-3.2,1.7-6.2,0.9-6.6c-0.6,1.6-1.2,4-1.5,3.4c0-0.4,0-0.8,0-1.2
		c0.1-0.4,0-0.7-0.2-1c-0.3-0.3-0.7-0.4-1.1-0.5c-0.9-0.2-3.9-1-4.8-1.1c-0.5-0.1-1-0.1-1.5-0.1c-0.4,0-0.8,0-1.2,0.1
		c-0.2,0.1-0.4,0.2-0.5,0.4s-0.1,0.3-0.1,0.5c0,0.3-0.1,0.6-0.2,0.9c0,0.1-0.1,0.3-0.3,0.2s-0.2-0.2-0.2-0.3c0-0.5,0.1-0.9,0.2-1.5
		c0-0.3,0.1-0.7,0.1-0.9S13.1,221.2,13.1,220.9z"/>
	<path class="st3" d="M7.3,242.1c-0.4,2.4,0,4.9,1.1,7.1c1.5,2.7,7.3,5.2,10.8,1.9c1.7-1.8,2.7-4,3-6.4
		C20.6,241.7,10.2,239.7,7.3,242.1z"/>
	<path class="st4" d="M20.1,240.3H20c0,0-4.8-2.5-9.2-1.8c-0.2,0-0.4-0.1-0.4-0.3s0.1-0.4,0.3-0.4l0,0c4.7-0.8,9.6,1.8,9.7,1.9
		c0.2,0.1,0.2,0.3,0.2,0.4l0,0C20.4,240.2,20.2,240.3,20.1,240.3z"/>
	<path class="st4" d="M11.1,235.2c-0.1,0-0.3-0.1-0.3-0.2c0-0.2,0.1-0.4,0.2-0.4l0,0c4.4-1.2,9.5,1.7,9.7,1.8s0.2,0.3,0.1,0.4l0,0
		c-0.1,0.2-0.3,0.2-0.5,0.1C20.3,236.9,15.3,234.1,11.1,235.2C11.2,235.2,11.2,235.2,11.1,235.2z"/>
	<path class="st4" d="M11.5,232.2c-0.1,0-0.2-0.1-0.3-0.2c-0.1-0.2,0-0.3,0.2-0.4l0,0c4.9-1.4,9.7,1.7,9.9,1.8s0.2,0.3,0.1,0.4l0,0
		c-0.1,0.2-0.3,0.2-0.5,0.1C20.9,233.9,16.2,230.9,11.5,232.2C11.6,232.2,11.6,232.2,11.5,232.2z"/>
	<path class="st5" d="M12,228.8c-0.1,0-0.2-0.1-0.3-0.2c-0.1-0.2,0-0.3,0.2-0.4l0,0c4.6-1.3,9.8,1.8,10,1.9c0.2,0.1,0.2,0.3,0.1,0.4
		l0,0c-0.1,0.2-0.3,0.2-0.5,0.1c0,0-5.1-3.1-9.3-1.8C12.1,228.8,12,228.8,12,228.8z"/>
	<path class="st1" d="M31.2,83.3c-0.2,1.3-0.7,2.6-1.6,3.6c-4.6,5.7-6.8,11.3-7.7,22c-2.1,26.4-2.6,53.9-2.6,53.9
		c-0.3,2.3-2.5,6.4-4,18.4c-1.3,10.5-1.7,25.1-1.7,25.1s12.4,2.2,16-1.1c2.1-7.8,8.5-27.7,12-39.1c3.1-10.3,5.6-25.6,5.6-25.6
		L51,162c-0.7,4.6-0.8,9.2-0.4,13.8c0.6,7.1,3.1,25.6,3.1,25.6c2.3,2.5,12.9,2.5,15.7-1c0,0,3.1-31.1,3.6-39.7
		c0.8-15.9,2.6-46.5-2-70c-0.2-1-0.7-4.9-0.7-4.9C64.3,90.3,38.7,88.6,31.2,83.3z"/>
	<path class="st6" d="M41.7,91.3c-0.2,0-0.3,0-0.4,0.2c-0.4,1.2-0.7,2.3-1,3.4c-1,3.8-1.8,6.6-4.9,9.5c-2.1,1.8-4.9,2.8-7.7,2.6
		c1.7-7.9,4.7-14.1,9.4-19.1c0.1-0.1,0.1-0.3,0-0.4l0,0c-0.1-0.1-0.3-0.1-0.4,0c-4.8,5.2-7.9,11.5-9.6,19.6l0,0l0,0
		c-0.6,3.2-1.1,6.5-1.3,9.8c-1,14.9-2.4,37.4-2.9,43.3c-0.4,3.2-1.1,6.3-2.2,9.3c-0.9,3-2,6.3-3,10.9c-2.2,10-2.1,26.5-2.1,26.7
		s0.1,0.3,0.3,0.3l0,0c0.2,0,0.3-0.1,0.3-0.3l0,0c0-0.2-0.1-16.7,2.1-26.6c1-4.6,2.1-7.9,3-10.9c1.1-3,1.9-6.1,2.2-9.3
		c0.5-5.9,2-28.4,2.9-43.3c0.2-3.2,0.6-6.4,1.2-9.5h0.3c2.9,0.2,5.8-0.8,8-2.8c3.3-3,4-5.8,5.1-9.7c0.3-1,0.6-2.1,1-3.4
		C42,91.4,41.9,91.3,41.7,91.3L41.7,91.3z"/>
	<path class="st6" d="M13.8,203c2.2,2.2,12.2,3.8,15.9,2.1l-1.8,5.7c0,0-2.6,1.1-7.8,0.5c-6-0.8-6.6-2.7-6.6-2.7L13.8,203z"/>
	<path class="st6" d="M53.7,201.3c3.1,1.1,12.2,0.9,15.7-1l-0.3,4.8c0,0-2.4,1.7-7.6,2s-7.3-1.2-7.3-1.2L53.7,201.3z"/>
	<path d="M47.3,140.4l4.6-26c5.3,0.3,10.4-1.8,13.9-5.8c0,0-0.1,6.5-11.3,9l-5.1,24l1.7,20.3L47.3,140.4z"/>
</g>
<path class="st1" d="M70.2,33.2c-0.4-0.9-0.9-1.8-1.6-2.5c-1.8-1.9-4.1-2.7-5.7-4.9c-0.8-1.2-1.6-3.6-0.9-5c0.3-0.6,0.7-1.1,1.2-1.5
	c2.6-1.9,4-5.1,3.4-8.3C64.8-1,47.4-2.3,39,2.4c-3.4,1.9-6.4,5-6.1,9.2c-3.3,0.9-5.4,4.2-6,7.6c-0.5,3.4,0.2,6.8,0.7,10.1
	c0.2,1,0.2,2.1,0.1,3.1c-0.3,1.7-1.3,2.6-2.4,4c-1.1,1.3-2.3,2.6-2.8,4.2c-0.6,1.6,0,3.4,1.3,4.4c-2.5,2.3-2.9,6.4-1.4,9.4
	c1.5,3.1,4.4,6.3,7.5,7.7c3.7,1.7,7.7,2.5,11.8,2.9c1.9,0.2,3.9,0.3,5.8,0.3c5.3,0,10.8-1,15.4-3.8c4.8-2.9,7.8-7.8,6.7-13.5
	c-0.3-1.7-1.3-3.2-2.7-4.2c2.4-1,3.6-4.4,3.8-6.8C71,35.8,70.8,34.5,70.2,33.2z"/>
<g id="freepik--backpack--inject-82_00000137849450742837647600000013783944671703634056_">
	<path class="st1" d="M2.4,68.5c0.4,0.2,4.6-0.8,8.5-2.3V51.3c-3.3,0.6-6,3.1-6.7,6.3C1.4,67.7,2.4,68.5,2.4,68.5z"/>
	<path class="st7" d="M33.2,44.4c3.7-0.1,8,1.8,9.3,4.6c0.2,0.5,1.8,4.3,1.8,4.3c2.1,10,5.8,35.9,3.2,39.1
		c-4,4.8-23.4,14.2-31.9,13.9c-7-0.2-13.8-6.6-14.8-8.6C-2.4,91.4,6,56,8.3,52.5C11.8,46.8,28.4,44.5,33.2,44.4z"/>
	<path class="st8" d="M47.4,92.4c-4,4.8-23.4,14.2-31.9,13.9c-1.9-0.1-3.8-0.5-5.5-1.3c1.7,0.9,3.8,0.2,4.7-1.6
		c0.2-0.3,0.3-0.7,0.3-1c0.7-2.6,1.7-23.3,1.7-41l27.6-8.1C46.3,63.4,50.1,89.2,47.4,92.4z"/>
	<path class="st9" d="M7.3,54.4c0.2-0.8,0.5-1.5,0.9-2.2c3.6-5.8,20.3-8.1,25-8.2c3.7-0.1,8,1.8,9.3,4.6c0.2,0.5,1.8,4.3,1.8,4.3
		c-7.4,4-25.8,8-27.8,7.2C14,59.3,7.3,54.4,7.3,54.4z"/>
	<path class="st7" d="M2.2,81.8c0.2-0.1,2.8-1.9,3.1-2.1c0.5-0.2,8,5.2,8.7,6.1c0.5,0.6-0.8,13.5-1.1,14.1c-0.1,0.2-3,1.8-3.1,2.1
		c-0.3,0.7-8.2-4.9-8.6-6.1S1.4,82.1,2.2,81.8z"/>
	<path class="st8" d="M2.2,81.8c0.2-0.1,2.8-1.9,3.1-2.1c0.5-0.2,8,5.2,8.7,6.1c0.5,0.6-0.8,13.5-1.1,14.1c-0.1,0.2-3,1.8-3.1,2.1
		c-0.3,0.7-8.2-4.9-8.6-6.1S1.4,82.1,2.2,81.8z"/>
	<path class="st7" d="M10.9,87.8c0.5,0.6-0.8,13.5-1.1,14.1S1.6,97,1.1,95.8s0.3-13.7,1.1-14.1C2.8,81.5,10.2,86.9,10.9,87.8z"/>
	<path class="st10" d="M5.3,79.7c-0.3,0.1-2.9,2-3.1,2.1c0.5-0.2,8,5.2,8.7,6.1l3.1-2.1C13.3,84.9,5.9,79.4,5.3,79.7z"/>
	<path class="st11" d="M10.9,87.8c0.5,0.6-0.8,13.5-1.1,14.1S1.6,97,1.1,95.8s0.3-13.7,1.1-14.1C2.8,81.5,10.2,86.9,10.9,87.8z"/>
	<path class="st7" d="M14,85.8c-0.6-0.4-2.3,0.5-3,1.1s-1.7,3.5-3.6,3.9s-4.5-2.2-5-3.8s-1-5-0.1-6.2s2.5-1.7,3.9-1
		C7.5,80.5,13.9,84.3,14,85.8z"/>
	<path class="st12" d="M14,85.8c-0.6-0.4-2.3,0.5-3,1.1s-1.7,3.5-3.6,3.9s-4.5-2.2-5-3.8s-1-5-0.1-6.2s2.5-1.7,3.9-1
		C7.5,80.5,13.9,84.3,14,85.8z"/>
	<path class="st2" d="M5.7,87.2c0.4,0.3,0.7,0.8,0.6,1.3c0,0.3-0.3,0.6-0.6,0.6c-0.1,0-0.2,0-0.3-0.1c-0.4-0.3-0.7-0.8-0.6-1.3
		C4.9,87.2,5.3,87,5.7,87.2z"/>
	<path class="st2" d="M16.7,61.1c0,0-2.6-1.8-5.7-3.6S6,55,4.9,58.7c-1,3.2-1.9,6.5-2.5,9.8c-0.6-0.3-0.5-1.4-0.1-6
		c0.6-6.8-0.2-9.8,6.8-12.6c10.9-4.2,20.1-7.5,26.3-6.1s7.7,4.9,8.8,9.2C44.3,53,36.7,59.9,16.7,61.1z"/>
</g>
<path class="st0" d="M59.8,44.6c5.8,1.7,7.9,4.2,11.2,9.1c3.4,5.1,8.2,11.9,13.3,19.6l20.3-3.6v10.8c0,0-17.9,8.3-22,8.8
	s-5.3-0.8-8.1-3.9c-3-3.5-12.8-16.9-12.8-16.9L59.8,44.6z"/>
<path class="st7" d="M59.5,44c7.5,2,9.3,5.6,12.2,10.3S84.3,73,84.3,73s-1.9,5.1-5,7.6c-4.1,3.2-5.7,3.8-5.7,3.8s-3.3-3.8-5.7-6.8
	c-6.4-8-6.7-8.4-6.7-8.4L59.5,44z"/>
<path class="st13" d="M59.5,44c7.5,2,9.3,5.6,12.2,10.3S84.3,73,84.3,73s-1.9,5.1-5,7.6c-4.1,3.2-5.7,3.8-5.7,3.8s-3.3-3.8-5.7-6.8
	c-6.4-8-6.7-8.4-6.7-8.4L59.5,44z"/>
<path class="st7" d="M109.2,57.5c-0.4-0.2-0.8-0.4-1.2-0.6c-0.8-0.3-1.3-1.1-1.3-1.9v-2.3h-7.6V55c0,0.8-0.5,1.6-1.3,1.9
	c-0.4,0.2-0.8,0.4-1.2,0.6c-1.8,1-2.6,2.3-2.6,3.7l-0.1,23.4c0,1.3,0.9,2.7,2.6,3.7c4,2,8.7,2,12.7,0c1.8-1,2.6-2.3,2.6-3.7
	l0.1-23.4C111.9,59.9,111,58.5,109.2,57.5z"/>
<path class="st14" d="M109.2,57.5c-0.4-0.2-0.8-0.4-1.2-0.6c-0.8-0.3-1.3-1.1-1.3-1.9v-2.3h-7.6V55c0,0.8-0.5,1.6-1.3,1.9
	c-0.4,0.2-0.8,0.4-1.2,0.6c-1.8,1-2.6,2.3-2.6,3.7l-0.1,23.4c0,1.3,0.9,2.7,2.6,3.7c4,2,8.7,2,12.7,0c1.8-1,2.6-2.3,2.6-3.7
	l0.1-23.4C111.9,59.9,111,58.5,109.2,57.5z"/>
<path class="st15" d="M110.7,70.5c-0.1-3.7-14.7-7.5-15.6-4.4L95,84.6c0,0.9,0.7,1.9,2,2.7c3.6,1.8,7.9,1.8,11.5,0
	c1.3-0.8,2.1-1.7,2.1-2.6L110.7,70.5z"/>
<path class="st16" d="M110.7,70.5c-0.1-3.6-14.7-7.5-15.6-4.4L95,84.6c0,0.9,0.7,1.9,2,2.7c3.6,1.8,7.9,1.8,11.5,0
	c1.3-0.8,2.1-1.7,2.1-2.6L110.7,70.5z"/>
<path class="st14" d="M97,88c-3.2-1.8-3.2-4.8,0-6.6c3.7-1.8,8-1.8,11.6,0c3.2,1.8,3.2,4.8,0,6.6C104.9,89.8,100.6,89.8,97,88z"/>
<path class="st17" d="M107.4,55.1c-1.9-1-4-1.3-6.1-1v-1.5h-2.2V55c0,0.8-0.5,1.6-1.3,1.9c-0.4,0.2-0.8,0.4-1.2,0.6l0,0
	c-1.7,1-2.6,2.3-2.6,3.6l-0.1,23.4c0,1.3,0.9,2.7,2.6,3.7c2.9,1.5,6.2,1.9,9.3,1.2c-7.3,0.5-9.1-2.6-9.1-4.9l0.1-23
	c-0.1-0.7,0.2-1.5,0.7-2c0.3,0.2,0.6,0.5,0.9,0.6c2.8,1.4,6.2,1.4,9.1,0c1.3-0.8,2-1.8,1.9-2.8l-0.1-0.1
	C108.9,56.4,108.3,55.6,107.4,55.1z"/>
<path class="st18" d="M109.2,57.5c-0.4-0.2-0.8-0.4-1.2-0.6c-0.8-0.3-1.3-1.1-1.3-1.9v-2.3h-0.8c0,3.1,0,2.5,0,3.1s1.1,1,1.8,1.4
	s3.1,1.7,3.3,2.8c0.1,1.8,0.2,3.7,0.1,5.5c0,2.4,0,16.7-0.1,18.3c0,2.3-1.4,4.4-3.6,5.2c0.6-0.2,1.2-0.5,1.7-0.8
	c1.8-1,2.6-2.3,2.6-3.7l0.1-23.4C111.9,59.9,111,58.5,109.2,57.5z"/>
<path class="st2" d="M109.3,56v0.7c-0.1,1.2-0.8,2.2-1.9,2.6c-2.8,1.4-6.2,1.4-9.1,0c-0.6-0.3-1-0.7-1.4-1.2
	c-0.3-0.4-0.5-0.9-0.5-1.4V56c0-0.1,0-0.3,0-0.4c0.3-1,0.9-1.8,1.8-2.2l0.1-0.1c2.8-1.4,6.2-1.4,9,0.1c0.9,0.4,1.6,1.2,1.8,2.2
	C109.3,55.7,109.3,55.8,109.3,56z"/>
<path class="st1" d="M103.4,59.6v-2.4c0-0.9,0.2,0.3-1.4,0.3c-1.4,0-2.7-3.3-3.6-4.4l-0.1,0.1c-0.9,0.4-1.6,1.2-1.8,2.2
	c0,0.1,0,0.3,0,0.4v0.7c0,0.5,0.2,1,0.5,1.4c0.4,0.5,0.9,0.9,1.4,1.2c2.8,1.4,6.2,1.4,9.1,0C105.6,59.9,103.4,60.5,103.4,59.6z"/>
<path class="st7" d="M98.3,58.5c-2.5-1.4-2.5-3.8,0-5.2c2.8-1.4,6.2-1.4,9.1,0c2.5,1.4,2.5,3.8,0,5.2C104.6,60,101.2,60,98.3,58.5z"
	/>
<path class="st2" d="M109.3,53.7V55c0,0.1,0,0.3,0,0.4c-0.3,1-0.9,1.7-1.8,2.2c-1.2,0.6-2.6,1-4,1c-1.8,0.1-3.5-0.3-5.1-1.1
	c-0.5-0.3-1-0.7-1.4-1.2c-0.2-0.3-0.4-0.6-0.4-0.9c0-0.1,0-0.3,0-0.4v-1.4c0.1-1.1,0.8-2.2,1.9-2.6c0.1-0.1,0.2-0.1,0.3-0.2
	c2.8-1.3,6-1.2,8.7,0.2C108.6,51.5,109.2,52.6,109.3,53.7z"/>
<path class="st6" d="M98.4,56.3c-2.5-1.5-2.5-3.8,0-5.2c2.8-1.4,6.2-1.4,9.1,0c2.5,1.5,2.5,3.8,0,5.2
	C104.6,57.7,101.2,57.7,98.4,56.3z"/>
<path class="st1" d="M96.9,56.4c0.4,0.5,0.9,0.9,1.4,1.2c1.6,0.8,3.3,1.2,5.1,1.1l0,0c0-0.5,0.3-0.8-1.4-1.1
	c-1.4-0.3-3.4-0.9-4.4-2.4c-0.8-1.5-0.4-3.4,1.1-4.3c-0.1,0.1-0.2,0.1-0.3,0.2c-1.1,0.5-1.8,1.5-1.9,2.6V55c0,0.1,0,0.3,0,0.4
	C96.6,55.8,96.7,56.1,96.9,56.4z"/>
<path class="st7" d="M101,50.3v2.9v0.1c0.1,0.3,0.3,0.5,0.6,0.7c0.4,0.2,0.8,0.3,1.2,0.3c0.5,0,1.1-0.1,1.5-0.3
	c0.2-0.1,0.3-0.2,0.4-0.4c0.1-0.1,0.1-0.2,0.1-0.3v-0.1v-2.9c0-0.3-0.3-0.7-0.6-0.8l-0.1-0.1c-0.8-0.4-1.8-0.4-2.7,0
	C101.2,49.6,101,50,101,50.3z"/>
<path class="st19" d="M101,50.3v2.9v0.1c0.1,0.3,0.3,0.5,0.6,0.7c0.4,0.2,0.8,0.3,1.2,0.3c0.5,0,1.1-0.1,1.5-0.3
	c0.2-0.1,0.3-0.2,0.4-0.4c0.1-0.1,0.1-0.2,0.1-0.3v-0.1v-2.9c0-0.3-0.3-0.7-0.6-0.8l-0.1-0.1c-0.8-0.4-1.8-0.4-2.7,0
	C101.2,49.6,101,50,101,50.3z"/>
<path class="st7" d="M101,50.3c0,0.6,0.9,1.1,1.9,1.1s2-0.5,2-1.1s-0.9-1.1-1.9-1.1S101,49.7,101,50.3z"/>
<path class="st20" d="M102.2,50.3c0,0.2,0.3,0.4,0.7,0.4s0.7-0.2,0.7-0.4s-0.3-0.4-0.7-0.4S102.2,50.1,102.2,50.3z"/>
<path class="st11" d="M102.2,50.3c0,0.2,0.3,0.4,0.7,0.4s0.7-0.2,0.7-0.4s-0.3-0.4-0.7-0.4S102.2,50.1,102.2,50.3z"/>
<path class="st7" d="M100.5,50v1c0,0.1,0,0.1,0,0.2c0.1,0.4,0.4,0.7,0.7,0.8c0.5,0.3,1,0.4,1.5,0.4c0.7,0.1,1.3-0.1,1.9-0.4
	c0.2-0.1,0.4-0.3,0.5-0.5c0.1-0.1,0.1-0.2,0.2-0.4c0-0.1,0-0.1,0-0.2v-1c0-0.4-0.3-0.8-0.7-1l-0.1-0.1c-1.1-0.5-2.3-0.5-3.3,0.1
	C100.8,49.2,100.5,49.6,100.5,50z"/>
<path class="st14" d="M100.5,50v1c0,0.1,0,0.1,0,0.2c0.1,0.4,0.4,0.7,0.7,0.8c0.5,0.3,1,0.4,1.5,0.4c0.7,0.1,1.3-0.1,1.9-0.4
	c0.2-0.1,0.4-0.3,0.5-0.5c0.1-0.1,0.1-0.2,0.2-0.4c0-0.1,0-0.1,0-0.2v-1c0-0.4-0.3-0.8-0.7-1l-0.1-0.1c-1.1-0.5-2.3-0.5-3.3,0.1
	C100.8,49.2,100.5,49.6,100.5,50z"/>
<path class="st7" d="M100.5,50c0,0.8,1.1,1.4,2.4,1.4s2.4-0.6,2.4-1.4s-1.1-1.4-2.4-1.4S100.5,49.2,100.5,50z"/>
<path class="st20" d="M102,50c0,0.3,0.4,0.5,0.9,0.5s0.9-0.2,0.9-0.5s-0.4-0.5-0.9-0.5S102,49.7,102,50z"/>
<path class="st11" d="M102,50c0,0.3,0.4,0.5,0.9,0.5s0.9-0.2,0.9-0.5s-0.4-0.5-0.9-0.5S102,49.7,102,50z"/>
<g id="freepik--Fingers--inject-82_00000058585453499859786030000007722586911492888975_">
	<path class="st21" d="M111.8,66.2c1.4,0.9,2.4,2.4,2.6,4.1l-2.7,0.4L111.8,66.2z"/>
	<path class="st22" d="M112.4,68.6c1.2-0.9,2.9,1.3,1.5,3.4c1,0,0.9,1.9,0,3.2c1,0.2,0.6,2.4-0.5,3.4c0.8,0,0.7,1.9-1.1,2.9
		c-1,0.6-2.5-0.2-0.5-2.5c-1.8,0.6-1.4-2.6,0.2-3.2c-2.4,0.7-1.3-2.6-0.5-3.1C110.1,72.3,110,70.4,112.4,68.6z"/>
</g>
<path class="st3" d="M24,98.1c3.2-9.2,5.2-14.6,5.3-17.5c0,0-2.7-14.7-3-18.2c-1-9,0.6-13.3,2.4-14.2c2.2-0.9,4.5-1.6,6.8-2.2
	c6.3-1.8,15.2-2,21-1.9c2.2,0.1,2.9,0.2,2.9,0.2c2.8,2.1,5.5,4.5,7.9,7.2c4.6,5.4,6.1,9,5.3,14.5c-0.4,2.4-1.5,4.7-3.1,6.6
	c-0.3,2.7-0.9,10.2-0.9,10.2c0.1,3-0.1,2.9,1.4,10.1C65.1,106.8,33.5,105.9,24,98.1z"/>
<path class="st7" d="M40.5,42.4c0.3,2,0.8,3.9,1.4,5.8c1.2,4,1.7,7.2,2,15.9s-2.9,49-2,58.7c-6.4,0-16.6-4.2-21.4-9.4
	c0.6-6.6,1.7-13.1,3.5-19.5c2.3-8.7,4.7-9.4,4.2-14.1s-5-23.2-1.2-32.7c2.2-0.3,4.4-0.7,6.6-1.3C39.7,44.4,40.5,42.4,40.5,42.4z"/>
<path class="st7" d="M54.2,42l0.2,0.9c0,2.5,5.1,6.4,8.7,12.2s4.1,11.5,3.9,19s1.7,35.4,2.5,39.1c2.1-1.4,3.6-3.6,4.2-6.1
	c-0.6-4.4-1.7-12.1-2.3-14.8s-0.6-7.1-0.6-12.6c0-2.4,0.1-4.8,0.4-7.1c0,0,3.5-4.4,1.5-12.5S59.5,44,59.5,44s-0.3-0.1-2.2-0.5
	C56.2,43.1,55.1,42.6,54.2,42z"/>
<path class="st18" d="M54.2,42l0.2,0.9c0,2.5,5.1,6.4,8.7,12.2s4.1,11.5,3.9,19s1.7,35.4,2.5,39.1c2.1-1.4,3.6-3.6,4.2-6.1
	c-0.6-4.4-1.7-12.1-2.3-14.8s-0.6-7.1-0.6-12.6c0-2.4,0.1-4.8,0.4-7.1c0,0,3.5-4.4,1.5-12.5S59.5,44,59.5,44s-0.3-0.1-2.2-0.5
	C56.2,43.1,55.1,42.6,54.2,42z"/>
<path class="st7" d="M67.1,80.7c0.2-4.3,2.5-15.1,2.8-17.3s-2.8-4.1-2.8-4.1s1.8,0.5,2.5,0s-3.1-5.9-6.3-9.4S54,41,54,41v2.8
	c1.7,1.9,3.3,3.9,4.6,6.1C61.4,54.5,66.6,59.5,67.1,80.7z"/>
<g id="freepik--Head--inject-95">
	<path class="st0" d="M39.7,42c0-3.1-0.1-10.4-0.1-10.4c-0.5,0.9-3.4,2.4-6.2-0.1c-2.3-2-2.6-5.5-0.9-7.9c1.7-2.2,4.6-2.1,6.5,0.8
		c1.9,0.2,2.8-1.5,1.3-5.2c-0.4-4.4,4.1-4.8,5.5-10.7c6,2.2,10.9-0.9,15.1,2.9c1,2,2.3,5.3,2.7,11.3c0.4,7.7-0.7,10.9-2.6,12.8
		c-1.2,1.3-3.2,2.2-6.2,2.3c0,0,0,1.3,0,2.2s0.6,5,0.6,5c1.5,1.6,4.9,10.3-2.8,11.6c-10,1.7-14.4-10.1-15.5-11.2
		C39.2,44.6,39.7,43.5,39.7,42z"/>
	<path class="st23" d="M54.6,37.7c-5.4,0.2-10.2-1.2-12.8-4.7c0.5,1.6,1.5,3,2.9,4c4,2.7,9.9,2.1,9.9,2.1V37.7z"/>
	<path class="st23" d="M55.9,30l-5.3-1.4c-0.4,1.4,0.3,2.8,1.7,3.3h0.1C54,32.3,55.5,31.4,55.9,30z"/>
	<path class="st24" d="M53.7,31.9c-0.4,0.1-0.8,0.1-1.2,0c-1-0.3-1.7-1-1.9-2C51.9,29.8,53.2,30.6,53.7,31.9z"/>
	<path class="st1" d="M47.5,21c0.1,0.8,0.8,1.4,1.6,1.3s1.4-0.8,1.3-1.6c-0.1-0.8-0.8-1.4-1.6-1.3C48.1,19.4,47.5,20.1,47.5,21
		L47.5,21z"/>
	<path class="st1" d="M58.1,20c0.1,0.8,0.8,1.4,1.6,1.3s1.4-0.8,1.3-1.6c-0.1-0.8-0.8-1.4-1.6-1.3C58.6,18.4,58,19.2,58.1,20
		L58.1,20z"/>
	<polygon class="st23" points="53.3,17.9 55,27.8 59.6,25.5 	"/>
	<path class="st1" d="M61.2,17.3l-3.4-1.2c0.3-0.9,1.3-1.4,2.2-1.2c0,0,0,0,0.1,0C61,15.4,61.5,16.4,61.2,17.3z"/>
	<path class="st1" d="M45.8,18.9l3.2-1.8c-0.4-0.9-1.5-1.2-2.4-0.8h-0.1C45.7,16.9,45.4,18,45.8,18.9z"/>
	<path class="st23" d="M49.2,24.7c0,1.3-1.3,2.3-3.1,2.4c-1.7,0-3.2-0.9-3.2-2.2c0-1.2,1.3-2.3,3.1-2.4
		C47.7,22.4,49.2,23.4,49.2,24.7z"/>
	<path class="st23" d="M66.3,23.7c-0.1,1.3-1.6,2.1-3.4,2c-1.7-0.2-3-1.4-2.9-2.6c0.1-1.3,1.6-2.1,3.4-1.9
		C65.1,21.2,66.4,22.4,66.3,23.7z"/>
</g>
<path class="st18" d="M40.5,42.4c0.3,2,0.8,3.9,1.4,5.8c1.2,4,1.7,7.2,2,15.9s-2.9,49-2,58.7c-6.4,0-16.6-4.2-21.4-9.4
	c0.6-6.6,1.7-13.1,3.5-19.5c2.3-8.7,4.7-9.4,4.2-14.1s-5-23.2-1.2-32.7c2.2-0.3,4.4-0.7,6.6-1.3C39.7,44.4,40.5,42.4,40.5,42.4z"/>
<path class="st7" d="M39.6,39c-0.7,2.5-2,4.7-4,6.3c0,0,1.7,7.8,1.4,11.7s-1.1,7.6,0,7.6c1.4-0.2,2.9-0.6,4.3-1c0,0-2.6,3.8-2.3,4.9
	s4.2,14.4,4.2,14.4s1.7-15.3,1.4-19.8s-1.1-12.7-2.7-17.4C40.8,42.3,39.6,39,39.6,39z"/>
<path class="st2" d="M32.9,45.9c0,0,6.6,5.6,7.6,16.4c2.6,27.4-17.4,33-17.4,33c0.4-2.4,0.9-4.7,1.6-7c0,0,11.8-10.8,10.5-24.8
	c-0.9-10-5.7-15.9-8.2-16.6C27,47.1,29.5,46.4,32.9,45.9z"/>
<path class="st0" d="M19.6,95.8c2.6-0.9,5-2.5,7-4.5c5-4.5,5.2-5.2,9.3-9.2c1.4-1.4,2.6-2.7,3.2-3.3c1.2-1,2.2-2.1,3.1-3.4
	c0.8-1.2,1.4-2.5,1.7-3.9c0.1-1.5,0.6-3,0.2-4.5c-0.1-0.4-0.3-0.9-0.3-1.3c-0.1-0.6-0.1-1.2-0.1-1.8c0-1.1-0.2-2.1-0.5-3.1
	c-0.3-0.8-0.9-1.6-1.6-2.2c-0.5-0.5-1.2-0.8-1.9-0.6c0.2,0.8,0.3,1.5,0.5,2.4c-0.1,1.3-0.6,2.6-1.5,3.6c-1.5,2.2-2.8,3.4-3.1,2.9
	s0.3-1.8,0-3.9s-0.9-2.9-1.6-3c-1-0.2-1,0.9-1.3,2.6c-0.4,2.1-1.3,3.2-1.2,6.3c0,2.6,0.5,3.2-0.9,4.5c-0.8,0.7-3.6,2.5-3.6,2.5
	s0.7-2.9,1.8-7.9c2.1-9.7,2.1-19.2-1.7-20.4C22.5,49,18,51.6,16,59.5c-2.2,8.4-2.2,9.6-4,26.2C10.6,97.6,15.7,97.1,19.6,95.8z"/>
<path class="st23" d="M27,75.8c-3.3,2.6-10.5,6.6-11.3,10.7c0,0,0-3.2,4.3-7.2c2.4-2.3,4.9-4.3,7.6-6.2L27,75.8z"/>
<path class="st7" d="M27,47.1c-3.2,0.8-7.3,2.9-9.2,6.4s-2.4,6.1-3.6,11.2s-3.1,23.1-2.5,23.9c3.6-5.8,8.9-10.3,15.2-12.9
	c0,0,2.1-7.5,2.9-12.5S32.3,49.6,27,47.1z"/>
<path class="st13" d="M27,47.1c-3.2,0.8-7.3,2.9-9.2,6.4s-2.4,6.1-3.6,11.2s-3.1,23.1-2.5,23.9c3.6-5.8,8.9-10.3,15.2-12.9
	c0,0,2.1-7.5,2.9-12.5S32.3,49.6,27,47.1z"/>
</svg>
