<?xml version="1.0" encoding="utf-8"?>
<!-- Generator: Adobe Illustrator 27.0.0, SVG Export Plug-In . SVG Version: 6.00 Build 0)  -->
<svg version="1.1" id="Layer_1" xmlns="http://www.w3.org/2000/svg" xmlns:xlink="http://www.w3.org/1999/xlink" x="0px" y="0px"
	 viewBox="0 0 77 92.4" style="enable-background:new 0 0 77 92.4;" xml:space="preserve">
<style type="text/css">
	.st0{fill:#263238;}
	.st1{fill:#37474F;}
	.st2{fill:#FFA8A7;}
	.st3{fill:#F28F8F;}
	.st4{fill:#455A64;}
</style>
<g id="freepik--Character--inject-721">
	<path class="st0" d="M62.7,43.3C62.7,43.3,62.7,43.3,62.7,43.3c0-0.5,0-1-0.1-1.5c0-0.5-0.1-1-0.2-1.5c0,0,0,0,0-0.1
		C60.5,28.8,51,19.9,39.3,19.5l-2.8-0.1c-0.1,0-0.2,0-0.3,0c-1.3,0-2.5,0-3.7,0.2c-0.1,0-0.1,0-0.2,0c-5.1,0.7-9.8,3.1-13.3,6.7
		c-4.4,4.3-7.2,10.3-7.4,17.1V45c0,0,0,0,0,0c0,10.5,6.6,19.4,15.9,22.8c2.1,0.8,4.3,1.3,6.6,1.5c0.6,0.1,1.3,0.1,1.9,0.1h2.7
		c6.7,0,12.7-2.8,17-7.1c1.1-1.1,2.1-2.3,3-3.5c0.3-0.5,0.7-1,0.9-1.5c0.6-1,1.1-2.1,1.6-3.2c0.1-0.3,0.3-0.7,0.4-1
		c0.3-0.9,0.6-1.9,0.8-2.9c0-0.1,0-0.2,0-0.2c0.3-1.5,0.5-3.1,0.5-4.8c0-0.2,0-0.4,0-0.7C62.7,44,62.7,43.6,62.7,43.3z M25.6,51.9
		c-1-0.7-2.3-1-3.5-0.8l4.1-2.2c0.6,0.5,1.1,1.2,1.3,2L25.6,51.9z"/>
	<path class="st1" d="M54.4,30.9c0.5,4.5-0.8,9-3.6,12.5c-5.7,6.7-14.5,9.7-23.1,8c5.5-3.3,10.7-6.8,15.7-10.7
		C51.3,34.7,54.4,30.9,54.4,30.9z"/>
	<path class="st2" d="M59.6,45.6c0-0.4,0-0.7-0.1-1.1c0-0.1,0-0.3,0-0.4c-0.8-7.8-3.1-12-5.1-13.3c-1,5.9-4.2,11-8.9,14.5
		c-0.5,0.4-1,0.7-1.6,1c-0.6,0.4-1.2,0.7-1.9,1.1c-2.4,1.2-4.7,2.1-6.6,2.7c-0.5,0.1-0.9,0.2-1.4,0.4c-3.4,0.8-5.7,0.8-6.3,0.8
		c-0.1,0-0.2,0-0.2,0c0-0.2-0.1-0.3-0.1-0.5c-0.3-0.8-0.8-1.4-1.3-2c-1.8-1.6-4.8-1.9-6.6-0.1c-0.2,0.2-0.5,0.5-0.6,0.8
		c-2.3,3.3-1.5,7.8,1.7,10.1c4.2,3,6.7,0.3,6.7,0.3v18c0,0,1.5,4.9,8.2,4.9s7.1-4.9,7.1-4.9v0l0.2-5l0.1-2.5
		c3.8,0.8,7.8,1.4,9.8,0.6c1.8-0.7,5.1-3,6.4-11.5c0.1-0.8,0.2-1.6,0.3-2.4c0.1-0.6,0.1-1.2,0.2-1.9c0-0.2,0-0.5,0-0.7
		c0-0.4,0-0.7,0-1.1C59.8,50.6,59.8,48,59.6,45.6z"/>
	<path class="st0" d="M33.2,10.5c2.3,5.5-0.9,12.2-7.2,14.8s-13.3,0.4-15.7-5.2S11.2,8,17.5,5.3S30.8,5,33.2,10.5z"/>
	<path class="st0" d="M36.2,14.8l-4.4,4.6c1.2,1.2,3.1,1.3,4.3,0.1c0,0,0.1-0.1,0.1-0.1C37.5,18,37.4,16,36.2,14.8z"/>
	<path class="st0" d="M44.3,51c0,0.9-0.6,1.6-1.5,1.7c-0.9,0-1.6-0.7-1.6-1.6c0-0.9,0.7-1.6,1.6-1.6C43.6,49.5,44.3,50.2,44.3,51
		L44.3,51z"/>
	<path class="st3" d="M45.8,61.8l3.6,1.3c-0.3,1-1.4,1.6-2.4,1.3c0,0,0,0-0.1,0C46,63.9,45.4,62.8,45.8,61.8z"/>
	<path class="st0" d="M57.9,45.5l-3.7-1.3c0.3-1,1.3-1.5,2.3-1.2c0,0,0.1,0,0.1,0C57.7,43.3,58.2,44.4,57.9,45.5z"/>
	<path class="st0" d="M56.6,50.3c0.1,0.9-0.6,1.6-1.4,1.7s-1.6-0.6-1.7-1.4c0-0.1,0-0.2,0-0.2c0-0.9,0.6-1.6,1.5-1.7c0,0,0,0,0,0
		C55.8,48.7,56.6,49.4,56.6,50.3z"/>
	<polygon class="st3" points="48.9,49.1 48.8,58.7 53.9,57.3 	"/>
	<path class="st3" d="M42.9,70.5c-4-0.7-12.3-3.3-13.5-6.6c0.5,1.7,1.4,3.2,2.8,4.3c2.4,2.2,10.6,4.9,10.6,4.9L42.9,70.5z"/>
	<path class="st4" d="M34.6,47.5l-0.4,0.2l-6.8,3.1c-0.3-0.8-0.8-1.4-1.3-2l7.9-3.8l0.2-0.1L34.6,47.5z"/>
	<path class="st4" d="M63.8,44.4c-3-0.5-6-0.4-9,0.3c-2.7,0.8-3.5,1.7-5,1.8c-1.5,0-2.5-0.9-5.3-1.7c-3-0.5-6-0.5-9-0.1
		c-1,0-2,0.4-1.9,1.6s0.9,1.4,1.1,2.4c0.4,3.4,1.2,7.6,5.7,7.8c9.1,0.6,6.3-8.3,9.6-7.8c1.2,0.3,1,2.6,1.7,4.3
		c0.3,0.7,0.6,1.3,1.1,1.8c2.9,3.1,8.6,1.4,9.5-1.7c0.8-1.6,0.7-4,1.5-5.4C64.5,47.1,65.1,44.8,63.8,44.4z M46.3,51.3
		c-0.2,0.9-0.6,1.8-1.3,2.5c-1,1-2.4,1.5-3.8,1.4c-2,0.2-3.8-1-4.4-2.9c-0.1-0.2-0.2-0.4-0.2-0.5c-0.4-1.4-0.9-4.4-0.1-5.3
		c1.4-1.4,7.9-1.3,9.8,0.9C46.9,48.3,46.7,49.9,46.3,51.3z M58.5,45.4c4.2,0,4.3,1.1,3.5,5.2c-0.2,1.7-1.2,3.1-2.6,4
		c-2.5,1.3-6-0.1-6.5-2.5C51.4,47.1,53.4,45.9,58.5,45.4L58.5,45.4z"/>
</g>
</svg>
