<?xml version="1.0" encoding="utf-8"?>
<!-- Generator: Adobe Illustrator 27.0.0, SVG Export Plug-In . SVG Version: 6.00 Build 0)  -->
<svg version="1.1" id="Layer_1" xmlns="http://www.w3.org/2000/svg" xmlns:xlink="http://www.w3.org/1999/xlink" x="0px" y="0px"
	 viewBox="0 0 178.1 383.4" style="enable-background:new 0 0 178.1 383.4;" xml:space="preserve">
<style type="text/css">
	.st0{fill:#FFA8A7;}
	.st1{fill:#003366;}
	.st2{opacity:0.35;enable-background:new    ;}
	.st3{opacity:0.45;enable-background:new    ;}
	.st4{opacity:0.7;fill:#FFFFFF;enable-background:new    ;}
	.st5{opacity:0.55;enable-background:new    ;}
	.st6{fill:#455A64;}
	.st7{fill:#263238;}
	.st8{fill:#37474F;}
	.st9{fill:#F28F8F;}
	.st10{opacity:0.1;enable-background:new    ;}
	.st11{opacity:0.5;enable-background:new    ;}
	.st12{opacity:0.8;enable-background:new    ;}
	.st13{opacity:0.3;enable-background:new    ;}
	.st14{opacity:0.2;enable-background:new    ;}
	.st15{opacity:0.6;fill:#003366;enable-background:new    ;}
</style>
<g id="freepik--Character--inject-721">
	<path class="st0" d="M125.8,81.3c1-0.6,1.8-7.6,1-12.6s1.5-6.2,2.5-4.5c0.6,0.9,1,1.9,1.2,3c2.4,0.7,4.5,2,6.1,3.8
		c2.6,2.9,5.6,6.5,4.3,13.8c-0.2,1.4-1.7,3.3-2.4,5.4c-1.1,3.2,12.9,24.7,12.9,38.9c0,13.7-9.9,9.3-18.5,4.8
		c-9.9-5.2-23.1-14.7-23.1-14.7L103.3,95c3.5-0.5,7.4,0.5,15.8,7.7c4.9,4.2,9.5,8.8,13.9,13.6c-2.6-10.2-4.2-20.4-8.4-24L125.8,81.3
		z"/>
	<path class="st1" d="M146.7,70.4l-24.3-13.2c-0.5-0.3-1-0.3-1.5-0.1c-0.4,0.2-1.8,1-2.2,1.2c-0.4,0.3-0.7,0.7-0.8,1.2l-1.6,14.4
		c-0.1,1.3,0.6,2.6,1.7,3.3l24.3,13.2c0.4,0.3,1,0.3,1.4,0.1c0.4-0.2,2-1.1,2.4-1.3c0.4-0.3,0.6-0.7,0.7-1.2
		c0.4-3.6,1.2-10.8,1.6-14.4C148.5,72.4,147.8,71.1,146.7,70.4z"/>
	<path class="st2" d="M144.4,71.7l-24.3-13.2c-0.5-0.3-1.1-0.3-1.6,0l0.1-0.1c0.4-0.2,1.8-1,2.2-1.2c0.5-0.3,1.1-0.2,1.5,0.1
		l24.3,13.2c0.3,0.2,0.6,0.5,0.9,0.8l-2.2,1.3l0.1,0.1C145.2,72.3,144.8,72,144.4,71.7z"/>
	<path class="st3" d="M118.1,77.3l24.3,13.2c0.6,0.4,1.5,0.3,1.9-0.3c0.2-0.2,0.3-0.5,0.3-0.8c0.4-3.6,1.2-10.8,1.6-14.4
		c0.1-1.3-0.6-2.6-1.7-3.2l-24.3-13.2c-0.6-0.4-1.5-0.3-1.9,0.3c-0.2,0.2-0.3,0.5-0.3,0.8l-1.6,14.4
		C116.3,75.4,116.9,76.6,118.1,77.3z"/>
	<path class="st2" d="M144,80.6c0.5,0.3,0.7,0.9,0.7,1.4c0,0.3-0.2,0.6-0.6,0.6c-0.1,0-0.2,0-0.3-0.1c-0.5-0.3-0.7-0.9-0.7-1.4
		c0-0.3,0.2-0.6,0.6-0.6C143.8,80.5,143.9,80.5,144,80.6z"/>
	<path class="st1" d="M119.8,76.2c-0.5-0.3-0.8-0.9-0.8-1.5l1.7-14.4l21.8,11.9c0.5,0.3,0.8,0.9,0.8,1.5l-1.7,14.4L119.8,76.2z"/>
	<path class="st4" d="M119.8,76.2c-0.5-0.3-0.8-0.9-0.8-1.5l1.7-14.4l21.8,11.9c0.5,0.3,0.8,0.9,0.8,1.5l-1.7,14.4L119.8,76.2z"/>
	<path class="st1" d="M141.7,87.5l-0.1,0.6l-21.8-11.9c-0.5-0.3-0.8-0.9-0.8-1.5l1.7-14.4l0.5,0.3l-1.6,13.8c0,0.6,0.3,1.2,0.8,1.5
		L141.7,87.5z"/>
	<path class="st5" d="M148.4,73.7c-0.4,3.6-1.2,10.8-1.6,14.4c0,0.5-0.3,0.9-0.7,1.2c-0.4,0.2-2,1.1-2.4,1.3h-0.1
		c0.5-0.2,0.8-0.7,0.9-1.3c0.4-3.6,1.2-10.8,1.6-14.4c0.1-0.9-0.2-1.8-0.8-2.5l2.3-1.3C148.2,71.9,148.5,72.8,148.4,73.7z"/>
	<path class="st0" d="M125.3,81.3c-0.8-0.7-1-3-2.2-5c-1.5-2.3-5.2-1.9-4.1,0s1.4,3.6,2,8.2s1.7,5.1,3.5,7.7l1.3-10.7L125.3,81.3z"
		/>
	<path class="st6" d="M141,58.9c-0.6-0.5-0.9-1.2-0.9-2l0.1-3.2c0-0.8,0.5-1.2,1-0.9c0.6,0.5,0.9,1.2,0.9,2L142,58
		C142,58.9,141.5,59.3,141,58.9z"/>
	<path class="st6" d="M134.1,57.5c-0.4-0.3-0.7-0.7-0.8-1.2l-0.9-3.4c-0.2-0.9,0-1.7,0.4-1.8s1,0.5,1.2,1.3l0.9,3.4
		c0.2,0.8,0,1.6-0.4,1.8C134.4,57.6,134.3,57.6,134.1,57.5z"/>
	<path class="st6" d="M153,101.3c-0.2-0.1-0.3-0.3-0.5-0.5l-1.7-2.7c-0.4-0.7-0.5-1.5-0.2-2.2c0.3-0.5,0.9-0.4,1.3,0.3l1.7,2.7
		c0.4,0.7,0.5,1.5,0.2,2.2c-0.1,0.3-0.4,0.4-0.7,0.3C153.1,101.4,153,101.4,153,101.3z"/>
	<path class="st6" d="M155.7,90.3l-2-1.3c-0.6-0.5-0.9-1.2-0.9-2s0.5-1.2,1-0.9l2,1.3c0.6,0.5,0.9,1.2,0.9,2
		C156.6,90.3,156.2,90.7,155.7,90.3z"/>
	<path class="st6" d="M152.3,77.2c-0.4-0.3-0.7-0.7-0.8-1.2c-0.2-0.8,0-1.6,0.4-1.8l1.8-0.5c0.5-0.1,1,0.5,1.2,1.3s0,1.6-0.4,1.8
		l-1.8,0.5C152.6,77.3,152.4,77.3,152.3,77.2z"/>
	<path class="st6" d="M147.7,66.2c-0.2-0.1-0.3-0.3-0.5-0.5c-0.4-0.7-0.5-1.5-0.2-2.2l1.1-2.1c0.3-0.5,0.9-0.4,1.3,0.3
		c0.4,0.7,0.5,1.5,0.2,2.2l-1.1,2.1c-0.1,0.3-0.4,0.4-0.7,0.3C147.8,66.2,147.7,66.2,147.7,66.2z"/>
	<path class="st7" d="M120.9,60.4L120.9,60.4c0-0.5,0-1-0.1-1.5c0-0.5-0.1-1-0.2-1.5c0,0,0,0,0-0.1c-1.8-11.4-11.4-20.3-23.1-20.7
		l-2.8-0.1c-0.1,0-0.2,0-0.3,0c-1.3,0-2.5,0-3.7,0.2c-0.1,0-0.1,0-0.2,0c-5.1,0.7-9.8,3.1-13.3,6.7c-4.4,4.3-7.2,10.3-7.4,17.1v1.6
		l0,0c0,10.5,6.6,19.4,15.9,22.8c2.1,0.8,4.3,1.3,6.6,1.5c0.6,0.1,1.3,0.1,1.9,0.1h2.7c6.7,0,12.7-2.8,17-7.1c1.1-1.1,2.1-2.3,3-3.5
		c0.3-0.5,0.7-1,0.9-1.5c0.6-1,1.1-2.1,1.6-3.2c0.1-0.3,0.3-0.7,0.4-1c0.3-0.9,0.6-1.9,0.8-2.9c0-0.1,0-0.2,0-0.2
		c0.3-1.5,0.5-3.1,0.5-4.8c0-0.2,0-0.4,0-0.7C120.9,61.1,120.9,60.8,120.9,60.4z M83.8,69c-1-0.7-2.3-1-3.5-0.8l4.1-2.2
		c0.6,0.5,1.1,1.2,1.3,2L83.8,69z"/>
	<path class="st1" d="M85.6,95.1l-9.3,0.3c-1.4,0.3-2.7,0.8-4,1.3c-4.1,2.1-4.6,6.2-4.8,11.1c-0.2,5.3,0.2,9.8,5.1,18.2l4.5,10.4
		c0,0-0.1,5-0.3,7.2c1.5,7.7,30.9,15,39.4,4.3c0.3-6.7,0.6-13.3,0.6-13.3c8-7.8,6.3-16.3,3.5-21.9c-5.6-11.2-12.7-17.9-17.7-17.6
		L85.6,95.1z"/>
	<path class="st8" d="M112.6,48c0.5,4.5-0.8,9-3.6,12.5c-5.7,6.7-14.5,9.7-23.1,8c5.5-3.3,10.7-6.8,15.7-10.7
		C109.5,51.8,112.6,48,112.6,48z"/>
	<path class="st0" d="M117.8,62.7c0-0.4,0-0.7-0.1-1.1c0-0.1,0-0.3,0-0.4c-0.8-7.8-3.1-12-5.1-13.3c-1,5.9-4.2,11-8.9,14.5
		c-0.5,0.4-1,0.7-1.6,1c-0.6,0.4-1.2,0.7-1.9,1.1c-2.4,1.2-4.7,2.1-6.6,2.7c-0.5,0.1-0.9,0.2-1.4,0.4c-3.4,0.8-5.7,0.8-6.3,0.8
		c-0.1,0-0.2,0-0.2,0c0-0.2-0.1-0.3-0.1-0.5c-0.3-0.8-0.8-1.4-1.3-2c-1.8-1.6-4.8-1.9-6.6-0.1c-0.2,0.2-0.5,0.5-0.6,0.8
		c-2.3,3.3-1.5,7.8,1.7,10.1c4.2,3,6.7,0.3,6.7,0.3v18l21.4,19.7L100.8,95l0,0l0.2-5l0.1-2.5c3.8,0.8,7.8,1.4,9.8,0.6
		c1.8-0.7,5.1-3,6.4-11.5c0.1-0.8,0.2-1.6,0.3-2.4c0.1-0.6,0.1-1.2,0.2-1.9c0-0.2,0-0.5,0-0.7c0-0.4,0-0.7,0-1.1
		C118,67.7,118,65.1,117.8,62.7z"/>
	<path class="st9" d="M132.9,116.2c1.5,7.5,4.8,12.1,7.2,14.1c0,0-8.2-2.7-9.2-16.3L132.9,116.2z"/>
	<path class="st7" d="M91.4,27.6c2.3,5.5-0.9,12.2-7.2,14.8s-13.3,0.4-15.7-5.2s0.9-12.2,7.2-14.9S89,22.1,91.4,27.6z"/>
	<path class="st7" d="M94.4,31.9L90,36.4c1.2,1.2,3.1,1.3,4.3,0.1l0.1-0.1C95.7,35.1,95.7,33.1,94.4,31.9z"/>
	<path class="st6" d="M85.6,95.1l-5.2,0.3c2.2,3.6,5,6.8,8.2,9.6c7.5,6.7,18.4,9.9,18.4,9.9L85.6,95.1z"/>
	<path class="st6" d="M100.8,95.2l3.7-0.3c0,0,6.2,7.5,2.5,19.9L100.8,95.2z"/>
	<path class="st10" d="M82.7,149.3c0.9-1.7,1.3-3.6,0.9-5.5c-1.1-4.3-3.1-9.2-3.7-13.4c-0.3-2.2-0.2-6.6-0.4-11.6
		c-0.1-4.8-0.4-9.7-1-14.5c0-0.2-2.2-0.9-2.4-1c-1.4-0.6-2.6-1.1-4-1.7c-1.1-0.5-2.3-0.7-3.5-0.9c-0.8,2.3-1.2,4.6-1.1,7
		c-0.2,5.3,0.2,9.8,5.1,18.2l4.5,10.4c0,0-0.1,5-0.3,7.2C77.1,145.7,79.4,147.6,82.7,149.3z"/>
	<path class="st7" d="M102.5,68.1c0,0.9-0.6,1.6-1.5,1.7c-0.9,0-1.6-0.7-1.6-1.6s0.7-1.6,1.6-1.6C101.8,66.6,102.5,67.3,102.5,68.1
		L102.5,68.1z"/>
	<path class="st9" d="M104,78.9l3.6,1.3c-0.3,1-1.4,1.6-2.4,1.3c0,0,0,0-0.1,0C104.2,81,103.6,79.9,104,78.9z"/>
	<path class="st7" d="M116.1,62.6l-3.7-1.3c0.3-1,1.3-1.5,2.3-1.2h0.1C115.9,60.4,116.5,61.5,116.1,62.6z"/>
	<path class="st7" d="M114.8,67.4c0.1,0.9-0.6,1.6-1.4,1.7s-1.6-0.6-1.7-1.4c0-0.1,0-0.2,0-0.2c0-0.9,0.6-1.6,1.5-1.7l0,0
		C114.1,65.8,114.8,66.5,114.8,67.4z"/>
	<polygon class="st9" points="107.1,66.2 107,75.8 112.1,74.4 	"/>
	<path class="st9" d="M101.1,87.6c-4-0.7-12.3-3.3-13.5-6.6c0.5,1.7,1.4,3.2,2.8,4.3c2.4,2.2,10.6,4.9,10.6,4.9L101.1,87.6z"/>
	<polygon class="st0" points="110.4,343.8 122.1,341.2 118.2,324.2 105.8,326.7 	"/>
	<path class="st1" d="M108.6,349.7c0.1,2.7,2.6,9.6,2.6,9.6s1.8,2.1,6.2,2.7l-0.9-10.3L108.6,349.7z"/>
	<path class="st11" d="M108.6,349.7c0.1,2.7,2.6,9.6,2.6,9.6s1.8,2.1,6.2,2.7l-0.9-10.3L108.6,349.7z"/>
	<polygon class="st1" points="117.4,362 125.4,356.7 125.4,348.4 116.9,356.1 	"/>
	<polygon class="st12" points="117.4,362 125.4,356.7 125.4,348.4 116.9,356.1 	"/>
	<path class="st1" d="M121,336.4l-0.4-1.7c1.4,0.2,5.9,9.5,11.2,15.1c4.9,5.1,12.1,6.7,14.9,8.8c3.7,2.7-0.5,8.7-9.6,9.2
		c-4.5,0.2-11.8-0.7-14.4-3.2s-4.6-7.6-6.6-9.3s-6.1-3.3-7.5-5.5c-0.8-1.2-0.9-4.3-0.8-6.9c0.1-2.4,0.1-5,1-5l0.4,1.4
		c0.4,1.1,2,2.1,6.7,1.1C118,339.9,121.7,338.7,121,336.4z"/>
	<path class="st13" d="M121,336.4l-0.4-1.7c1.4,0.2,5.9,9.5,11.2,15.1c4.9,5.1,12.1,6.7,14.9,8.8c3.7,2.7-0.5,8.7-9.6,9.2
		c-4.5,0.2-11.8-0.7-14.4-3.2s-4.6-7.6-6.6-9.3s-6.1-3.3-7.5-5.5c-0.8-1.2-0.9-4.3-0.8-6.9c0.1-2.4,0.1-5,1-5l0.4,1.4
		c0.4,1.1,2,2.1,6.7,1.1C118,339.9,121.7,338.7,121,336.4z"/>
	<path class="st1" d="M23.1,306.3c-1.2,2.2-2.2,16.4-2.2,16.4s3.9,4.5,6,5.8l4.7-13.8L23.1,306.3z"/>
	<path class="st11" d="M23.1,306.3c-1.2,2.2-2.2,16.4-2.2,16.4s3.9,4.5,6,5.8l4.7-13.8L23.1,306.3z"/>
	<polygon class="st1" points="26.9,328.4 38,324.5 41.2,315.3 29.8,319.9 	"/>
	<polygon class="st12" points="26.9,328.4 38,324.5 41.2,315.3 29.8,319.9 	"/>
	<path class="st1" d="M31.2,297.7c-0.8-0.7-1.8,0.8-3.9,3.1c-1.6,1.6-2.9,3.4-4.1,5.3c-1.2,2.3,2.2,7.5,4.5,10.3s2.8,5.5,3.3,9.8
		c0.6,5.2,0,8.5,6.9,12.4c5.6,3.1,16,2.6,18.1,0.2c3.5-4.1-6.2-8.1-8.6-15.4c-3.2-10.1-3.7-11.8-4.2-19.1L31.2,297.7z"/>
	<path class="st13" d="M31.2,297.7c-0.8-0.7-1.8,0.8-3.9,3.1c-1.6,1.6-2.9,3.4-4.1,5.3c-1.2,2.3,2.2,7.5,4.5,10.3s2.8,5.5,3.3,9.8
		c0.6,5.2,0,8.5,6.9,12.4c5.6,3.1,16,2.6,18.1,0.2c3.5-4.1-6.2-8.1-8.6-15.4c-3.2-10.1-3.7-11.8-4.2-19.1L31.2,297.7z"/>
	<path class="st0" d="M35.8,290.9l-4.7,6.9c-2,3-1,5.4,2,7.4l0,0c2.9,1.9,6.5,3,8.8,0.5l7.4-8L35.8,290.9z"/>
	<path class="st6" d="M116.2,148c4.5,23,1.4,47.8-3.4,69c-3.8,16.5-8,24.6-10,27.9S45.5,302,45.5,302s-9.4-0.7-10.9-9.8
		c0,0,22.7-38.5,27.6-46.4s22.3-20,22.3-20L83,151.7L116.2,148z"/>
	<path class="st6" d="M100.8,181.8c0,0,5,0.8,11.1-7.7l4.2-26.1l-4.8,1.4c-13.5,1.8-25.5,0.8-34.7-5.7c-2.6,8.6-17.7,22.8-15.3,39.8
		c3.4,24.1,25.1,65.5,25.1,65.5c-0.3,3.3-1.7,17.2,1.5,29.4c5,19.4,18.5,52.2,18.5,52.2s8.5,1.2,12.7-3.7c0,0-7.5-66.6-9.5-83.6
		C107.5,224.7,100.8,181.8,100.8,181.8z"/>
	<path class="st8" d="M108.2,231.9c0,0-6.1-44.6-7.4-50.1c0,0,9.9-3.8,13-7.3c0,0-2.2,4.9-9.3,9.2L108.2,231.9z"/>
	<path class="st8" d="M76.9,141.5l-2.1,6.4c0,0,6,8,22.1,8.9s19.9-5.5,19.9-5.5l-0.4-7.6c0,0-3.5,4.2-18.3,3.4
		S76.9,141.5,76.9,141.5z"/>
	<path class="st1" d="M94.3,230.3v40.2c-0.1,2.2-1.3,4.3-3.2,5.5l-3.8,2.2c-1.4,0.7-2.9,0.9-4.5,0.6c-0.6-0.1-1.3-0.3-1.8-0.6l0,0
		l-0.2-0.1l-44.6-25.8c-3.3-1.9-5.3-5.4-5.3-9.1v-37.8c0.1-1,0.6-1.8,1.4-2.3l7.4-4.3c0.8-0.4,1.9-0.4,2.7,0L93,227.9
		c0.4,0.2,0.8,0.6,1,1C94.2,229.3,94.3,229.8,94.3,230.3z"/>
	<path class="st14" d="M94.3,230.3v40.2c-0.1,2.2-1.3,4.3-3.2,5.5l-3.8,2.2c-1.4,0.7-2.9,0.9-4.5,0.6c-0.6-0.1-1.3-0.3-1.8-0.6l0,0
		c1.7,0.8,3.1-0.1,3.1-2.1V237c0-0.7-0.2-1.4-0.6-2l10.4-6C94.2,229.3,94.3,229.8,94.3,230.3z"/>
	<path class="st13" d="M84.2,236.9c-0.1-1.4-0.8-2.7-2-3.5l-47.9-27.6c-1.9-1.1-3.4-0.2-3.4,2v35.4c0,3.8,2,7.2,5.3,9.1l44.6,25.8
		c1.9,1.1,3.4,0.2,3.4-2V236.9z"/>
	<path class="st15" d="M30.9,218.4c0.2,2.8,1.6,5.3,3.9,6.8l45.5,26.2c2.2,1.2,3.9,0.2,3.9-2.3v-13.4c0-0.8,0.4-1.5,1.1-1.9l7-4
		l-52.5-31.2l-7.7,4.4c-0.7,0.4-1.1,1.1-1.1,1.9L30.9,218.4z"/>
	<path class="st1" d="M39.7,198.7l-7.7,4.4c-0.3,0.2-0.6,0.5-0.8,0.9l53.3,30.7c0.2-0.3,0.5-0.6,0.8-0.8l7-4L39.7,198.7z"/>
	<path class="st8" d="M54,233.3l7.1,4.1c1.2,0.8,1.9,2,2,3.4v1.6c0,1.2-0.9,1.8-1.9,1.1l-7.1-4.1c-1.2-0.7-1.9-2-2-3.4v-1.6
		C52,233.2,52.9,232.7,54,233.3z"/>
	<path class="st0" d="M76.3,95.4c-7.4,1.2-12.6,4.1-16.2,16.1s-12,31.6-12.2,39.6s11,48.5,11,48.5s7,3.7,10-0.9L64,153.3l12.5-36.9
		C76.5,116.4,82.6,106.3,76.3,95.4z"/>
	<path class="st7" d="M57,205.7v5.6l-3.2,1.9v-8.5c0-0.4,0.3-0.6,0.7-0.4L57,205.7z"/>
	<path class="st6" d="M74,211.6V222l-2.4,1.4l-1.6-0.9V214c0-0.5-0.3-0.9-0.7-1.2L57,205.7l-2.5-1.5c-0.4-0.2-0.7,0-0.7,0.4v8.5
		l-1.6-0.9v-10.4v-0.1c0.1-0.4,0.3-0.8,0.7-1.1l1-0.6c0.4-0.2,0.9-0.2,1.4,0l18,10.4C73.6,210.7,73.9,211.1,74,211.6z"/>
	<path class="st8" d="M71.5,213v10.4l-1.6-0.9V214c0-0.5-0.3-0.9-0.7-1.2L57,205.7l-2.5-1.5c-0.4-0.2-0.7,0-0.7,0.4v8.5l-1.6-0.9
		v-10.4v-0.1c0.1-0.3,0.3-0.5,0.7-0.3l18,10.4C71.2,212.1,71.5,212.5,71.5,213z"/>
	<path class="st0" d="M54.1,181.5c0,0,2.3,8.4,2.2,9.9s-2.2,8.1-2.2,12.8c-0.4,1.7,2,5.1,5.9,6.9c1.7,0.8,4.6,3.5,5.9,3.6
		c0.9,0.1,3.3-2,3.3-2l-1.6-0.9c0,0-2.3-2.7,0.2-4.5l4.9,2.9c0.3-1.5,0.3-3,0-4.5c-0.5-2.5-0.5-5.6-0.9-8.2c-0.5-2-1.4-4-2.6-5.7
		l-2.4-11.2L54.1,181.5z"/>
	<path class="st6" d="M92.8,64.6l-0.4,0.2L85.7,68c-0.3-0.8-0.8-1.4-1.3-2l7.9-3.8l0.2-0.1L92.8,64.6z"/>
	<path class="st6" d="M122,61.5c-3-0.5-6-0.4-9,0.3c-2.7,0.8-3.5,1.7-5,1.8c-1.5,0-2.5-0.9-5.3-1.7c-3-0.5-6-0.5-9-0.1
		c-1,0-2,0.4-1.9,1.6c0.1,1.2,0.9,1.4,1.1,2.4c0.4,3.4,1.2,7.6,5.7,7.8c9.1,0.6,6.3-8.3,9.6-7.8c1.2,0.3,1,2.6,1.7,4.3
		c0.3,0.7,0.6,1.3,1.1,1.8c2.9,3.1,8.6,1.4,9.5-1.7c0.8-1.6,0.7-4,1.5-5.4C122.7,64.2,123.4,61.9,122,61.5z M104.5,68.4
		c-0.2,0.9-0.6,1.8-1.3,2.5c-1,1-2.4,1.5-3.8,1.4c-2,0.2-3.8-1-4.4-2.9c-0.1-0.2-0.2-0.4-0.2-0.5c-0.4-1.4-0.9-4.4-0.1-5.3
		c1.4-1.4,7.9-1.3,9.8,0.9C105.1,65.4,104.9,67,104.5,68.4z M116.7,62.5c4.2,0,4.3,1.1,3.5,5.2c-0.2,1.7-1.2,3.1-2.6,4
		c-2.5,1.3-6-0.1-6.5-2.5C109.6,64.2,111.6,63.1,116.7,62.5L116.7,62.5z"/>
</g>
</svg>
