<?xml version="1.0" encoding="utf-8"?>
<!-- Generator: Adobe Illustrator 26.0.3, SVG Export Plug-In . SVG Version: 6.00 Build 0)  -->
<svg version="1.1" id="Layer_1" xmlns="http://www.w3.org/2000/svg" xmlns:xlink="http://www.w3.org/1999/xlink" x="0px" y="0px"
	 viewBox="0 0 500 500" style="enable-background:new 0 0 500 500;" xml:space="preserve">
<style type="text/css">
	.st0{fill:#F5F5F5;}
	.st1{fill:#EBEBEB;}
	.st2{opacity:0.5;fill:#FFFFFF;enable-background:new    ;}
	.st3{fill:#E0E0E0;}
	.st4{fill:#F0F0F0;}
	.st5{fill:#263238;}
	.st6{fill:#003366;}
	.st7{opacity:0.1;fill:#FFFFFF;enable-background:new    ;}
	.st8{opacity:0.8;fill:#FFFFFF;enable-background:new    ;}
	.st9{opacity:0.6;fill:#FFFFFF;enable-background:new    ;}
	.st10{fill:#FFFFFF;}
	.st11{fill:#455A64;}
	.st12{opacity:0.7;enable-background:new    ;}
	.st13{opacity:0.5;enable-background:new    ;}
	.st14{opacity:0.6;enable-background:new    ;}
	.st15{opacity:0.79;fill:#263238;enable-background:new    ;}
	.st16{opacity:0.6;}
	.st17{opacity:0.5;fill:#E0E0E0;enable-background:new    ;}
	.st18{opacity:0.2;enable-background:new    ;}
	.st19{opacity:0.4;enable-background:new    ;}
	.st20{fill:#C8856A;}
	.st21{fill:#37474F;}
	.st22{opacity:0.1;enable-background:new    ;}
	.st23{fill:#AF6152;}
	.st24{fill:#FFA8A7;}
	.st25{opacity:0.2;fill:#FFFFFF;enable-background:new    ;}
	.st26{opacity:0.3;enable-background:new    ;}
	.st27{opacity:0.18;enable-background:new    ;}
	.st28{opacity:0.15;enable-background:new    ;}
	.st29{fill:#FAFAFA;}
</style>
<g id="freepik--Floor--inject-1--inject-101">
	<path class="st0" d="M97.8,419.9c84.1,43.9,220.4,43.9,304.5,0s84.1-115.1,0-159.1s-220.4-43.9-304.5,0S13.7,376,97.8,419.9z"/>
</g>
<g id="freepik--Shadows--inject-1--inject-101">
	<path class="st1" d="M204,381.8c22.7,10.8,59.4,10.8,82,0s22.7-28.3,0-39.1s-59.4-10.8-82,0S181.3,371,204,381.8z"/>
	<path class="st1" d="M400.2,355.1l-81,46.8c-1.4,0.7-3,0.7-4.3,0l-101.3-58.5c-0.7-0.2-1.1-1-0.8-1.7c0.1-0.4,0.4-0.7,0.8-0.8
		l81-46.8c1.4-0.7,3-0.7,4.3,0l101.3,58.5c0.7,0.2,1,1,0.8,1.7C400.9,354.6,400.6,354.9,400.2,355.1z"/>
</g>
<g id="freepik--Pencil--inject-1--inject-101">
	<path class="st0" d="M422.7,98.1v21.5c0,0-8.8,4.1-25,4.1s-25-4.1-25-4.1v-21l16.9-47.8c-0.2,1.5,0.6,3,2.6,4.2
		c2.9,1.8,6.6,2,9.7,0.6c0.4-0.2,0.9-0.4,1.3-0.6c2.1-1.2,3-2.9,2.6-4.5L422.7,98.1z"/>
	<path class="st2" d="M422.7,98.1v21.5c0,0-8.8,4.1-25,4.1s-25-4.1-25-4.1v-21l16.9-47.8c-0.2,1.5,0.6,3,2.6,4.2
		c2.9,1.8,6.6,2,9.7,0.6c0.4-0.2,0.9-0.4,1.3-0.6c2.1-1.2,3-2.9,2.6-4.5L422.7,98.1z"/>
	<path class="st0" d="M420.8,248.6c-1.4,1.9-3.3,3.5-5.4,4.6c-9.8,5.7-25.6,5.7-35.4,0c-2.1-1.1-3.9-2.7-5.4-4.6
		c-1.1-1.5-1.8-3.3-1.9-5.2v11.1c0.2,3.6,2.6,7.1,7.3,9.8c9.8,5.6,25.6,5.6,35.4,0c4.9-2.8,7.3-6.5,7.3-10.2V243
		C422.7,245,422,247,420.8,248.6z"/>
	<path class="st1" d="M420.8,237.4c-1.4,1.9-3.3,3.5-5.4,4.6c-0.6,0.3-1.2,0.6-1.8,0.9c-9.2,4.4-22.6,4.4-31.8,0
		c-0.6-0.3-1.2-0.6-1.8-0.9c-2.1-1.1-3.9-2.7-5.4-4.6c-1.1-1.5-1.8-3.3-1.9-5.2v11.1c0.1,1.9,0.8,3.7,1.9,5.2
		c1.5,1.9,3.3,3.5,5.4,4.6c9.8,5.6,25.6,5.6,35.4,0c2.1-1.1,3.9-2.7,5.4-4.6c1.2-1.6,1.9-3.6,1.9-5.6v-11.1
		C422.7,233.9,422,235.8,420.8,237.4z"/>
	<path class="st0" d="M420.8,226.3c-1.5,1.9-3.3,3.5-5.4,4.6c-0.6,0.3-1.2,0.6-1.8,0.9c-9.2,4.4-22.6,4.4-31.8,0
		c-0.6-0.3-1.2-0.6-1.8-0.9c-2.1-1.2-3.9-2.7-5.4-4.6c-1.1-1.5-1.8-3.3-1.9-5.2v11.1c0.1,1.9,0.8,3.7,1.9,5.2
		c1.5,1.9,3.3,3.5,5.4,4.6c0.6,0.3,1.2,0.6,1.8,0.9c9.2,4.4,22.6,4.4,31.8,0c0.6-0.3,1.2-0.6,1.8-0.9c2.1-1.1,3.9-2.7,5.4-4.6
		c1.2-1.6,1.9-3.6,1.9-5.6v-11.1C422.7,222.7,422,224.7,420.8,226.3z"/>
	<path class="st0" d="M372.6,98.5v122.6c0.1,1.9,0.8,3.7,1.9,5.2c1.5,1.9,3.3,3.5,5.4,4.6c0.6,0.3,1.2,0.6,1.8,0.9
		c2.4,1.1,5,2,7.6,2.5l-4.5-129.2L372.6,98.5z"/>
	<path class="st0" d="M410.5,105.1L406,234.3c2.6-0.5,5.2-1.3,7.6-2.5c0.6-0.3,1.2-0.6,1.8-0.9c2.1-1.2,3.9-2.7,5.4-4.6
		c1.2-1.6,1.9-3.6,1.9-5.6V98.1L410.5,105.1z"/>
	<path class="st3" d="M372.6,98.5v122.6c0.1,1.9,0.8,3.7,1.9,5.2c1.5,1.9,3.3,3.5,5.4,4.6c0.6,0.3,1.2,0.6,1.8,0.9
		c2.4,1.1,5,2,7.6,2.5l-4.5-129.2L372.6,98.5z"/>
	<path class="st3" d="M410.5,105.1L406,234.3c2.6-0.5,5.2-1.3,7.6-2.5c0.6-0.3,1.2-0.6,1.8-0.9c2.1-1.2,3.9-2.7,5.4-4.6
		c1.2-1.6,1.9-3.6,1.9-5.6V98.1L410.5,105.1z"/>
	<path class="st1" d="M384.8,105.1v128c1.5,0.5,3,0.9,4.5,1.2c2.7,0.6,5.5,0.8,8.3,0.8l0,0c2.8,0,5.6-0.3,8.3-0.8
		c1.5-0.3,3-0.7,4.5-1.2v-128C410.4,105.1,384.8,105.1,384.8,105.1z"/>
	<path class="st3" d="M403.2,54.9c-0.4,0.2-0.8,0.4-1.3,0.6c-3.1,1.4-6.8,1.2-9.7-0.6c-2-1.1-2.9-2.7-2.6-4.2l5.8-16.1
		c0.4-1,1.3-1.6,2.4-1.6l0,0c1,0,2,0.6,2.4,1.6l5.7,15.8l0,0C406.1,52,405.3,53.7,403.2,54.9z"/>
	<path class="st3" d="M415.4,264.4c-8.4,4.9-21.3,5.5-30.9,2c-0.5-0.2-1.1-0.4-1.6-0.6l-0.7-0.3c-0.8-0.3-1.5-0.7-2.1-1.1
		c-4.7-2.7-7.1-6.2-7.3-9.8V285c-0.2,3.8,2.2,7.7,7.3,10.6c0.6,0.4,1.2,0.7,1.9,1c0.2,0.1,0.5,0.2,0.7,0.3c0.4,0.2,0.8,0.4,1.3,0.5
		s0.7,0.2,1,0.4s0.7,0.3,1.1,0.4s0.8,0.2,1.2,0.3s0.6,0.2,1,0.2s1,0.2,1.4,0.3c0.3,0,0.5,0.1,0.8,0.2c0.5,0.1,1.1,0.2,1.6,0.2
		l0.6,0.1c0.6,0.1,1.2,0.1,1.8,0.2h0.5c0.7,0,1.3,0.1,2,0.1h0.3c0.7,0,1.4,0,2.2,0h0.2c0.8,0,1.5-0.1,2.3-0.2l0,0
		c4.5-0.4,8.8-1.6,12.8-3.7l0,0c0.2-0.1,0.5-0.2,0.7-0.4c4.9-2.8,7.3-6.5,7.3-10.2v-31.2C422.7,257.8,420.2,261.5,415.4,264.4z"/>
</g>
<g id="freepik--Cloud--inject-1--inject-101">
	<path class="st4" d="M161.3,64.7l-10.8,6.2c0.1-0.5,0.1-0.9,0.1-1.4v-3.1c0-5.5-3.9-7.8-8.7-5c-2.1,1.3-3.8,3-5.2,5
		c-0.8-7-6.2-9.6-12.9-5.7c-7.2,4.1-13,14.2-13,22.5v4.7c0,1.9,0.3,3.7,1.1,5.4l-8.9,5.2c-2.8,1.9-4.6,5-4.8,8.3
		c0,3.1,2.2,4.3,4.8,2.8L161.2,76c2.8-1.9,4.6-5,4.8-8.3C166.1,64.4,164,63.2,161.3,64.7z"/>
</g>
<g id="freepik--Character--inject-1--inject-101">
	<path class="st5" d="M261.1,136.7c0.3,3.2,1.9,7.7,5.1,9c-1.9,1.3-3.2,3.4-3.6,5.6c-1.5,7.5,2.6,14.2,8.9,18c6.2,3.7,13.4,5,20.5,5
		c2.6,0,5.2-0.1,7.7-0.4c5.4-0.6,10.8-1.6,15.7-3.9c4.2-1.9,8-6.2,10-10.2c2-4.1,1.6-9.5-1.8-12.6c1.8-1.3,2.5-3.7,1.8-5.8
		c-0.7-2.2-2.4-3.9-3.8-5.6c-1.4-1.8-2.8-3-3.2-5.3c-0.2-1.4-0.2-2.8,0.1-4.1c0.7-4.5,1.7-9,1-13.5s-3.6-9-7.9-10.1
		c0.5-5.7-3.5-9.7-8.1-12.3c-11.1-6.3-34.4-4.5-36.8,11.4c-0.7,4.3,1,8.5,4.6,11c0.7,0.5,1.2,1.2,1.5,2c1,1.8-0.1,5.1-1.2,6.6
		c-2,2.9-5.1,4-7.5,6.5c-0.9,1-1.7,2.1-2.2,3.3C261.3,133,261,134.9,261.1,136.7z"/>
	<path class="st3" d="M384.7,344.1l-2-1.1l1.4-0.6c0,0,1.1,0.3,1.1,0.4c0,0.3,0,0.5-0.1,0.8L384.7,344.1z"/>
	<path class="st6" d="M384.7,344.1l-2-1.1l1.4-0.6c0,0,1.1,0.3,1.1,0.4c0,0.3,0,0.5-0.1,0.8L384.7,344.1z"/>
	<path class="st7" d="M384.7,344.1l-2-1.1l1.4-0.6c0,0,1.1,0.3,1.1,0.4c0,0.3,0,0.5-0.1,0.8L384.7,344.1z"/>
	<path class="st6" d="M310.2,381.6c1.8,0.9,3.9,0.9,5.7,0l64.1-37l-96-55.4l-2.2-1.3l-64.1,37c-1.6,0.9-1.6,2.4,0,3.3L310.2,381.6z"
		/>
	<path class="st8" d="M310.2,381.6c1.8,0.9,3.9,0.9,5.7,0l64.1-37l-96-55.4l-2.2-1.3l-64.1,37c-1.6,0.9-1.6,2.4,0,3.3L310.2,381.6z"
		/>
	<path class="st3" d="M334.3,311.6l22.4,12.9l14.5-8.4l16.8,9.7V338c0,1.5-1.6,3.6-2.2,3.2c-1.1,0.3-2.2,0.7-3.2,1.1
		c-1.7,1-3.2,2.1-4.6,3.4L326.6,316L334.3,311.6z"/>
	<path class="st6" d="M334.3,311.6l22.4,12.9l14.5-8.4l16.8,9.7V338c0,1.5-1.6,3.6-2.2,3.2c-1.1,0.3-2.2,0.7-3.2,1.1
		c-1.7,1-3.2,2.1-4.6,3.4L326.6,316L334.3,311.6z"/>
	<path class="st7" d="M334.3,311.6l22.4,12.9l14.5-8.4l16.8,9.7V338c0,1.5-1.6,3.6-2.2,3.2c-1.1,0.3-2.2,0.7-3.2,1.1
		c-1.7,1-3.2,2.1-4.6,3.4L326.6,316L334.3,311.6z"/>
	<path class="st6" d="M316,381.6l3.9-2.2l58.1-33.5c0-0.8,0.3-1.5,0.8-2.1c0.7-0.9,1.6-1.7,2.5-2.2c0.8-0.5,1.8-0.8,2.7-0.9
		c0.6,0,1.3,0.2,1.8,0.6c0.8-1.5,1.1-3.1,1.1-4.8h2.2c0,3-1,6.1-2.2,6.8l-1.1,0.6c-0.6,0.4-1.1,0.4-1.1,0v-0.6c0-0.7-1-0.6-2.2,0.1
		s-2.2,1.8-2.2,2.5v0.6c0,0.3-0.9,1.1-1.9,1.7l-56.2,32.4l-6.1,3.5l0,0c-0.9,0.5-1.9,0.7-2.9,0.7v-2.5
		C314.1,382.3,315.1,382,316,381.6z"/>
	<path class="st9" d="M316,381.6l3.9-2.2l58.1-33.5c0-0.8,0.3-1.5,0.8-2.1c0.7-0.9,1.6-1.7,2.5-2.2c0.8-0.5,1.8-0.8,2.7-0.9
		c0.6,0,1.3,0.2,1.8,0.6c0.8-1.5,1.1-3.1,1.1-4.8h2.2c0,3-1,6.1-2.2,6.8l-1.1,0.6c-0.6,0.4-1.1,0.4-1.1,0v-0.6c0-0.7-1-0.6-2.2,0.1
		s-2.2,1.8-2.2,2.5v0.6c0,0.3-0.9,1.1-1.9,1.7l-56.2,32.4l-6.1,3.5l0,0c-0.9,0.5-1.9,0.7-2.9,0.7v-2.5
		C314.1,382.3,315.1,382,316,381.6z"/>
	<path class="st6" d="M216.5,326.5v2.6c0.1,0.7,0.5,1.3,1.1,1.6l0,0l86.5,49.9l6.1,3.5l0,0l0,0c0.9,0.5,1.9,0.7,2.9,0.7v-2.5
		c-1,0-2-0.2-2.9-0.7l-3.9-2.2l0,0l-88.7-51.2C217,327.8,216.6,327.2,216.5,326.5z"/>
	<path class="st7" d="M216.5,326.5v2.6c0.1,0.7,0.5,1.3,1.1,1.6l0,0l86.5,49.9l6.1,3.5l0,0l0,0c0.9,0.5,1.9,0.7,2.9,0.7v-2.5
		c-1,0-2-0.2-2.9-0.7l-3.9-2.2l0,0l-88.7-51.2C217,327.8,216.6,327.2,216.5,326.5z"/>
	<path class="st10" d="M313.1,365.2V380c0.7,0,1.3-0.1,1.9-0.5l7-4.1l53.6-30.9V329L313.1,365.2z"/>
	<path class="st4" d="M219.3,312.9v11.4c0.1,1.3,0.8,2.6,1.9,3.3l83,47.9l7,4.1c0.6,0.3,1.2,0.5,1.9,0.5v-13.2L219.3,312.9z"/>
	<path class="st11" d="M375.6,344.5c0.1-0.8,0.3-1.5,0.8-2.1c0.7-0.9,1.6-1.7,2.5-2.2c0.8-0.5,1.8-0.8,2.7-0.9
		c0.7,0,1.3,0.2,1.8,0.6v-15.5l-7.9,4.5L375.6,344.5z"/>
	<path class="st0" d="M378.8,340.4c-0.9,0.5-1.7,1.3-2.3,2.1c-0.5,0.6-0.8,1.3-0.8,2.1v-14.8h3.1L378.8,340.4z"/>
	<path class="st6" d="M284.1,271l96,55.4v1.3c0,0.7,1,1,2.2,0.3s2.2-1.6,2.2-2.8l0.1-1.2l-97.8-56.5l-0.4-0.2
		c-0.1,0.2-0.2,0.4-0.2,0.6v0.6C286.3,269.2,285.3,270.3,284.1,271z"/>
	<path class="st9" d="M284.1,271l96,55.4v1.3c0,0.7,1,1,2.2,0.3s2.2-1.6,2.2-2.8l0.1-1.2l-97.8-56.5l-0.4-0.2
		c-0.1,0.2-0.2,0.4-0.2,0.6v0.6C286.3,269.2,285.3,270.3,284.1,271z"/>
	<path class="st6" d="M316,363.5l62.7-36.2c0.8-0.4,1.5-0.8,1.8-0.6l-0.4-0.2l-96-55.4l-1.1-0.6c-1-0.3-2.1-0.1-3,0.5l-62.2,35.9
		c-1.6,0.9-1.6,2.4,0,3.3l92.5,53.4C312.1,364.4,314.2,364.4,316,363.5z"/>
	<path class="st8" d="M316,363.5l62.7-36.2c0.8-0.4,1.5-0.8,1.8-0.6l-0.4-0.2l-96-55.4l-1.1-0.6c-1-0.3-2.1-0.1-3,0.5l-62.2,35.9
		c-1.6,0.9-1.6,2.4,0,3.3l92.5,53.4C312.1,364.4,314.2,364.4,316,363.5z"/>
	<path class="st6" d="M286.5,267.3l0.4,0.2l97.8,56.5c0-0.1,0.1-0.2,0.2-0.3l0.3-0.2l0.7-0.4l0.9-0.5c0.3-0.2,0.8-0.2,1.1,0.1
		l0.1,0.1c0.1,0.1,0.2,0.3,0.3,0.4c0.1,0.2,0.2,0.4,0.3,0.5c0.1,0.2,0.1,0.4,0.2,0.6s0.1,0.5,0.1,0.8c0,0.1,0,0.3,0,0.5
		c0,0.1,0,0.2,0,0.4s0,0.6,0,0.9v-2.8c-0.2-1.8-1.3-3.5-2.9-4.4l-92.6-53.4c-1.5-0.9-3.4-1-5.1-0.4l-1.2,0.7l0,0l-0.5,0.3l0,0
		C286.7,267,286.6,267.1,286.5,267.3z"/>
	<path class="st8" d="M286.5,267.3l0.4,0.2l97.8,56.5c0-0.1,0.1-0.2,0.2-0.3l0.3-0.2l0.7-0.4l0.9-0.5c0.3-0.2,0.8-0.2,1.1,0.1
		l0.1,0.1c0.1,0.1,0.2,0.3,0.3,0.4c0.1,0.2,0.2,0.4,0.3,0.5c0.1,0.2,0.1,0.4,0.2,0.6s0.1,0.5,0.1,0.8c0,0.1,0,0.3,0,0.5
		c0,0.1,0,0.2,0,0.4s0,0.6,0,0.9v-2.8c-0.2-1.8-1.3-3.5-2.9-4.4l-92.6-53.4c-1.5-0.9-3.4-1-5.1-0.4l-1.2,0.7l0,0l-0.5,0.3l0,0
		C286.7,267,286.6,267.1,286.5,267.3z"/>
	<path class="st6" d="M316,363.5L316,363.5l3.9-2.2l44.6-25.7l14.2-8.2c1-0.6,1.8-0.8,1.9-0.5l0,0v0.6c0,0.7,1,0.7,2.2,0
		c0.9-0.4,1.6-1.2,1.8-2.2v-0.7c0-0.3,0.1-0.6,0.3-0.8l0.3-0.2l0.7-0.4l0.9-0.5c0.3-0.2,0.8-0.2,1.1,0.1l0.1,0.1
		c0.1,0.1,0.1,0.2,0.2,0.3l0.1,0.1c0.1,0.2,0.2,0.4,0.3,0.5c0.1,0.2,0.1,0.4,0.2,0.6s0.1,0.5,0.1,0.8c0,0.1,0,0.3,0,0.5
		c0,0.1,0,0.2,0,0.4s0,0.6,0,0.9v9.6h-2.2V327c0-0.2,0-0.5,0-0.7l-0.1-0.5l0,0c-0.2,1.8-1.9,3.3-3.3,4.1c-0.8,0.5-1.7,0.8-2.7,0.8
		c-0.7,0-1.4-0.3-2-0.7l-0.2,0.1l-0.4,0.2l-56,32.2l-6,3.5l0,0l0,0c-0.9,0.4-1.8,0.7-2.8,0.6v-2.5C314.2,364.2,315.1,364,316,363.5z
		"/>
	<path class="st9" d="M316,363.5L316,363.5l3.9-2.2l44.6-25.7l14.2-8.2c1-0.6,1.8-0.8,1.9-0.5l0,0v0.6c0,0.7,1,0.7,2.2,0
		c0.9-0.4,1.6-1.2,1.8-2.2v-0.7c0-0.3,0.1-0.6,0.3-0.8l0.3-0.2l0.7-0.4l0.9-0.5c0.3-0.2,0.8-0.2,1.1,0.1l0.1,0.1
		c0.1,0.1,0.1,0.2,0.2,0.3l0.1,0.1c0.1,0.2,0.2,0.4,0.3,0.5c0.1,0.2,0.1,0.4,0.2,0.6s0.1,0.5,0.1,0.8c0,0.1,0,0.3,0,0.5
		c0,0.1,0,0.2,0,0.4s0,0.6,0,0.9v9.6h-2.2V327c0-0.2,0-0.5,0-0.7l-0.1-0.5l0,0c-0.2,1.8-1.9,3.3-3.3,4.1c-0.8,0.5-1.7,0.8-2.7,0.8
		c-0.7,0-1.4-0.3-2-0.7l-0.2,0.1l-0.4,0.2l-56,32.2l-6,3.5l0,0l0,0c-0.9,0.4-1.8,0.7-2.8,0.6v-2.5C314.2,364.2,315.1,364,316,363.5z
		"/>
	<path class="st6" d="M216.5,308.4v2.6c0.1,0.7,0.5,1.3,1.1,1.6l0,0l86.5,49.9l6.1,3.5l0,0c0.9,0.5,1.9,0.7,2.9,0.7v-2.5
		c-1,0-2-0.2-2.9-0.7l-3.9-2.2l0,0l-88.7-51.2C217,309.8,216.6,309.1,216.5,308.4z"/>
	<path class="st7" d="M216.5,308.4v2.6c0.1,0.7,0.5,1.3,1.1,1.6l0,0l86.5,49.9l6.1,3.5l0,0c0.9,0.5,1.9,0.7,2.9,0.7v-2.5
		c-1,0-2-0.2-2.9-0.7l-3.9-2.2l0,0l-88.7-51.2C217,309.8,216.6,309.1,216.5,308.4z"/>
	<path class="st5" d="M279.9,270.8c0.9-0.6,2-0.7,3-0.5l1.1,0.6c1.2-0.7,2.2-1.9,2.2-2.6v-0.6c0-0.2,0.1-0.4,0.2-0.6
		s0.2-0.3,0.4-0.4l0,0l0.5-0.3l0,0l1.2-0.7c1.7-0.7,3.5-0.5,5.1,0.4l92.6,53.4l0.1,0.1L321,357.3c-1.2,0.6-2.6,0.6-3.8,0L224.1,303
		L279.9,270.8z"/>
	<path class="st6" d="M326.1,352l-2.5-1.4c0.7-0.2,1.4-0.3,2.1-0.1C326.4,350.8,326.1,352,326.1,352z"/>
	<path class="st12" d="M326.1,352l-2.5-1.4c0.7-0.2,1.4-0.3,2.1-0.1C326.4,350.8,326.1,352,326.1,352z"/>
	<path class="st6" d="M327.8,350.5c-1.1-1.2-3-1.3-4.2-0.2c-0.1,0.1-0.1,0.1-0.2,0.2c-2.4,2.2-2.5,4.4-3.5,4.4s-1-17.6-1-17.6
		l9.5,8.8L327.8,350.5z"/>
	<path class="st12" d="M327.8,350.5c-1.1-1.2-3-1.3-4.2-0.2c-0.1,0.1-0.1,0.1-0.2,0.2c-2.4,2.2-2.5,4.4-3.5,4.4s-1-17.6-1-17.6
		l9.5,8.8L327.8,350.5z"/>
	<path class="st6" d="M228.4,286.4l-0.2-0.1l1.5-0.9l65.5-37.8l95.4,61.7c1.6,0.9,1.9,2.2,0.6,2.9l-2.2,1.3L327.9,349l-0.4-0.3
		L228.4,286.4z"/>
	<path class="st13" d="M228.4,286.4l-0.2-0.1l1.5-0.9l65.5-37.8l95.4,61.7c1.6,0.9,1.9,2.2,0.6,2.9l-2.2,1.3L327.9,349l-0.4-0.3
		L228.4,286.4z"/>
	<path class="st11" d="M319.7,328.9l4.7-1v19c-2.9,1.2-4.7,2.4-5,4.8L319.7,328.9z"/>
	<path class="st4" d="M326.5,347.1l60.6-35c1.1-0.7,1.8-2,1.9-3.3v-18.7l-61.2,35.6c0,0-0.7,2.6-2.9,3.5s-0.5,1.7-0.5,1.7v16
		C326.3,346.6,326.5,347.1,326.5,347.1z"/>
	<path class="st6" d="M320.9,328.2c0.6-0.4,1.1-0.4,1.1,0v0.6c0,0.7,1,0.6,2.2-0.1s2.2-1.8,2.2-2.5v-0.6c0-0.3,0.9-1.1,1.9-1.7
		l-98.6-56.5l-1.5,0.9c-0.2,0.2-0.3,0.5-0.4,0.8v0.6c0,0.7-1,1.8-2.2,2.5s-2.2,0.8-2.2,0.1v-0.6c0-0.3-0.5-0.3-1.1,0L320.9,328.2z"
		/>
	<path class="st14" d="M320.9,328.2c0.6-0.4,1.1-0.4,1.1,0v0.6c0,0.7,1,0.6,2.2-0.1s2.2-1.8,2.2-2.5v-0.6c0-0.3,0.9-1.1,1.9-1.7
		l-98.6-56.5l-1.5,0.9c-0.2,0.2-0.3,0.5-0.4,0.8v0.6c0,0.7-1,1.8-2.2,2.5s-2.2,0.8-2.2,0.1v-0.6c0-0.3-0.5-0.3-1.1,0L320.9,328.2z"
		/>
	<path class="st6" d="M228.4,268.3l-0.2-0.1l1.5-0.9l65.5-37.8l95.4,55.1c1.6,0.9,1.9,2.2,0.6,2.9l-2.2,1.3l-61.2,36.9L228.4,268.3z
		"/>
	<path class="st13" d="M228.4,268.3l-0.2-0.1l1.5-0.9l65.5-37.8l95.4,55.1c1.6,0.9,1.9,2.2,0.6,2.9l-2.2,1.3l-61.2,36.9L228.4,268.3
		z"/>
	<path class="st6" d="M223.4,271.1L322,328l-3.5,2.7L220.3,274c0.2-0.7,0.7-1.4,1.3-1.8L223.4,271.1z"/>
	<path class="st13" d="M223.4,271.1L322,328l-3.5,2.7L220.3,274c0.2-0.7,0.7-1.4,1.3-1.8L223.4,271.1z"/>
	<path class="st6" d="M220.6,299.4c-0.1,0-0.1-0.1-0.2-0.1l-0.1-0.1c-0.1-0.1-0.1-0.2-0.2-0.3l-0.1-0.1c-0.1-0.2-0.2-0.4-0.2-0.5
		c-0.1-0.2-0.1-0.4-0.2-0.6c-0.1-0.2-0.1-0.5-0.1-0.7c0-0.1-0.1-0.3-0.1-0.5V296c0-0.3,0-0.6,0-0.9v-16.3c0-1.7,0.3-3.4,0.9-5
		l98.2,56.7l0.4,25.5L220.6,299.4L220.6,299.4z"/>
	<path class="st12" d="M220.6,299.4c-0.1,0-0.1-0.1-0.2-0.1l-0.1-0.1c-0.1-0.1-0.1-0.2-0.2-0.3l-0.1-0.1c-0.1-0.2-0.2-0.4-0.2-0.5
		c-0.1-0.2-0.1-0.4-0.2-0.6c-0.1-0.2-0.1-0.5-0.1-0.7c0-0.1-0.1-0.3-0.1-0.5V296c0-0.3,0-0.6,0-0.9v-16.3c0-1.7,0.3-3.4,0.9-5
		l98.2,56.7l0.4,25.5L220.6,299.4L220.6,299.4z"/>
	<path class="st15" d="M318.5,330.7L318.5,330.7c0,0-77.4-36.2-84.4-39.5c-4.6-2.2-6.9,2.4-5.8,7.2c1,4.2,5.1,8.5,5.1,8.5l0,0
		l-12.6-7.3l0,0c-0.1,0-0.1-0.1-0.2-0.1l-0.1-0.1c-0.1-0.1-0.1-0.2-0.2-0.3l-0.1-0.1c-0.1-0.2-0.2-0.4-0.2-0.5
		c-0.1-0.2-0.1-0.4-0.2-0.6c-0.1-0.2-0.1-0.5-0.1-0.7c0-0.1-0.1-0.3-0.1-0.5v-0.4c0-0.3,0-0.6,0-0.9v-16.3c0-1.7,0.3-3.4,0.9-5
		L318.5,330.7z"/>
	<path class="st6" d="M317.6,335.6h2.2c-0.1-1.7,0.3-3.3,1.1-4.8c0.5,0.4,1.2,0.6,1.8,0.6c1,0,1.9-0.3,2.7-0.9
		c1-0.6,1.9-1.3,2.5-2.2c0.1-0.1,0.1-0.1,0.1-0.2c0.4-0.6,0.6-1.2,0.6-1.9l58.1-33.5l2-1.1l2.5-1.5c0.4-0.2,0.7-0.6,0.8-1.1v-2.6
		c0,0.5-0.3,0.9-0.8,1.2l0,0l-6.7,3.8l-56.1,32.4c-1,0.6-1.9,1.4-1.9,1.7v0.6c-0.1,0.4-0.2,0.7-0.5,1c-0.5,0.6-1.1,1.1-1.7,1.4
		c-1.2,0.7-2.2,0.8-2.2,0.1V328c0-0.4-0.5-0.3-1.1,0l-1.1,0.6C318.6,329.5,317.6,332.6,317.6,335.6z"/>
	<path class="st6" d="M319.8,335.6v16.3c0,0.2,0,0.5,0,0.7v0.5l0,0c0.2-1.8,1.9-3.3,3.3-4.1c0.8-0.5,1.7-0.8,2.7-0.8
		c0.7,0,1.4,0.3,2,0.7l0.2-0.1l0.4-0.2l56.1-32.4l3.2-1.9l0.9-0.5l2.7-1.6c0.4-0.2,0.6-0.6,0.6-1v2.6c0,0.4-0.2,0.8-0.6,1l0,0
		c-0.3,0.2-0.7,0.4-1,0.6l-0.6,0.4l-1.1,0.6c-0.2,0.1-0.5,0.3-0.7,0.4s-0.3,0.2-0.5,0.3l-0.8,0.5L342,343.3l-14.2,8.2
		c-1,0.6-1.8,0.8-1.9,0.5v-0.1v-0.6c0-0.7-1-0.7-2.2,0c-0.9,0.4-1.6,1.2-1.8,2.2v0.7c0,0.3-0.1,0.6-0.3,0.8l-0.3,0.2l-0.7,0.4
		l-0.9,0.5c-0.3,0.2-0.8,0.2-1.1-0.1l-0.1-0.1c-0.1-0.1-0.1-0.2-0.2-0.3l0,0l-0.1-0.1c-0.1-0.2-0.2-0.4-0.2-0.5
		c-0.1-0.2-0.2-0.4-0.2-0.6c-0.1-0.2-0.1-0.5-0.1-0.8c0-0.1-0.1-0.3-0.1-0.5c0-0.1,0-0.2,0-0.4s0-0.6,0-0.9v-16.3L319.8,335.6
		L319.8,335.6z"/>
	<g class="st16">
		<path d="M317.6,335.6h2.2c-0.1-1.7,0.3-3.3,1.1-4.8c0.5,0.4,1.2,0.6,1.8,0.6c1,0,1.9-0.3,2.7-0.9c1-0.6,1.9-1.3,2.5-2.2
			c0.1-0.1,0.1-0.1,0.1-0.2c0.4-0.6,0.6-1.2,0.6-1.9l58.1-33.5l2-1.1l2.5-1.5c0.4-0.2,0.7-0.6,0.8-1.1v-2.6c0,0.5-0.3,0.9-0.8,1.2
			l0,0l-6.7,3.8l-56.1,32.4c-1,0.6-1.9,1.4-1.9,1.7v0.6c-0.1,0.4-0.2,0.7-0.5,1c-0.5,0.6-1.1,1.1-1.7,1.4c-1.2,0.7-2.2,0.8-2.2,0.1
			V328c0-0.4-0.5-0.3-1.1,0l-1.1,0.6C318.6,329.5,317.6,332.6,317.6,335.6z"/>
		<path d="M319.8,335.6v16.3c0,0.2,0,0.5,0,0.7v0.5l0,0c0.2-1.8,1.9-3.3,3.3-4.1c0.8-0.5,1.7-0.8,2.7-0.8c0.7,0,1.4,0.3,2,0.7
			l0.2-0.1l0.4-0.2l56.1-32.4l3.2-1.9l0.9-0.5l2.7-1.6c0.4-0.2,0.6-0.6,0.6-1v2.6c0,0.4-0.2,0.8-0.6,1l0,0c-0.3,0.2-0.7,0.4-1,0.6
			l-0.6,0.4l-1.1,0.6c-0.2,0.1-0.5,0.3-0.7,0.4s-0.3,0.2-0.5,0.3l-0.8,0.5L342,343.3l-14.2,8.2c-1,0.6-1.8,0.8-1.9,0.5v-0.1v-0.6
			c0-0.7-1-0.7-2.2,0c-0.9,0.4-1.6,1.2-1.8,2.2v0.7c0,0.3-0.1,0.6-0.3,0.8l-0.3,0.2l-0.7,0.4l-0.9,0.5c-0.3,0.2-0.8,0.2-1.1-0.1
			l-0.1-0.1c-0.1-0.1-0.1-0.2-0.2-0.3l0,0l-0.1-0.1c-0.1-0.2-0.2-0.4-0.2-0.5c-0.1-0.2-0.2-0.4-0.2-0.6c-0.1-0.2-0.1-0.5-0.1-0.8
			c0-0.1-0.1-0.3-0.1-0.5c0-0.1,0-0.2,0-0.4s0-0.6,0-0.9v-16.3L319.8,335.6L319.8,335.6z"/>
	</g>
	<path class="st5" d="M220.2,273.9l93.4,53.9l70.6-40.8c0.6-0.2,0.9-0.9,0.7-1.5c-0.1-0.3-0.4-0.6-0.7-0.7l-92.4-53.4l-62,35.8l0,0
		l-1.5,0.9c-0.2,0.2-0.3,0.5-0.4,0.8v0.6c0,0.7-1,1.8-2.2,2.5c-0.1,0-0.1,0.1-0.2,0.1l-2.1-1.2l-1,0.6l-0.1,0.1l0,0l-0.7,0.4
		C220.9,272.6,220.5,273.2,220.2,273.9z"/>
	<path class="st3" d="M379,287.5l-2.8-1.5l2.6-0.6C379.3,286,379.4,286.8,379,287.5z"/>
	<path class="st17" d="M379,287.5l-2.8-1.5l2.6-0.6C379.3,286,379.4,286.8,379,287.5z"/>
	<path class="st6" d="M304.5,325c1.8,0.9,3.9,0.9,5.7,0l64.1-37l-96-60.7l-2.2-1.3L212,268.2c-1.6,0.9-1.6,2.4,0,3.3L304.5,325z"/>
	<path class="st6" d="M328.6,249.8l48.5,32.8l-26.1-20l14.5-8.4l16.8,9.7v17.4c0,1.5-1.6,3.6-2.2,3.2c-1.1,0.3-2.2,0.7-3.2,1.1
		c-1.7,1-3.2,2.1-4.6,3.4l-51.4-34.9L328.6,249.8z"/>
	<path class="st18" d="M328.6,249.8l48.5,32.8l-26.1-20l14.5-8.4l16.8,9.7v17.4c0,1.5-1.6,3.6-2.2,3.2c-1.1,0.3-2.2,0.7-3.2,1.1
		c-1.7,1-3.2,2.1-4.6,3.4l-51.4-34.9L328.6,249.8z"/>
	<path class="st10" d="M307.4,303.3v20.1c0.7,0,1.3-0.1,1.9-0.5l7-4.1l53.6-30.9v-20.7L307.4,303.3z"/>
	<path class="st4" d="M213.6,251v16.7c0.1,1.3,0.8,2.6,1.9,3.3l83,47.9l7,4.1c0.6,0.3,1.2,0.5,1.9,0.5V305L213.6,251z"/>
	<path class="st11" d="M369.9,287.9c0-0.8,0.3-1.5,0.8-2.1c0.7-0.9,1.5-1.7,2.5-2.2c0.8-0.5,1.8-0.8,2.7-0.9
		c0.6-0.1,1.3,0.1,1.8,0.4v-20.5l-7.9,4.5L369.9,287.9z"/>
	<path class="st0" d="M373.1,283.7c-0.9,0.5-1.7,1.3-2.3,2.1c-0.5,0.6-0.8,1.3-0.8,2.1v-20h3.1L373.1,283.7z"/>
	<path class="st6" d="M278.4,209.2l96,55.5v1.3c0,0.7,1,1,2.2,0.3s2.2-1.6,2.2-2.8l0.1-1.2l-97.8-56.5l-0.4-0.2
		c-0.1,0.2-0.2,0.4-0.2,0.6v0.6C280.6,207.3,279.6,208.4,278.4,209.2z"/>
	<path class="st18" d="M278.4,209.2l96,55.5v1.3c0,0.7,1,1,2.2,0.3s2.2-1.6,2.2-2.8l0.1-1.2l-97.8-56.5l-0.4-0.2
		c-0.1,0.2-0.2,0.4-0.2,0.6v0.6C280.6,207.3,279.6,208.4,278.4,209.2z"/>
	<path class="st6" d="M310.2,301.6l62.8-36.2c0.8-0.4,1.5-0.8,1.8-0.6l-0.4-0.2l-96-55.4l-1.1-0.6c-1-0.3-2.1-0.1-3,0.4L212,244.9
		c-1.6,0.9-1.6,2.4,0,3.3l92.5,53.4C306.3,302.5,308.5,302.5,310.2,301.6z"/>
	<path class="st6" d="M280.8,205.4l0.4,0.2l97.9,56.5c0-0.1,0.1-0.2,0.2-0.3l0.3-0.2l0.7-0.4l0.9-0.5c0.3-0.2,0.8-0.2,1.1,0.1
		l0.1,0.1c0.1,0.1,0.2,0.3,0.3,0.4c0.1,0.2,0.2,0.4,0.2,0.5c0.1,0.2,0.1,0.4,0.2,0.6c0,0.2,0.1,0.5,0.1,0.7s0.1,0.3,0.1,0.5v0.4
		c0,0.3,0,0.6,0,0.9v-2.7c-0.2-1.8-1.3-3.5-2.9-4.4l-92.5-53.4c-1.5-0.9-3.4-1-5.1-0.4l-1.2,0.7l0,0l-0.5,0.3l0,0
		C281,205.1,280.8,205.2,280.8,205.4z"/>
	<path class="st6" d="M310.2,325l3.9-2.2l58.1-33.5c0.1-0.8,0.3-1.5,0.8-2.1c0.7-0.9,1.6-1.7,2.5-2.2c0.8-0.5,1.8-0.8,2.7-0.9
		c0.7,0,1.3,0.2,1.8,0.6c0.7-1.5,1.1-3.1,1.1-4.8h2.2c0,3-1,6.1-2.2,6.8l-1.1,0.6c-0.6,0.4-1.1,0.4-1.1,0v-0.6c0-0.7-1-0.6-2.2,0.1
		s-2.2,1.8-2.2,2.5v0.6c0,0.3-0.9,1.1-1.9,1.7L316.3,324l-6.1,3.5l0,0c-0.9,0.5-1.9,0.7-2.9,0.7v-2.5
		C308.4,325.7,309.4,325.5,310.2,325z"/>
	<path class="st19" d="M310.2,325l3.9-2.2l58.1-33.5c0.1-0.8,0.3-1.5,0.8-2.1c0.7-0.9,1.6-1.7,2.5-2.2c0.8-0.5,1.8-0.8,2.7-0.9
		c0.7,0,1.3,0.2,1.8,0.6c0.7-1.5,1.1-3.1,1.1-4.8h2.2c0,3-1,6.1-2.2,6.8l-1.1,0.6c-0.6,0.4-1.1,0.4-1.1,0v-0.6c0-0.7-1-0.6-2.2,0.1
		s-2.2,1.8-2.2,2.5v0.6c0,0.3-0.9,1.1-1.9,1.7L316.3,324l-6.1,3.5l0,0c-0.9,0.5-1.9,0.7-2.9,0.7v-2.5
		C308.4,325.7,309.4,325.5,310.2,325z"/>
	<path class="st6" d="M310.2,301.6L310.2,301.6l3.9-2.2l44.6-25.7l14.3-8.2c1-0.6,1.8-0.8,1.9-0.5l0,0v0.6c0,0.7,1,0.7,2.2,0
		c0.9-0.4,1.6-1.3,1.8-2.2v-0.7c0-0.3,0.1-0.6,0.3-0.8l0.3-0.2l0.7-0.4l0.9-0.5c0.3-0.2,0.8-0.2,1.1,0.1l0.1,0.1
		c0.1,0.1,0.1,0.2,0.2,0.3l0.1,0.1c0.1,0.2,0.2,0.4,0.2,0.5c0.1,0.2,0.1,0.4,0.2,0.6c0,0.2,0.1,0.5,0.1,0.7s0.1,0.3,0.1,0.5v0.4
		c0,0.3,0,0.6,0,0.9v14.9H381V265c0-0.2,0-0.5,0-0.7v-0.5l0,0c-0.2,1.8-1.9,3.3-3.3,4.1c-0.8,0.5-1.7,0.8-2.7,0.8
		c-0.7,0-1.4-0.3-2-0.7l-0.2,0.1l-0.4,0.2l-56.2,32.4l-6.1,3.5l0,0l0,0c-0.9,0.4-1.8,0.7-2.8,0.6v-2.5
		C308.4,302.4,309.4,302.1,310.2,301.6z"/>
	<path class="st19" d="M310.2,301.6L310.2,301.6l3.9-2.2l44.6-25.7l14.3-8.2c1-0.6,1.8-0.8,1.9-0.5l0,0v0.6c0,0.7,1,0.7,2.2,0
		c0.9-0.4,1.6-1.3,1.8-2.2v-0.7c0-0.3,0.1-0.6,0.3-0.8l0.3-0.2l0.7-0.4l0.9-0.5c0.3-0.2,0.8-0.2,1.1,0.1l0.1,0.1
		c0.1,0.1,0.1,0.2,0.2,0.3l0.1,0.1c0.1,0.2,0.2,0.4,0.2,0.5c0.1,0.2,0.1,0.4,0.2,0.6c0,0.2,0.1,0.5,0.1,0.7s0.1,0.3,0.1,0.5v0.4
		c0,0.3,0,0.6,0,0.9v14.9H381V265c0-0.2,0-0.5,0-0.7v-0.5l0,0c-0.2,1.8-1.9,3.3-3.3,4.1c-0.8,0.5-1.7,0.8-2.7,0.8
		c-0.7,0-1.4-0.3-2-0.7l-0.2,0.1l-0.4,0.2l-56.2,32.4l-6.1,3.5l0,0l0,0c-0.9,0.4-1.8,0.7-2.8,0.6v-2.5
		C308.4,302.4,309.4,302.1,310.2,301.6z"/>
	<path class="st6" d="M210.8,246.5v2.6c0.1,0.7,0.5,1.3,1.1,1.6l0,0l86.5,49.9l6.1,3.5l0,0c0.9,0.5,1.9,0.7,2.8,0.7v-2.5
		c-1,0-2-0.2-2.9-0.7l-3.9-2.2l0,0L212,248.2C211.3,247.9,210.9,247.3,210.8,246.5z"/>
	<path class="st18" d="M210.8,246.5v2.6c0.1,0.7,0.5,1.3,1.1,1.6l0,0l86.5,49.9l6.1,3.5l0,0c0.9,0.5,1.9,0.7,2.8,0.7v-2.5
		c-1,0-2-0.2-2.9-0.7l-3.9-2.2l0,0L212,248.2C211.3,247.9,210.9,247.3,210.8,246.5z"/>
	<path class="st6" d="M210.8,269.9v2.6c0.1,0.7,0.5,1.3,1.1,1.6l0,0l86.5,49.9l6.1,3.5l0,0c0.9,0.5,1.9,0.7,2.8,0.7v-2.5
		c-1,0-2-0.2-2.9-0.7l-3.9-2.2l0,0L212,271.5C211.3,271.3,210.9,270.6,210.8,269.9z"/>
	<path class="st18" d="M210.8,269.9v2.6c0.1,0.7,0.5,1.3,1.1,1.6l0,0l86.5,49.9l6.1,3.5l0,0c0.9,0.5,1.9,0.7,2.8,0.7v-2.5
		c-1,0-2-0.2-2.9-0.7l-3.9-2.2l0,0L212,271.5C211.3,271.3,210.9,270.6,210.8,269.9z"/>
	<polygon class="st20" points="250.8,179.1 241.6,195.5 254.9,202.6 264.7,188.1 	"/>
	<path class="st6" d="M283.3,142.3c-5.1-0.9-12.8-1.1-17.8,7.5s-15.8,29.9-15.8,29.9s6.3,8.2,15.5,9.7l15-23.7L283.3,142.3z"/>
	<rect x="259.9" y="342.6" class="st20" width="12.9" height="19.5"/>
	<polygon class="st20" points="240.2,337.9 226.9,338.3 226.2,317.6 239.5,317.2 	"/>
	<path class="st5" d="M260.1,356.7v-1.8c-1.2,0.5-4,11.1-8.9,15.6c-3.9,3.6-9.3,7.7-10.6,11.7c-1.4,4.1,7.4,6.4,11.1,5.8
		c4.3-0.8,11.6-3.7,13.5-6.5s2.7-6.9,4.2-8.9s5-4.4,5.8-6.7c0.4-1.3-0.1-4.1-0.7-6.5c-0.6-2.2-1.2-4.6-2-4.4v1.3
		c-0.9,1-3.4,2-6.2,2.1C264.5,358.4,260.1,358.1,260.1,356.7z"/>
	<path class="st5" d="M226.6,334.6c-0.7,0-1.3,1-2.8,2.7c-2.3,2.3-4.9,4.2-7.9,5.7c-5,2.5-14.7,6.4-19.1,8.4
		c-2.7,1.2-2.6,4.6,0.2,6.5s9.7,3.3,17.9,1.4c4.5-1,10.3-5.1,14-4.9s10.6,0.2,13.4-1.7s1.6-5.9,0.9-9.4c-0.8-3.8-2-9.5-3.3-9.3v1.2
		c-1.6,2.4-9.8,3.4-13.3,1.6L226.6,334.6z"/>
	<path class="st11" d="M317.3,223.8c2.5,17.6-0.9,21-17.6,37.9c-9,9.1-23.4,23.5-23.4,23.5s0.1,4.5,0.2,17.2
		c0.1,11.1-2.9,47.4-2.9,47.4s-9.2,3.2-14.4-0.1c0,0-5.4-27.2-6.7-41.2c-1.7-19-1.9-25.8,0.5-34.9s16.1-26.3,22.8-28.8l-34.3,22.4
		c0.7,5.3,0.9,9.4,0.9,14.8c-0.4,15.1-1.5,45.3-1.5,45.3s-10.8,3.7-14.9,0.5c0,0-13.2-57.7-10.4-71.4c2.8-13.7,35.7-32.8,42.5-38.5
		c3.9-3.3,8.2-6.8,8.2-6.8L317.3,223.8z"/>
	<path class="st21" d="M275.7,244.8c-3.8-3.1-6.7-7.2-8.3-11.8c0.2,3,0.6,6,1.3,9c1,3.9-29.3,23.9-29.3,23.9L275.7,244.8z"/>
	<path class="st5" d="M314.1,152.1c0,0,4,3.3,4,13.6v22.4l-0.6,37.6c-8,8.7-44,5.4-52.9-13.6c0,0,2.2-15.5,0.8-26.4
		c-5.7-6-5.7-11-5.7-14.8c0-8.9,14.6-31.6,23.6-28.7l17.6,4.1L314.1,152.1z"/>
	<path class="st6" d="M268.5,204.8v1c0,1-0.6,2-1.5,2.5l-27.8,16c-0.9,0.5-2,0.5-2.9,0l-50.9-29.4c-0.9-0.5-1.5-1.5-1.5-2.5v-0.7
		l53.9,31.1L268.5,204.8z"/>
	<path class="st14" d="M268.5,204.8v1c0,1-0.6,2-1.5,2.5l-27.8,16c-0.9,0.5-2,0.5-2.9,0l-50.9-29.4c-0.9-0.5-1.5-1.5-1.5-2.5v-0.7
		l53.9,31.1L268.5,204.8z"/>
	<path class="st6" d="M184,191.7l30.2-17.4c0.5-0.3,1.2-0.3,1.7,0l52.4,30.3c0.2,0.1,0.2,0.3,0.1,0.5c0,0.1-0.1,0.1-0.1,0.1
		l-30.5,17.6L184,191.7z"/>
	<path class="st13" d="M184,191.7l30.2-17.4c0.5-0.3,1.2-0.3,1.7,0l52.4,30.3c0.2,0.1,0.2,0.3,0.1,0.5c0,0.1-0.1,0.1-0.1,0.1
		l-30.5,17.6L184,191.7z"/>
	<polygon class="st5" points="238.1,220.2 254.4,210.8 206.8,183.3 190.4,192.7 	"/>
	<polygon class="st5" points="246.1,194.1 245.8,194.3 237.8,198.9 223.6,190.7 223.3,190.5 231.6,185.7 	"/>
	<polygon class="st5" points="245.8,194.3 237.8,198.9 223.6,190.7 231.6,186.1 	"/>
	<path class="st12" d="M237.8,222.8v1.9c-0.5,0-1-0.1-1.4-0.4l-50.9-29.4c-0.9-0.5-1.5-1.5-1.5-2.5v-0.7L237.8,222.8z"/>
	<path class="st6" d="M237,223.2c-1,0.4-2.1,0.3-3-0.2l-50.7-29.3c-0.9-0.5-1.5-1.4-1.7-2.4l-5.6-33.1c0-0.2,0-0.4-0.1-0.6
		c0-0.9,0.4-1.8,1-2.5l52.7,30.4c0.7,0.4,1.2,1,1.3,1.8L237,223.2z"/>
	<path class="st13" d="M237,223.2c-1,0.4-2.1,0.3-3-0.2l-50.7-29.3c-0.9-0.5-1.5-1.4-1.7-2.4l-5.6-33.1c0-0.2,0-0.4-0.1-0.6
		c0-0.9,0.4-1.8,1-2.5l52.7,30.4c0.7,0.4,1.2,1,1.3,1.8L237,223.2z"/>
	<path class="st3" d="M237.8,222.8l-0.3,0.2c-0.2,0.1-0.3,0.2-0.5,0.2l-6-35.8c-0.1-0.8-0.6-1.4-1.2-1.8l-52.7-30.4
		c0.2-0.2,0.4-0.4,0.7-0.5l52.8,30.5c0.7,0.4,1.1,1,1.2,1.8L237.8,222.8z"/>
	<path class="st6" d="M208.4,192.7c-0.4-2.2-2.7-5.2-5.1-6.6s-4.1-0.8-3.8,1.4s2.7,5.2,5.1,6.6S208.8,194.9,208.4,192.7z"/>
	<path class="st20" d="M218.8,214.2c-0.1-1.4-0.4-2.9-0.8-4.2c-0.8-2.4-3.1-11.9-8.4-13.3c-0.6-0.2-1.3-0.2-1.9-0.1
		c-1.5,0.4-2.1,1.9-2.4,3.3c-0.3,2-0.3,4.1,0,6.1c-0.8-0.9-1.8-1.7-2.8-2.4c-0.9-0.7-2.1-1.1-3.2-1.2c-0.3,0-0.7,0.1-0.9,0.4
		c-0.2,0.4,0,0.8,0.3,1.1c0.5,0.6,1.2,1.2,1.7,1.8c0.4,0.6,0.8,1.1,1.1,1.7c0.7,1.1,1.4,2.1,2.2,3.1c1.4,2.1,3.2,4,5.3,5.5
		c2.4,1.6,5.1,2.7,8,3.2c3.9,0.5,7.6,0.4,10.1-0.4L218.8,214.2z"/>
	<path class="st22" d="M291.5,195.6c10.9-0.8,10.9-10.6,10.9-10.6s-2.1,7.4-11.2,8.1c-8.8,0.6-13-5-13-5S281.5,196.3,291.5,195.6z"
		/>
	<path class="st20" d="M313.1,152.4c-3.6-1.8-8.8,5.4-7.1,13.1s9.8,34.4,9.8,34.4s-37,3.3-40.1,3.7c-2.2,0.3-4.6-0.9-6.7-1.5
		c-2.8-0.9-5.5-1.6-8.3-2.6c-0.5-0.2-1-0.3-1.5-0.3s-1,0.4-1.1,0.9c0,0.3,0.1,0.6,0.2,0.9c0.9,1.8,2.2,3.3,3.8,4.4
		c0.8,0.5,1.5,1,2.2,1.6c0.4,0.4,1.4,1.6,1,2.3l-14.7,8.4c0,0,3.4,2.9,15.6-0.5c4.4-1.2,8.7-2.7,12.9-4.6c0,0,43.5,1.8,51.4-0.6
		c2.8-0.9,3.8-2.8,1.9-11.8c-2.1-10.4-8.3-29.3-9.7-34.3C319.7,155.2,319,155.4,313.1,152.4z"/>
	<path class="st6" d="M311.2,150.8c0,0,5.9,1.7,8.4,5s12.3,35.7,12.3,35.7c-5.2,4.3-12,6.2-18.7,5c0,0-7.9-22.4-8.7-28.3
		C303.1,158.9,307.6,151.6,311.2,150.8z"/>
	<g id="freepik--Head--inject-95_00000001629826925628559230000006809027012074140295_">
		<path class="st20" d="M306.7,148.9c-1.5,1.5-9.6,5.7-23,3.4c-10.4-1.8-4.5-8.2-2.5-10.3c0.8,0.2,1.5-0.4,1.5-1.7c0-1.2,0-3,0-3
			c-4-0.2-6.8-1.4-8.3-3.1c-2.5-2.6-4-6.8-3.4-17.1c0.5-7.9,2.2-12.3,3.6-15c5.5-5,12.1-0.9,20.1-3.8c2,7.9,8,8.5,7.4,14.3
			c-1.9,5-0.8,7.3,1.8,7c2.5-3.8,6.3-4,8.6-1.1c2.4,3.3,1.9,7.9-1.1,10.6c-3.8,3.3-7.7,1.3-8.3,0.2c0,0-0.2,9.7-0.2,13.8
			C302.8,145.1,303.7,147.9,306.7,148.9z"/>
		<path class="st23" d="M282.8,139.3c0,0,7.9,0.8,13.3-2.8c1.8-1.4,3.1-3.2,3.8-5.4c-3.5,4.7-9.9,6.6-17.1,6.3L282.8,139.3z"/>
		<path class="st23" d="M285.7,129.6c0.1,0,0.1,0,0.2-0.1c1.8-0.6,2.8-2.5,2.2-4.4L281,127C281.7,129,283.7,130.1,285.7,129.6z"/>
		<path class="st24" d="M288.2,126.9c-0.2,1.3-1.2,2.4-2.5,2.7c-0.5,0.1-1.1,0.2-1.6,0.1C284.7,127.9,286.4,126.8,288.2,126.9z"/>
		<path class="st5" d="M292.3,115c0.1-1.1-0.7-2.1-1.8-2.2c-1.1-0.1-2,0.7-2.2,1.8c-0.1,1.1,0.7,2.1,1.8,2.2
			C291.2,116.9,292.2,116.1,292.3,115L292.3,115z"/>
		<path class="st5" d="M278.2,113.7c0.1-1.1-0.7-2.1-1.8-2.2c-1.1-0.1-2,0.7-2.2,1.8c-0.1,1.1,0.7,2.1,1.8,2.2
			C277.2,115.6,278.1,114.8,278.2,113.7L278.2,113.7z"/>
		<polygon class="st23" points="276.2,121 282.3,124.1 284.6,111 		"/>
		<path class="st5" d="M275.6,107.1L275.6,107.1c1.3-0.4,2.6,0.3,3,1.5l-4.6,1.6C273.6,108.9,274.3,107.6,275.6,107.1z"/>
		<path class="st5" d="M293.6,108.9c0,0-0.1,0-0.1-0.1c-1.2-0.6-2.6-0.1-3.1,1.1l4.3,2.4C295.2,111.1,294.7,109.6,293.6,108.9z"/>
		<path class="st23" d="M294.4,117c2.3,0.1,4.1,1.5,4.1,3.2c-0.1,1.7-2,3-4.3,2.9s-4.2-1.5-4.1-3.2C290.1,118.3,292.1,117,294.4,117
			z"/>
		<path class="st23" d="M271.2,115.2c2.3-0.3,4.3,0.9,4.5,2.6s-1.5,3.3-3.8,3.5s-4.3-0.9-4.5-2.6S268.8,115.4,271.2,115.2z"/>
	</g>
</g>
<g id="freepik--Backpack--inject-95">
	<g id="freepik--backpack--inject-95">
		<path class="st6" d="M114.8,275.2c-3.1,5.7-2.7,70.7,0.3,75.3c4.4,6.3,11.6,10,19.2,9.8c13.2-0.4,42.3-16.6,48-24.3
			c4.5-6.2-6.7-68.8-9.1-73.3c-2.3-4.3-11.3-10-17-9.6C148.9,253.7,119.8,266.1,114.8,275.2z"/>
		<path class="st25" d="M114.8,275.2c-3.1,5.7-2.7,70.7,0.3,75.3c4.4,6.3,11.6,10,19.2,9.8c13.2-0.4,42.3-16.6,48-24.3
			c4.5-6.2-6.7-68.8-9.1-73.3c-2.3-4.3-11.3-10-17-9.6C148.9,253.7,119.8,266.1,114.8,275.2z"/>
		<path class="st22" d="M112.6,311.6v1.6c0,1.1,0,2.2,0,3.3c0,1.6,0,3.3,0.1,4.9c0.1,8,0.5,15.5,0.9,20.9c0,0.4,0.1,0.7,0.1,1.1
			c0.1,1,0.2,2,0.3,2.8c0,0.3,0.1,0.5,0.1,0.8c0.1,0.5,0.2,1,0.2,1.4c0.1,0.7,0.3,1.5,0.7,2.1c1.4,2.2,4.2,6.5,12.5,8.9l0.5,0.1
			c12.2,1.6,6.2-37.7,6-41.9l-0.2-3.1l-1.8-32.2c-0.2-8-5.6-10.8-5.9-11c-0.1-0.1-0.7,0.2-6-1.6l-0.7,0.6l-0.3,0.3
			c-0.2,0.2-0.4,0.3-0.6,0.5l-0.4,0.3l-0.5,0.5c-0.3,0.3-0.5,0.5-0.7,0.7l-0.3,0.3l-0.5,0.5c-0.1,0.1-0.1,0.1-0.3,0.3
			c-0.1,0.2-0.3,0.4-0.4,0.5l-0.2,0.3c-0.2,0.3-0.3,0.5-0.5,0.8c-0.4,0.8-0.8,2.8-1.1,5.6c0,0.3-0.1,0.6-0.1,1
			c-0.1,1-0.2,2.1-0.3,3.3s-0.2,2.4-0.2,3.7c0,0.9-0.1,1.8-0.1,2.7c-0.1,1.8-0.1,3.8-0.2,5.8c-0.1,1-0.1,2-0.1,3.1
			c-0.1,2.6-0.1,5.3-0.1,8C112.6,309.5,112.6,310.6,112.6,311.6z"/>
		<path class="st19" d="M113.9,278.9c0.3,0.5,14.3,9.4,18.1,10.5c3.1,0.9,31.7-14.3,42.8-20.9c-0.4-1.9-0.9-3.9-1.6-5.7
			c-2.3-4.3-11.3-10-17-9.6c-7.3,0.5-36.4,12.9-41.4,22.1C114.3,276.4,114,277.6,113.9,278.9L113.9,278.9z"/>
		<path class="st6" d="M139.9,333.6c0.2,2.5,0.7,10,0.8,13.5c0,0.7,0.3,1.4,0.9,1.9c0.5,0.4,2.6,1.6,3.1,1.9
			c1.8,1.2,5.9-0.5,9.8-2.6c4.1-2.3,17.9-10.6,21-13.2c3.2-2.6,3.4-4.6,3.5-6.8c0.1-3.3-0.2-6.1-0.7-12.9c-0.1-0.9-0.6-1.8-1.4-2.2
			c-0.5-0.3-2.4-1.5-3-1.8c-1-0.6-2.4-0.7-4.1,0.2c-3.6,1.9-16.6,10.4-22.5,13.5C141.1,328.3,139.7,330.4,139.9,333.6z"/>
		<path class="st26" d="M139.9,333.6c0.2,2.5,0.7,10,0.8,13.5c0,0.7,0.3,1.4,0.9,1.9c0.5,0.4,2.6,1.6,3.1,1.9
			c1.8,1.2,5.9-0.5,9.8-2.6c4.1-2.3,17.9-10.6,21-13.2c3.2-2.6,3.4-4.6,3.5-6.8c0.1-3.3-0.2-6.1-0.7-12.9c-0.1-0.9-0.6-1.8-1.4-2.2
			c-0.5-0.3-2.4-1.5-3-1.8c-1-0.6-2.4-0.7-4.1,0.2c-3.6,1.9-16.6,10.4-22.5,13.5C141.1,328.3,139.7,330.4,139.9,333.6z"/>
		<path class="st19" d="M178.2,314.6c-0.2-0.7-0.7-1.2-1.3-1.6c-0.5-0.3-2.4-1.5-3-1.8c-1-0.6-2.4-0.7-4.1,0.2
			c-3.6,1.9-16.6,10.4-22.5,13.5c-4.2,2.3-6.3,4-7,5.9l3.1,1.7L178.2,314.6z"/>
		<path class="st6" d="M173,313.3c-3.6,1.9-16.6,10.4-22.5,13.5c-6.2,3.4-7.6,5.5-7.4,8.6c0.2,2.5,0.7,10,0.8,13.5
			c0.2,4,5.7,2,10.7-0.7c4.1-2.3,17.9-10.6,21-13.2c3.2-2.6,3.4-4.6,3.5-6.8c0.1-3.3-0.2-6.1-0.7-12.9
			C178.2,313.2,176,311.7,173,313.3z"/>
		<path class="st27" d="M173,313.3c-3.6,1.9-16.6,10.4-22.5,13.5c-6.2,3.4-7.6,5.5-7.4,8.6c0.2,2.5,0.7,10,0.8,13.5
			c0.2,4,5.7,2,10.7-0.7c4.1-2.3,17.9-10.6,21-13.2c3.2-2.6,3.4-4.6,3.5-6.8c0.1-3.3-0.2-6.1-0.7-12.9
			C178.2,313.2,176,311.7,173,313.3z"/>
		<path class="st6" d="M146.9,324.4c3.8-2.1,23.4-13.9,25.2-14.2c1.8-0.4,4.5,1.4,5.7,2.4s1.7,6.7,1.3,7.3
			c-0.9,1.1-33.1,20.3-33.4,19.3c-0.3-1-0.3-4.2-1-6.5c-0.7-2.4-3.7-3.5-4.3-1.7C140.1,328.6,143.1,326.5,146.9,324.4z"/>
		<path class="st22" d="M146.9,324.4c3.8-2.1,23.4-13.9,25.2-14.2c1.8-0.4,4.5,1.4,5.7,2.4s1.7,6.7,1.3,7.3
			c-0.9,1.1-33.1,20.3-33.4,19.3c-0.3-1-0.3-4.2-1-6.5c-0.7-2.4-3.7-3.5-4.3-1.7C140.1,328.6,143.1,326.5,146.9,324.4z"/>
		<path class="st21" d="M156.1,335.7l-0.5-2.1c0-0.1-0.1-0.2-0.1-0.3c-0.2-0.3-0.6-0.4-1-0.2l-3.9,2.2c-0.4,0.2-0.6,0.7-0.5,1.2
			l0.5,2c0,0.1,0,0.1,0.1,0.2c0.2,0.4,0.7,0.5,1,0.3l3.9-2.1C156,336.6,156.2,336.1,156.1,335.7z"/>
		<path class="st21" d="M175.3,324.2l-0.5-2.1c0-0.1-0.1-0.2-0.1-0.3c-0.2-0.3-0.6-0.4-1-0.2l-3.9,2.2c-0.4,0.2-0.6,0.7-0.5,1.2
			l0.5,2c0,0.1,0,0.2,0.1,0.2c0.2,0.4,0.7,0.5,1,0.3l3.9-2.1C175.2,325.1,175.4,324.7,175.3,324.2z"/>
		<path class="st28" d="M172.6,303.6c0,0,1.2,11-1.6,11.8c-0.6,0.1-2.4-1.4-3.3-2.8c-0.5-1.8-1.1-5.5-1.1-5.5l-16.5,9
			c0,0,0,10.3-2.2,10.9c-0.4,0.1-2.8-1.3-3.4-2.9c-0.4-1.9-0.8-5.7-0.8-5.7c-2.5,0.5-5.1,0.6-7.6,0.1c-2.1-0.5-3.8-2.1-4.6-4.2
			c-1.5-4-1.5-8.3-1.9-12.5c-0.4-4.5-0.8-9-1.1-13.5c2.3,0.5,3.4,1.8,5.2,3.2c1.8,1.4,5.4,3.3,7.7,2.6c0.9-0.3,1.9-0.8,2.8-1.2l3-1
			l13-4.6l13.9-4.9c0,0,2.2,1.4,3.8,2.6c0.8,4.1,1.3,7.5,2,12.5C177.6,300.8,172.6,303.6,172.6,303.6z"/>
		<path class="st6" d="M121.5,268.3c-9.3,5.6-7.6,10.6-7.6,10.6c1.2-3.5,5.9-2.3,10.8,2c4.9,4.2,6,18.1,6.9,25.7
			c0.3,3,0.4,7,2.9,8.3c3.3,1.6,7.6,2.6,15.8-1.4c10.3-4.9,27.3-15,29.4-19.4c2.1-4.4-2.5-28.2-6-32.9c-3.5-4.7-10.6-8.4-16.9-8
			C149.1,253.7,137,259.1,121.5,268.3z"/>
		<path class="st22" d="M121.5,268.3c-9.3,5.6-7.6,10.6-7.6,10.6c1.2-3.5,5.9-2.3,10.8,2c4.9,4.2,6,18.1,6.9,25.7
			c0.3,3,0.4,7,2.9,8.3c3.3,1.6,7.6,2.6,15.8-1.4c10.3-4.9,27.3-15,29.4-19.4c2.1-4.4-2.5-28.2-6-32.9c-3.5-4.7-10.6-8.4-16.9-8
			C149.1,253.7,137,259.1,121.5,268.3z"/>
		<path class="st29" d="M160.9,275.3c0.6,0.4,0.8,1.1,0.4,1.7l-6.2,10.6l0,0c-0.4,0.6-1.1,0.8-1.7,0.5l-5.8-3.4
			c-0.6-0.4-0.8-1.1-0.5-1.7l6.1-10.6c0.3-0.6,1.1-0.8,1.7-0.5L160.9,275.3L160.9,275.3z"/>
		<path class="st21" d="M153.7,287.1l-5.3-3.1l0,0c-0.3-0.2-0.4-0.6-0.2-0.9l5.8-10c0.2-0.3,0.6-0.4,0.9-0.2l5.4,3.1l0,0
			c0.3,0.2,0.4,0.6,0.2,0.9l-5.8,10.1C154.4,287.2,154,287.3,153.7,287.1z"/>
		<path class="st6" d="M155.3,281.8V277c0-0.4,0.2-0.7,0.6-0.9l0,0c0.3-0.2,0.6-0.1,0.6,0.2v4.8c0,0.4-0.2,0.7-0.6,0.9l0,0
			C155.5,282.3,155.3,282.2,155.3,281.8z"/>
		<path class="st6" d="M152.1,283.7v-4.8c0-0.4,0.2-0.7,0.6-0.9l0,0c0.3-0.2,0.6-0.1,0.6,0.2v4.8c0,0.4-0.2,0.7-0.6,0.9l0,0
			C152.4,284.1,152.1,284,152.1,283.7z"/>
		<path class="st11" d="M151.4,320.9c-0.1,2.4-1.5,5.7-2.8,5.3c-1.2-0.4-2.7-3.2-2.7-3.2c-0.4-6.7-2.1-20.2-2.1-20.2l5.5-2.5
			C150.1,306.2,151.5,318.5,151.4,320.9z"/>
		<path class="st21" d="M150.3,300.3l-0.4-2.9c0-0.1,0-0.3-0.1-0.4c-0.2-0.5-0.8-0.6-1.3-0.4l-5.6,2.4c-0.6,0.3-0.9,0.9-0.8,1.5
			l0.4,2.7c0,0.1,0,0.2,0.1,0.4c0.2,0.5,0.8,0.7,1.3,0.4l5.6-2.4C150,301.5,150.3,300.9,150.3,300.3z"/>
		<path class="st3" d="M150.1,319.3c0,1-0.5,2-1.4,2.5c-0.2,0.1-0.4,0.1-0.6,0.1c-0.6-0.1-1.1-0.6-1-1.2c0-1,0.5-2,1.4-2.5
			C149.3,317.8,150,318.3,150.1,319.3z"/>
		<path class="st11" d="M174.1,309.4c0,2.4-1.2,5.8-2.5,5.5s-2.9-3-2.9-3c-0.7-6.6-2.3-20-2.3-20l5.3-2.7
			C173,294.8,174.1,306.9,174.1,309.4z"/>
		<path class="st21" d="M172.8,288.8l-0.6-2.9c0-0.1-0.1-0.3-0.1-0.4c-0.3-0.5-0.8-0.6-1.3-0.3l-5.4,2.7c-0.6,0.3-0.8,0.9-0.7,1.6
			l0.5,2.7c0,0.1,0.1,0.3,0.1,0.4c0.3,0.5,0.9,0.6,1.3,0.4l5.4-2.6C172.6,290.1,172.9,289.5,172.8,288.8z"/>
		<path class="st3" d="M172.7,307.8c0.1,1-0.4,2-1.3,2.6c-0.2,0.1-0.4,0.2-0.6,0.2c-0.6,0-1.1-0.5-1.1-1.1c-0.1-1,0.4-2,1.3-2.5
			C171.9,306.4,172.6,306.8,172.7,307.8z"/>
		<path class="st6" d="M108.3,343.7c1.1,2.4,17.3,11.8,17.8,10.4c0.2-0.5,5.5-4,5.7-4.5c0.5-1.3,1-19.7,0-20.9
			c-1.4-1.6-16.8-10.9-17.8-10.3c-0.6,0.3-5.4,4.3-5.7,4.5C106.8,323.8,107.2,341.2,108.3,343.7z"/>
		<path class="st27" d="M108.3,343.7c1.1,2.4,17.3,11.8,17.8,10.4c0.2-0.5,5.5-4,5.7-4.5c0.5-1.3,1-19.7,0-20.9
			c-1.4-1.6-16.8-10.9-17.8-10.3c-0.6,0.3-5.4,4.3-5.7,4.5C106.8,323.8,107.2,341.2,108.3,343.7z"/>
		<path class="st6" d="M108.3,322.9c-1.5,0.8-1.1,18.3,0,20.7c1.1,2.4,17.3,11.8,17.8,10.4c0.5-1.3,1-19.7,0-20.9
			C124.6,331.6,109.3,322.4,108.3,322.9z"/>
		<path class="st19" d="M131.7,328.7l-5.7,4.5c-1.5-1.6-16.8-10.9-17.8-10.3c0.3-0.2,5.1-4.2,5.7-4.5
			C114.9,317.8,130.3,327.1,131.7,328.7z"/>
		<path class="st26" d="M108.3,322.9c-1.5,0.8-1.1,18.3,0,20.7c1.1,2.4,17.3,11.8,17.8,10.4c0.5-1.3,1-19.7,0-20.9
			C124.6,331.6,109.3,322.4,108.3,322.9z"/>
		<path class="st6" d="M115.7,318.4c-2.7-1.3-5.8,0.2-7.4,2.6c-1.7,2.4,0,8.9,1.2,12c1.3,3.1,6.7,7.6,10.3,6.5
			c3.6-1.1,4.9-6.9,6.2-8.2c1.4-1.3,4.6-3.2,5.7-2.6C131.3,325.8,118.4,319.7,115.7,318.4z"/>
		<path class="st18" d="M115.7,318.4c-2.7-1.3-5.8,0.2-7.4,2.6c-1.7,2.4,0,8.9,1.2,12c1.3,3.1,6.7,7.6,10.3,6.5
			c3.6-1.1,4.9-6.9,6.2-8.2c1.4-1.3,4.6-3.2,5.7-2.6C131.3,325.8,118.4,319.7,115.7,318.4z"/>
		<path class="st21" d="M113.7,333.2c0,1,0.5,2,1.4,2.5c0.2,0.1,0.4,0.1,0.6,0.1c0.6,0,1.1-0.6,1-1.2c0-1-0.5-2-1.4-2.5
			C114.5,331.7,113.8,332.2,113.7,333.2z"/>
		<path class="st11" d="M132.3,265.6c-0.1-1.6-0.1-4.7,1.4-6c3.5-2.9,12.1-6.6,13.9-5.8c2,0.8,0.8,4.6,1.1,5.1
			c0.2,0.5,3.1,2.1,3.8,1c0.8-1.1,0.4-6.3,0-7.1c-1.3-1.9-3.3-3.2-5.7-3.6c-3-0.4-15.3,5.3-17.3,8.5c-2,3.1-1.9,8.8-1.5,9.4
			c0.4,0.7,3,2,3.9,1.4C132.4,268.2,132.4,267.2,132.3,265.6z"/>
		<path class="st21" d="M146.8,253.7c0.3,0,0.5,0,0.7,0.1c2,0.8,0.8,4.6,1.1,5.1c0.8,0.8,1.9,1.3,3,1.4c0.3-0.3,0.5-2.3,0-4.4
			C151,253.7,149,253.4,146.8,253.7L146.8,253.7z"/>
	</g>
</g>
</svg>
