<?xml version="1.0" encoding="utf-8"?>
<!-- Generator: Adobe Illustrator 26.3.0, SVG Export Plug-In . SVG Version: 6.00 Build 0)  -->
<svg version="1.1" id="Layer_1" xmlns="http://www.w3.org/2000/svg" xmlns:xlink="http://www.w3.org/1999/xlink" x="0px" y="0px"
	 viewBox="0 0 427.9 388.9" style="enable-background:new 0 0 427.9 388.9;" xml:space="preserve">
<style type="text/css">
	.st0{fill:#407BFF;}
	.st1{opacity:0.9;fill:#FFFFFF;enable-background:new    ;}
	.st2{fill:#F5F5F5;}
	.st3{fill:#263238;}
	.st4{opacity:0.5;}
	.st5{fill:#FFFFFF;}
	.st6{opacity:0.2;fill:#FFFFFF;enable-background:new    ;}
	.st7{opacity:0.3;fill:#FFFFFF;enable-background:new    ;}
	.st8{opacity:0.5;fill:#FFFFFF;enable-background:new    ;}
	.st9{opacity:0.7;fill:#FFFFFF;enable-background:new    ;}
	.st10{opacity:0.2;enable-background:new    ;}
	.st11{opacity:0.8;fill:#FFFFFF;enable-background:new    ;}
	.st12{opacity:0.4;fill:#FFFFFF;enable-background:new    ;}
	.st13{opacity:0.6;fill:#FFFFFF;enable-background:new    ;}
	.st14{fill:#FFB573;}
	.st15{fill:#577AFA;}
	.st16{fill:#2E353A;}
	.st17{fill:#ED893E;}
</style>
<g id="freepik--background-simple--inject-416">
	<path class="st0" d="M205.8,31c-77.8,35-7.2,97.3-52.1,131.3s-167-5.3-120.4,82.9c54.7,103.6,294,89.2,345.6-37.9S283.6-4,205.8,31
		z"/>
	<path class="st1" d="M205.8,31c-77.8,35-7.2,97.3-52.1,131.3s-167-5.3-120.4,82.9c54.7,103.6,294,89.2,345.6-37.9S283.6-4,205.8,31
		z"/>
</g>
<g id="freepik--Shadow--inject-416">
	<ellipse id="freepik--path--inject-416" class="st2" cx="210" cy="358.5" rx="193.9" ry="11.3"/>
</g>
<g id="freepik--Clipboard--inject-416">
	<path class="st0" d="M255.6,113.5h114.8c1.9,0,3.5,1.5,3.5,3.5v189.7c0,1.9-1.5,3.5-3.5,3.5H255.6c-1.9,0-3.5-1.5-3.5-3.5V117
		C252.2,115.1,253.7,113.5,255.6,113.5z"/>
	<path class="st3" d="M280.9,112.6h64.4c0.4,0,0.6,0.3,0.6,0.6v0v6.4l0,0h-65.7l0,0v-6.4C280.2,112.9,280.5,112.6,280.9,112.6
		C280.8,112.6,280.9,112.6,280.9,112.6z"/>
	<rect x="257" y="119.7" class="st1" width="112.1" height="184.3"/>
	<path class="st3" d="M335,128.1h-19.7l-0.2-0.7c-0.4-1.1-1.6-1.7-2.7-1.4c-0.6,0.2-1.2,0.7-1.4,1.4l-0.2,0.7h-19.7
		c-1.6,0-2.9-1.3-2.9-2.9V118c0-1.6,1.3-2.9,2.9-2.9h44c1.6,0,2.9,1.3,2.9,2.9v7.3C337.9,126.9,336.6,128.2,335,128.1
		C335,128.1,335,128.1,335,128.1z M316.7,126.1H335c0.5,0,0.9-0.4,0.9-0.9c0,0,0,0,0,0V118c0-0.5-0.4-0.9-0.9-0.9l0,0h-44
		c-0.5,0-0.9,0.4-0.9,0.9c0,0,0,0,0,0v7.3c0,0.5,0.4,0.9,0.9,0.9c0,0,0,0,0,0h18.4c1.1-2,3.6-2.8,5.6-1.7
		C315.7,124.9,316.3,125.4,316.7,126.1L316.7,126.1z"/>
	<g class="st4">
		<path class="st5" d="M335,128.1h-19.7l-0.2-0.7c-0.4-1.1-1.6-1.7-2.7-1.4c-0.6,0.2-1.2,0.7-1.4,1.4l-0.2,0.7h-19.7
			c-1.6,0-2.9-1.3-2.9-2.9V118c0-1.6,1.3-2.9,2.9-2.9h44c1.6,0,2.9,1.3,2.9,2.9v7.3C337.9,126.9,336.6,128.2,335,128.1
			C335,128.1,335,128.1,335,128.1z M316.7,126.1H335c0.5,0,0.9-0.4,0.9-0.9c0,0,0,0,0,0V118c0-0.5-0.4-0.9-0.9-0.9l0,0h-44
			c-0.5,0-0.9,0.4-0.9,0.9c0,0,0,0,0,0v7.3c0,0.5,0.4,0.9,0.9,0.9c0,0,0,0,0,0h18.4c1.1-2,3.6-2.8,5.6-1.7
			C315.7,124.9,316.3,125.4,316.7,126.1L316.7,126.1z"/>
	</g>
	<path class="st3" d="M294.2,114h37.8c0.5,0,1,0.4,1,1v2.4c0,0.5-0.4,1-1,1h-37.8c-0.5,0-1-0.4-1-1v-2.4
		C293.2,114.4,293.6,114,294.2,114z"/>
	<path class="st6" d="M294.2,114h37.8c0.5,0,1,0.4,1,1v2.4c0,0.5-0.4,1-1,1h-37.8c-0.5,0-1-0.4-1-1v-2.4
		C293.2,114.4,293.6,114,294.2,114z"/>
	<circle class="st0" cx="339.6" cy="269.2" r="21.3"/>
	<path class="st7" d="M339.6,269.2h21.3c0,11.8-9.5,21.3-21.3,21.3s-21.3-9.5-21.3-21.3s9.5-21.3,21.3-21.3l0,0h0.1L339.6,269.2z"/>
	<path class="st7" d="M339.6,269.2l11.5,17.9c-9.9,6.3-23.1,3.5-29.4-6.4s-3.5-23.1,6.4-29.4c3.4-2.2,7.4-3.4,11.5-3.4h0.1
		L339.6,269.2z"/>
	<path class="st7" d="M339.6,269.2l-17.9,11.4c-6.3-9.9-3.4-23.1,6.5-29.4c3.4-2.2,7.4-3.3,11.4-3.3h0.1L339.6,269.2z"/>
	<g class="st4">
		<path d="M265.1,152.7v50.2h96v-50.2H265.1z M360.3,160.5h-16.6v-7.1h16.6L360.3,160.5z M307.2,160.5h-17.1v-7.1h17.1V160.5z
			 M308,153.4h17.1v7.1h-17L308,153.4z M307.2,161.3v40.9h-17.1v-40.9L307.2,161.3z M308,161.3h17.1v40.9h-17L308,161.3z
			 M325.8,161.3h17.1v40.9h-17.1V161.3z M325.8,160.5v-7.1h17.1v7.1H325.8z M289.4,153.4v7.1h-23.6v-7.1H289.4z M265.8,161.3h23.6
			v40.9h-23.6V161.3z M343.7,202.2v-40.9h16.6v40.9H343.7z"/>
		<path d="M295.6,168.3h6.9c0.6,0,1-0.4,1-1s-0.4-1-1-1h-6.9c-0.6,0-1,0.4-1,1S295,168.3,295.6,168.3z"/>
		<path d="M313,177.3h7.5c0.6,0,1-0.4,1-1s-0.4-1-1-1H313c-0.6,0-1,0.4-1,1S312.5,177.3,313,177.3z"/>
		<path d="M320.9,193.5H313c-0.6,0-1,0.4-1,1s0.4,1,1,1h7.8c0.6,0,1-0.4,1-1S321.4,193.5,320.9,193.5L320.9,193.5z"/>
		<path d="M338.3,184.4H330c-0.6,0-1,0.4-1,1s0.4,1,1,1h8.3c0.6,0,1-0.4,1-1S338.9,184.4,338.3,184.4L338.3,184.4z"/>
		<path d="M356.2,166.3h-8.4c-0.6,0-1,0.4-1,1s0.4,1,1,1h8.4c0.6,0,1-0.4,1-1S356.7,166.3,356.2,166.3z"/>
		<path d="M355.1,193.5h-7.3c-0.6,0-1,0.4-1,1s0.4,1,1,1h7.3c0.6,0,1-0.4,1-1S355.6,193.5,355.1,193.5z"/>
		<path d="M295.6,186.4h5.9c0.6,0,1-0.4,1-1s-0.4-1-1-1h-5.9c-0.6,0-1,0.4-1,1S295,186.4,295.6,186.4z"/>
		<path d="M302.5,193.5h-6.9c-0.6,0-1,0.4-1,1s0.4,1,1,1h6.9c0.6,0,1-0.4,1-1S303,193.5,302.5,193.5z"/>
		<path d="M269.4,168.3h15.8c0.6,0,1-0.4,1-1s-0.4-1-1-1h-15.8c-0.6,0-1,0.4-1,1S268.9,168.3,269.4,168.3z"/>
		<path d="M269.4,177.3H280c0.6,0,1-0.4,1-1s-0.4-1-1-1h-10.5c-0.6,0-1,0.4-1,1S268.9,177.3,269.4,177.3z"/>
		<path d="M285.2,184.4h-15.8c-0.6,0-1,0.4-1,1s0.4,1,1,1h15.8c0.6,0,1-0.4,1-1S285.8,184.4,285.2,184.4z"/>
		<path d="M277.3,193.5h-7.9c-0.6,0-1,0.4-1,1s0.4,1,1,1h7.9c0.6,0,1-0.4,1-1S277.9,193.5,277.3,193.5z"/>
	</g>
	<g class="st4">
		<path d="M303.5,142.1h-37.4c-0.6,0-1-0.4-1-1s0.4-1,1-1h37.4c0.6,0,1,0.4,1,1S304.1,142.1,303.5,142.1z"/>
	</g>
	<g class="st4">
		<path d="M290.4,147.7h-24.3c-0.6,0-1-0.4-1-1s0.4-1,1-1h24.3c0.6,0,1,0.4,1,1S290.9,147.7,290.4,147.7z"/>
	</g>
	<g class="st4">
		<path d="M314.4,211.6h-48.3c-0.6,0-1-0.4-1-1s0.4-1,1-1h48.3c0.6,0,1,0.4,1,1S314.9,211.6,314.4,211.6z"/>
	</g>
	<rect x="265.1" y="251.2" class="st0" width="6" height="6"/>
	<g class="st4">
		<path d="M305,255.2h-29.6c-0.6,0-1-0.4-1-1s0.4-1,1-1H305c0.6,0,1,0.4,1,1S305.6,255.2,305,255.2z"/>
	</g>
	<rect x="265.1" y="261.2" class="st0" width="6" height="6"/>
	<g class="st4">
		<path d="M305,265.2h-29.6c-0.6,0-1-0.4-1-1s0.4-1,1-1H305c0.6,0,1,0.4,1,1S305.6,265.2,305,265.2z"/>
	</g>
	<rect x="265.1" y="271.2" class="st0" width="6" height="6"/>
	<g class="st4">
		<path d="M305,275.2h-29.6c-0.6,0-1-0.4-1-1s0.4-1,1-1H305c0.6,0,1,0.4,1,1S305.6,275.2,305,275.2z"/>
	</g>
	<rect x="265.1" y="281.2" class="st0" width="6" height="6"/>
	<g class="st4">
		<path d="M305,285.2h-29.6c-0.6,0-1-0.4-1-1s0.4-1,1-1H305c0.6,0,1,0.4,1,1S305.6,285.2,305,285.2z"/>
	</g>
	<g class="st4">
		<path d="M359.7,220.5H273c-0.6,0-1-0.4-1-1s0.4-1,1-1h86.7c0.6,0,1,0.4,1,1S360.2,220.5,359.7,220.5z"/>
		<path d="M359.8,225.5h-93.7c-0.6,0-1-0.4-1-1s0.4-1,1-1h93.7c0.6,0,1,0.4,1,1S360.4,225.5,359.8,225.5L359.8,225.5z"/>
		<path d="M359.9,230.5h-93.7c-0.6,0-1-0.4-1-1s0.4-1,1-1h93.7c0.6,0,1,0.4,1,1S360.5,230.5,359.9,230.5z"/>
		<path d="M346,235.5h-79.7c-0.6,0-1-0.4-1-1s0.4-1,1-1H346c0.6,0,1,0.4,1,1S346.6,235.5,346,235.5z"/>
	</g>
	<rect x="265.1" y="261.2" class="st7" width="6" height="6"/>
	<rect x="265.1" y="271.2" class="st8" width="6" height="6"/>
	<rect x="265.1" y="281.2" class="st9" width="6" height="6"/>
</g>
<g id="freepik--Plant--inject-416">
	<path class="st0" d="M367.4,335.5c0,0-4.8-10.4,0.7-20.6s7-12.6,3.5-14.7s-5,8.2-5,8.2c-1.7-4.6-1.9-9.7-0.5-14.5
		c2.4-7.4,3.9-19.4,0.6-20.7s-0.6,15-3.5,20.6c-1.5-3.9-2.4-8-2.8-12.1c-0.4-5.9,0.2-15.4-2.4-17.8s-4.3-0.8-1.7,12.4
		c1.5,7.8,2.4,15.8,2.5,23.8c0,0-5.6-17.2-9.4-17.7s-3.8,5.1-0.5,9.9s9.5,13.5,10.5,17.9c0,0-6.2-12.9-11.8-9s4.8,11.8,9.5,14.6
		s7.8,20.5,7.8,20.5L367.4,335.5z"/>
	<path class="st10" d="M367.4,335.5c0,0-4.8-10.4,0.7-20.6s7-12.6,3.5-14.7s-5,8.2-5,8.2c-1.7-4.6-1.9-9.7-0.5-14.5
		c2.4-7.4,3.9-19.4,0.6-20.7s-0.6,15-3.5,20.6c-1.5-3.9-2.4-8-2.8-12.1c-0.4-5.9,0.2-15.4-2.4-17.8s-4.3-0.8-1.7,12.4
		c1.5,7.8,2.4,15.8,2.5,23.8c0,0-5.6-17.2-9.4-17.7s-3.8,5.1-0.5,9.9s9.5,13.5,10.5,17.9c0,0-6.2-12.9-11.8-9s4.8,11.8,9.5,14.6
		s7.8,20.5,7.8,20.5L367.4,335.5z"/>
	<path class="st0" d="M363.7,339.8c0,0,4.6-10.4-0.9-20.6s-7.1-12.5-3.7-14.7s5.1,8.1,5.1,8.1c1.7-4.7,1.8-9.7,0.3-14.5
		c-2.5-7.4-4.1-19.4-0.9-20.7s0.8,15,3.7,20.5c1.4-3.9,2.3-8,2.7-12.2c0.3-6-0.4-15.4,2.2-17.9s4.2-0.8,1.9,12.3
		c-1.4,7.8-2.2,15.8-2.2,23.8c0,0,5.4-17.3,9.2-17.8s3.8,5,0.7,9.9s-9.3,13.6-10.3,18.1c0,0,6-13,11.6-9.1s-4.7,11.9-9.3,14.7
		s-7.6,20.6-7.6,20.6L363.7,339.8z"/>
	<polygon class="st3" points="385,332.3 346.8,332.3 349.9,359.7 381.9,359.7 	"/>
</g>
<g id="freepik--Character--inject-416">
	<rect x="99.9" y="281.7" class="st0" width="148.9" height="24"/>
	<rect x="99.9" y="281.7" class="st11" width="148.9" height="24"/>
	<polygon class="st10" points="248.8,288.1 248.8,286.1 146.8,286.9 	"/>
	<polygon class="st10" points="248.8,296.5 248.8,295 203,296.6 	"/>
	<polygon class="st10" points="248.8,302.1 248.8,300.1 175,301.3 	"/>
	<path class="st10" d="M133.2,281.7l-2.1,17.9l2.6-2.7c0.9,3.3,2.5,6.3,4.7,8.8c1.6-2.1,2.9-4.4,3.8-6.9l69.6-0.8l-68.9-1.5
		c0.2-1,0.3-2,0.3-3c0-0.8-0.1-1.7-0.2-2.5l102.1-0.3L142.5,290c-0.4-1.3-0.9-2.7-1.5-3.9c1.5-1.3,3.4-2,5.3-2h102.5v-2.4H133.2z"/>
	<path class="st0" d="M135.5,293.6c0,6,4.9,10.8,10.9,10.8h104.2c0.4,0,0.8,0.4,0.8,0.8v0.9c0,0.4-0.4,0.8-0.8,0.8H96.6
		c-7.3,0-13.3-6-13.3-13.3c0,0,0-0.1,0-0.1c0.2-7.4,6.3-13.3,13.6-13.2h153.6c0.4,0,0.8,0.4,0.8,0.8v0.9c0,0.4-0.4,0.8-0.8,0.8
		H146.6C140.6,282.7,135.6,287.5,135.5,293.6z"/>
	<path class="st12" d="M135.5,293.6c0,6,4.9,10.8,10.9,10.8h104.2c0.4,0,0.8,0.4,0.8,0.8v0.9c0,0.4-0.4,0.8-0.8,0.8H96.6
		c-7.3,0-13.3-6-13.3-13.3c0,0,0-0.1,0-0.1c0.2-7.4,6.3-13.3,13.6-13.2h153.6c0.4,0,0.8,0.4,0.8,0.8v0.9c0,0.4-0.4,0.8-0.8,0.8
		H146.6C140.6,282.7,135.6,287.5,135.5,293.6z"/>
	<path class="st0" d="M135.5,293.6c0,6,4.9,10.8,10.9,10.8h104.2c0.4,0,0.8,0.4,0.8,0.8v0.9c0,0.4-0.4,0.8-0.8,0.8H145.7
		c-7.4,0-13.3-6-13.3-13.3c0,0,0-0.1,0-0.1c0.2-7.4,6.2-13.2,13.6-13.2h104.5c0.4,0,0.8,0.4,0.8,0.8v0.9c0,0.4-0.4,0.8-0.8,0.8
		H146.6C140.6,282.7,135.6,287.5,135.5,293.6z"/>
	<polygon class="st3" points="155.1,287.1 155.1,296.7 158.6,293.3 161.9,296.6 161.9,287.1 	"/>
	<path class="st13" d="M135.5,293.6c0,6,4.9,10.8,10.9,10.8h104.2c0.4,0,0.8,0.4,0.8,0.8v0.9c0,0.4-0.4,0.8-0.8,0.8H145.7
		c-7.4,0-13.3-6-13.3-13.3c0,0,0-0.1,0-0.1c0.2-7.4,6.2-13.2,13.6-13.2h104.5c0.4,0,0.8,0.4,0.8,0.8v0.9c0,0.4-0.4,0.8-0.8,0.8
		H146.6C140.6,282.7,135.6,287.5,135.5,293.6z"/>
	<rect x="107" y="334.6" class="st0" width="148.9" height="24"/>
	<rect x="107" y="334.6" class="st9" width="148.9" height="24"/>
	<polygon class="st10" points="256,340.9 256,338.9 154,339.8 	"/>
	<polygon class="st10" points="256,349.3 256,347.8 210.2,349.4 	"/>
	<polygon class="st10" points="256,354.9 256,353 182.2,354.1 	"/>
	<path class="st10" d="M140.3,334.6l-2.2,17.9l2.6-2.7c0.9,3.3,2.5,6.3,4.7,8.8c1.6-2.1,2.8-4.4,3.8-6.9l69.6-0.8l-68.9-1.5
		c0.2-1,0.3-2,0.3-3c0-0.8-0.1-1.7-0.2-2.5l102.1-0.2l-102.3-0.8c-0.4-1.3-0.9-2.6-1.5-3.9c1.5-1.3,3.4-2,5.3-2H256v-2.3
		L140.3,334.6z"/>
	<path class="st3" d="M142.6,346.4c0,6,4.8,10.9,10.8,10.9c0,0,0,0,0.1,0h104.2c0.4,0,0.8,0.4,0.8,0.8v0.9c0,0.4-0.4,0.8-0.8,0.8
		H95.6c-7.4,0-13.3-6-13.3-13.3c0,0,0,0,0-0.1c0.2-7.4,6.3-13.3,13.6-13.2h161.8c0.4,0,0.8,0.4,0.8,0.8v0.9c0,0.4-0.4,0.8-0.8,0.8
		H153.8C147.8,335.6,142.8,340.4,142.6,346.4z"/>
	<path class="st6" d="M142.6,346.4c0,6,4.8,10.9,10.8,10.9c0,0,0,0,0.1,0h104.2c0.4,0,0.8,0.4,0.8,0.8v0.9c0,0.4-0.4,0.8-0.8,0.8
		H95.6c-7.4,0-13.3-6-13.3-13.3c0,0,0,0,0-0.1c0.2-7.4,6.3-13.3,13.6-13.2h161.8c0.4,0,0.8,0.4,0.8,0.8v0.9c0,0.4-0.4,0.8-0.8,0.8
		H153.8C147.8,335.6,142.8,340.4,142.6,346.4z"/>
	<path class="st3" d="M142.6,346.4c0,6,4.8,10.9,10.8,10.9c0,0,0,0,0.1,0h104.2c0.4,0,0.8,0.4,0.8,0.8v0.9c0,0.4-0.4,0.8-0.8,0.8
		H152.9c-7.3,0-13.3-6-13.3-13.3c0,0,0-0.1,0-0.1c0.2-7.4,6.2-13.3,13.6-13.2h104.5c0.4,0,0.8,0.4,0.8,0.8v0.9
		c0,0.4-0.4,0.8-0.8,0.8H153.8C147.8,335.6,142.8,340.4,142.6,346.4z"/>
	<polygon class="st0" points="154,343.4 154,353 157.5,349.5 160.9,352.9 160.9,343.4 	"/>
	<path class="st12" d="M142.6,346.4c0,6,4.8,10.9,10.8,10.9c0,0,0,0,0.1,0h104.2c0.4,0,0.8,0.4,0.8,0.8v0.9c0,0.4-0.4,0.8-0.8,0.8
		H152.9c-7.3,0-13.3-6-13.3-13.3c0,0,0-0.1,0-0.1c0.2-7.4,6.2-13.3,13.6-13.2h104.5c0.4,0,0.8,0.4,0.8,0.8v0.9
		c0,0.4-0.4,0.8-0.8,0.8H153.8C147.8,335.6,142.8,340.4,142.6,346.4z"/>
	<rect x="93.6" y="308.1" class="st0" width="55.2" height="23.9"/>
	<rect x="93.6" y="308.1" class="st11" width="55.2" height="23.9"/>
	<polygon class="st10" points="144.4,310.5 93.6,310.5 93.6,308.1 144.3,308.1 	"/>
	<polygon class="st10" points="144.4,312.5 98.6,313.5 144.4,314.5 	"/>
	<polygon class="st10" points="144.4,321.4 95.9,322.2 144.4,322.9 	"/>
	<polygon class="st10" points="144.4,326.6 96.3,327.5 144.4,328.5 	"/>
	<polygon class="st10" points="93.6,315.9 140.1,317.3 93.6,318.3 	"/>
	<path class="st3" d="M216.8,320c0,6-4.9,10.8-10.9,10.8H91.1c-0.4,0-0.8,0.4-0.8,0.8v0.9c0,0.4,0.4,0.8,0.8,0.8h115.5
		c7.3,0,13.3-5.9,13.3-13.3c0,0,0-0.1,0-0.1c-0.2-7.4-6.2-13.3-13.6-13.2H91.1c-0.4,0-0.8,0.4-0.8,0.8v0.9c0,0.4,0.4,0.8,0.8,0.8
		h114.5C211.7,309.1,216.6,313.9,216.8,320z"/>
	<path class="st12" d="M216.8,320c0,6-4.9,10.8-10.9,10.8H91.1c-0.4,0-0.8,0.4-0.8,0.8v0.9c0,0.4,0.4,0.8,0.8,0.8h115.5
		c7.3,0,13.3-5.9,13.3-13.3c0,0,0-0.1,0-0.1c-0.2-7.4-6.2-13.3-13.6-13.2H91.1c-0.4,0-0.8,0.4-0.8,0.8v0.9c0,0.4,0.4,0.8,0.8,0.8
		h114.5C211.7,309.1,216.6,313.9,216.8,320z"/>
	<path class="st0" d="M258.7,320.1L258.7,320.1c0,6.6-5.4,12-12,12H144.4v-24h102.3C253.3,308.1,258.7,313.5,258.7,320.1z"/>
	<path class="st9" d="M144.4,308.1v24h102.3c6.6,0,12-5.4,12-12s-5.4-12-12-12H144.4z"/>
	<polygon class="st10" points="144.4,314.5 144.4,312.5 246.4,313.3 	"/>
	<polygon class="st10" points="144.4,322.9 144.4,321.4 190.2,323 	"/>
	<polygon class="st10" points="144.4,328.5 144.4,326.6 218.2,327.7 	"/>
	<path class="st10" d="M246.9,310.5c2,0,3.9,0.7,5.3,2c-0.6,1.2-1.1,2.5-1.5,3.9l-102.3,0.8l102.1,0.2c-0.2,0.8-0.2,1.7-0.2,2.5
		c0,1,0.1,2,0.4,3l-68.9,1.5l69.5,0.8c0.6,1.7,1.4,3.3,2.3,4.8c5.4-3.8,6.8-11.3,3-16.7c-2.2-3.2-5.9-5.1-9.8-5.1H144.4v2.3
		L246.9,310.5z"/>
	<path class="st3" d="M257.7,320c0,6-4.9,10.8-10.9,10.8H142.7c-0.4,0-0.8,0.4-0.8,0.8v0.9c0,0.4,0.4,0.8,0.8,0.8h104.8
		c7.3,0,13.3-5.9,13.3-13.3c0,0,0-0.1,0-0.1c-0.2-7.4-6.2-13.3-13.6-13.2H142.7c-0.4,0-0.8,0.4-0.8,0.8v0.9c0,0.4,0.4,0.8,0.8,0.8
		h103.9C252.6,309.1,257.6,313.9,257.7,320z"/>
	<polygon class="st0" points="246.4,316.9 246.4,326.6 242.9,323.1 239.5,326.4 239.5,316.9 	"/>
	<path class="st14" d="M273.4,181.9h-2.5c-0.9,0-1.8,0.5-2.4,1.3l-2.5,3.6c-1,1.5-1.2,3.3-0.6,4.9l0.4,1c4.1,0.2,8.8-2.6,8.8-2.6
		l1.4-0.7c1.2-0.5,1.8-2,1.3-3.2c0,0,0,0,0,0l-1.3-2.7C275.5,182.5,274.5,181.8,273.4,181.9z"/>
	<path class="st14" d="M226,186.3c6.4,5.2,13.4,10.2,21,13.2l-1-0.2c0.7,0.2,2.5-0.5,3.5-1c5.3-2.6,10.4-6.5,15.2-10.1
		c1.1-0.8,2.7-0.6,3.5,0.6c0.6,0.9,0.6,2.1,0,3c-4.8,6-15.6,18.2-24.1,16.4c-9.4-2.8-17.6-8-25-14.4
		C214.4,189.3,220.8,182.1,226,186.3z"/>
	<path class="st0" d="M212.5,179.2c-2.3,6.5,1.4,13,10.5,20.6c4.5-0.7,10.6-9.9,10.6-9.9S220.9,177.2,212.5,179.2z"/>
	<path class="st3" d="M220.3,138.7c0,0-8.9-9.1-20.6,2.3s-13.9,49.5-13.9,49.5l30.4,5.9c0,0,3.9-4.5,6-17.5s3.1-25.4,5.6-28.4
		S220.3,138.7,220.3,138.7z"/>
	<polygon class="st14" points="246.4,331.1 239.9,328.5 242.4,318.9 244.8,310.1 253.1,312 249.6,322.1 	"/>
	<path class="st3" d="M196.6,244.7c0,0,55-7.4,70.3,2.3c15.3,9.8-14.3,69.2-14.3,69.2l-9.3-2c0,0,6.9-47.1,6.4-49.1
		s-26.4,10.9-61.9,12.1L196.6,244.7z"/>
	<path class="st10" d="M196.6,244.7c0,0,55-7.4,70.3,2.3c15.3,9.8-14.3,69.2-14.3,69.2l-9.3-2c0,0,6.9-47.1,6.4-49.1
		s-26.4,10.9-61.9,12.1L196.6,244.7z"/>
	<polygon class="st3" points="242.8,311.3 254.5,315.1 252.4,320.4 241.7,316.7 	"/>
	<path class="st15" d="M252.5,332.6c-1.3,0-3.5-2-3.9-2.5c0,0,0-0.1-0.1-0.1V330c0-0.1,0-0.1,0-0.2c0.1-0.1,1.5-2,2.9-2.1
		c0.4,0,0.9,0.1,1.2,0.4c0.4,0.3,0.5,0.6,0.4,1c-0.2,0.5-1,0.7-1.9,0.9c0.7,0.1,1.4,0.4,2,0.9c0.2,0.2,0.3,0.5,0.3,0.8
		c0,0.6-0.3,0.8-0.5,0.9C252.8,332.6,252.6,332.6,252.5,332.6z M249.4,330.3c1.2,1,2.7,2.1,3.2,1.9c0,0,0.2-0.1,0.2-0.5
		c0-0.2,0-0.3-0.2-0.4C252.2,330.6,250.5,330.4,249.4,330.3L249.4,330.3z M251.6,328.3L251.6,328.3c-1,0.2-1.8,0.7-2.3,1.5
		c1.5-0.1,3.1-0.4,3.2-0.8c0-0.1-0.1-0.3-0.2-0.4C252.1,328.4,251.9,328.3,251.6,328.3L251.6,328.3z"/>
	<path class="st16" d="M238.6,324.4c0.3-0.7,9.2,2.8,9.2,2.8s3.8,7.5,8.8,10.6s0.9,5.3-5.2,3.4l-15.1-4.9
		C232,334.9,235.9,332.1,238.6,324.4z"/>
	<polygon class="st12" points="242.8,311.3 254.5,315.1 252.4,320.4 241.7,316.7 	"/>
	<polygon class="st14" points="275.1,350.2 268.3,352.1 264.5,342.9 261.1,334.5 268.8,330.9 272.1,341.1 	"/>
	<path class="st16" d="M265.3,347.3c0-0.8,9.6,0.1,9.6,0.1s5.8,6.1,11.5,7.6s2.4,4.9-4,4.7l-15.9-0.4
		C262,359.2,264.9,355.4,265.3,347.3z"/>
	<path class="st15" d="M280,349.9c-1.4-0.2-2.8-0.6-4-1.3l0,0l-0.1,0l0,0c0,0,0-0.1,0-0.1c0,0,0,0,0-0.1l0,0c0,0,0-0.1,0-0.1
		c0-0.1,0.9-2.3,2.2-2.8c0.4-0.2,0.9-0.1,1.2,0.1c0.4,0.2,0.6,0.5,0.6,0.8c0,0.5-0.8,1-1.6,1.4c0.7-0.1,1.5,0,2.2,0.3
		c0.2,0.1,0.4,0.4,0.5,0.6c0.1,0.4,0,0.8-0.2,1C280.5,349.9,280.2,350,280,349.9z M276.8,348.5c1.4,0.6,3.2,1.2,3.6,0.9
		c0,0,0.2-0.1,0.1-0.5c0-0.2-0.1-0.3-0.3-0.4C279.5,348,277.9,348.3,276.8,348.5z M278.6,345.9c-0.1,0-0.3,0-0.4,0.1
		c-0.8,0.5-1.4,1.2-1.7,2c1.5-0.5,2.9-1.2,2.9-1.7c0-0.1-0.2-0.3-0.3-0.3C278.9,345.9,278.7,345.9,278.6,345.9L278.6,345.9z"/>
	<path class="st3" d="M212.2,251.8c0,0-0.8-10.9-1.2-13.1c-0.3-2.2-0.8-4.4-1.4-6.5c-2.4-7.2-34.7,1.3-34.7,1.3l-0.9,5
		c0,0-14.6,27.5-4.8,37.4c3,3,8.8,4.4,14.7,4.3c0,0,18.1,0.9,51.9-0.7c0,0-2.5,19.6,25.3,58.1l9.3-3c0,0-18.4-69.9-19.9-71.1
		C237,252.7,212.2,251.8,212.2,251.8z"/>
	<polygon class="st3" points="259.4,337.2 270.9,333.1 272.5,338.6 261.8,342.2 	"/>
	<path class="st0" d="M223.1,184.4c0,0-1.2,2.8-2.8,7.8c-0.4,1.2-0.8,2.4-1.2,3.8c-0.5,1.8-1.1,3.8-1.7,6c-0.4,1.6-0.9,3.2-1.3,4.9
		s-0.9,3.6-1.3,5.5c0,0.2-0.1,0.5-0.1,0.7c-1.8,7.7-3.2,15.6-4,23.5l-35.5-3.1c0-7.8,0.4-15.6,1.2-23.3c0.6-6.7,1.9-13.4,3.7-19.9
		c1.4-4.7,3.2-8.7,5.6-11.3C185.6,179,204.9,172.7,223.1,184.4z"/>
	<path class="st0" d="M205,173.9c-10.7-3.4-14.8,5-14.8,5l5.7-0.6l11.6,14.5l6.8-8.8l4.3,2.3C218.4,186.3,214.3,176.8,205,173.9z"/>
	<path class="st13" d="M205,173.9c-10.7-3.4-14.8,5-14.8,5l5.7-0.6l11.6,14.5l6.8-8.8l4.3,2.3C218.4,186.3,214.3,176.8,205,173.9z"
		/>
	<path class="st14" d="M207.1,192l-9.8-14.7c4.6-2.1,7.7-10.9,8.4-15.9l6.9,10.5c-2.3,3.4-3.8,7.2,1.4,10.1
		C214,182,207.1,192,207.1,192z"/>
	<path class="st10" d="M208.5,165.7l4.1,6.2c-0.5,0.8-1,1.6-1.4,2.4c-2.1-0.9-4.2-4-3.7-6.1C207.6,167.3,208,166.5,208.5,165.7z"/>
	<polygon points="174.6,234.6 185.7,235.3 185.3,238.5 173.5,237.6 	"/>
	<polygon points="211.6,240.3 186.7,238.6 187.1,235.4 211.2,237 	"/>
	<path class="st5" d="M202.4,240.3h-0.1l-3-0.2c-0.7,0-1.3-0.7-1.3-1.4l0.1-2c0-0.4,0.2-0.7,0.4-1c0.3-0.3,0.6-0.4,1-0.4l3.1,0.2
		c0.8,0,1.3,0.7,1.3,1.4c0,0,0,0,0,0l-0.1,2.1C203.8,239.8,203.2,240.4,202.4,240.3z M199.1,236.7l-0.1,2c0,0.2,0.1,0.4,0.4,0.4
		l3,0.2c0.2,0,0.4-0.1,0.4-0.4l0.1-2.1c0-0.1,0-0.2-0.1-0.3c-0.1-0.1-0.2-0.1-0.3-0.1l-3.1-0.2c-0.1,0-0.2,0-0.3,0.1
		C199.1,236.5,199,236.6,199.1,236.7L199.1,236.7z"/>
	<polygon class="st8" points="259.4,337.2 270.9,333.1 272.5,338.6 261.8,342.2 	"/>
	<path class="st3" d="M229.9,158.8c-0.1,0-0.2-0.1-0.2-0.1c-0.6-1.1-1.6-1.9-2.8-2.1c-0.1,0-0.3-0.1-0.3-0.3c0,0,0,0,0,0
		c0-0.1,0.2-0.3,0.3-0.2c1.4,0.2,2.6,1.1,3.2,2.4c0.1,0.1,0,0.3-0.1,0.4c0,0,0,0,0,0L229.9,158.8z"/>
	<path class="st17" d="M226.6,163.1c0.1,1.4,0.4,2.8,0.8,4.1c-0.7,0.4-1.6,0.4-2.4,0L226.6,163.1z"/>
	<path class="st3" d="M228.8,161.6c-0.3,0.6-0.8,1-1.2,0.8s-0.5-0.8-0.3-1.4s0.8-1,1.2-0.8S229.1,161,228.8,161.6z"/>
	<path class="st3" d="M228.3,160.1h1.6C229.9,160.1,228.8,161,228.3,160.1z"/>
	<path class="st14" d="M205.8,167c0,0.1,0.1,0.2,0.1,0.3c0.1,0.2,0.2,0.4,0.3,0.6c0.6,1.2,1.5,2.3,2.6,3.2c3.4,2.8,6.4,3.7,9,3
		c0.1,0,0.2-0.1,0.4-0.1l0,0c3.9-1.5,7-6,9.6-12.1c1.1-2.4,1.9-4.9,2.2-7.5c0,0,0-0.1,0-0.1s0-0.2,0-0.3c0.3-3-1-6-3.4-7.9
		c-1-0.8-2.1-1.5-3.3-2.1C211.9,138.1,200.3,156,205.8,167z"/>
	<path class="st3" d="M230,154.3c0,0-3.4,8.4-12.8,8c0,0-7.5,6.7-12.4,4.4c-6.6-3.1-7.7-15.4-0.7-23.8
		C213.4,132,232.6,140.5,230,154.3z"/>
	<path class="st14" d="M222.3,161.9c0.6-1.3,0.7-3.9-1.4-4.6s-5.8,3.7-1.4,7.3C220.1,165.2,221,164.5,222.3,161.9z"/>
	<path class="st3" d="M220.3,138.7c0,0,8.6,1.9,11.3,7.1c3.1,6.1,3.1,10.8-5.6,13.6c0,0-10.8-10.7-15.5-11.9
		c-2.8-0.8-5.6-1.3-8.4-1.6C205.5,137,216.9,134.8,220.3,138.7z"/>
	<path class="st3" d="M217.3,162.3c-5.4,10.9-17.4,29.3-30.1,16.3c0,0,4.6-14.7,13.8-20.8S217.3,162.3,217.3,162.3z"/>
	<path class="st3" d="M215.3,180.4c4.7,3.4-1.3,14.8,4.6,17.3c-1.1-1.6-1.4-3.6-0.6-5.3c1.2-3.1,6.2-11.2,4.2-22.2L215.3,180.4z"/>
	<path class="st10" d="M191.2,204.3c0,0-7.6,5.1-14.8,5.8c0.6-6.7,1.9-13.3,3.7-19.8c0.9-0.5,1.9-0.8,3-0.9c5.3,0.1,7.3,5.1,7.3,5.1
		C190.9,197.7,191.2,201,191.2,204.3z"/>
	<path class="st14" d="M218.9,239.9l-1.6-1.9c-0.6-0.7-1.5-1.1-2.5-1l-4.4,0.3c-1.8,0.1-3.3,1.1-4.2,2.6l-0.6,0.9
		c2.4,3.4,7.6,5.2,7.6,5.2l1.4,0.7c1.2,0.6,2.6,0.2,3.3-1c0,0,0,0,0,0l1.4-2.8C219.8,242,219.7,240.8,218.9,239.9z"/>
	<path class="st14" d="M188.1,194c-0.1,6.3,0.3,12.6,1.4,18.8c0.4,2,0.9,4,1.4,5.9l-0.4-0.9c2.3,3.5,5.7,6.8,8.6,10l4.9,5.1l5,5.1
		c1,1,1,2.6,0,3.6c-0.8,0.8-2.2,1-3.2,0.3c-2.1-1.3-4-2.7-6-4.1c-6.1-4.6-12.2-8.9-17-15c-4.1-9.2-5.1-19.4-4.8-29.3
		c0.6-6.6,10.2-6.2,10.1,0.5L188.1,194z"/>
	<path class="st0" d="M185.3,179c-6.6,2.2-9.3,9.2-9.6,21.1c3.4,3.1,14.4,2.1,14.4,2.1S192.1,184.3,185.3,179z"/>
	<path class="st3" d="M255.9,249.1v3.1c0,0.8-1,1.1-1.8,1.1H191c-0.8,0-1.8-0.3-1.8-1.1v-3.2L255.9,249.1z"/>
	<path class="st12" d="M255.9,249.1v3.1c0,0.8-1,1.1-1.8,1.1H191c-0.8,0-1.8-0.3-1.8-1.1v-3.2L255.9,249.1z"/>
	<path class="st10" d="M255.9,249.1v3.1c0,0.8-1,1.1-1.8,1.1h-41.6c-0.8,0-1.8-0.3-1.8-1.1v-3.2L255.9,249.1z"/>
	<path class="st3" d="M266.4,216.4l-7.5,34.1c-0.3,1.1-1.3,1.9-2.4,1.9h-41c-0.9,0-1.6-0.8-1.6-1.7c0-0.1,0-0.3,0.1-0.4l7.5-33.8
		c0.3-1.1,1.3-1.8,2.4-1.7h41C266,214.7,266.7,215.3,266.4,216.4z"/>
	<path class="st12" d="M266.4,216.4l-7.5,34.1c-0.3,1.1-1.3,1.9-2.4,1.9h-39.6c-0.9,0-1.6-0.8-1.6-1.7c0-0.1,0-0.3,0.1-0.4l7.5-33.8
		c0.3-1.1,1.3-1.8,2.4-1.7h39.6C266,214.7,266.7,215.3,266.4,216.4z"/>
	<path class="st10" d="M246.2,233.7L246.2,233.7c0,2.9-3.1,5.3-5.4,5.3s-3.6-2.4-3-5.3s2.9-5.2,5.2-5.3c-0.6,2.9,0.8,5.3,3,5.3
		H246.2z"/>
</g>
</svg>
