<?xml version="1.0" encoding="utf-8"?>
<!-- Generator: Adobe Illustrator 26.0.3, SVG Export Plug-In . SVG Version: 6.00 Build 0)  -->
<svg version="1.1" id="Layer_1" xmlns="http://www.w3.org/2000/svg" xmlns:xlink="http://www.w3.org/1999/xlink" x="0px" y="0px"
	 viewBox="0 0 1024 1024" style="enable-background:new 0 0 1024 1024;" xml:space="preserve">
<style type="text/css">
	.st0{fill:#65799E;}
	.st1{fill:#234075;}
	.st2{fill:#003366;}
	.st3{fill:#FCBA19;}
	.st4{fill:url(#SVGID_1_);}
	.st5{fill:#FFFFFF;}
</style>
<rect x="0" class="st0" width="1024" height="1024"/>
<path class="st1" d="M841.4,185l-92.4-43.7L577.7,260.1l-106.3-75.3L432,214l-89.6-61.5l-105.3,72.3c0,0-117.5,68.2-121.5,68.2
	c-2.9,0-75.5-56.9-115.7-88.5V1024h1024V467.3V363.5V137.1l-63.6-35.5L841.4,185z"/>
<path class="st2" d="M0,448.5V1024h1024V561.2c-69.1,15.7-144.7,24.6-221.1,24.6C565.8,585.9,242.4,457.6,0,448.5z"/>
<g>
	<path class="st3" d="M550.5,279.4l-112.4,80.2c-12.7,9.1-27.9,13.9-43.5,13.9H267.9c-1.5,0-2.1-1.9-0.9-2.8L471,225.2
		c1.1-0.8,2.5-0.8,3.6,0L550.5,279.4z"/>
	<path class="st3" d="M608.3,272.6L466.9,373.6h281.4c1.6,0,2.2-2,0.9-2.9l-137.3-98C610.9,271.9,609.4,271.9,608.3,272.6z"/>
</g>
<linearGradient id="SVGID_1_" gradientUnits="userSpaceOnUse" x1="511.9982" y1="798.48" x2="511.9982" y2="403.73">
	<stop  offset="0" style="stop-color:#EAEAEB"/>
	<stop  offset="1" style="stop-color:#FFFFFF"/>
</linearGradient>
<path class="st4" d="M635.7,502.9H795c1.8,0,3.2-1.4,3.2-3.2v-48.5c0-26.2-21.2-47.5-47.5-47.5H241.3c-8.6,0-15.5,7-15.5,15.5V783
	c0,8.6,6.9,15.5,15.5,15.5h509.4c26.2,0,47.5-21.2,47.5-47.5v-48.5c0-1.8-1.4-3.2-3.2-3.2H635.7c-54.2,0-98.2-44-98.2-98.2
	S581.5,502.9,635.7,502.9z M795,533.1h-155c-18.8,0-35.8,7.6-48,19.9S572,582.3,572,601.1c0,37.5,30.4,68,68,68h155
	c1.8,0,3.2-1.4,3.2-3.2V536.3C798.2,534.5,796.7,533.1,795,533.1z M634.8,630c-12.1-2-21.9-11.8-23.9-23.9c-0.3-1.7-0.4-3.3-0.4-5
	c0-1.6,0.1-3.3,0.4-4.9c2-12.2,11.8-22,23.9-23.9c18.4-3,34.2,11.1,34.2,28.9S653.2,633,634.8,630z"/>
<path class="st5" d="M750.7,403.7H241.3c-8.6,0-15.5,7-15.5,15.5V783c0,8.6,6.9,15.5,15.5,15.5h509.4c26.2,0,47.5-21.2,47.5-47.5
	v-48.5c0-1.8-1.4-3.2-3.2-3.2h-24.8V751c0,10.7-8.7,19.5-19.5,19.5H253.8V431.7h496.9c10.7,0,19.5,8.7,19.5,19.5v51.7H795
	c1.8,0,3.2-1.4,3.2-3.2v-48.5C798.2,425,776.9,403.7,750.7,403.7z"/>
</svg>
