<?xml version="1.0" encoding="utf-8"?>
<!-- Generator: Adobe Illustrator 26.0.3, SVG Export Plug-In . SVG Version: 6.00 Build 0)  -->
<svg version="1.1" id="Layer_1" xmlns="http://www.w3.org/2000/svg" xmlns:xlink="http://www.w3.org/1999/xlink" x="0px" y="0px"
	 viewBox="0 0 500 500" style="enable-background:new 0 0 500 500;" xml:space="preserve">
<style type="text/css">
	.st0{fill:#FAFAFA;}
	.st1{fill:#F0F0F0;}
	.st2{fill:#E0E0E0;}
	.st3{fill:#F5F5F5;}
	.st4{fill:#EBEBEB;}
	.st5{opacity:0.2;enable-background:new    ;}
	.st6{fill:#FFFFFF;}
	.st7{fill:#E6E6E6;}
	.st8{fill:#455A64;}
	.st9{fill:#37474F;}
	.st10{opacity:0.15;}
	.st11{fill:#263238;}
	.st12{fill:#003366;}
	.st13{opacity:0.5;fill:#FFFFFF;enable-background:new    ;}
	.st14{opacity:0.1;fill:#FFFFFF;enable-background:new    ;}
	.st15{opacity:0.1;}
	.st16{opacity:0.3;}
	.st17{opacity:0.1;enable-background:new    ;}
	.st18{fill:#C8856A;}
	.st19{opacity:0.15;enable-background:new    ;}
	.st20{opacity:0.55;fill:#FFFFFF;enable-background:new    ;}
	.st21{opacity:0.65;fill:#FFFFFF;enable-background:new    ;}
	.st22{fill:#AF6152;}
	.st23{fill:#FFA8A7;}
	.st24{opacity:0.25;}
	.st25{fill:#F28F8F;}
	.st26{opacity:0.2;fill:#FFFFFF;enable-background:new    ;}
	.st27{opacity:0.4;enable-background:new    ;}
	.st28{opacity:0.3;enable-background:new    ;}
	.st29{opacity:0.18;enable-background:new    ;}
</style>
<g id="freepik--Floor--inject-95">
	<path id="freepik--floor--inject-95" class="st0" d="M77.7,253.3c-95.2,54.9-95.2,144,0,199s249.5,55,344.7,0s95.2-144,0-199
		S172.8,198.4,77.7,253.3z"/>
</g>
<g id="freepik--Window--inject-95">
	<g id="freepik--window--inject-95_00000163063510291192279840000010427978893259532694_">
		<g id="freepik--window--inject-95">
			<polygon class="st0" points="37.4,248.1 40.8,248.3 175.4,170.5 173.7,169.3 			"/>
			<polygon class="st0" points="173.7,169.3 40.8,246.1 40.8,110.3 173.7,33.5 			"/>
			<path class="st1" d="M178.9,26.6L37.4,108.3v145.9l141.5-81.8V26.6z M175.4,170.5L40.8,248.3v-138l134.6-77.8L175.4,170.5z"/>
			<polygon class="st2" points="175.4,170.5 173.7,169.3 173.7,33.5 175.4,32.6 			"/>
			<polygon class="st0" points="178.9,26.6 177.1,25.6 35.6,107.3 37.4,108.3 			"/>
			<polygon class="st2" points="35.6,107.3 37.4,108.3 37.4,254.2 35.7,253.3 			"/>
			<polygon class="st3" points="40.8,180 173.7,103.2 175.4,104.2 40.8,182 			"/>
			<polygon class="st1" points="175.4,104.2 175.4,108.1 40.8,185.8 40.8,182 			"/>
		</g>
		<g id="freepik--Blinds--inject-95">
			<path class="st4" d="M40.8,158.3v4.6l133.8-77.3l-0.9-4L40.8,158.3z M40.8,151.8v4.6l133.8-77.3l-0.9-4L40.8,151.8z M40.8,164.7
				v4.6L174.6,92l-0.9-4L40.8,164.7z M173.7,36.5L40.8,113.2v4.6l133.8-77.3L173.7,36.5z M40.8,126.1v4.6l133.8-77.3l-0.9-4
				L40.8,126.1z M40.8,145.4v4.6l133.8-77.3l-0.9-4.1L40.8,145.4z M40.8,132.5v4.6l133.8-77.3l-0.9-4L40.8,132.5z M40.8,119.7v4.6
				L174.6,47l-0.9-4L40.8,119.7z M40.8,139v4.6l133.8-77.3l-0.9-4L40.8,139z"/>
			<path class="st5" d="M173.7,36.5L40.8,113.2v1.8L174,38L173.7,36.5z M40.8,119.7v1.8l133.2-77l-0.4-1.6L40.8,119.7z M40.8,126.1
				v1.8l133.2-77l-0.4-1.6L40.8,126.1z M40.8,132.5v1.9l133.2-77l-0.4-1.6L40.8,132.5z M40.8,139v1.9l133.2-77l-0.4-1.6L40.8,139z
				 M40.8,145.4v1.8l133.2-77l-0.4-1.6L40.8,145.4z M40.8,151.8v1.9l133.2-77l-0.4-1.6L40.8,151.8z M40.8,158.3v1.9l133.2-77
				l-0.4-1.6L40.8,158.3z M40.8,164.7v1.8l133.2-77l-0.4-1.6L40.8,164.7z"/>
		</g>
	</g>
</g>
<g id="freepik--Shadows--inject-95">
	<path id="freepik--Shadow--inject-95" class="st2" d="M159.5,435l-11.9,6.8c-9,5.2-27.1,2-34.7-1.2s-11.5-4.2-24.4-11.5
		c-13.4-7.6-17.4-10.7-25.1-17.8c-5.8-5.4-6.8-11.6,2.3-16.8l11.8-6.8c9-5.2,24.8-4.5,35.2,1.5l44.2,25.5
		C167.4,420.7,168.5,429.8,159.5,435z"/>
	<path id="freepik--shadow--inject-95" class="st2" d="M235.3,441.6L142,391.9c-5.2-2.8-5.2-7.4-0.2-10.3l58-33.5
		c5.1-2.9,13.6-3.6,19.1-1.6l110.5,41.6c5.5,2.1,5.8,6.1,0.7,9l-76.4,44.1C248.7,444.2,240.4,444.3,235.3,441.6z"/>
	<path id="freepik--shadow--inject-95_00000053527319478252365210000017998709783652395392_" class="st2" d="M278.1,458.9
		c-23.2-13.4-23.2-35.1,0-48.4s60.7-13.4,83.9,0s23.2,35,0,48.4S301.3,472.3,278.1,458.9z"/>
</g>
<g id="freepik--Shelf--inject-95">
	<g id="freepik--Bookcase--inject-95">
		<polygon class="st4" points="283.6,282.1 319.2,261.5 481,355 481,358.9 445.4,379.4 283.6,286 		"/>
		<polygon class="st3" points="445.4,375.5 283.6,282.1 319.2,261.5 481,355 		"/>
		<polygon class="st2" points="445.4,375.5 445.4,379.4 481,358.9 481,355 		"/>
		<polygon class="st4" points="283.6,139.1 319.2,118.6 322.5,120.6 322.5,263.5 287,284 283.6,282.1 		"/>
		<polygon class="st2" points="322.5,263.5 287,284 287,141.1 322.5,120.6 		"/>
		<polygon class="st2" points="326.4,217.4 299.2,233.1 299.2,286.6 326.4,270.9 		"/>
		<path class="st6" d="M300.1,234l26.3-15.1c1.6,1.7,3.7,2.8,6,3.3l-26,15C306.4,237.2,304.7,236.8,300.1,234z"/>
		<path class="st0" d="M308.9,237.1c-1.6,0.8-3.5,0.8-5,0l-4.4-2.5c-1.4-0.8-1.4-2.1,0-2.9l25.9-14.9l1.1,0.6L301,232.1
			c-0.8,0.5-0.8,1.2,0,1.7l4.1,2.3c0.9,0.5,2.1,0.5,3,0l25.5-14.7l1.2,0.7L308.9,237.1z"/>
		<path class="st2" d="M334.8,222.2v53.5l-25.9,14.9c-1.6,0.8-3.5,0.8-5,0l-4.4-2.5c-0.6-0.3-0.9-0.8-1-1.5v-53.5
			c0.1,0.6,0.4,1.2,1,1.4l4.4,2.5c1.6,0.8,3.5,0.8,5,0L334.8,222.2z"/>
		<path class="st1" d="M306.4,237.7c-0.9,0-1.8-0.2-2.5-0.6l-4.4-2.5c-0.6-0.3-0.9-0.8-1-1.4v53.5c0.1,0.6,0.4,1.2,1,1.5l4.4,2.5
			c0.8,0.4,1.6,0.6,2.5,0.6V237.7z"/>
		<polygon class="st4" points="337.5,223.8 310.3,239.5 310.3,293 337.5,277.3 		"/>
		<path class="st6" d="M311.2,240.3l26.3-15.1c1.6,1.7,3.7,2.9,6,3.3l-26,15C317.4,243.5,315.8,243.2,311.2,240.3z"/>
		<path class="st0" d="M320,243.5c-1.6,0.8-3.5,0.8-5,0l-4.4-2.5c-1.4-0.8-1.4-2.1,0-2.9l25.9-14.9l1.1,0.6L312,238.5
			c-0.5,0.2-0.7,0.7-0.6,1.2c0.1,0.3,0.3,0.5,0.6,0.6l4.1,2.3c0.9,0.5,2.1,0.5,3,0l25.5-14.7l1.2,0.7L320,243.5z"/>
		<path class="st2" d="M345.9,228.6v53.5L320,297c-1.6,0.8-3.5,0.8-5,0l-4.4-2.5c-0.6-0.3-1-0.8-1-1.5v-53.5c0.1,0.6,0.5,1.2,1,1.4
			l4.4,2.6c1.6,0.8,3.5,0.8,5,0L345.9,228.6z"/>
		<path class="st1" d="M317.5,244.1c-0.9,0-1.7-0.2-2.5-0.6l-4.4-2.6c-0.6-0.3-1-0.8-1-1.4V293c0.1,0.6,0.5,1.2,1,1.5l4.4,2.5
			c0.8,0.4,1.7,0.6,2.5,0.6V244.1z"/>
		<polygon class="st2" points="359.4,237.6 332.3,253.3 332.3,305 359.4,289.3 		"/>
		<path class="st6" d="M333.1,254.1l26.3-15.1c1.6,1.7,3.7,2.9,6,3.3l-26,15C339.4,257.4,337.7,257,333.1,254.1z"/>
		<path class="st0" d="M341.9,257.3c-1.6,0.8-3.4,0.8-5,0l-4.4-2.5c-1.4-0.8-1.4-2.1,0-2.9l25.9-14.9l1.1,0.6L334,252.3
			c-0.5,0.2-0.7,0.7-0.6,1.2c0.1,0.3,0.3,0.5,0.6,0.6l4.1,2.3c0.9,0.5,2.1,0.5,3,0l25.5-14.7l1.2,0.7L341.9,257.3z"/>
		<path class="st2" d="M367.8,242.4v51.7L341.9,309c-1.6,0.8-3.4,0.8-5,0l-4.4-2.5c-0.6-0.3-0.9-0.8-1-1.4v-51.7
			c0.1,0.6,0.4,1.2,1,1.4l4.4,2.5c1.6,0.8,3.4,0.8,5,0L367.8,242.4z"/>
		<path class="st1" d="M339.4,257.9c-0.9,0-1.8-0.2-2.5-0.6l-4.4-2.6c-0.6-0.3-0.9-0.8-1-1.4V305c0.1,0.6,0.4,1.2,1,1.4l4.4,2.5
			c0.8,0.4,1.6,0.6,2.5,0.6V257.9z"/>
		<polygon class="st4" points="370.5,244 343.4,259.7 343.4,311.3 370.5,295.6 		"/>
		<path class="st6" d="M344.2,260.5l26.3-15.1c1.6,1.7,3.7,2.8,6,3.3l-26.1,15C350.5,263.7,348.8,263.4,344.2,260.5z"/>
		<path class="st0" d="M353,263.7c-1.6,0.8-3.5,0.8-5,0l-4.4-2.5c-1.4-0.8-1.4-2.1,0-2.9l25.9-14.9l1.1,0.6l-25.5,14.7
			c-0.8,0.5-0.8,1.3,0,1.7l4.1,2.3c0.9,0.5,2.1,0.5,3,0l25.5-14.7l1.2,0.7L353,263.7z"/>
		<path class="st2" d="M378.9,248.8v51.7L353,315.3c-1.6,0.8-3.5,0.8-5,0l-4.4-2.5c-0.6-0.3-0.9-0.8-1-1.5v-51.6
			c0.1,0.6,0.4,1.2,1,1.5l4.4,2.5c1.6,0.8,3.5,0.8,5,0L378.9,248.8z"/>
		<path class="st1" d="M350.5,264.3c-0.9,0-1.7-0.2-2.5-0.6l-4.4-2.5c-0.6-0.3-0.9-0.8-1-1.5v51.6c0.1,0.6,0.4,1.2,1,1.5l4.4,2.5
			c0.8,0.4,1.6,0.6,2.5,0.6V264.3z"/>
		<polygon class="st4" points="389.1,257.7 361.9,273.4 370.4,326.6 397.5,310.9 		"/>
		<path class="st6" d="M363,274.1l26.3-15.1c2.1,1.5,4.5,2.4,7,2.7l-26,15C370.3,276.8,368.3,276.5,363,274.1z"/>
		<path class="st0" d="M372.9,276.6c-1.7,0.8-3.7,0.9-5.5,0.2l-5.2-2.1c-1.6-0.7-1.8-1.9-0.4-2.7l25.9-14.9l1.3,0.5l-25.5,14.7
			c-0.8,0.5-0.7,1.2,0.2,1.6l4.8,1.9c1.1,0.4,2.3,0.3,3.3-0.1l25.5-14.7l1.5,0.6L372.9,276.6z"/>
		<path class="st2" d="M398.9,261.7l8.4,53.2l-25.9,14.9c-1.7,0.8-3.7,0.9-5.5,0.2l-5.2-2.1c-0.8-0.3-1.3-0.8-1.3-1.3l-8.4-53.2
			c0.1,0.5,0.5,0.9,1.4,1.3l5.2,2.1c1.8,0.7,3.8,0.6,5.5-0.2L398.9,261.7z"/>
		<path class="st1" d="M370.3,277.3c-1,0.1-1.9-0.1-2.8-0.4l-5.2-2.1c-0.8-0.3-1.3-0.8-1.4-1.3l8.4,53.2c0.1,0.5,0.5,1,1.3,1.3
			l5.2,2.1c0.9,0.3,1.9,0.5,2.8,0.4L370.3,277.3z"/>
		<polygon class="st2" points="408.4,267.3 381.3,283 381.3,333.4 408.4,317.7 		"/>
		<path class="st6" d="M382.2,283.8l26.3-15.1c1.6,1.7,3.7,2.8,6,3.3l-26.1,15C388.4,287,386.7,286.6,382.2,283.8z"/>
		<path class="st0" d="M390.9,286.9c-1.6,0.8-3.5,0.8-5,0l-4.4-2.5c-1.4-0.8-1.4-2.1,0-2.9l25.9-14.9l1.1,0.6L383,282
			c-0.5,0.2-0.7,0.7-0.6,1.2c0.1,0.3,0.3,0.5,0.6,0.6l4.1,2.3c0.9,0.5,2.1,0.5,3,0l25.5-14.7l1.2,0.7L390.9,286.9z"/>
		<path class="st2" d="M416.8,272.1v50.4l-25.9,14.9c-1.6,0.8-3.5,0.8-5,0l-4.4-2.5c-0.6-0.3-0.9-0.8-1-1.5V283
			c0.1,0.6,0.4,1.2,1,1.4l4.4,2.5c1.6,0.8,3.5,0.8,5,0L416.8,272.1z"/>
		<path class="st1" d="M388.4,287.5c-0.9,0-1.7-0.2-2.5-0.6l-4.4-2.5c-0.6-0.3-0.9-0.8-1-1.4v50.4c0.1,0.6,0.4,1.2,1,1.5l4.4,2.5
			c0.8,0.4,1.6,0.6,2.5,0.6V287.5z"/>
		<polygon class="st4" points="419.5,273.6 392.4,289.3 392.4,339.7 419.5,324 		"/>
		<path class="st6" d="M393.3,290.2l26.3-15.1c1.6,1.7,3.7,2.9,6,3.3l-26,15C399.5,293.4,397.8,293,393.3,290.2z"/>
		<path class="st0" d="M402,293.3c-1.6,0.8-3.4,0.8-5,0l-4.4-2.5c-1.4-0.8-1.4-2.1,0-2.9l25.9-14.9l1.1,0.6l-25.5,14.7
			c-0.8,0.5-0.8,1.3,0,1.7l4.1,2.3c0.9,0.5,2.1,0.5,3,0l25.5-14.7l1.2,0.7L402,293.3z"/>
		<path class="st2" d="M427.9,278.5v50.4L402,343.7c-1.6,0.8-3.4,0.8-5,0l-4.4-2.5c-0.6-0.3-1-0.8-1-1.5v-50.4
			c0.1,0.6,0.5,1.2,1,1.5l4.4,2.5c1.6,0.8,3.4,0.8,5,0L427.9,278.5z"/>
		<path class="st1" d="M399.5,293.9c-0.9,0-1.8-0.2-2.5-0.6l-4.4-2.5c-0.6-0.3-1-0.8-1-1.5v50.4c0.1,0.6,0.5,1.2,1,1.5l4.4,2.5
			c0.8,0.4,1.6,0.6,2.5,0.6V293.9z"/>
		<polygon class="st2" points="442.9,285.5 415.7,301.2 415.7,352.8 442.9,337.1 		"/>
		<path class="st6" d="M416.6,302l26.3-15c1.6,1.7,3.7,2.8,6,3.3l-26.1,15C422.8,305.3,421.1,304.9,416.6,302z"/>
		<path class="st0" d="M425.4,305.2c-1.6,0.8-3.5,0.8-5,0l-4.4-2.5c-1.4-0.8-1.4-2.1,0-2.9l25.9-14.9l1.1,0.6l-25.5,14.7
			c-0.5,0.2-0.7,0.7-0.6,1.2c0.1,0.3,0.3,0.5,0.6,0.6l4.1,2.3c0.9,0.5,2.1,0.5,3,0l25.5-14.7l1.2,0.7L425.4,305.2z"/>
		<path class="st2" d="M451.2,290.3V342l-25.9,14.9c-1.6,0.8-3.5,0.8-5,0l-4.4-2.5c-0.6-0.3-0.9-0.8-1-1.5v-51.7
			c0.1,0.6,0.4,1.2,1,1.5l4.4,2.5c1.6,0.8,3.5,0.8,5,0L451.2,290.3z"/>
		<path class="st1" d="M422.8,305.8c-0.9,0-1.7-0.2-2.5-0.6l-4.4-2.5c-0.6-0.3-0.9-0.8-1-1.5v51.6c0.1,0.6,0.4,1.2,1,1.5l4.4,2.5
			c0.8,0.4,1.6,0.6,2.5,0.6V305.8z"/>
		<polygon class="st4" points="454,291.9 426.8,307.5 426.8,359.2 454,343.5 		"/>
		<path class="st6" d="M427.7,308.4l26.3-15.1c1.6,1.7,3.7,2.9,6,3.3l-26,15C434,311.6,432.2,311.2,427.7,308.4z"/>
		<path class="st0" d="M436.5,311.5c-1.6,0.8-3.4,0.8-5,0L427,309c-1.4-0.8-1.4-2.1,0-2.9l25.9-14.9l1.1,0.6l-25.5,14.7
			c-0.5,0.2-0.7,0.7-0.6,1.2c0.1,0.3,0.3,0.5,0.6,0.6l4.1,2.3c0.9,0.5,2.1,0.5,3,0l25.5-14.6l1.2,0.7L436.5,311.5z"/>
		<path class="st2" d="M462.4,296.7v51.6l-25.9,14.9c-1.6,0.8-3.4,0.8-5,0l-4.5-2.5c-0.6-0.3-1-0.8-1-1.5v-51.6
			c0.1,0.6,0.5,1.2,1,1.5l4.4,2.5c1.6,0.8,3.4,0.8,5,0L462.4,296.7z"/>
		<path class="st1" d="M433.9,312.1c-0.9,0-1.8-0.2-2.5-0.6L427,309c-0.6-0.3-1-0.8-1-1.5v51.7c0.1,0.6,0.5,1.2,1,1.5l4.4,2.5
			c0.8,0.4,1.6,0.6,2.5,0.6V312.1z"/>
		<polygon class="st4" points="287,215.2 322.5,194.6 481,286.1 481,290 445.4,310.6 287,219.1 		"/>
		<polygon class="st3" points="445.4,306.7 287,215.2 322.5,194.6 481,286.1 		"/>
		<polygon class="st2" points="445.4,306.7 445.4,310.6 481,290 481,286.1 		"/>
		<polygon class="st4" points="329.2,152.9 302,168.6 310.5,221.8 337.6,206.1 		"/>
		<path class="st6" d="M303.1,169.3l26.3-15.1c2.1,1.5,4.5,2.4,7,2.7l-26.1,15C310.3,172,308.4,171.7,303.1,169.3z"/>
		<path class="st0" d="M313,171.8c-1.7,0.8-3.7,0.9-5.5,0.2l-5.2-2.1c-1.6-0.7-1.8-1.9-0.4-2.6l25.9-14.9l1.3,0.5l-25.5,14.7
			c-0.8,0.5-0.7,1.2,0.3,1.6l4.8,1.9c1.1,0.4,2.2,0.3,3.2-0.1l25.5-14.7l1.5,0.6L313,171.8z"/>
		<path class="st2" d="M339,156.9l8.4,53.2l-26,14.9c-1.7,0.8-3.7,0.9-5.5,0.2l-5.2-2.1c-0.8-0.3-1.3-0.8-1.4-1.3l-8.4-53.2
			c0.1,0.5,0.5,0.9,1.3,1.3l5.2,2.1c1.8,0.7,3.8,0.6,5.5-0.2L339,156.9z"/>
		<path class="st1" d="M310.4,172.4c-1,0.1-1.9-0.1-2.8-0.4l-5.2-2.1c-0.8-0.3-1.3-0.8-1.3-1.3l8.4,53.2c0.1,0.5,0.5,0.9,1.4,1.3
			l5.2,2.1c0.9,0.3,1.9,0.5,2.8,0.4L310.4,172.4z"/>
		<polygon class="st4" points="362.4,167.9 335.2,183.6 335.2,235.2 362.4,219.5 		"/>
		<path class="st6" d="M336.1,184.4l26.3-15.1c1.6,1.7,3.7,2.9,6,3.3l-26,15C342.4,187.6,340.7,187.2,336.1,184.4z"/>
		<path class="st0" d="M344.9,187.5c-1.6,0.8-3.5,0.8-5,0l-4.4-2.5c-1.4-0.8-1.4-2.1,0-2.9l25.9-14.9l1.1,0.6L337,182.5
			c-0.5,0.2-0.7,0.7-0.6,1.2c0.1,0.3,0.3,0.5,0.6,0.6l4.1,2.3c0.9,0.5,2.1,0.5,3,0l25.5-14.7l1.2,0.7L344.9,187.5z"/>
		<path class="st2" d="M370.8,172.7v51.6l-25.9,14.9c-1.6,0.8-3.5,0.8-5,0l-4.4-2.5c-0.6-0.3-0.9-0.8-1-1.4v-51.7
			c0.1,0.6,0.4,1.2,1,1.4l4.4,2.6c1.6,0.8,3.5,0.8,5,0L370.8,172.7z"/>
		<path class="st1" d="M342.4,188.1c-0.9,0-1.8-0.2-2.5-0.6l-4.4-2.5c-0.6-0.3-0.9-0.8-1-1.4v51.7c0.1,0.6,0.4,1.2,1,1.4l4.4,2.5
			c0.8,0.4,1.6,0.6,2.5,0.6V188.1z"/>
		<polygon class="st2" points="376.2,166.6 349.1,182.3 349.1,243.1 376.2,227.4 		"/>
		<path class="st6" d="M350,183.2l26.3-15.1c1.6,1.7,3.7,2.8,6,3.3l-26.1,15C356.2,186.4,354.5,186,350,183.2z"/>
		<path class="st0" d="M358.7,186.3c-1.6,0.8-3.4,0.8-5,0l-4.4-2.5c-1.4-0.8-1.4-2.1,0-2.9l25.9-14.9l1.1,0.6l-25.5,14.7
			c-0.5,0.2-0.7,0.7-0.6,1.2c0.1,0.3,0.3,0.5,0.6,0.6l4.1,2.3c0.9,0.5,2.1,0.5,3,0l25.5-14.7l1.2,0.7L358.7,186.3z"/>
		<path class="st2" d="M384.6,171.4v60.8l-25.9,14.9c-1.6,0.8-3.4,0.8-5,0l-4.4-2.5c-0.6-0.3-0.9-0.8-1-1.4v-60.8
			c0.1,0.6,0.4,1.2,1,1.4l4.4,2.6c1.6,0.8,3.4,0.8,5,0L384.6,171.4z"/>
		<path class="st1" d="M356.2,186.9c-0.9,0-1.7-0.2-2.5-0.6l-4.4-2.6c-0.6-0.3-0.9-0.8-1-1.4v60.8c0.1,0.6,0.4,1.2,1,1.4l4.4,2.5
			c0.8,0.4,1.6,0.6,2.5,0.6V186.9z"/>
		<polygon class="st4" points="387.3,173 360.2,188.7 360.2,249.5 387.3,233.8 		"/>
		<path class="st6" d="M361,189.6l26.3-15.1c1.6,1.7,3.7,2.9,6,3.3l-26,15C367.3,192.8,365.6,192.4,361,189.6z"/>
		<path class="st0" d="M369.8,192.7c-1.6,0.8-3.5,0.8-5,0l-4.4-2.5c-1.4-0.8-1.4-2.1,0-2.9l25.9-14.9l1.1,0.6l-25.5,14.7
			c-0.5,0.2-0.7,0.7-0.6,1.2c0.1,0.3,0.3,0.5,0.6,0.6l4.1,2.3c0.9,0.5,2.1,0.5,3,0l25.5-14.7l1.2,0.7L369.8,192.7z"/>
		<path class="st2" d="M395.7,177.8v60.8l-25.9,14.9c-1.6,0.8-3.5,0.8-5,0l-4.4-2.5c-0.6-0.3-0.9-0.8-1-1.4v-60.8
			c0.1,0.6,0.4,1.2,1,1.4l4.4,2.5c1.6,0.8,3.5,0.8,5,0L395.7,177.8z"/>
		<path class="st1" d="M367.3,193.3c-0.9,0-1.8-0.2-2.5-0.6l-4.4-2.5c-0.6-0.3-0.9-0.8-1-1.4v60.8c0.1,0.6,0.4,1.2,1,1.4l4.4,2.5
			c0.8,0.4,1.6,0.6,2.5,0.6V193.3z"/>
		<polygon class="st4" points="420.2,195.8 390,213.3 399.4,272.6 429.6,255.1 		"/>
		<path class="st6" d="M391.1,214.1l29.3-16.8c2.3,1.7,5,2.7,7.8,3l-29,16.8C399.2,217.1,397.1,216.8,391.1,214.1z"/>
		<path class="st0" d="M402.2,216.8c-1.9,0.9-4.1,1-6.1,0.3l-5.8-2.4c-1.8-0.7-2-2.1-0.5-3l28.9-16.6l1.4,0.6l-28.4,16.4
			c-0.9,0.5-0.8,1.3,0.3,1.8l5.4,2.2c1.2,0.4,2.5,0.4,3.7-0.2l28.4-16.4l1.6,0.7L402.2,216.8z"/>
		<path class="st2" d="M431.1,200.2l9.4,59.3l-28.9,16.6c-1.9,0.9-4.1,1-6.1,0.3l-5.8-2.4c-0.9-0.4-1.4-0.9-1.5-1.4l-9.4-59.3
			c0.1,0.5,0.6,1.1,1.5,1.4l5.8,2.4c2,0.7,4.2,0.6,6.1-0.3L431.1,200.2z"/>
		<path class="st1" d="M399.3,217.6c-1.1,0.1-2.1-0.1-3.1-0.5l-5.8-2.4c-0.9-0.4-1.4-0.9-1.5-1.4l9.4,59.3c0.1,0.5,0.6,1,1.5,1.4
			l5.8,2.4c1,0.4,2.1,0.5,3.1,0.5L399.3,217.6z"/>
		<polygon class="st2" points="440.4,205.4 413.2,221 413.2,280.4 440.4,264.7 		"/>
		<path class="st6" d="M414.1,221.9l26.3-15.1c1.6,1.7,3.7,2.9,6,3.3l-26,15C420.3,225.1,418.6,224.7,414.1,221.9z"/>
		<path class="st0" d="M422.8,225c-1.6,0.8-3.4,0.8-5,0l-4.4-2.5c-1.4-0.8-1.4-2.1,0-2.9l25.9-14.9l1.1,0.6L414.9,220
			c-0.5,0.2-0.7,0.7-0.6,1.2c0.1,0.3,0.3,0.5,0.6,0.6l4.1,2.3c0.9,0.5,2.1,0.5,3,0l25.5-14.7l1.2,0.7L422.8,225z"/>
		<path class="st2" d="M448.7,210.2v59.4l-25.9,14.9c-1.6,0.8-3.4,0.8-5,0l-4.4-2.5c-0.6-0.3-1-0.8-1-1.5V221c0.1,0.6,0.5,1.2,1,1.4
			l4.4,2.6c1.6,0.8,3.4,0.8,5,0L448.7,210.2z"/>
		<path class="st1" d="M420.3,225.6c-0.9,0-1.8-0.2-2.5-0.6l-4.4-2.6c-0.6-0.3-1-0.8-1-1.4v59.4c0.1,0.6,0.5,1.2,1,1.5l4.4,2.5
			c0.8,0.4,1.6,0.6,2.5,0.6V225.6z"/>
		<polygon class="st4" points="451.5,211.7 424.3,227.4 424.3,286.8 451.5,271.1 		"/>
		<path class="st6" d="M425.2,228.3l26.3-15.1c1.6,1.7,3.7,2.9,6,3.3l-26,15C431.4,231.5,429.7,231.1,425.2,228.3z"/>
		<path class="st0" d="M433.9,231.4c-1.6,0.8-3.5,0.8-5,0l-4.4-2.5c-1.4-0.8-1.4-2.1,0-2.9l25.9-14.9l1.1,0.6L426,226.4
			c-0.8,0.5-0.8,1.2,0,1.7l4.1,2.3c0.9,0.5,2.1,0.5,3,0l25.5-14.7l1.2,0.7L433.9,231.4z"/>
		<path class="st2" d="M459.8,216.5v59.4l-25.9,14.9c-1.6,0.8-3.5,0.8-5,0l-4.4-2.5c-0.6-0.3-1-0.8-1-1.5v-59.4
			c0.1,0.6,0.5,1.2,1,1.4l4.4,2.5c1.6,0.8,3.5,0.8,5,0L459.8,216.5z"/>
		<path class="st1" d="M431.4,232c-0.9,0-1.8-0.2-2.5-0.6l-4.4-2.5c-0.6-0.3-1-0.8-1-1.4v59.4c0.1,0.6,0.5,1.2,1,1.5l4.4,2.5
			c0.8,0.4,1.6,0.6,2.5,0.6V232z"/>
		<polygon class="st4" points="442,230.6 477.6,210.1 481,212 481,358.9 445.4,379.4 442,377.5 		"/>
		<polygon class="st7" points="481,358.9 445.4,379.4 445.4,232.6 481,212 		"/>
		<polygon class="st4" points="283.6,135.2 319.2,114.7 481,208.1 481,212 445.4,232.6 283.6,139.1 		"/>
		<polygon class="st0" points="445.4,228.7 283.6,135.2 319.2,114.7 481,208.1 		"/>
		<polygon class="st7" points="445.4,228.7 445.4,232.6 481,212 481,208.1 		"/>
	</g>
	<g id="freepik--Pot--inject-95">
		<path id="freepik--shadow--inject-95_00000058565996197533957190000010318346873645826457_" class="st2" d="M329.1,137.3
			c-7.4,4.3-7.4,11.2,0,15.5s19.4,4.3,26.8,0s7.4-11.2,0-15.5S336.5,133,329.1,137.3z"/>
		<path class="st3" d="M354.6,148.1c6.5-6.6,10.2-23,4-28.3h-32c-6.3,5.2-2.5,21.7,3.9,28.3l0.2,0.2c0.1,0.1,0.1,0.1,0.2,0.2
			s0.4,0.4,0.6,0.5l0.1,0.1l0.5,0.4c0.3,0.2,0.5,0.4,0.8,0.5c5.3,3.1,13.9,3.1,19.2,0l0,0c0.3-0.2,0.6-0.3,0.9-0.5
			c0.2-0.1,0.3-0.2,0.5-0.3l0.2-0.1c0.2-0.2,0.4-0.3,0.6-0.5l0.3-0.2L354.6,148.1z"/>
		<path class="st6" d="M329.2,117.3c-7.3,4.2-7.3,11.1,0,15.3s19.2,4.2,26.5,0s7.3-11.1,0-15.3S336.6,113.1,329.2,117.3z"/>
		<path class="st4" d="M334.4,120.3c-4.5,2.6-4.5,6.7,0,9.3s11.6,2.6,16.1,0s4.5-6.7,0-9.3S338.9,117.8,334.4,120.3z"/>
		<path class="st2" d="M350.5,124.7c-4.5-2.6-11.7-2.6-16.1,0c-1.1,0.6-2,1.4-2.7,2.4c0.7,1,1.6,1.9,2.7,2.4
			c4.4,2.6,11.6,2.6,16.1,0c1.1-0.6,2-1.4,2.7-2.4C352.5,126.2,351.6,125.3,350.5,124.7z"/>
		<path class="st4" d="M335.4,127.2c-2.3-2.3-4.2-4.9-5.8-7.8c-2.7-4.8-3.2-11.1-1.8-11.9s7,5.6,7,5.6c-0.5-2.7-0.7-5.4-0.6-8.1
			c0.2-4.2,1.3-8.1,2.5-8.9s3.9,4.6,5.1,8.4s1.9,7.1,1.9,7.1c0.5-3,1.2-6,2.1-8.9c1.4-4,2.7-4.9,3.7-4.5s1.6,2.3,1.9,7.6
			c0.1,2.6,0,5.1-0.2,7.7c0,0,2-2.2,4.2-4.3c2.4-2.3,3.5-2.7,4.2-2.2s0.9,4.1-2.9,10.9c-1.9,3.5-4.3,6.6-7.1,9.4
			C349.6,127.2,344.3,130.5,335.4,127.2z"/>
	</g>
	<g id="freepik--Globe--inject-95">
		<path id="freepik--shadow--inject-95_00000007427666956641117260000009428090659203216063_" class="st2" d="M403.7,183.6
			c-8.4,4.8-8.4,12.7,0,17.5s21.9,4.8,30.3,0s8.4-12.7,0-17.5S412.1,178.8,403.7,183.6z"/>
		<path class="st8" d="M406.8,193.4c-0.1-0.2-0.2-0.4-0.4-0.6c0-0.1,0-0.1-0.1-0.2s-0.1-0.3-0.2-0.5s0-0.1,0-0.2
			c-0.1-0.2-0.1-0.4-0.2-0.6l0,0c0-0.2,0-0.4,0-0.7v-0.2c0-0.1,0-0.3,0-0.5s0-0.1,0-0.2s0.1-0.3,0.1-0.4c0-0.1,0-0.1,0.1-0.2
			c0.1-0.2,0.2-0.4,0.3-0.6c0-0.1,0.1-0.1,0.1-0.2s0.2-0.3,0.3-0.4l0.2-0.3l0.1-0.2l0.2-0.3l0.1-0.1c5.5-6.3,15.1-7,21.4-1.5
			c0.5,0.5,1,1,1.5,1.5l0.1,0.1l0.2,0.3c0.1,0.1,0.1,0.1,0.1,0.2c0.1,0.1,0.1,0.1,0.2,0.2c0.1,0.1,0.2,0.3,0.3,0.5
			c0,0.1,0.1,0.1,0.1,0.2c0.1,0.2,0.2,0.4,0.3,0.6l0.1,0.2c0,0.1,0.1,0.3,0.1,0.5c0,0.1,0,0.1,0,0.2c0,0.2,0,0.3,0,0.5
			c0,0.1,0,0.1,0,0.2c0,0.5-0.1,0.9-0.2,1.3v0.1c-0.1,0.2-0.1,0.4-0.2,0.5l-0.1,0.1c-0.1,0.2-0.2,0.4-0.4,0.6l0,0
			c-0.2,0.2-0.3,0.4-0.5,0.6l0,0c-0.2,0.2-0.4,0.4-0.6,0.6l-0.1,0.1c-0.2,0.1-0.4,0.3-0.6,0.5l-0.1,0.1c-0.3,0.2-0.5,0.4-0.8,0.5
			c-5.1,2.9-13.3,2.9-18.4,0c-0.3-0.2-0.6-0.4-0.8-0.5l-0.2-0.1c-0.2-0.1-0.4-0.3-0.6-0.4l-0.2-0.1c-0.2-0.2-0.4-0.4-0.5-0.5
			l-0.1-0.1C407,193.8,406.9,193.6,406.8,193.4L406.8,193.4z"/>
		<path class="st9" d="M418.9,170.8c0.3,0,0.7,0.1,1,0.2c0.2,0.1,0.4,0.3,0.4,0.5l0,0c0.2,5.9,0.7,8.8,2.6,12
			c-0.1,0.7-0.5,1.3-1.2,1.6c-0.9,0.5-1.9,0.7-2.9,0.7l0,0c-1,0-2-0.2-2.8-0.7c-0.7-0.3-1.1-0.9-1.2-1.6c1.9-3.2,2.4-6.1,2.6-12l0,0
			c0.1-0.2,0.2-0.4,0.4-0.5C418.2,170.9,418.5,170.8,418.9,170.8z"/>
		<g class="st10">
			<path d="M417.4,172.2c1,0,1.9,0,2.9,0c0.1,1.9,0.2,3.7,0.4,5.4c-1.2,0-2.4-0.1-3.6-0.2C417.2,175.7,417.3,174,417.4,172.2z"/>
		</g>
		<g class="st10">
			<path d="M426.1,194.1c4.2-2.6,3.9-7.4,1.1-9.8c1.1,0.8,2.2,1.7,3.1,2.7l0.1,0.1l0.2,0.3l0.1,0.2l0.2,0.2c0.1,0.1,0.2,0.3,0.3,0.5
				c0,0.1,0.1,0.1,0.1,0.2c0.1,0.2,0.2,0.4,0.3,0.6l0.1,0.2c0,0.1,0.1,0.3,0.1,0.5c0,0.1,0,0.1,0,0.2c0,0.2,0,0.3,0,0.5
				c0,0.1,0,0.1,0,0.2c0,0.5-0.1,0.9-0.2,1.3v0.1c-0.1,0.2-0.1,0.4-0.2,0.5l-0.1,0.1c-0.1,0.2-0.2,0.4-0.4,0.6l0,0
				c-0.2,0.2-0.3,0.4-0.5,0.6l0,0c-0.2,0.2-0.4,0.4-0.6,0.6l-0.1,0.1c-0.2,0.1-0.4,0.3-0.6,0.5l-0.1,0.1c-0.3,0.2-0.5,0.4-0.8,0.5
				c-5.1,2.9-13.3,2.9-18.4,0c-0.3-0.2-0.6-0.4-0.8-0.5l-0.2-0.1c-0.2-0.1-0.4-0.3-0.6-0.4l-0.2-0.1c-0.2-0.2-0.4-0.4-0.5-0.5
				l-0.1-0.1C412.6,197.8,421.9,196.8,426.1,194.1z"/>
		</g>
		<path class="st9" d="M448,155.9c-16.1,16.1-42.2,16.1-58.3,0s-16.1-42.2,0-58.3l-2.7-2.7c-18.5,18.5-20.3,46.8-1.8,65.4
			s46.8,16.8,65.4-1.8L448,155.9z"/>
		<path class="st11" d="M384.2,98l2.7,2.7c0.9-1.1,1.8-2.1,2.8-3.1l-2.7-2.7C386.1,95.9,385.1,96.9,384.2,98z"/>
		<path class="st11" d="M448,155.9c-1,1-2,1.9-3.1,2.8l2.7,2.7c1-0.9,2.1-1.8,3-2.8L448,155.9z"/>
		<path class="st8" d="M374,130.8c1.2,9.8,4.7,21.1,14.1,29.4c8,7.1,20.4,14.6,39.3,11.8c-15.1,4-31.2-0.5-42.1-11.6
			c-18-18-16.9-45.2,0.1-63.7C384.8,97.4,371.8,113.2,374,130.8z"/>
		<path class="st9" d="M452.1,162.3c0.6,0,1.2-0.2,1.6-0.7c0.9-0.9,0.9-2.4,0-3.3l0,0l-66.5-66.5c-1-0.9-2.4-0.8-3.3,0.2
			c-0.8,0.9-0.8,2.2,0,3.1l66.5,66.5C450.9,162.1,451.5,162.3,452.1,162.3z"/>
		<path class="st8" d="M387.3,91.8l66.5,66.5c0.6,0.6,0.9,1.6,0.5,2.5c-0.2,0.1-0.5,0.1-0.7,0.1c-0.6,0-1.2-0.2-1.7-0.7l-66.5-66.5
			c-0.6-0.6-0.9-1.6-0.5-2.5C385.7,91,386.7,91.2,387.3,91.8z"/>
		<path class="st12" d="M400,160c18.4,10.4,41.7,4,52.1-14.4s4-41.7-14.4-52.1s-41.7-4-52.1,14.4c-3.8,6.8-5.5,14.6-4.8,22.3
			C382,142.7,389.2,153.8,400,160z"/>
		<path class="st13" d="M400,160c18.4,10.4,41.7,4,52.1-14.4s4-41.7-14.4-52.1s-41.7-4-52.1,14.4c-3.8,6.8-5.5,14.6-4.8,22.3
			C382,142.7,389.2,153.8,400,160z"/>
		<path class="st8" d="M395,104.1c-1.3,1.1-2.7,3-0.8,2.8s2.8-0.8,3.6,0.2s1,2.6,1.9,3s2.1,0.9,2.4,0.2s0.5-3.4,1.4-4
			s3.7-2.7,3.4-3.9s0.1-1.5,0-3s-1.2-2.8-2-2.2s-0.6,1.1-2.1,2s-2.8,0.6-3.9,1.9C397.6,102.1,396.4,103.2,395,104.1z"/>
		<path class="st8" d="M390.2,108.5c-0.9,2.1-3.2,5.9-5,6.7c-0.9,0.4-2,0.8-3.1,1.4c-2.4,8.9-1.6,18.4,2.4,26.7c1,0.5,2,0.8,3,1
			c2.3,0.4,3.6-0.4,5.4-1.3s1.9,0.3,3.4,0.6c1.1,0.4,2.2,0.5,3.4,0.4c1.2-0.2,0.8,1.6,1.2,2.8s0.8,1.9,3,3.3s5.5,1.4,6.7,1.7
			s0.9,2,2.4,3.4s4.8,5.7,8.2,6.8s4.1,0.1,2.7-1.4s-3.1-2.6-3.2-4.6s2.1-3.1,1-5.8s-0.6-2.9-0.2-4.5s-0.5-1.8-1-4.3
			s-1.4-4.3-3.4-3.9s-2.8,1.2-5.4,0.5c-2.7-0.7-5.5-0.8-8.2-0.4c-2.5,0.4-4.3,3.8-5.7,4.4s-3.7-1-4.3-1.9s-1.6-0.4-2.2,0.4
			s-1.5,0.7-2.5-0.2s-0.5-3.5,0.8-4.7s2.5-1.1,4.1,0.4c1.3,1.3,3.3,1.6,5,0.8c1.5-0.7-0.3-1.3-1.9-1.5s-2.3-0.9-3.1-3.4
			s0.9-3.6,0.6-6.3s1.1-1.6,2.5-2.4s0.6-1.3,0.2-2.8s1.9-1.8,2.4-3.7s-3.2-1.2-4-2.6s0.5-2.3-1.7-3.6s-1.3-2.1-1.3-3.2
			S391.1,106.4,390.2,108.5z M392,114.4c0.3,1.2-0.2,1.3,0,2.8c0.1,1.3-0.3,2.5-1.1,3.5c-0.6,0.6-2.6,0.3-3.3-0.4s0.2-1.8,1.3-2.9
			c1.1-1.2,1.8-2.6,2.1-4.2C391.3,112,391.6,113.2,392,114.4z"/>
		<path class="st8" d="M446.9,100.7L446.9,100.7c-0.3,0.7-0.4,1.5-0.2,2.2c0.6,2.2-0.1,1.6-0.8,4s0.6,2.8,1.6,3.9s0.2,3.8-0.4,5
			s1.1,4,2.4,5.1s0.2,2.7,0.2,4.6s1,4.2,1.1,5.6c0.2,1.4-0.5,2.8-1.8,3.5c-1.2,0.7-3.7-0.3-5.5-1.4c-1.9-1.1-3.4-2.7-4.4-4.6
			c-1-2-1-1.7-3.5-4c-1.6-1.7-4.2-2.1-6.3-1.1c-1.2,0.6-2.5,2.5-3.8,2.7s-2.4-0.3-5-2.3s-1.8-3.6-1.9-5.7c-0.1-2.5,0.6-4.9,2-6.9
			c1-1.4,2.6-2.4,4.3-2.6c1.5-0.3,2.9,0.5,3.7-0.1s1.1-1.4,2-1.9s1.6-0.5,2.3-1.2s-0.5-1.2-1-1.6s-1,0.3-1.9,1
			c-0.5,0.6-1.4,0.7-2.1,0.3c-0.8-0.3-0.9,0.6-1.5,0.7s0.3,1.1,0.6,1.6s-0.6,0-0.6,0s0.1,0.8-0.3,0.7s-0.5-1.1-1.1-1.7
			s-1.4,0.3-2.3,0.2c-1,0-1.9,0.6-2.4,1.4c-0.6,0.9-0.9,0.8-0.7,1.8s-1.1,2.8-1.8,3.2s-1-1.2-1.4-2.6s0.9-1.8,0.7-3.2
			s-1.1-0.9-1.8-0.7s-1.3-0.1-1.7-1.8s0.6-2,1.4-1.7s1.8,0.1,2.4-0.5c0.8-0.6,0.2-1-0.7-2c-0.8-0.9-0.9-2.2-0.2-3.2
			c0.8-1.3,1.5-2.8,1.9-4.2c0.1-1.1,1.6-1.6,2.6-1.4s2.6-0.6,4.1-1.5c0.4-0.2,0.7-0.6,0.7-1.1C434.2,90.8,441.4,94.8,446.9,100.7z"
			/>
		<path class="st8" d="M453,119.8c-0.8,0.4-0.6,0.7-0.5,1.6s-0.1,2.1,0.5,2.6s1.2,1.2,1.4,0.3s-0.4-1.2,0-2.1S454.3,119.2,453,119.8
			z"/>
		<path class="st14" d="M405.6,94c-23.4,9.7-16.6,25.5,0,25.6s36-11,34.1-18.2S423,86.8,405.6,94z"/>
		<g class="st15">
			<path d="M422.8,148.1c-24.5-0.3-42.8-24.2-35.9-42.2l0,0c-0.4,0.6-0.8,1.2-1.2,1.9c-10.4,18.4-4,41.7,14.4,52.1s41.7,4,52.1-14.4
				c5-8.9,6.3-19.4,3.5-29.3C456.1,125.4,447.2,148.5,422.8,148.1z"/>
		</g>
	</g>
</g>
<g id="freepik--Character--inject-95">
	<g id="freepik--character--inject-95_00000160909254480420030720000009638568230378959518_">
		<g id="freepik--Chair--inject-95">
			<path class="st8" d="M322.2,396.2l-12.8-96.7l-10.6-0.6l18,97.2l0,0c0.1,0.4,0.3,0.7,0.7,1c1.2,0.7,2.6,0.7,3.8,0.2
				C321.8,397.2,322.1,396.7,322.2,396.2L322.2,396.2z"/>
			<path class="st9" d="M309.4,299.6l-10.6-0.6l3.8,20.2c2.3-0.8,4.4-1.9,6.5-3.1c1-0.5,1.7-1.3,2.2-2.2L309.4,299.6z"/>
			<path class="st8" d="M177.1,289.3h-10.6l-15.4,97.8l0,0c0,0.5,0.3,1,0.8,1.2c1.2,0.6,2.6,0.6,3.8,0c0.4-0.2,0.6-0.5,0.8-0.9l0,0
				L177.1,289.3z"/>
			<path class="st9" d="M166.5,289.3l-4.4,28.2c2.5,2,5.1,3.7,8,5l7-33.2H166.5z"/>
			<path class="st8" d="M251.5,432.4l-9.8-98.5l-10.6-0.5l15,99l0,0c0.1,0.4,0.3,0.7,0.7,1c1.2,0.7,2.6,0.7,3.8,0.2
				C251.1,433.3,251.4,432.9,251.5,432.4L251.5,432.4z"/>
			<path class="st9" d="M243.3,350l-1.6-16.1l-10.6-0.5l2.6,17.3C236.1,351.4,240.2,351,243.3,350z"/>
			<path class="st8" d="M234.8,255.7h-10.6l-15.4,97.9l0,0c0,0.5,0.3,1,0.8,1.2c1.2,0.6,2.6,0.6,3.8,0c0.4-0.2,0.6-0.5,0.8-0.9l0,0
				L234.8,255.7z"/>
			<path class="st9" d="M225.2,258.5c-0.5-0.1-1-0.1-1.4-0.2l-13.4,85.1c1.9,1,3.3,1.8,5.3,2.8l18.2-85.9
				C231,259.7,228.2,259.1,225.2,258.5z"/>
			<g id="freepik--chair--inject-95">
				<path class="st12" d="M314,294.5c0-3.3-2.9-6.9-9.1-10.9c-11.4-7.4-44.6-26-60.6-34.8c0-0.1-0.1-0.1-0.1-0.1
					c-12.3-7.5-16-39.3-24.6-66.3c-0.2-0.6-0.4-1.1-0.6-1.7s-0.3-0.9-0.4-1.2c-0.5-1.5-1.1-2.8-1.7-4.1l-0.4-0.8
					c-0.5-1.1-1.1-2.1-1.8-3.2c-0.1-0.2-0.3-0.5-0.5-0.7c-0.3-0.4-0.6-0.8-0.9-1.2c-0.2-0.2-0.3-0.4-0.5-0.6
					c-0.3-0.3-0.6-0.7-0.9-0.9c-0.2-0.2-0.5-0.5-0.7-0.7c-0.7-0.6-1.5-1.2-2.3-1.7l-0.6-0.3c0,0,0,0-0.1,0l-0.2-0.1
					c-0.1-0.1-0.2-0.1-0.3-0.1l-2.5-1.4l-0.7-0.4l-0.3-0.2l-0.9-0.5c-0.8-0.5-1.6-0.9-2.5-1.1c-0.3-0.1-0.6-0.2-0.9-0.3
					s-0.6-0.2-1-0.2c-3.3-0.4-6.7-0.1-9.8,1.1c-0.2,0.1-0.5,0.2-0.8,0.3c-0.8,0.3-1.6,0.6-2.4,0.9l0,0c-1.1,0.4-2.1,0.9-3.2,1.4
					c-3.9,1.8-8,4.1-12.5,6.5c-0.5,0.3-1,0.6-1.6,0.9s-1.3,0.7-1.9,1.1l-1.2,0.7c-1,0.6-2,1.3-2.9,2c-0.5,0.4-0.9,0.7-1.4,1.1
					s-0.9,0.7-1.4,1.1c-0.7,0.6-1.3,1.2-1.9,1.8c-0.4,0.4-0.8,0.8-1.2,1.3c-0.8,0.9-1.6,1.8-2.3,2.8l0,0l-0.5,0.7
					c-0.4,0.5-0.7,1.1-1.1,1.6c-0.5,0.8-1,1.6-1.4,2.5c-0.2,0.3-0.3,0.6-0.5,0.9s-0.3,0.6-0.4,0.9s-0.3,0.6-0.4,1
					c-2.4,5.9-3.8,12.2-4.2,18.6c-1.2,14.2-0.1,41.4,2.8,62l0,0c4.2,34.4,9.3,34.5,16.8,40.3c12.8,9.9,41.7,23.9,53.9,28.6
					c22.1,8.7,40.1-4.7,53.6-11.4c12.3-6.2,24.3-13.3,35.7-21.1c3.4-2.5,5.1-4.9,5.1-7.5C313.9,299.8,314,295.5,314,294.5z"/>
				<path class="st5" d="M314,294.5c0-3.3-2.9-6.9-9.1-10.9c-11.4-7.4-44.6-26-60.6-34.8c0-0.1-0.1-0.1-0.1-0.1
					c-12.3-7.5-16-39.3-24.6-66.3c-0.2-0.6-0.4-1.1-0.6-1.7s-0.3-0.9-0.4-1.2c-0.5-1.5-1.1-2.8-1.7-4.1l-0.4-0.8
					c-0.5-1.1-1.1-2.1-1.8-3.2c-0.1-0.2-0.3-0.5-0.5-0.7c-0.3-0.4-0.6-0.8-0.9-1.2c-0.2-0.2-0.3-0.4-0.5-0.6
					c-0.3-0.3-0.6-0.7-0.9-0.9c-0.2-0.2-0.5-0.5-0.7-0.7c-0.7-0.6-1.5-1.2-2.3-1.7l-0.6-0.3c0,0,0,0-0.1,0l-0.2-0.1
					c-0.1-0.1-0.2-0.1-0.3-0.1l-2.5-1.4l-0.7-0.4l-0.3-0.2l-0.9-0.5c-0.8-0.5-1.6-0.9-2.5-1.1c-0.3-0.1-0.6-0.2-0.9-0.3
					s-0.6-0.2-1-0.2c-3.3-0.4-6.7-0.1-9.8,1.1c-0.2,0.1-0.5,0.2-0.8,0.3c-0.8,0.3-1.6,0.6-2.4,0.9l0,0c-1.1,0.4-2.1,0.9-3.2,1.4
					c-3.9,1.8-8,4.1-12.5,6.5c-0.5,0.3-1,0.6-1.6,0.9s-1.3,0.7-1.9,1.1l-1.2,0.7c-1,0.6-2,1.3-2.9,2c-0.5,0.4-0.9,0.7-1.4,1.1
					s-0.9,0.7-1.4,1.1c-0.7,0.6-1.3,1.2-1.9,1.8c-0.4,0.4-0.8,0.8-1.2,1.3c-0.8,0.9-1.6,1.8-2.3,2.8l0,0l-0.5,0.7
					c-0.4,0.5-0.7,1.1-1.1,1.6c-0.5,0.8-1,1.6-1.4,2.5c-0.2,0.3-0.3,0.6-0.5,0.9s-0.3,0.6-0.4,0.9s-0.3,0.6-0.4,1
					c-2.4,5.9-3.8,12.2-4.2,18.6c-1.2,14.2-0.1,41.4,2.8,62l0,0c4.2,34.4,9.3,34.5,16.8,40.3c12.8,9.9,41.7,23.9,53.9,28.6
					c22.1,8.7,40.1-4.7,53.6-11.4c12.3-6.2,24.3-13.3,35.7-21.1c3.4-2.5,5.1-4.9,5.1-7.5C313.9,299.8,314,295.5,314,294.5z"/>
				<path class="st12" d="M273.2,323.1c12.3-6.3,24.3-13.3,35.7-21.1c7.7-5.6,7-11.2-4-18.4c-15.2-9.9-69.4-39.7-69.4-39.7
					s-78.6,46.4-75.2,54.9s44,29.5,59.3,35.6C241.7,343.1,259.7,329.7,273.2,323.1z"/>
				<g class="st16">
					<path class="st6" d="M273.2,323.1c12.3-6.3,24.3-13.3,35.7-21.1c7.7-5.6,7-11.2-4-18.4c-15.2-9.9-69.4-39.7-69.4-39.7
						s-78.6,46.4-75.2,54.9s44,29.5,59.3,35.6C241.7,343.1,259.7,329.7,273.2,323.1z"/>
				</g>
				<path class="st17" d="M250.8,334.1c8.5-3.1,16-7.8,22.4-11c12.3-6.3,24.3-13.3,35.7-21.1c0.2-0.2,0.4-0.3,0.6-0.5
					c-1-2.5-2.5-4.8-4.5-6.6c-9.9-9.5-45-35.2-60.9-34.8s-60.8,22.8-65.7,26.6c-8.4,6.5-3.8,13.9,4.5,18.8s34.9,19,50.2,24.3
					C240.3,332.1,246.1,332.9,250.8,334.1z"/>
				<path class="st12" d="M208.4,165.2c-8.3-4.3-19,1.6-32.3,8.9c-8.5,4.7-15.8,10.2-20.2,20.6l-5.6-3.2
					c4.4-10.3,11.7-15.9,20.1-20.5c13.6-7.5,24.6-13.5,33-8.5C204.1,162.8,207,164.4,208.4,165.2z"/>
				<path class="st13" d="M208.4,165.2c-8.3-4.3-19,1.6-32.3,8.9c-8.5,4.7-15.8,10.2-20.2,20.6l-5.6-3.2
					c4.4-10.3,11.7-15.9,20.1-20.5c13.6-7.5,24.6-13.5,33-8.5C204.1,162.8,207,164.4,208.4,165.2z"/>
				<path class="st12" d="M219.5,182.3c-0.2-0.6-0.4-1.1-0.6-1.7s-0.3-0.9-0.4-1.2c-0.5-1.5-1.1-2.8-1.7-4.1l-0.4-0.8
					c-0.5-1.1-1.1-2.1-1.8-3.2c-0.1-0.2-0.3-0.5-0.5-0.7c-0.3-0.4-0.6-0.8-0.9-1.2c-0.2-0.2-0.3-0.4-0.5-0.6
					c-0.3-0.3-0.6-0.7-0.9-0.9c-0.2-0.2-0.5-0.5-0.7-0.7c-0.4-0.4-0.8-0.7-1.2-1c-0.3-0.2-0.5-0.4-0.8-0.5c-0.1-0.1-0.2-0.1-0.3-0.2
					l-0.6-0.3c0,0,0,0-0.1,0l-0.2-0.1l-0.4-0.2c-0.2-0.1-0.4-0.2-0.6-0.3c-0.8-0.3-1.6-0.5-2.5-0.7l-0.7-0.1c-0.3,0-0.6-0.1-1-0.1
					h-0.8c-7.2,0-15.9,4.8-26.1,10.3c-0.9,0.5-1.7,0.9-2.5,1.4c-0.3,0.2-0.6,0.4-0.9,0.6s-0.8,0.5-1.1,0.7s-0.6,0.4-0.8,0.5
					c-1.8,1.2-3.5,2.5-5.1,3.9c-0.3,0.2-0.5,0.5-0.8,0.7c-1,0.9-2,1.9-2.9,3l-0.5,0.6c-0.2,0.2-0.4,0.5-0.6,0.7s-0.4,0.5-0.6,0.7
					s-0.4,0.5-0.5,0.8c-0.7,1-1.4,2.1-2,3.3c-0.1,0.1-0.2,0.3-0.2,0.4c-0.2,0.3-0.3,0.6-0.5,0.9s-0.4,0.9-0.7,1.4
					c-2.3,5.1-3.9,11.4-4.6,19.5c-2,23.4,2.4,81.8,10.4,88.4c0,0-1.2-7.6,14.9-17.7c11-6.9,18.7-12.7,30.4-18.5
					c28.6-14.1,36.6-16.7,36.6-16.7C231.8,241.2,228.1,209.3,219.5,182.3z"/>
			</g>
		</g>
		<g id="freepik--character--inject-95">
			<path class="st11" d="M269,352.1c-6.9-0.6-12.5,5-13,6.8c-0.7,2.4-0.2,7.2,2.8,13c2.6,5,4,13.1,3.7,18.5s-2.3,19,3.4,25.6
				s18.1,12,22,2.6c1.3-3.1-2-13.5-3.5-21.1c-3.1-15.2-5.6-30.4-5.6-30.4L269,352.1z"/>
			<path class="st18" d="M267.3,364.4c1.4,7.4,2.3,14.9,2.6,22.4c0.2,8.2,2.1,13.6,5.1,17.1c3.3,3.9,11.2,5.9,9.9-2.5
				c-0.9-5.9-6.2-34.3-6.2-34.3L267.3,364.4z"/>
			<path class="st19" d="M258.1,356.1c-0.1,5.1,3.1,18.4,10.4,29.4c7.1,10.8,17.5,23.4,19.6,31.2c0-3.6-1.7-10.2-3.1-16
				c0-0.1,0-0.3-0.1-0.4c-0.1-0.3-0.2-0.7-0.2-1c0-0.2-0.1-0.3-0.1-0.5l-0.3-1.3v-0.1c-1-4.8-1.9-9.5-2.7-13.8
				c-0.6-3.4-1.2-6.5-1.7-9.1c-0.2-1.3-0.4-2.5-0.6-3.5c-0.1-0.5-0.2-1-0.2-1.4c-0.3-1.6-0.5-2.6-0.5-2.6l-9.8-15
				c-0.5,0-0.9,0-1.3,0C264.1,352.3,260.7,353.7,258.1,356.1z"/>
			<path class="st12" d="M288.6,270.4c-21.3-15.1-45.2-28.7-45.2-28.7l-21.9,25.1l24.7,19.2c0,0,23.6,22.1,26,24.3
				s-0.4,8.3-1.2,14.8c-1.1,8.3-1.2,11.3-1.5,23.6c-0.2,12,5.5,19.9,19.5,21.9c0,0,11.6-26,16.1-38.2c7.8-21.5,11.2-31.5,9.9-36.3
				C313.2,289.7,305.5,282.4,288.6,270.4z"/>
			<path class="st20" d="M288.6,270.4c-21.3-15.1-45.2-28.7-45.2-28.7l-21.9,25.1l24.7,19.2c0,0,23.6,22.1,26,24.3
				s-0.4,8.3-1.2,14.8c-1.1,8.3-1.2,11.3-1.5,23.6c-0.2,12,5.5,19.9,19.5,21.9c0,0,11.6-26,16.1-38.2c7.8-21.5,11.2-31.5,9.9-36.3
				C313.2,289.7,305.5,282.4,288.6,270.4z"/>
			<path class="st12" d="M243.7,274.3c0,0,27.5,22.3,33.6,28.4s9.6,7.7,11.3,22.4c1.4,12.4,4.6,34,4.6,34l-42.9-46.3l-14-32.7
				L243.7,274.3z"/>
			<path class="st11" d="M285.4,414.2c-1.7,0-1.6,2.8-2.4,6.5c-0.5,2.4-1.6,6.3,0,10.8s8.9,5,12.7,10.9s9.5,16.5,22.4,19.4
				s22.9-1.2,25.4-5s0.4-7.5-7.9-12.4c-8.7-5.2-11.2-6.7-11.2-6.7L285.4,414.2z"/>
			<path class="st18" d="M302.1,391.3c0,0,2.4,15.3,7.1,22.7s9.6,15.7,16.1,22.8c1.4,1.5,4.7,4.4,5.8,5.7c1,0.9,1.1,2.5,0.2,3.5
				c-0.1,0.1-0.2,0.2-0.4,0.3c-2.7,2.8-14.7,3.8-21.5-1S296.2,430,292,426.1c-1.5-1.5-3-3-4.4-4.6c-1.3-1.4-2.1-3.3-2.2-5.3
				c0.2-2.6-0.1-5.2-0.7-7.7c-1-4.2-2-5.8-3.5-9.8L302.1,391.3z"/>
			<path class="st12" d="M175.2,244.2c-15.1,19.4-4.7,31.6-0.4,40.9c5.8,12.7,13.5,17.5,32.2,27.3c15.5,8.1,37,18,41.4,20.4
				c5.6,3.1,6.4,4.7,7.8,13.5c1.4,8.5,4,17.1,13.6,34.7c9.8,18.3,12.4,21.3,12.4,21.3s12.6,2,21.4-6.3c0,0-11.2-64.1-14.7-75.5
				c-1.6-5.1-4.6-9.7-8.7-13.2c-24.7-22.1-41.2-32.2-41.2-32.2s14.2-10.6,8.7-30.9L175.2,244.2L175.2,244.2z"/>
			<path class="st21" d="M175.2,244.2c-15.1,19.4-4.7,31.6-0.4,40.9c5.8,12.7,13.5,17.5,32.2,27.3c15.5,8.1,37,18,41.4,20.4
				c5.6,3.1,6.4,4.7,7.8,13.5c1.4,8.5,4,17.1,13.6,34.7c9.8,18.3,12.4,21.3,12.4,21.3s12.6,2,21.4-6.3c0,0-11.2-64.1-14.7-75.5
				c-1.6-5.1-4.6-9.7-8.7-13.2c-24.7-22.1-41.2-32.2-41.2-32.2s14.2-10.6,8.7-30.9L175.2,244.2L175.2,244.2z"/>
			<path class="st12" d="M248.3,259.8c-1.4,6-4.6,11.4-9.3,15.4l3.4,2.2C242.4,277.3,248.3,270.9,248.3,259.8z"/>
			<path class="st11" d="M247.2,138.3c-0.7-1.7-1.7-3.2-3-4.6c-3.3-3.4-7.6-4.9-10.4-8.9c-1.5-2.1-2.9-6.7-1.6-9.1
				c0.5-1.1,1.2-2,2.1-2.7c4.8-3.4,7.3-9.3,6.3-15.2c-3.3-21.9-35.2-24.4-50.5-15.7c-6.3,3.6-11.8,9.1-11.1,16.9
				c-6,1.6-9.9,7.8-10.9,13.9s0.3,12.4,1.3,18.6c0.4,1.9,0.4,3.8,0.1,5.7c-0.5,3.1-2.4,4.8-4.4,7.3s-4.2,4.8-5.2,7.8
				c-1,2.9-0.1,6.2,2.4,8c-4.7,4.2-5.2,11.6-2.5,17.3s8,11.5,13.8,14.1c6.8,3.1,14.2,4.5,21.6,5.3c3.5,0.4,7.1,0.6,10.6,0.5
				c9.8-0.1,19.8-1.9,28.2-6.9c8.7-5.2,14.3-14.4,12.3-24.7c-0.5-3.1-2.3-5.9-4.9-7.7c4.4-1.8,6.6-8,7-12.4
				C248.7,143.2,248.3,140.6,247.2,138.3z"/>
			<g id="freepik--Arm--inject-95">
				<path class="st18" d="M272.1,130.1c-16.1,33-23.6,41.5-22.8,50.6c-4-0.8-21.5-11.4-24.7-20.8c-2.9-8.8,4.1-11.6,9.1-18.3
					c5.7-7.5,9.6-12.9,20.1-31.3c1-6.9,3.4-33.7,2.4-44.2c-0.2-1.7-1-3.4-2.3-4.5c-3.7-3.5-5.3-7.9-7.7-11.9
					c-1.9-3.1-3.9-4.2-3.4-4.9c0.6-1,2.8-2.3,5.6-0.7c1.4,0.8,4.7,4.7,5.9,5.3s-0.5-5.5-3.7-11.7c-1.8-3.6-2.8-6.7-2-9.4
					c0.4-1.3,1.4-2,2.3-1.6c0.4,0.2,0.7,0.4,0.9,0.7c-0.2-0.9,0-1.9,0.8-2.6c1.2-1.2,2.4-0.5,3.2,0.7l1.1,1.5
					c1.3-0.6,2.9-0.1,3.7,1.1c0.3,0.4,1.1,1.6,1.1,1.6c1.1-0.4,2.9-0.8,4.6,1.7c1.2,1.8,3.8,4.8,5.2,8.1c1.1,2.4,1.9,4.9,2.5,7.5
					c0.8,2.6,1.2,5.2,1.2,7.9c-0.2,7.4-0.5,9.1,0.5,18.6c1.7,14.9,2,20.1,3.1,34.9C279.4,115.8,278.2,117.7,272.1,130.1z"/>
				<path class="st22" d="M257,49.5c4.2,0.6,7.3,6.2,8.1,10.4C265.4,54.6,263.4,49.6,257,49.5z"/>
			</g>
			<path class="st1" d="M174.6,242.8c4.7-18.1-0.8-26.9-3.8-39.4c-3.7-15.5,1.6-30.4,9.7-41.1c8.4-2.6,17-4.7,25.7-6.1
				c5.4-0.9,10.4-1.5,14-3c2.6-1,5-2.5,7-4.4c8.3,4.4,21.2,23.5,24.4,33.3c2.3,7,1.3,20.3-6.8,27c-0.9,6.7-1.5,11.6-0.9,17
				s4.9,13.4,5.8,19.5c-1.6,10.2-15.9,22.5-37.8,24.7c-25.6,2.7-41.3-7-41.3-7S171.3,256,174.6,242.8z"/>
			<path class="st17" d="M227.4,212.2c0,0-5.8,7.7-17.8,6.8c-12.4-0.9-15.3-11.1-15.3-11.1s0,13.5,14.9,14.5
				C222.9,223.5,227.4,212.2,227.4,212.2z"/>
			<g id="freepik--Head--inject-95">
				<path class="st18" d="M191.3,154.4c0-5.6-0.3-19-0.3-19c-0.9,1.6-6.2,4.3-11.4-0.3c-4.1-3.7-4.8-10-1.6-14.5
					c3.2-4,8.4-3.8,11.8,1.5c3.6,0.4,5.1-2.7,2.4-9.6c-0.8-8,7.4-8.7,10.1-19.6c11,4,20-1.6,27.6,5.2c1.9,3.7,4.3,9.7,4.9,20.6
					c0.8,14.1-1.3,19.9-4.7,23.5c-2.1,2.3-5.9,4-11.4,4.3c0,0,0,2.4,0,4.1s1.1,2.6,2.1,2.3c2.8,2.9,10.8,11.8-3.4,14.2
					c-18.4,3.1-29.1-4.6-31.2-6.6C190.4,159.1,191.3,157.2,191.3,154.4z"/>
				<path class="st22" d="M218.7,146.6c-9.9,0.4-18.6-2.1-23.4-8.6c1,2.9,2.8,5.5,5.2,7.4c7.3,5,18.2,3.8,18.2,3.8V146.6z"/>
				<path class="st22" d="M221.1,132.4l-9.7-2.6c-0.8,2.5,0.6,5.2,3.1,6c0.1,0,0.2,0.1,0.3,0.1C217.5,136.6,220.2,135.1,221.1,132.4
					z"/>
				<path class="st23" d="M216.9,136c-0.7,0.1-1.5,0.1-2.2-0.1c-1.8-0.5-3.1-1.9-3.5-3.7C213.8,132.1,216.1,133.6,216.9,136z"/>
				<path class="st11" d="M205.7,115.9c0.2,1.5,1.5,2.6,3,2.4s2.6-1.5,2.4-3c-0.2-1.5-1.5-2.6-3-2.4
					C206.7,113.1,205.6,114.4,205.7,115.9L205.7,115.9z"/>
				<path class="st11" d="M225,114.1c0.2,1.5,1.5,2.6,3,2.4s2.6-1.5,2.4-3c-0.2-1.5-1.5-2.6-3-2.4C226,111.3,224.9,112.6,225,114.1
					L225,114.1z"/>
				<polygon class="st22" points="216.2,110.3 219.4,128.4 227.8,124.1 				"/>
				<path class="st11" d="M230.8,109.3l-6.3-2.2c0.5-1.7,2.3-2.6,4-2.1h0.1C230.4,105.6,231.3,107.5,230.8,109.3z"/>
				<path class="st11" d="M202.6,112.1l5.9-3.2c-0.8-1.6-2.7-2.2-4.3-1.5c0,0-0.1,0-0.1,0.1C202.3,108.4,201.7,110.5,202.6,112.1z"
					/>
				<path class="st22" d="M208.7,122.7c0.1,2.3-2.5,4.3-5.6,4.4s-5.8-1.7-5.9-4s2.4-4.3,5.6-4.4S208.7,120.3,208.7,122.7z"/>
				<path class="st22" d="M240,120.9c-0.2,2.3-3,3.9-6.2,3.6s-5.5-2.5-5.3-4.8s3-3.9,6.2-3.6S240.2,118.6,240,120.9z"/>
			</g>
		</g>
		<path class="st11" d="M194.6,329.3l-8.5,4.9c-2.8,1.6-6.3,0.7-8-2.1c-0.5-0.9-0.8-1.9-0.8-2.9v-45.8l5.3,3.1v42.7
			c0,0.2,0.1,0.4,0.3,0.5s0.4,0.1,0.5,0l5.6-3.2C190.8,327.4,192.7,328.4,194.6,329.3z"/>
		<path class="st11" d="M223.8,342.2l-11.9,6.9c-2.8,1.6-6.4,0.6-8-2.1c-0.5-0.9-0.8-1.9-0.8-2.9v-45.8l5.3,2.9V344
			c0,0.2,0.1,0.4,0.3,0.5s0.4,0.1,0.5,0l8-4.6l2.3,0.9C221,341.4,222.4,341.8,223.8,342.2z"/>
		<path class="st9" d="M330.8,270.5l-37-21.4c-7.6-4.4-19.9-4.4-27.5,0l-19.8,11.5c-7.6,4.4-19.9,4.4-27.6,0l-21.6-12.4
			c-7.6-4.4-19.9-4.4-27.6,0l-6.9,4c-3.8,2.2-5.7,5.1-5.7,7.9c0,1.2,0,5.8,0,7c0,2.9,1.9,5.8,5.7,8l86.2,49.7
			c7.6,4.4,19.9,4.4,27.5,0l54.3-31.4c3.8-2.2,5.7-5.1,5.7-8v-7C336.5,275.6,334.6,272.7,330.8,270.5z"/>
		<path class="st8" d="M162.8,268l86.2,49.7c7.6,4.4,19.9,4.4,27.5,0l54.3-31.4c7.6-4.4,7.6-11.5,0-15.9l-37-21.4
			c-7.6-4.4-19.9-4.4-27.5,0l-19.8,11.5c-7.6,4.4-19.9,4.4-27.6,0l-21.6-12.4c-7.6-4.4-19.9-4.4-27.6,0l-6.9,4
			C155.2,256.5,155.2,263.6,162.8,268z"/>
		<g id="freepik--Notebook--inject-95">
			<path id="freepik--shadow--inject-95_00000013169336623231975270000005581139726758444442_" class="st9" d="M268.3,255.2
				l-38.2,22.1c-0.4,0.1-0.5,0.5-0.4,0.9c0.1,0.2,0.2,0.4,0.4,0.4l52.5,30.2c0.7,0.3,1.5,0.3,2.2,0l38.2-22.1
				c0.4-0.1,0.5-0.5,0.4-0.9c-0.1-0.2-0.2-0.3-0.4-0.4l-52.5-30.2C269.9,254.8,269,254.8,268.3,255.2z"/>
			<g id="freepik--notebook--inject-95">
				<path class="st11" d="M270.6,255.6l-37,19.5l-0.8,1.2v1c0,0.5,0.3,1,0.8,1.2l48.7,28.1c0.8,0.4,1.7,0.4,2.5,0l36.1-20.9v-1
					L270.6,255.6z"/>
				<path class="st12" d="M283.7,305.8c-0.4,0-0.9-0.1-1.3-0.3l-48.7-28.1c-0.5-0.2-0.7-0.7-0.8-1.2c0-0.5,0.3-1,0.8-1.2l35.3-20.4
					l52,30.1l-36.1,20.9C284.5,305.7,284.1,305.8,283.7,305.8z"/>
				<path class="st4" d="M269,251.8L234.1,272l-0.4,0.5v3.7l0,0c0,0.2,0.2,0.4,0.4,0.5l48.7,28.1c0.5,0.3,1.2,0.3,1.7,0l34.9-20.2
					V281L269,251.8z"/>
				<path class="st1" d="M319.5,280.9l-0.4,0.3l-5.7,3.3l-1.1,0.6l-27.8,16c-0.5,0.3-1.2,0.3-1.7,0L234.1,273
					c-0.3-0.1-0.4-0.4-0.3-0.7c0.1-0.2,0.2-0.3,0.3-0.3l0.5-0.3l34.4-19.9l50,28.9l0.1,0.1L319.5,280.9z"/>
				<path class="st2" d="M283.7,301.3v3.7c-0.3,0-0.6-0.1-0.9-0.2l-48.7-28.1c-0.2-0.1-0.3-0.3-0.4-0.5v-3.8c0,0.2,0.2,0.4,0.4,0.5
					l48.7,28.1C283.1,301.2,283.4,301.3,283.7,301.3z"/>
				<path class="st6" d="M319.5,280.4l-6.3,3.6l-1,0.6l-27.7,16c-0.5,0.3-1.2,0.3-1.7,0l-43.6-25.2c-0.4-0.2-0.8-0.4-1.1-0.6
					c-1.4-0.8-2.6-1.8-3.5-3.1l-0.1-0.1c0-0.1-0.1-0.2-0.1-0.3c-0.1-0.4,0.2-0.8,0.6-0.9c1.1-0.3,2.2-0.8,3.3-1.4l0,0l30.8-17.7
					L319.5,280.4z"/>
				<path class="st17" d="M313,280c-0.3,0.1-0.4,0.4-0.3,0.6c0.1,0.1,0.2,0.2,0.3,0.3c0.5,0.3,1.1,0.3,1.6,0
					c0.3-0.1,0.4-0.4,0.3-0.6c-0.1-0.1-0.2-0.2-0.3-0.3C314.1,279.7,313.5,279.7,313,280z"/>
				<path class="st11" d="M318.2,276.9c-0.7-0.4-1.5-0.3-2.2,0.1c-1.4,0.9-2.3,2.3-2.7,3.9c0.2,0.1,0.4,0.1,0.6,0.1
					c0.4-1.4,1.2-2.7,2.5-3.5c0.3-0.2,0.6-0.3,1-0.3c0.2,0,0.4,0.1,0.6,0.2c0.6,0.5,0.9,1.2,0.8,2c0,0.2,0,0.3,0,0.5l0.6,0.3
					c0-0.3,0.1-0.5,0.1-0.8C319.4,278.5,319,277.5,318.2,276.9z"/>
				<path class="st11" d="M319.2,280.6v0.1l-0.1-0.1H319.2z"/>
				<path class="st17" d="M308.1,277.1c-0.3,0.1-0.4,0.4-0.3,0.6c0.1,0.1,0.2,0.2,0.3,0.3c0.5,0.3,1.1,0.3,1.6,0
					c0.3-0.1,0.4-0.4,0.3-0.6c-0.1-0.1-0.2-0.2-0.3-0.3C309.2,276.9,308.6,276.9,308.1,277.1z"/>
				<path class="st11" d="M313.3,274.1c-0.7-0.4-1.5-0.3-2.2,0.1c-1.4,0.9-2.3,2.3-2.7,3.9c0.2,0.1,0.4,0.1,0.6,0.1
					c0.4-1.4,1.2-2.7,2.5-3.5c0.3-0.2,0.6-0.3,1-0.3c0.2,0,0.4,0.1,0.6,0.2c0.6,0.5,0.9,1.2,0.8,2c0,0.2,0,0.3,0,0.5l0.6,0.3
					c0-0.3,0.1-0.5,0.1-0.8C314.5,275.7,314.1,274.7,313.3,274.1z"/>
				<path class="st17" d="M303.2,274.3c-0.3,0.1-0.4,0.4-0.3,0.6c0.1,0.1,0.2,0.2,0.3,0.3c0.5,0.3,1.1,0.3,1.6,0
					c0.3-0.1,0.4-0.4,0.3-0.6c-0.1-0.1-0.2-0.2-0.3-0.3C304.3,274.1,303.7,274.1,303.2,274.3z"/>
				<path class="st11" d="M308.4,271.3c-0.7-0.4-1.5-0.3-2.2,0.1c-1.4,0.9-2.3,2.3-2.7,3.9c0.2,0.1,0.4,0.1,0.6,0.1
					c0.4-1.4,1.2-2.7,2.4-3.5c0.3-0.2,0.6-0.3,1-0.3c0.2,0,0.4,0.1,0.6,0.1c0.6,0.5,0.9,1.2,0.8,2c0,0.2,0,0.3,0,0.5l0.6,0.3
					c0-0.3,0.1-0.5,0.1-0.8C309.6,272.8,309.2,271.9,308.4,271.3z"/>
				<path class="st17" d="M298.3,271.5c-0.3,0.1-0.4,0.4-0.3,0.6c0.1,0.1,0.2,0.2,0.3,0.3c0.5,0.3,1.1,0.3,1.6,0
					c0.3-0.1,0.4-0.4,0.3-0.6c-0.1-0.1-0.2-0.2-0.3-0.3C299.4,271.3,298.8,271.3,298.3,271.5z"/>
				<path class="st11" d="M303.5,268.5c-0.7-0.4-1.5-0.3-2.2,0.1c-1.4,0.9-2.3,2.3-2.7,3.9c0.2,0.1,0.4,0.1,0.6,0.1
					c0.4-1.4,1.2-2.7,2.4-3.5c0.3-0.2,0.6-0.3,1-0.3c0.2,0,0.4,0,0.6,0.1c0.6,0.5,0.9,1.2,0.8,2c0,0.2,0,0.3,0,0.5l0.6,0.3
					c0-0.3,0.1-0.5,0.1-0.8C304.8,270,304.3,269.1,303.5,268.5z"/>
				<path class="st17" d="M293.4,268.7c-0.3,0.1-0.4,0.4-0.3,0.6c0.1,0.1,0.2,0.2,0.3,0.3c0.5,0.3,1.1,0.3,1.6,0
					c0.3-0.1,0.4-0.4,0.3-0.6c-0.1-0.1-0.2-0.2-0.3-0.3C294.5,268.4,293.9,268.4,293.4,268.7z"/>
				<path class="st11" d="M298.6,265.7c-0.7-0.4-1.5-0.3-2.2,0.1c-1.4,0.9-2.3,2.3-2.7,4c0.2,0.1,0.4,0.1,0.6,0.1
					c0.4-1.4,1.2-2.7,2.4-3.5c0.3-0.2,0.6-0.3,1-0.3c0.2,0,0.4,0,0.6,0.1c0.6,0.5,0.9,1.2,0.8,2c0,0.2,0,0.3,0,0.5l0.6,0.3
					c0-0.3,0.1-0.5,0.1-0.8C299.9,267.2,299.4,266.2,298.6,265.7z"/>
				<path class="st17" d="M288.5,265.9c-0.3,0.1-0.4,0.4-0.3,0.6c0.1,0.1,0.2,0.2,0.3,0.3c0.5,0.3,1.1,0.3,1.6,0
					c0.3-0.1,0.4-0.4,0.3-0.6c-0.1-0.1-0.2-0.2-0.3-0.3C289.7,265.6,289.1,265.6,288.5,265.9z"/>
				<path class="st11" d="M293.8,262.8c-0.7-0.3-1.5-0.3-2.2,0.1c-1.4,0.9-2.3,2.3-2.7,4c0.2,0.1,0.4,0.1,0.6,0.1
					c0.4-1.4,1.2-2.7,2.5-3.5c0.3-0.2,0.6-0.3,1-0.3c0.2,0,0.4,0,0.6,0.1c0.6,0.5,0.9,1.2,0.8,2c0,0.2,0,0.3,0,0.5l0.6,0.3
					c0-0.3,0.1-0.5,0.1-0.8C295,264.4,294.6,263.4,293.8,262.8z"/>
				<path class="st17" d="M283.7,263.1c-0.3,0.1-0.4,0.4-0.3,0.6c0.1,0.1,0.2,0.2,0.3,0.3c0.5,0.3,1.1,0.3,1.6,0
					c0.3-0.1,0.4-0.4,0.3-0.6c-0.1-0.1-0.2-0.2-0.3-0.3C284.8,262.8,284.2,262.8,283.7,263.1z"/>
				<path class="st11" d="M288.9,260c-0.7-0.3-1.5-0.3-2.2,0.2c-1.4,0.9-2.3,2.3-2.7,3.9c0.2,0.1,0.4,0.1,0.6,0.1
					c0.4-1.4,1.2-2.6,2.4-3.5c0.3-0.2,0.6-0.3,1-0.3c0.2,0,0.4,0,0.6,0.1c0.6,0.5,0.9,1.2,0.8,2c0,0.2,0,0.3,0,0.5l0.6,0.3
					c0-0.3,0.1-0.5,0.1-0.8C290.1,261.5,289.7,260.6,288.9,260z"/>
				<path class="st17" d="M278.8,260.2c-0.3,0.1-0.4,0.4-0.3,0.6c0.1,0.1,0.2,0.2,0.3,0.3c0.5,0.3,1.1,0.3,1.6,0
					c0.3-0.1,0.4-0.4,0.3-0.6c-0.1-0.1-0.2-0.2-0.3-0.3C279.9,260,279.3,260,278.8,260.2z"/>
				<path class="st11" d="M284,257.2c-0.7-0.4-1.5-0.3-2.2,0.1c-1.4,0.9-2.3,2.3-2.7,3.9c0.2,0.1,0.4,0.1,0.6,0.1
					c0.4-1.4,1.2-2.7,2.4-3.5c0.3-0.2,0.6-0.3,1-0.3c0.2,0,0.4,0.1,0.6,0.2c0.6,0.5,0.9,1.2,0.8,2c0,0.2,0,0.3,0,0.5l0.6,0.3
					c0-0.3,0.1-0.5,0.1-0.8C285.2,258.7,284.8,257.8,284,257.2z"/>
				<path class="st17" d="M273.9,257.4c-0.3,0.1-0.4,0.4-0.3,0.6c0.1,0.1,0.2,0.2,0.3,0.3c0.5,0.3,1.1,0.3,1.6,0
					c0.3-0.1,0.4-0.4,0.3-0.6c-0.1-0.1-0.2-0.2-0.3-0.3C275,257.2,274.4,257.2,273.9,257.4z"/>
				<path class="st11" d="M279.1,254.4c-0.7-0.4-1.5-0.3-2.2,0.1c-1.4,0.9-2.3,2.3-2.7,3.9c0.2,0.1,0.4,0.1,0.6,0.1
					c0.4-1.4,1.2-2.7,2.4-3.5c0.3-0.2,0.6-0.3,1-0.3c0.2,0,0.4,0.1,0.6,0.2c0.6,0.5,0.9,1.2,0.8,2c0,0.2,0,0.3,0,0.5l0.6,0.3
					c0-0.3,0.1-0.5,0.1-0.8C280.4,255.9,279.9,255,279.1,254.4z"/>
				<path class="st17" d="M269,254.6c-0.3,0.1-0.4,0.4-0.3,0.6c0,0.1,0.2,0.3,0.3,0.3c0.5,0.3,1.1,0.3,1.6,0
					c0.3-0.1,0.4-0.4,0.3-0.6c-0.1-0.1-0.2-0.2-0.3-0.3C270.1,254.3,269.5,254.4,269,254.6z"/>
				<path class="st11" d="M274.2,251.6c-0.7-0.4-1.5-0.3-2.2,0.1c-1.4,0.9-2.3,2.3-2.7,3.9c0.2,0.1,0.4,0.1,0.6,0.1
					c0.4-1.4,1.2-2.7,2.4-3.5c0.3-0.2,0.6-0.3,1-0.3c0.2,0,0.4,0.1,0.6,0.1c0.6,0.5,0.9,1.2,0.8,2c0,0.2,0,0.3,0,0.5l0.6,0.3
					c0-0.3,0.1-0.5,0.1-0.8C275.5,253.1,275,252.1,274.2,251.6z"/>
				<path class="st4" d="M278.8,295.5c-0.2,0-0.4-0.1-0.5-0.3c-0.2-0.3-0.1-0.6,0.2-0.8l26.9-15.5c0.3-0.1,0.6,0,0.7,0.2
					s0,0.5-0.2,0.7L279,295.3C279,295.5,278.9,295.5,278.8,295.5z"/>
				<path class="st4" d="M275.5,293.7c-0.2,0-0.4-0.1-0.5-0.3c-0.2-0.3-0.1-0.6,0.2-0.8l26.9-15.5c0.3-0.2,0.6-0.1,0.8,0.2
					c0.2,0.3,0.1,0.6-0.2,0.8l0,0l-26.9,15.5C275.7,293.7,275.6,293.7,275.5,293.7z"/>
				<path class="st4" d="M272.3,291.8c-0.3,0-0.5-0.3-0.5-0.6c0-0.2,0.1-0.3,0.2-0.4l26.9-15.5c0.3-0.2,0.6-0.1,0.8,0.2
					c0.2,0.3,0.1,0.6-0.2,0.8l-26.9,15.5C272.5,291.8,272.4,291.8,272.3,291.8z"/>
				<path class="st4" d="M269,289.9c-0.2,0-0.4-0.1-0.5-0.3c-0.2-0.3-0.1-0.6,0.2-0.8l26.9-15.5c0.3-0.1,0.6-0.1,0.7,0.2l0,0
					c0.2,0.3,0.1,0.6-0.2,0.8l-26.9,15.5C269.2,289.9,269.1,289.9,269,289.9z"/>
				<path class="st4" d="M265.8,288c-0.3,0-0.5-0.3-0.5-0.6c0-0.2,0.1-0.3,0.2-0.4l26.9-15.5c0.3-0.2,0.6-0.1,0.8,0.2
					s0.1,0.6-0.2,0.8L266,288C265.9,288,265.8,288,265.8,288z"/>
				<path class="st4" d="M262.5,286.2c-0.2,0-0.4-0.1-0.5-0.3c-0.2-0.3-0.1-0.6,0.2-0.8l26.9-15.5c0.3-0.1,0.6,0,0.7,0.2
					s0,0.5-0.2,0.7L262.7,286C262.7,286.1,262.6,286.2,262.5,286.2z"/>
				<path class="st4" d="M259.3,284.3c-0.3,0-0.5-0.3-0.5-0.6c0-0.2,0.1-0.3,0.2-0.4l26.9-15.5c0.3-0.2,0.6-0.1,0.7,0.2l0,0
					c0.2,0.3,0.1,0.6-0.2,0.8l-26.9,15.5C259.4,284.3,259.4,284.3,259.3,284.3z"/>
				<path class="st4" d="M256,282.4c-0.2,0-0.4-0.1-0.5-0.3c-0.2-0.3-0.1-0.6,0.2-0.8l26.9-15.5c0.3-0.2,0.6-0.1,0.8,0.2
					c0.1,0.3,0.1,0.6-0.2,0.7l0,0l-26.9,15.5C256.2,282.4,256.1,282.4,256,282.4z"/>
				<path class="st4" d="M252.8,280.5c-0.3,0-0.5-0.3-0.5-0.6c0-0.2,0.1-0.3,0.2-0.4l26.9-15.5c0.3-0.2,0.6-0.1,0.7,0.2l0,0
					c0.2,0.3,0.1,0.6-0.2,0.8L253,280.5C252.9,280.5,252.8,280.5,252.8,280.5z"/>
				<path class="st4" d="M249.5,278.6c-0.2,0-0.4-0.1-0.5-0.3c-0.2-0.3-0.1-0.6,0.2-0.8l26.9-15.5c0.3-0.2,0.6-0.1,0.8,0.2
					c0.2,0.3,0.1,0.6-0.2,0.7l0,0l-26.9,15.5C249.7,278.6,249.6,278.6,249.5,278.6z"/>
				<path class="st4" d="M246.2,276.8c-0.2,0-0.4-0.1-0.5-0.3c-0.2-0.3-0.1-0.6,0.2-0.8l26.9-15.5c0.3-0.1,0.6,0,0.7,0.2
					s0,0.5-0.2,0.7l-26.9,15.5C246.4,276.7,246.3,276.8,246.2,276.8z"/>
				<path class="st4" d="M243,274.9c-0.3,0-0.5-0.3-0.5-0.6c0-0.2,0.1-0.3,0.2-0.4l26.9-15.5c0.3-0.2,0.6-0.1,0.8,0.2
					c0.2,0.2,0.1,0.6-0.2,0.7l0,0l-26.9,15.5C243.2,274.9,243.1,274.9,243,274.9z"/>
				<path class="st4" d="M239.7,273c-0.3,0-0.5-0.3-0.5-0.6c0-0.2,0.1-0.3,0.2-0.4l26.9-15.5c0.3-0.2,0.6-0.1,0.8,0.2
					s0.1,0.6-0.2,0.8l0,0L240,272.9C239.9,273,239.8,273,239.7,273z"/>
				<path class="st12" d="M282.1,297.4c-0.2,0-0.4-0.1-0.5-0.3c-0.2-0.3-0.1-0.6,0.2-0.7l0,0l28.4-16.4c0.3-0.1,0.6,0,0.7,0.2
					s0,0.5-0.2,0.7l-28.4,16.4C282.3,297.4,282.2,297.4,282.1,297.4z"/>
				<g class="st24">
					<path d="M296.3,277c-0.3-0.3-0.7-0.6-1.1-0.7c-0.2-0.1-0.3-0.2-0.5-0.3c-0.2-0.4-0.6-1-0.1-1.1c0.3,0,0.8,0.2,1,0.3
						s0.1-0.2,0-0.2c-0.5-0.2-1.4-0.8-1.6,0c-0.1,0.3,0,0.5,0.1,0.7c-0.2-0.1-0.5-0.1-0.7-0.1s-0.4,0-0.5,0.3s0,0.2,0,0.3
						c0,0.1,0.1,0.2,0.2,0.2c-0.1,0-0.2,0-0.3,0c-0.3,0-1.3-0.2-1.5,0.2c-0.1,0.2,0.1,0.4,0.1,0.5s-0.7,0.2-0.8,0.3s0,0.2,0,0.2
						c-0.3,0-0.7,0-1,0c-0.5,0-1.9-0.1-1.7,0.7c0,0.1,0.1,0.1,0.1,0.2s0,0.1,0,0.2c0,0-0.1,0-0.1,0.1s-0.2,0-0.3,0.1
						c-0.2,0.3,0.1,0.4-0.2,0.6s-1.4-0.3-1.8,0s0.1,1.1-0.6,1.1c-0.2,0-0.1,0.2,0,0.2c0.7,0.1,0.6-0.1,0.7-0.6
						c0.2-0.9,1.5-0.3,2.3-0.5c0.1,0,0.1-0.1,0.1-0.2l0,0c-0.2-0.3,0-0.5,0.3-0.6c0.1,0,0.1-0.1,0.1-0.2l0,0
						c-0.1-0.1-0.4-0.6-0.2-0.8c0.3-0.1,0.5-0.1,0.8-0.1c0.6,0,1.2,0,1.7,0c0.1,0,0.1-0.1,0.1-0.1s0,0,0-0.1
						c-0.1-0.2,0.7-0.3,0.8-0.3c0.1,0,0.1-0.1,0.1-0.2c-0.4-0.9,1-0.6,1.5-0.5c0.1,0,0.1,0,0.2-0.1v-0.1c-0.1-0.3-0.8-0.6,0-0.7
						c0.2,0,0.4,0,0.6,0.1c0.3,0.6,0.8,1.1,1.4,1.4C296.2,277.8,296.7,277.6,296.3,277z M296.1,277.2c0.2,0.2-0.4,0-0.4,0
						c-0.3-0.2-0.5-0.4-0.7-0.7l0.4,0.2C295.6,276.8,295.9,276.9,296.1,277.2z"/>
					<path d="M282.9,282.7c-0.1-0.4-0.1-0.8,0.2-0.9c0.2,0,0-0.3-0.1-0.3c-0.5,0-0.6,0.4-0.6,0.9c-0.2-0.1-0.4-0.2-0.6-0.2
						c-0.3-0.1-0.5-0.1-0.6,0.3s0.1,0.3,0.1,0.5s0.2,0.1-0.1,0.2c-0.1,0-0.3,0-0.4,0c-0.2-0.1-0.5,0-0.7,0.2s0.4,0.3-0.4,0.2
						c-0.2-0.1-0.4-0.1-0.5-0.1c-0.2,0.1-0.4,0.1-0.4,0.4c0,0.1,0.3,0.3,0.3,0.4c0,0.6-0.7,0.1-0.9,0c-0.1,0-0.1,0-0.2,0.1l0,0
						c0,0.3,0.2,0.4-0.2,0.4c0,0-0.4-0.2-0.5-0.2c-0.3,0-0.5,0.4-0.9,0.3c-0.1,0-0.1,0.1-0.1,0.2c0.1,0.3,0.2,0.5-0.3,0.7l-0.6-0.1
						c-0.2,0-0.1,0.3,0.1,0.3s1.1,0.4,1.4,0s-0.2-0.6-0.1-0.7c-0.1,0.1,0.5-0.1,0.6-0.2s0.3-0.1,0.4-0.1s0.1,0.1,0.2,0.1
						s0.2,0.1,0.3,0s0.1-0.2,0.2-0.2s-0.1-0.1,0.1-0.2s0.3,0.1,0.4,0.1s0.5,0.2,0.7,0s-0.2-0.5-0.1-0.7c0.1-0.4,0.7-0.1,1-0.3v-0.1
						c-0.2-0.6,0.9-0.1,1.3-0.2c0.1,0,0.1,0,0.1-0.1s-0.1-0.3-0.1-0.4c0.1-0.4,0.6-0.3,0.8-0.3c0.2,0.7,0.8,1.5,1.5,1.3l0.1-0.1
						C284,283.5,283.5,283,282.9,282.7z M283.1,283.3c0-0.1-0.1-0.1-0.1-0.2c0.2,0.1,0.3,0.3,0.5,0.4
						C283.6,283.9,283.1,283.4,283.1,283.3z"/>
					<path d="M292.6,286.6c-0.3-0.3-0.7-0.6-1.1-0.7c-0.2-0.1-0.3-0.2-0.5-0.3c-0.2-0.4-0.6-1-0.1-1.1c0.3,0,0.8,0.2,1,0.3
						s0.1-0.2,0-0.2c-0.5-0.2-1.4-0.8-1.6,0c0,0.3,0,0.5,0.1,0.7c-0.2-0.1-0.5-0.1-0.7-0.1s-0.4,0-0.5,0.3s0,0.2,0,0.3
						s0.2,0.2,0.2,0.2c-0.1,0-0.2,0-0.2,0c-0.3,0-1.3-0.2-1.5,0.2c-0.1,0.2,0.1,0.4,0.1,0.5s-0.7,0.2-0.8,0.3s0,0.2,0,0.2
						c-0.3,0-0.7,0-1,0c-0.5,0-1.9-0.1-1.7,0.7c0,0.1,0.1,0.1,0.1,0.2s0,0.1,0,0.2c0,0-0.1,0-0.1,0.1s-0.2,0-0.3,0.1
						c-0.3,0.3,0.1,0.4-0.2,0.6s-1.4-0.3-1.8,0s0.1,1.1-0.6,1.1c-0.2,0-0.1,0.2,0,0.2c0.7,0.1,0.6-0.1,0.7-0.6
						c0.2-0.9,1.5-0.3,2.3-0.5c0.1,0,0.1-0.1,0.1-0.2l0,0c-0.2-0.3,0-0.5,0.3-0.6c0.1,0,0.1-0.1,0.1-0.2l0,0
						c-0.1-0.1-0.4-0.6-0.2-0.8c0.3-0.1,0.5-0.1,0.8-0.1c0.6,0,1.2,0,1.7,0c0.1,0,0.1-0.1,0.1-0.1l0,0c-0.1-0.2,0.7-0.3,0.8-0.3
						c0.1,0,0.1-0.1,0.1-0.1l0,0c-0.4-0.9,1-0.6,1.5-0.5c0.1,0,0.1,0,0.2-0.1c0,0,0,0,0-0.1c-0.1-0.3-0.8-0.6,0-0.7
						c0.2,0,0.4,0,0.6,0.1c0.3,0.6,0.8,1.1,1.4,1.4C292.5,287.4,293,287.2,292.6,286.6z M292.4,286.8c0.2,0.2-0.4,0-0.4,0
						c-0.3-0.2-0.5-0.4-0.7-0.7l0.4,0.2C292,286.4,292.2,286.6,292.4,286.8L292.4,286.8z"/>
					<path d="M300.9,279.8c-0.1-0.4-0.1-0.8,0.2-0.9c0.2,0,0-0.3-0.1-0.3c-0.5,0-0.6,0.4-0.6,0.9c-0.2-0.1-0.4-0.2-0.6-0.2
						c-0.3-0.1-0.5-0.1-0.6,0.3s0.1,0.3,0.1,0.5s0.2,0.1-0.1,0.2c-0.2,0-0.3,0-0.5,0c-0.2-0.1-0.5,0-0.6,0.2
						c-0.2,0.2,0.4,0.3-0.4,0.2c-0.2-0.1-0.4-0.1-0.5-0.1c-0.3,0.1-0.4,0.1-0.4,0.4c0,0.1,0.3,0.3,0.3,0.4c0,0.6-0.7,0.1-0.9,0
						c-0.1,0-0.1,0-0.2,0.1l0,0c0,0.3,0.2,0.4-0.2,0.4c-0.2-0.1-0.3-0.1-0.5-0.2c-0.3,0-0.5,0.4-0.9,0.3c-0.1,0-0.1,0.1-0.1,0.2
						c0.1,0.3,0.2,0.5-0.3,0.7l-0.6-0.1c-0.2,0-0.1,0.3,0.1,0.3s1.1,0.4,1.4,0s-0.2-0.5-0.1-0.7c-0.1,0.1,0.5-0.1,0.5-0.2
						c0.1-0.1,0.3-0.1,0.4-0.1s0.1,0.1,0.2,0.1s0.2,0.1,0.3,0s0.1-0.2,0.2-0.2s-0.1-0.1,0.1-0.2s0.3,0.1,0.4,0.1s0.5,0.2,0.7,0
						s-0.2-0.5-0.2-0.7c0.1-0.4,0.7-0.1,1-0.3v-0.1c-0.2-0.6,0.9-0.1,1.3-0.2c0.1,0,0.1,0,0.1-0.1s-0.1-0.4-0.1-0.4
						c0.1-0.4,0.6-0.3,0.8-0.3c0.2,0.7,0.8,1.5,1.5,1.3l0.1-0.1C302,280.7,301.5,280.1,300.9,279.8z M301.1,280.4
						c0-0.1-0.1-0.1-0.1-0.2c0.2,0.1,0.3,0.3,0.5,0.4C301.6,281,301.2,280.5,301.1,280.4L301.1,280.4z"/>
					<path d="M276.5,266c-0.3-0.3-0.7-0.6-1.1-0.7c-0.2-0.1-0.3-0.2-0.5-0.3c-0.2-0.4-0.6-1-0.1-1.1c0.3,0,0.8,0.2,1,0.3
						s0.1-0.2,0-0.2c-0.5-0.2-1.4-0.8-1.6,0c0,0.3,0,0.5,0.1,0.8c-0.2-0.1-0.5-0.1-0.7-0.1s-0.4,0-0.5,0.3s0,0.2,0,0.3
						c0,0.1,0.1,0.2,0.2,0.2H273c-0.3,0-1.3-0.2-1.5,0.2c-0.1,0.2,0.1,0.4,0.1,0.5s-0.7,0.2-0.8,0.3s0,0.2,0,0.2c-0.3,0-0.7,0-1,0
						c-0.5,0-1.9-0.2-1.7,0.7c0,0.1,0.1,0.1,0.1,0.2s0,0.2,0,0.2s0,0-0.1,0.1s-0.2,0-0.3,0.1c-0.3,0.3,0.1,0.4-0.2,0.6
						s-1.4-0.3-1.8,0s0.1,1.1-0.6,1.1c-0.1,0-0.1,0.2,0.1,0.2c0.7,0.1,0.6-0.1,0.7-0.6c0.2-0.9,1.5-0.3,2.3-0.5
						c0.1,0,0.1-0.1,0.1-0.1l0,0c-0.2-0.3,0-0.5,0.3-0.6c0.1,0,0.1-0.1,0.1-0.2l0,0c-0.1-0.1-0.4-0.6-0.2-0.8
						c0.3-0.1,0.5-0.1,0.8-0.1c0.6,0,1.2,0,1.7,0c0.1,0,0.1-0.1,0.1-0.1l0,0c-0.1-0.2,0.7-0.3,0.8-0.4s0.1-0.1,0.1-0.1
						c-0.4-0.9,1-0.6,1.5-0.5c0.1,0,0.1,0,0.2-0.1c0,0,0,0,0-0.1c-0.1-0.3-0.8-0.6,0-0.7c0.2,0,0.4,0,0.6,0.1
						c0.3,0.6,0.8,1.1,1.4,1.4C276.3,266.8,276.9,266.6,276.5,266z M276.2,266.2c0.2,0.2-0.4,0-0.4,0c-0.3-0.2-0.5-0.4-0.7-0.7
						l0.4,0.2C275.8,265.8,276,265.9,276.2,266.2L276.2,266.2z"/>
					<path d="M263,271.7c-0.1-0.4-0.1-0.8,0.2-0.9c0.2,0,0-0.3-0.1-0.3c-0.5,0-0.6,0.4-0.6,0.9c-0.2-0.1-0.4-0.2-0.6-0.2
						c-0.3-0.1-0.5-0.1-0.6,0.2s0.1,0.3,0.1,0.5s0.2,0.1-0.1,0.2c-0.1,0-0.3,0-0.4,0c-0.4,0-0.4,0-0.7,0.2s0.4,0.3-0.4,0.2
						c-0.2-0.1-0.4-0.1-0.5-0.1c-0.3,0.1-0.4,0.1-0.4,0.4c0,0.1,0.3,0.3,0.3,0.4c0,0.6-0.7,0.1-0.9,0c-0.1,0-0.1,0-0.2,0.1l0,0
						c0,0.3,0.2,0.4-0.2,0.4c-0.2-0.1-0.3-0.1-0.5-0.2c-0.3,0-0.5,0.4-0.9,0.3c-0.1,0-0.1,0.1-0.1,0.2c0.1,0.3,0.2,0.4-0.3,0.7
						c0,0-0.7-0.1-0.6-0.1c-0.2,0-0.1,0.3,0.1,0.3s1.1,0.4,1.4,0s-0.2-0.5-0.1-0.7c-0.1,0.1,0.5-0.1,0.6-0.2s0.3-0.1,0.4-0.1
						s0.1,0.1,0.2,0.1s0.2,0,0.3,0s0.1-0.2,0.2-0.2s-0.1-0.1,0.1-0.2s0.3,0.1,0.4,0.1s0.5,0.2,0.7,0s-0.2-0.5-0.2-0.7
						c0.1-0.4,0.7-0.1,1-0.3v-0.1c-0.2-0.6,0.9-0.1,1.3-0.2c0.1,0,0.1,0,0.1-0.1s-0.1-0.4-0.1-0.4c0.1-0.4,0.6-0.3,0.8-0.3
						c0.2,0.7,0.8,1.5,1.5,1.3l0.1-0.1C264.2,272.5,263.6,272,263,271.7z M263.2,272.3l-0.1-0.2c0.2,0.1,0.3,0.3,0.5,0.4
						C263.7,272.9,263.3,272.4,263.2,272.3L263.2,272.3z"/>
					<path d="M272.8,275.7c-0.3-0.3-0.7-0.6-1.1-0.7l-0.5-0.3c-0.2-0.4-0.6-1-0.1-1.1c0.3,0,0.8,0.2,1,0.3s0.1-0.2,0-0.2
						c-0.5-0.2-1.4-0.8-1.6,0c0,0.3,0,0.5,0.1,0.8c-0.2-0.1-0.5-0.1-0.7-0.1s-0.4,0-0.5,0.3s0,0.2,0,0.3c0,0.1,0.1,0.2,0.2,0.2h-0.2
						c-0.3,0-1.3-0.2-1.5,0.2c-0.1,0.2,0.1,0.4,0.1,0.5s-0.7,0.2-0.8,0.3s0,0.2,0,0.2c-0.3,0-0.7,0-1,0c-0.5,0-1.9-0.2-1.7,0.7
						c0,0.1,0.1,0.1,0.1,0.2s0,0.1,0,0.2c0,0-0.1,0-0.1,0.1s-0.2,0-0.3,0.1c-0.2,0.3,0.1,0.4-0.2,0.6s-1.4-0.3-1.8,0
						s0.1,1.1-0.6,1.1c-0.2,0-0.1,0.2,0,0.2c0.7,0.1,0.6-0.1,0.7-0.6c0.2-0.9,1.5-0.3,2.3-0.5c0.1,0,0.1-0.1,0-0.2
						c-0.2-0.3,0-0.5,0.3-0.6c0.1,0,0.1-0.1,0.1-0.2l0,0c-0.1-0.1-0.4-0.6-0.2-0.8c0.3-0.1,0.5-0.1,0.8-0.1c0.6,0,1.2,0,1.7,0
						c0.1,0,0.1-0.1,0.1-0.1l0,0c-0.1-0.2,0.7-0.3,0.8-0.4c0.1,0,0.1-0.1,0.1-0.1l0,0c-0.4-0.9,1-0.6,1.5-0.5c0.1,0,0.1,0,0.2-0.1
						c0,0,0,0,0-0.1c-0.1-0.3-0.8-0.6,0-0.7c0.2,0,0.4,0,0.6,0.1c0.3,0.6,0.8,1.1,1.4,1.4C272.6,276.5,273.2,276.3,272.8,275.7z
						 M272.5,275.8c0.2,0.2-0.4,0-0.4,0c-0.3-0.2-0.5-0.4-0.7-0.7l0.4,0.2C272.1,275.4,272.3,275.6,272.5,275.8z"/>
					<path d="M281,268.8c-0.1-0.4-0.1-0.8,0.2-0.9c0.2,0,0-0.3-0.1-0.3c-0.5,0-0.6,0.4-0.6,0.9c-0.2-0.1-0.4-0.2-0.6-0.2
						c-0.3-0.1-0.5-0.1-0.6,0.2s0.1,0.3,0.1,0.5s0.2,0.1-0.1,0.2c-0.1,0-0.3,0-0.5,0c-0.4,0-0.4,0-0.6,0.2s0.4,0.3-0.4,0.2
						c-0.2-0.1-0.4-0.1-0.5-0.1c-0.3,0.1-0.4,0.1-0.4,0.4c0,0.1,0.3,0.3,0.3,0.4c0,0.6-0.7,0.1-0.9,0c-0.1,0-0.1,0-0.2,0.1l0,0
						c0,0.3,0.2,0.4-0.2,0.4c-0.1,0-0.4-0.2-0.5-0.2c-0.3,0-0.5,0.4-0.9,0.3c-0.1,0-0.1,0.1-0.1,0.2c0.1,0.3,0.3,0.5-0.3,0.7
						c0,0-0.7-0.1-0.6-0.1c-0.2,0-0.1,0.3,0.1,0.3s1.1,0.4,1.4,0s-0.2-0.5-0.1-0.7c-0.1,0.1,0.5-0.2,0.5-0.2
						c0.1-0.1,0.3-0.1,0.4-0.1s0.1,0.1,0.2,0.1s0.2,0,0.3,0s0.1-0.2,0.2-0.2s-0.1-0.1,0.1-0.2s0.3,0.1,0.4,0.1s0.5,0.2,0.7,0
						s-0.2-0.5-0.2-0.7c0.1-0.4,0.7-0.1,1-0.3v-0.1c-0.2-0.6,0.9-0.1,1.3-0.2c0.1,0,0.1,0,0.1-0.1s-0.1-0.4-0.1-0.4
						c0.1-0.4,0.6-0.3,0.8-0.3c0.2,0.7,0.8,1.5,1.5,1.3c0.1,0,0.1-0.1,0.1-0.1C282.2,269.7,281.6,269.2,281,268.8z M281.2,269.4
						l-0.1-0.2c0.2,0.1,0.3,0.3,0.5,0.4C281.8,270.1,281.3,269.5,281.2,269.4L281.2,269.4z"/>
					<path d="M274.8,282.3c-0.3-0.3-0.7-0.6-1.1-0.7l-0.5-0.3c-0.2-0.4-0.6-1-0.1-1.1c0.3,0,0.8,0.2,1,0.3s0.1-0.2,0-0.2
						c-0.5-0.2-1.4-0.8-1.6,0c0,0.3,0,0.5,0.1,0.8c-0.2-0.1-0.5-0.1-0.7-0.1s-0.4,0-0.5,0.3s0,0.2,0,0.3c0,0.1,0.1,0.2,0.2,0.2h-0.2
						c-0.3,0-1.3-0.2-1.5,0.2c-0.1,0.2,0.1,0.4,0.1,0.5s-0.7,0.3-0.8,0.3s0,0.2,0,0.2c-0.3,0-0.7,0-1,0c-0.5,0-1.9-0.2-1.7,0.7
						c0,0.1,0.1,0.1,0.1,0.2s0,0.1,0,0.2c0,0-0.1,0-0.1,0.1s-0.2,0-0.3,0.1c-0.2,0.3,0.1,0.4-0.2,0.6s-1.4-0.3-1.8,0
						s0.1,1.1-0.6,1.1c-0.2,0-0.1,0.2,0,0.2c0.7,0.1,0.6-0.1,0.7-0.6c0.2-0.9,1.5-0.3,2.3-0.5c0.1,0,0.1-0.1,0-0.2
						c-0.2-0.3,0-0.5,0.3-0.6c0.1,0,0.1-0.1,0.1-0.2l0,0c-0.1-0.1-0.4-0.6-0.2-0.8c0.3-0.1,0.5-0.1,0.8-0.1c0.6,0,1.2,0,1.7,0
						c0.1,0,0.1-0.1,0.1-0.1l0,0c-0.1-0.2,0.7-0.3,0.8-0.3c0.1,0,0.1-0.1,0.1-0.1l0,0c-0.4-0.9,1-0.6,1.5-0.5c0.1,0,0.1,0,0.2-0.1
						c0,0,0,0,0-0.1c-0.1-0.3-0.8-0.6,0-0.7c0.2,0,0.4,0.1,0.6,0.1c0.3,0.6,0.8,1.1,1.4,1.4C274.7,283.1,275.2,282.9,274.8,282.3z
						 M274.6,282.5c0.2,0.2-0.4,0-0.4,0c-0.3-0.2-0.5-0.4-0.7-0.7c0.1,0.1,0.3,0.1,0.4,0.2C274.1,282,274.4,282.2,274.6,282.5z"/>
					<path d="M281.4,276.1c-0.1-0.4-0.1-0.8,0.2-0.9c0.2,0,0-0.2-0.1-0.3c-0.5,0-0.6,0.4-0.6,0.9c-0.2-0.1-0.4-0.2-0.6-0.2
						c-0.3-0.1-0.5-0.1-0.6,0.3s0.1,0.3,0.1,0.5s0.2,0.1-0.1,0.2c-0.1,0-0.3,0-0.4,0c-0.2-0.1-0.5,0-0.7,0.2s0.4,0.3-0.4,0.2
						c-0.2-0.1-0.4-0.1-0.5-0.1c-0.3,0.1-0.4,0.1-0.4,0.4c0,0.1,0.3,0.3,0.3,0.4c0,0.6-0.7,0.1-0.9,0c-0.1,0-0.1,0-0.2,0.1l0,0
						c0,0.3,0.2,0.4-0.2,0.4c-0.2-0.1-0.3-0.1-0.5-0.2c-0.3,0-0.5,0.4-0.9,0.3c-0.1,0-0.1,0.1-0.1,0.2c0.1,0.3,0.2,0.4-0.3,0.7
						l-0.7-0.1c-0.1,0,0,0.3,0.1,0.3s1.1,0.4,1.4,0s-0.2-0.5-0.1-0.7c-0.1,0.1,0.5-0.1,0.6-0.2s0.3-0.1,0.4-0.1s0.1,0.1,0.2,0.1
						s0.2,0.1,0.3,0s0.1-0.2,0.2-0.2s-0.1-0.1,0.1-0.2s0.3,0.1,0.4,0.1s0.5,0.2,0.7,0s-0.2-0.5-0.2-0.7c0.1-0.4,0.7-0.1,1-0.3v-0.1
						c-0.2-0.6,0.9-0.1,1.3-0.2c0.1,0,0.1,0,0.1-0.1s-0.1-0.4-0.1-0.4c0.1-0.4,0.6-0.3,0.8-0.3c0.2,0.7,0.8,1.5,1.5,1.3l0.1-0.1
						C282.5,276.9,282,276.4,281.4,276.1z M281.6,276.7l-0.1-0.2c0.2,0.1,0.3,0.3,0.5,0.4C282.1,277.3,281.6,276.8,281.6,276.7
						L281.6,276.7z"/>
					<path d="M288.9,271v-0.1c-0.1-0.4-0.5-0.1-0.6,0.1s0.1,0.3,0.1,0.5s0.2,0.1-0.1,0.2c-0.1,0-0.3,0-0.4,0c-0.4,0-0.4,0-0.6,0.2
						s0.4,0.3-0.4,0.2c-0.2-0.1-0.4-0.1-0.5-0.1c-0.3,0.1-0.4,0.1-0.4,0.4c0,0.1,0.3,0.3,0.3,0.4c0,0.6-0.7,0.1-0.9,0
						c-0.1,0-0.1,0-0.1,0s0,0,0,0.1c0,0.3,0.2,0.4-0.2,0.4c-0.1,0-0.4-0.2-0.5-0.2c-0.3,0-0.5,0.4-0.9,0.3c-0.1,0-0.1,0.1-0.1,0.2
						c0.1,0.3,0.3,0.5-0.3,0.7l-0.7-0.1c0,0,0,0.3,0.1,0.3s1.1,0.4,1.4,0s-0.2-0.5-0.1-0.7c-0.1,0.1,0.5-0.2,0.6-0.2
						c0.1-0.1,0.3-0.1,0.4-0.1s0.1,0.1,0.2,0.1s0.2,0,0.3,0s0.1-0.2,0.2-0.2s-0.1-0.1,0.1-0.2s0.3,0.1,0.4,0.1s0.5,0.2,0.7,0
						s-0.2-0.5-0.1-0.7c0.1-0.4,0.7-0.1,1-0.3c0,0,0.1-0.1,0-0.1c-0.2-0.6,0.9-0.1,1.3-0.2c0.1,0,0.1,0,0.1-0.1
						c-0.1-0.3-0.1-0.5,0-0.8C288.8,271.1,288.8,271.1,288.9,271z"/>
				</g>
			</g>
		</g>
		<g id="freepik--arm--inject-95_00000160911936533017127310000013441609489728849028_">
			<path class="st23" d="M251,268.3l3.2,7.4c0.1,0.1,0,0.3-0.1,0.3s-0.1,0-0.2,0l-7.1-4L251,268.3z"/>
			<path class="st11" d="M253.8,276c0.1,0.1,0.3,0,0.3-0.1s0-0.1,0-0.2l-0.6-1.4l0,0c-0.2,0.5-0.6,0.8-1.1,0.9h-0.1L253.8,276z"/>
			<path class="st12" d="M223.9,246.9l0.5,0.6l0.6,0.7l21.7,24c0.9,0.1,1.8-0.2,2.5-0.8c1-0.7,1.7-1.8,1.7-3l-21.7-24l-1.2-1.3
				C228.8,243.9,224.6,247.7,223.9,246.9z"/>
			<path class="st4" d="M225.8,249l1.1,1.2c0.3,0.4,1.3-0.1,2.2-0.8c1.3-0.9,2.4-2.5,1.9-3l-0.8-0.9l-0.3-0.3c0.4,0.5-0.7,2.1-1.9,3
				C227.1,248.9,226.2,249.3,225.8,249L225.8,249L225.8,249z"/>
			<path class="st12" d="M226.1,249.3c0.7,0.9,4.9-3,4.2-3.8l-1.1-1.2c0.7,0.9-3.4,4.7-4.2,3.8L226.1,249.3z"/>
			<path class="st4" d="M223.9,246.9l1.1,1.2c0.7,0.9,4.8-2.8,4.2-3.7c0,0,0,0,0-0.1l-1.1-1.2C228.8,243.9,224.6,247.7,223.9,246.9z
				"/>
			<path class="st19" d="M254.1,276l0.1-0.3l-4.3-4.9l-23-25.4c0.1-0.1,0.1-0.1,0-0.1c-1.1,1.1-2.6,2.1-3,1.6l0.5,0.6l0.6,0.7
				l21.7,24l0,0l7.1,4C253.8,276.1,254,276.1,254.1,276z"/>
			<path class="st25" d="M219.2,241.7l4.7,5.2c0.3,0.4,1.3-0.1,2.2-0.8c1.3-0.9,2.4-2.5,2-3l0,0l-4.7-5.2c-0.9-1-3.3,0.6-4.1,2.2
				C219,240.5,218.9,241.2,219.2,241.7z"/>
			<path class="st17" d="M221.1,241.6c1.2-0.6,2.1-1.7,2.4-3.1c0-0.3-0.1-0.6-0.3-0.9c-1-0.7-3.1,0.8-4,2.3
				c-0.3,0.5-0.4,1.1-0.1,1.6C219.6,242,220.3,242.1,221.1,241.6z"/>
			<path class="st22" d="M236.5,252.3c2.1,0.1,3.1,1,4.3,2.4c1.2,1.4,3.4,2.1,3.3,2.9s-1.4,1.6-1.4,1.6L236.5,252.3z"/>
			<g id="freepik--arm--inject-95">
				<path class="st18" d="M227.4,274.6c6.3,0.4,8.5-1.4,10.7-2.9c0.6-0.4,1.3-0.9,1.9-1.3c0.5-0.4,1-0.7,1.6-0.9
					c0.5-0.1,1-0.1,1.5-0.3c1.2-0.3,2.1-1.2,2.6-2.3c0.1-0.2,0.2-0.5,0.3-0.7s0.3-0.4,0.5-0.5c0.3,0,0.5,0,0.7,0.1
					c0.8,0.4,1.7,0.7,2.7,0.9c0.7,0.1,1.4,0.1,2.1-0.1c0.5-0.1,1.6-0.7,0.9-1.4c-0.8-0.9-1.6-1.8-2.2-2.4c-3.5-3.1-6.8-4.4-11.2-6.1
					c-2-0.8-4.9-1.6-6.9-2.3c-0.9-0.3-1.8-0.8-2.6-1.1l-1.4-1.6c-1.2-0.2-2.4-0.1-3.5,0.2c-2,0.4-4.1,0.7-6.2,0.9
					c-4.5-0.2-5.6-1.2-10.5-2.9c-8.5-3-28.3-13-28.3-13l4-39c3.1-12.2,0.6-31.2-3.4-35.7c-6.9,1.5-12.2,3.8-17,9.4
					c-3.3,3.9-5,8.9-6.3,18c-1.7,12.6-4.1,40.8-4.3,53.4s2.8,13.5,13.7,17c1.6,0.5,3.1,0.9,4.7,1.3c6.2,1.6,12.4,3,18.6,4.3
					c7.4,1.6,13.9,2.9,21.3,4.3C214.5,270.7,223.8,274.4,227.4,274.6z"/>
			</g>
			<path class="st22" d="M180,237.1c-5.3-2.1-12.3-1.5-12.3-1.5c4.1-1.2,8.3-1.5,12.5-0.8L180,237.1z"/>
		</g>
	</g>
</g>
<g id="freepik--Backpack--inject-95">
	<g id="freepik--backpack--inject-95">
		<path class="st12" d="M102.4,292.4c-7.7-0.6-19.8,7.1-22.9,12.9c-3.2,6.1-18.3,90.5-12.3,98.8c7.6,10.5,46.9,32.4,64.7,32.8
			c10.3,0.2,20-4.8,25.9-13.2c4-6.2,4.6-93.9,0.4-101.6C151.4,309.7,112.2,293.1,102.4,292.4z"/>
		<path class="st26" d="M102.4,292.4c-7.7-0.6-19.8,7.1-22.9,12.9c-3.2,6.1-18.3,90.5-12.3,98.8c7.6,10.5,46.9,32.4,64.7,32.8
			c10.3,0.2,20-4.8,25.9-13.2c4-6.2,4.6-93.9,0.4-101.6C151.4,309.7,112.2,293.1,102.4,292.4z"/>
		<path class="st17" d="M161.2,366.8c0-3.7,0-7.3-0.1-10.8c0-1.4,0-2.8-0.1-4.1c-0.1-2.7-0.1-5.4-0.2-7.9c0-1.2-0.1-2.5-0.2-3.6
			c-0.1-1.8-0.2-3.4-0.3-5s-0.2-3-0.4-4.4c0-0.5-0.1-0.9-0.1-1.3c-0.4-3.8-0.9-6.5-1.5-7.5c-0.2-0.4-0.4-0.7-0.7-1.1l-0.2-0.4
			c-0.2-0.2-0.4-0.5-0.6-0.7s-0.2-0.3-0.3-0.4l-0.6-0.7l-0.4-0.4c-0.3-0.3-0.6-0.6-1-1l-0.7-0.6l-0.5-0.4c-0.3-0.2-0.5-0.5-0.8-0.7
			l-0.4-0.3l-0.9-0.8c-7.1,2.5-7.9,2.1-8.1,2.2c-0.4,0.2-7.7,4.1-8,14.8l-2.5,43.4l-0.2,4.1c-0.2,5.8-8.3,58.6,8.1,56.5l0.6-0.1
			c11.2-3.2,14.9-9,16.8-12c0.5-0.9,0.7-1.9,0.9-2.9c0.1-0.6,0.2-1.2,0.3-1.9c0-0.3,0.1-0.7,0.1-1.1c0.1-1.1,0.3-2.4,0.4-3.8
			c0-0.5,0.1-0.9,0.1-1.4c0.6-7.3,1.1-17.4,1.2-28.2c0-2.2,0.1-4.4,0.1-6.6c0-1.5,0-3,0-4.4v-2.2
			C161.2,369.7,161.2,368.3,161.2,366.8z"/>
		<path class="st27" d="M159.4,327c-0.1-1.7-0.5-3.3-1.2-4.9c-6.8-12.4-46.1-29-55.8-29.7c-7.7-0.6-19.8,7.1-22.9,12.9
			c-1,2.5-1.7,5.1-2.2,7.7c14.9,9,53.5,29.5,57.7,28.2C140.1,339.6,158.9,327.7,159.4,327L159.4,327z"/>
		<path class="st12" d="M114.3,389.1c-7.9-4.3-25.5-15.6-30.4-18.2c-2.3-1.2-4.3-1.1-5.6-0.3c-0.8,0.5-3.3,2.1-4,2.5
			c-1.1,0.6-1.8,1.7-1.9,3c-0.6,9.2-1.1,13-0.9,17.4c0.1,3,0.5,5.8,4.8,9.2s22.8,14.7,28.3,17.8c5.2,2.9,10.8,5.1,13.2,3.5
			c0.6-0.4,3.4-2,4.2-2.5c0.8-0.6,1.2-1.5,1.2-2.5c0.2-4.7,0.9-14.7,1.1-18.1C124.6,396.5,122.7,393.7,114.3,389.1z"/>
		<path class="st28" d="M114.3,389.1c-7.9-4.3-25.5-15.6-30.4-18.2c-2.3-1.2-4.3-1.1-5.6-0.3c-0.8,0.5-3.3,2.1-4,2.5
			c-1.1,0.6-1.8,1.7-1.9,3c-0.6,9.2-1.1,13-0.9,17.4c0.1,3,0.5,5.8,4.8,9.2s22.8,14.7,28.3,17.8c5.2,2.9,10.8,5.1,13.2,3.5
			c0.6-0.4,3.4-2,4.2-2.5c0.8-0.6,1.2-1.5,1.2-2.5c0.2-4.7,0.9-14.7,1.1-18.1C124.6,396.5,122.7,393.7,114.3,389.1z"/>
		<path class="st27" d="M119.6,399.4l4.2-2.4c-1-2.5-3.7-4.8-9.4-7.9c-7.9-4.3-25.5-15.6-30.4-18.2c-2.3-1.2-4.3-1.1-5.6-0.3
			c-0.8,0.5-3.3,2.1-4,2.5c-0.8,0.5-1.4,1.2-1.7,2.1L119.6,399.4z"/>
		<path class="st12" d="M72.5,376c-0.6,9.2-1.1,13-0.9,17.4c0.1,3,0.5,5.8,4.8,9.2s22.8,14.7,28.3,17.8c6.8,3.7,14.2,6.4,14.4,1
			c0.2-4.7,0.9-14.7,1.1-18.1c0.3-4.2-1.6-7.1-10-11.6c-7.9-4.3-25.5-15.6-30.4-18.2C75.7,371.2,72.7,373.3,72.5,376z"/>
		<path class="st29" d="M72.5,376c-0.6,9.2-1.1,13-0.9,17.4c0.1,3,0.5,5.8,4.8,9.2s22.8,14.7,28.3,17.8c6.8,3.7,14.2,6.4,14.4,1
			c0.2-4.7,0.9-14.7,1.1-18.1c0.3-4.2-1.6-7.1-10-11.6c-7.9-4.3-25.5-15.6-30.4-18.2C75.7,371.2,72.7,373.3,72.5,376z"/>
		<path class="st12" d="M123.8,397.1c-0.8-2.4-4.8-0.8-5.8,2.4s-0.9,7.4-1.4,8.8s-43.9-24.5-45.1-26c-0.5-0.7,0.1-8.4,1.7-9.8
			s5.3-3.8,7.7-3.3s28.8,16.4,33.9,19.2S124.1,394.1,123.8,397.1z"/>
		<path class="st17" d="M123.8,397.1c-0.8-2.4-4.8-0.8-5.8,2.4s-0.9,7.4-1.4,8.8s-43.9-24.5-45.1-26c-0.5-0.7,0.1-8.4,1.7-9.8
			s5.3-3.8,7.7-3.3s28.8,16.4,33.9,19.2S124.1,394.1,123.8,397.1z"/>
		<path class="st9" d="M103.2,405.2l5.2,2.9c0.5,0.3,1.1,0.1,1.4-0.4c0-0.1,0.1-0.2,0.1-0.3l0.7-2.7c0.1-0.6-0.1-1.2-0.7-1.6l-5.2-3
			c-0.4-0.3-1-0.2-1.3,0.3c-0.1,0.1-0.1,0.2-0.1,0.4l-0.7,2.8C102.3,404.2,102.6,404.8,103.2,405.2z"/>
		<path class="st9" d="M77.3,389.7l5.2,2.9c0.5,0.3,1.1,0.1,1.4-0.3c0.1-0.1,0.1-0.2,0.1-0.3l0.7-2.7c0.1-0.6-0.1-1.2-0.7-1.6
			l-5.3-3c-0.4-0.3-1-0.2-1.3,0.3c-0.1,0.1-0.1,0.2-0.1,0.4l-0.7,2.8C76.5,388.7,76.7,389.3,77.3,389.7z"/>
		<path class="st19" d="M70.2,351.9c1-6.7,1.6-11.2,2.7-16.8c2.2-1.5,5.2-3.5,5.2-3.5l18.8,6.6l17.5,6.2l4,1.4
			c1.2,0.4,2.5,1.2,3.7,1.6c3.2,0.9,8-1.7,10.4-3.6s3.9-3.6,7-4.2c-0.4,6.1-0.9,12.1-1.5,18.2c-0.5,5.7-0.6,11.5-2.6,16.9
			c-1,2.8-3.3,4.9-6.2,5.7c-3.4,0.7-6.9,0.6-10.2-0.1c0,0-0.5,5.1-1.1,7.6c-0.8,2.2-4.1,4.1-4.6,3.9c-3-0.8-3-14.6-3-14.6l-22-12.2
			c0,0-0.8,5-1.5,7.4c-1.2,1.9-3.6,4-4.5,3.8c-3.7-1-2.1-15.9-2.1-15.9S73.5,356.6,70.2,351.9z"/>
		<path class="st12" d="M101.6,292.3c-8.4-0.5-18,4.4-22.8,10.8s-10.9,38.5-8.2,44.4s25.7,19.5,39.6,26.1
			c11.1,5.4,16.9,4.1,21.4,1.9c3.4-1.7,3.5-7.1,3.9-11.1c1.1-10.4,2.6-29,9.3-34.7s13-7.4,14.6-2.7c0,0,2.3-6.8-10.3-14.3
			C128.3,300.3,112,293,101.6,292.3z"/>
		<path class="st17" d="M101.6,292.3c-8.4-0.5-18,4.4-22.8,10.8s-10.9,38.5-8.2,44.4s25.7,19.5,39.6,26.1
			c11.1,5.4,16.9,4.1,21.4,1.9c3.4-1.7,3.5-7.1,3.9-11.1c1.1-10.4,2.6-29,9.3-34.7s13-7.4,14.6-2.7c0,0,2.3-6.8-10.3-14.3
			C128.3,300.3,112,293,101.6,292.3z"/>
		<path class="st0" d="M96,322.2l8-4.5c0.8-0.5,1.9-0.2,2.3,0.6l8.2,14.2c0.5,0.8,0.2,1.9-0.6,2.3l-7.9,4.6
			c-0.8,0.5-1.9,0.2-2.3-0.6l0,0l-8.3-14.3C94.9,323.7,95.2,322.7,96,322.2L96,322.2z"/>
		<path class="st9" d="M104.5,337.8l-7.9-13.6c-0.2-0.4-0.1-0.9,0.3-1.2l0,0l7.2-4.1c0.4-0.2,0.9-0.1,1.2,0.3l7.8,13.5
			c0.2,0.4,0.1,0.9-0.3,1.2l0,0l-7.2,4.2C105.3,338.4,104.8,338.2,104.5,337.8z"/>
		<path class="st12" d="M102.8,331.4L102.8,331.4c-0.4-0.3-0.7-0.7-0.8-1.2v-6.5c0-0.4,0.3-0.6,0.8-0.3l0,0c0.4,0.3,0.7,0.7,0.8,1.2
			v6.5C103.6,331.5,103.3,331.6,102.8,331.4z"/>
		<path class="st12" d="M107.1,333.8L107.1,333.8c-0.4-0.3-0.7-0.7-0.8-1.2v-6.5c0-0.4,0.3-0.6,0.8-0.3l0,0c0.4,0.3,0.7,0.7,0.8,1.2
			v6.5C107.8,333.9,107.5,334,107.1,333.8z"/>
		<path class="st8" d="M111.8,356.1l7.3,3.3c0,0-2.3,18.2-2.9,27.2c0,0-2,3.8-3.7,4.3s-3.6-3.9-3.7-7.2S110.5,363.8,111.8,356.1z"/>
		<path class="st9" d="M111.5,357.8l7.5,3.2c0.6,0.3,1.4,0.1,1.8-0.6c0.1-0.2,0.1-0.3,0.1-0.5l0.5-3.7c0.1-0.8-0.4-1.6-1.1-2
			l-7.5-3.2c-0.6-0.3-1.4-0.1-1.7,0.5c-0.1,0.2-0.1,0.3-0.1,0.5l-0.5,3.9C110.3,356.7,110.8,357.5,111.5,357.8z"/>
		<path class="st2" d="M112.8,380.1c1.2,0.7,1.9,1.9,1.9,3.3c0.1,0.8-0.5,1.5-1.4,1.6c-0.3,0-0.6,0-0.8-0.2c-1.2-0.7-2-1.9-1.9-3.3
			C110.7,380.2,111.7,379.5,112.8,380.1z"/>
		<path class="st8" d="M81.5,340.8l7.2,3.7c0,0-2.1,18-3.1,26.9c0,0-2.2,3.6-3.9,4.1s-3.3-4.1-3.3-7.4S79.8,348.4,81.5,340.8z"/>
		<path class="st9" d="M81.1,342.5l7.3,3.5c0.6,0.4,1.4,0.1,1.8-0.5c0.1-0.2,0.1-0.3,0.2-0.5l0.7-3.6c0.1-0.8-0.3-1.7-1-2.1
			l-7.3-3.6c-0.6-0.4-1.4-0.2-1.8,0.5c-0.1,0.2-0.1,0.3-0.2,0.5l-0.8,3.9C79.9,341.3,80.3,342.1,81.1,342.5z"/>
		<path class="st2" d="M82.4,364.7c1.2,0.7,1.8,2.1,1.7,3.4c0,0.8-0.6,1.5-1.4,1.5c-0.3,0-0.6-0.1-0.8-0.2c-1.2-0.7-1.9-2.1-1.7-3.5
			C80.2,364.7,81.3,364.1,82.4,364.7z"/>
		<path class="st12" d="M167,386.4c-0.4-0.3-6.9-5.7-7.7-6.1c-1.3-0.8-22.1,11.7-24,13.9c-1.4,1.5-0.7,26.3,0,28.1
			c0.2,0.6,7.4,5.5,7.7,6.1c0.7,1.8,22.5-10.8,24-14.1S169,387.6,167,386.4z"/>
		<path class="st29" d="M167,386.4c-0.4-0.3-6.9-5.7-7.7-6.1c-1.3-0.8-22.1,11.7-24,13.9c-1.4,1.5-0.7,26.3,0,28.1
			c0.2,0.6,7.4,5.5,7.7,6.1c0.7,1.8,22.5-10.8,24-14.1S169,387.6,167,386.4z"/>
		<path class="st12" d="M143,400.3c-1.4,1.5-0.7,26.3,0,28.1s22.5-10.8,24-14.1s2-26.8,0-27.9C165.7,385.6,145,398.1,143,400.3z"/>
		<path class="st27" d="M159.4,380.3c0.8,0.4,7.2,5.9,7.7,6.1c-1.3-0.8-22,11.7-24,13.9l-7.7-6.1C137.3,392,158,379.5,159.4,380.3z"
			/>
		<path class="st28" d="M143,400.3c-1.4,1.5-0.7,26.3,0,28.1s22.5-10.8,24-14.1s2-26.8,0-27.9C165.7,385.6,145,398.1,143,400.3z"/>
		<path class="st12" d="M135.4,394.2c1.5-0.9,5.9,1.7,7.7,3.5s3.5,9.6,8.4,11.1s12.2-4.7,13.9-8.8s3.9-12.9,1.7-16.1
			s-6.3-5.2-10-3.5S136,390.3,135.4,394.2z"/>
		<path class="st5" d="M135.4,394.2c1.5-0.9,5.9,1.7,7.7,3.5s3.5,9.6,8.4,11.1s12.2-4.7,13.9-8.8s3.9-12.9,1.7-16.1s-6.3-5.2-10-3.5
			S136,390.3,135.4,394.2z"/>
		<path class="st9" d="M157.5,398.8c-1.2,0.7-1.9,2-1.9,3.3c-0.1,0.8,0.6,1.5,1.4,1.6c0.3,0,0.6,0,0.8-0.2c1.2-0.6,2-1.9,1.9-3.3
			C159.6,398.9,158.6,398.2,157.5,398.8z"/>
		<path class="st8" d="M135.1,313c1.2,0.7,4.8-1,5.3-1.9s0.7-8.5-2-12.7s-19.2-12-23.3-11.4c-3.1,0.5-5.9,2.3-7.6,4.9
			c-0.5,1.1-1.1,8.2,0,9.6s4.9-0.8,5.2-1.4s-1.2-5.8,1.4-6.9c2.4-1,14,3.9,18.7,7.9c2,1.7,1.9,6,1.9,8.1S134.5,312.6,135.1,313z"/>
		<path class="st9" d="M115.1,293c-2.9-0.3-5.7,0-6.4,2.9s-0.4,5.6,0,6c1.5-0.2,2.9-0.8,4-1.9c0.3-0.6-1.2-5.8,1.4-6.9
			C114.4,293.1,114.8,293,115.1,293L115.1,293z"/>
	</g>
</g>
</svg>
