<?xml version="1.0" encoding="utf-8"?>
<!-- Generator: Adobe Illustrator 26.0.3, SVG Export Plug-In . SVG Version: 6.00 Build 0)  -->
<svg version="1.1" id="Layer_1" xmlns="http://www.w3.org/2000/svg" xmlns:xlink="http://www.w3.org/1999/xlink" x="0px" y="0px"
	 viewBox="0 0 500 500" style="enable-background:new 0 0 500 500;" xml:space="preserve">
<style type="text/css">
	.st0{fill:#F5F5F5;}
	.st1{fill:#E0E0E0;}
	.st2{fill:#FFFFFF;}
	.st3{fill:#EBEBEB;}
	.st4{fill:#FAFAFA;}
	.st5{fill:#C8856A;}
	.st6{fill:#AF6152;}
	.st7{fill:#263238;}
	.st8{fill:#455A64;}
	.st9{fill:#003366;}
	.st10{opacity:0.1;enable-background:new    ;}
	.st11{fill:#F0997A;}
	.st12{fill:#37474F;}
	.st13{fill:#B16668;}
	.st14{fill:#FFA8A7;}
	.st15{opacity:0.3;enable-background:new    ;}
	.st16{opacity:0.3;fill:#FFFFFF;enable-background:new    ;}
	.st17{opacity:0.25;enable-background:new    ;}
	.st18{fill:#F0F0F0;}
	.st19{opacity:0.15;enable-background:new    ;}
	.st20{opacity:0.4;fill:#FFFFFF;enable-background:new    ;}
	.st21{opacity:0.2;fill:#FFFFFF;enable-background:new    ;}
	.st22{opacity:0.4;enable-background:new    ;}
	.st23{opacity:0.2;enable-background:new    ;}
	.st24{opacity:0.3;}
</style>
<g id="freepik--background-complete--inject-47">
	<path class="st0" d="M385.5,467c-1.4-1.2-4.6-5.1-2.2-9.7c0.9-1.7,2.8-2.5,4.6-3.2c1.8-0.6,3.5-1.5,5-2.6c2.7-2.3,3.5-6.2,5.3-9.2
		c2.1-3.5,5.9-6.2,10-6c4.7,0.2,8.6,4,10.4,8.4s1.8,9.2,1.9,13.9c0,2.6-0.1,5.5-2,7.3s-4.4,1.6-6.8,1.6l-25.6-0.8"/>
	<path class="st1" d="M434.5,396.7h-67.3l12.1,72.3c0.5,3.1,2.7,5.6,5.7,6.4l0.2,0.1c0.2,0,0.4,0.1,0.6,0.2c0.5,0.1,0.9,0.1,1.4,0.2
		v0.1h0.3h30c0.6,0,1.1-0.1,1.6-0.2c3.6-0.6,6.4-3.4,6.8-7.1l5.9-49.8l0.3-2l0,0l2.3-19.7L434.5,396.7z M421.8,442.8h-6.9l0.7-21h8
		L421.8,442.8z M424.2,421.8h6.6l-2.5,21h-5.9L424.2,421.8z M404.5,466l-0.4-18.2h9.9l-0.6,18.2H404.5z M393.8,447.8h9.7l0.4,18.2
		h-8.7L393.8,447.8z M394.5,466h-8.1l-2.9-18.2h9.5L394.5,466z M393.4,442.8l-1.6-21h11.1l0.5,21H393.4z M404,442.8l-0.5-21h11.4
		l-0.7,21H404z M403.4,416.8l-0.4-19.4h12.8l-0.6,19.4H403.4z M402.7,416.8h-11.3l-1.5-19.4h12.4L402.7,416.8z M390.7,416.8h-12
		c-0.4-2.7-0.8-5.2-1.2-7.5c-1.2-7.9-1.7-10.8-2-11.9h13.7L390.7,416.8z M391.1,421.8l1.6,21h-10c-0.3-2.1-0.7-4.3-1-6.4
		c-0.8-5-1.6-9.9-2.3-14.5L391.1,421.8z M382.1,442.8h-6.5l-3.5-21h6.7C379.8,428.3,381,435.5,382.1,442.8z M382.9,447.8
		c1,6.3,2,12.5,2.9,18.2h-6.2l-3.1-18.2H382.9z M414.1,466l0.6-18.2h6.7l-1.5,18.2H414.1z M415.7,416.8l0.6-19.4h9.3l-1.7,19.4
		H415.7z M374.9,397.3c0.3,1.4,1.5,9,3.1,19.4h-6.8l-3.3-19.4H374.9z M425.7,466h-5.2l1.5-18.2h5.8L425.7,466z M431.5,416.8h-6.8
		l1.7-19.4h7.4L431.5,416.8z"/>
	<rect x="328.7" y="59.8" class="st1" width="127.2" height="201"/>
	<rect x="332.1" y="63.6" class="st0" width="119.9" height="193.9"/>
	<rect x="392.1" y="74.9" class="st2" width="47.8" height="74.2"/>
	<path class="st1" d="M418.5,81.5c0,1-0.8,1.8-1.8,1.8s-1.8-0.8-1.8-1.8s0.8-1.8,1.8-1.8S418.5,80.5,418.5,81.5L418.5,81.5z"/>
	<rect x="343.9" y="169.7" class="st2" width="47.8" height="74.2"/>
	<path class="st1" d="M370.4,176.3c0,1-0.8,1.8-1.8,1.8s-1.8-0.8-1.8-1.8s0.8-1.8,1.8-1.8l0,0C369.6,174.5,370.4,175.3,370.4,176.3z
		"/>
	<rect x="343.2" y="74.9" class="st2" width="40.8" height="57.9"/>
	<path class="st1" d="M365.1,80.2c0,0.8-0.7,1.5-1.5,1.5s-1.5-0.7-1.5-1.5s0.7-1.5,1.5-1.5S365.1,79.4,365.1,80.2L365.1,80.2z"/>
	
		<rect x="399" y="173.1" transform="matrix(0.9937 -0.1122 0.1122 0.9937 -18.1253 48.4006)" class="st2" width="43.9" height="24.3"/>
	<path class="st1" d="M421.6,177.8c0,0.8-0.7,1.5-1.5,1.5s-1.5-0.7-1.5-1.5s0.7-1.5,1.5-1.5l0,0C420.9,176.3,421.6,177,421.6,177.8z
		"/>
	<path class="st1" d="M385.3,186.6c0,0.2-7.5,0.4-16.8,0.4s-16.8-0.2-16.8-0.4s7.5-0.4,16.8-0.4S385.3,186.5,385.3,186.6z"/>
	<path class="st1" d="M385.3,192c0,0.2-7.5,0.4-16.8,0.4s-16.8-0.2-16.8-0.4s7.5-0.4,16.8-0.4S385.3,191.8,385.3,192z"/>
	<path class="st1" d="M385.3,197.3c0,0.2-7.5,0.4-16.8,0.4s-16.8-0.2-16.8-0.4s7.5-0.4,16.8-0.4S385.3,197.1,385.3,197.3z"/>
	<path class="st1" d="M385.3,202.6c0,0.2-7.5,0.4-16.8,0.4s-16.8-0.2-16.8-0.4s7.5-0.4,16.8-0.4S385.3,202.4,385.3,202.6z"/>
	<path class="st1" d="M385.3,207.9c0,0.2-7.5,0.4-16.8,0.4s-16.8-0.2-16.8-0.4s7.5-0.4,16.8-0.4S385.3,207.7,385.3,207.9z"/>
	<path class="st1" d="M385.3,213.2c0,0.2-7.5,0.4-16.8,0.4s-16.8-0.2-16.8-0.4s7.5-0.4,16.8-0.4S385.3,213,385.3,213.2z"/>
	<path class="st1" d="M385.3,218.5c0,0.2-7.5,0.4-16.8,0.4s-16.8-0.2-16.8-0.4s7.5-0.4,16.8-0.4S385.3,218.3,385.3,218.5z"/>
	<path class="st1" d="M437.4,181c0,0.2-7.4,1.4-16.5,2.7s-16.6,2.2-16.6,2s7.4-1.4,16.5-2.7S437.3,180.8,437.4,181z"/>
	<path class="st1" d="M438,184.3c0,0.2-7.4,1.4-16.5,2.7s-16.6,2.2-16.6,2s7.4-1.4,16.5-2.7S438,184.1,438,184.3z"/>
	<path class="st1" d="M438.6,187.3c0,0.2-7.4,1.4-16.5,2.7s-16.6,2.2-16.6,2s7.4-1.4,16.5-2.7S438.6,187.2,438.6,187.3z"/>
	<path class="st1" d="M435.6,90.4c0,0.2-8.5,0.3-18.9,0.3s-18.9-0.2-18.9-0.3s8.5-0.4,18.9-0.4S435.6,90.2,435.6,90.4z"/>
	<path class="st1" d="M435.6,93.6c0,0.2-8.5,0.4-18.9,0.4s-18.9-0.2-18.9-0.4s8.5-0.3,18.9-0.3S435.6,93.4,435.6,93.6z"/>
	<path class="st1" d="M435.6,96.7c0,0.2-8.5,0.3-18.9,0.3s-18.9-0.2-18.9-0.3s8.5-0.4,18.9-0.4S435.6,96.5,435.6,96.7z"/>
	<path class="st1" d="M435.6,99.9c0,0.2-8.5,0.4-18.9,0.4s-18.9-0.2-18.9-0.4s8.5-0.3,18.9-0.3S435.6,99.7,435.6,99.9z"/>
	<path class="st1" d="M435.6,103.1c0,0.2-8.5,0.3-18.9,0.3s-18.9-0.2-18.9-0.3s8.5-0.4,18.9-0.4S435.6,102.9,435.6,103.1z"/>
	<path class="st1" d="M435.6,106.2c0,0.2-8.5,0.4-18.9,0.4s-18.9-0.2-18.9-0.4s8.5-0.3,18.9-0.3S435.6,106,435.6,106.2z"/>
	<path class="st1" d="M435.6,109.4c0,0.2-8.5,0.3-18.9,0.3s-18.9-0.2-18.9-0.3s8.5-0.4,18.9-0.4S435.6,109.2,435.6,109.4z"/>
	<path class="st1" d="M435.6,118.7c0,0.2-8.5,0.4-18.9,0.4s-18.9-0.2-18.9-0.4s8.5-0.3,18.9-0.3S435.6,118.5,435.6,118.7z"/>
	<path class="st1" d="M435.9,122.1c0,0.2-8.5,0.4-18.9,0.4s-18.9-0.2-18.9-0.4s8.5-0.3,18.9-0.3S435.9,121.9,435.9,122.1z"/>
	<path class="st1" d="M436.2,125.4c0,0.2-8.5,0.3-18.9,0.3s-18.9-0.2-18.9-0.3s8.5-0.4,18.9-0.4S436.2,125.2,436.2,125.4z"/>
	<path class="st1" d="M436.4,128.7c0,0.2-8.5,0.4-18.9,0.4s-18.9-0.2-18.9-0.4s8.5-0.4,18.9-0.4S436.4,128.5,436.4,128.7z"/>
	<path class="st1" d="M436.7,132.1c0,0.2-8.5,0.4-18.9,0.4s-18.9-0.2-18.9-0.4s8.5-0.4,18.9-0.4S436.7,131.9,436.7,132.1z"/>
	<path class="st1" d="M437,135.4c0,0.2-8.5,0.4-18.9,0.4s-18.9-0.2-18.9-0.4s8.5-0.4,18.9-0.4S437,135.2,437,135.4z"/>
	<rect x="228.2" y="54.5" class="st1" width="17.6" height="422.8"/>
	<rect x="53.4" y="72.3" class="st3" width="174.8" height="404.9"/>
	<rect x="42.2" y="54.5" class="st1" width="16.2" height="422.8"/>
	<rect x="42.2" y="54.5" class="st1" width="203.6" height="17.8"/>
	<path class="st3" d="M245.8,54.5c0,0-0.2,0.3-0.6,0.7l-1.9,1.8l-6.3,5.9c-2.4,2.3-4.6,4.4-6.1,6.1c-0.6,0.6-1.2,1.3-1.7,2
		c-0.1,0.2-0.3,0.4-0.4,0.6c0,0.1,0,0.2-0.1,0.2c0-0.1,0-0.2,0-0.3c0.1-0.2,0.2-0.5,0.3-0.7c0.5-0.8,1-1.5,1.6-2.1
		c1.4-1.7,3.6-3.9,6-6.2s4.7-4.3,6.4-5.8c0.8-0.7,1.5-1.3,2-1.7C245.2,54.8,245.5,54.6,245.8,54.5z"/>
	<path class="st3" d="M58.4,72.7c-0.1,0.1-3.8-3.9-8.3-8.9s-8-9.2-7.9-9.3s3.8,3.9,8.3,8.9S58.4,72.6,58.4,72.7z"/>
	<path class="st1" d="M68.8,310.6L68.8,310.6c-3.2,0-5.9-2.6-5.9-5.9v-42.3c0-3.2,2.6-5.9,5.9-5.9l0,0c3.2,0,5.9,2.6,5.9,5.9v42.3
		C74.7,308,72.1,310.6,68.8,310.6L68.8,310.6z"/>
	<path class="st3" d="M71.2,297.4c0-1.1-0.9-2-2-2s-2,0.9-2,2c0,0.8,0.4,1.5,1.1,1.8v2.4c0,0.5,0.4,0.9,0.9,0.9l0,0
		c0.5,0,0.9-0.4,0.9-0.9v-2.4C70.8,298.8,71.2,298.1,71.2,297.4z"/>
	<path class="st1" d="M71.8,274.8h26c1.8,0,3.2,1.4,3.2,3.2v0.1c0,1.8-1.4,3.2-3.2,3.2h-26c-1.8,0-3.2-1.4-3.2-3.2V278
		C68.6,276.2,70.1,274.8,71.8,274.8z"/>
	<path class="st3" d="M80.4,281.4c-0.3,0.1-0.7,0.1-1,0.1l-2.7,0.1c-1.3,0.1-2.7,0-4-0.1c-0.8-0.1-1.6-0.3-2.3-0.6
		c-0.8-0.4-1.5-1-2-1.8c-0.5-0.9-0.5-1.9-0.1-2.8c0.2-0.4,0.5-0.8,0.9-1c0.3-0.2,0.7-0.4,1.1-0.5c1.3-0.4,2.6-0.5,4-0.5
		c1.1,0,2,0.1,2.7,0.1c0.3,0,0.7,0,1,0.1c-1.2,0.1-2.4,0.2-3.7,0.1c-1.3,0-2.6,0.2-3.9,0.6c-0.7,0.2-1.3,0.6-1.7,1.3
		c-0.3,0.7-0.3,1.6,0.1,2.3c0.4,0.7,1,1.2,1.8,1.6c0.7,0.3,1.4,0.5,2.2,0.6c1.3,0.2,2.6,0.3,3.9,0.2C78,281.2,79.2,281.3,80.4,281.4
		z"/>
	<rect x="81.3" y="96.4" class="st4" width="125.4" height="129.8"/>
</g>
<g id="freepik--character-3--inject-55">
	<g id="freepik--Character--inject-55">
		<g id="freepik--Bottom--inject-55">
			<path class="st5" d="M195.3,312.3c2.8-9.2,14.4-41.4,24.5-57.1l53.9,4.6l-33.3,53.4c5.3-1.1,16.6,2.3,16.6,2.3
				c9.8,2.3,28.2,8.9,36.1,9.5s7.5-2.3,14-1.3c4.8,0.7,7,6.7,7.5,11.9s5.8,10.4,8.7,14.1c2.9,3.7,2.7,9,0.6,13.5
				c-3.4,7.2-8.7,10.3-10.9,11.2c-3.8,1.4-5-3.1-5.1-8.2c-0.1-4.3-6.9-15.5-13.8-20c-4.2-0.7-8.5-1-12.8-1.1
				c-5.9,0-37.8,1.4-57.1,1.8c-20,0.4-24.6-4.6-28.3-8.9C192.3,333.9,192.3,322.1,195.3,312.3z"/>
			<path class="st6" d="M228.9,346.9h0.8h1.7h0.8h1.8h0.8l2.5-0.1h0.5l2.1-0.1h1.1h1.5h1.3l1.5-0.1h1.1l1.5-0.1h1.3l2.4-0.1
				c5.8-0.2,11.3-0.4,16.1-0.6c-7.2-8.9-12.3-9.9-12.3-9.9s5.5-7.7,11.8-17.1c-3.4-1-6.7-2-9.4-2.7L257,316c0,0-11.3-3.3-16.6-2.3
				l33.3-53.4l-49.2-4.6v0.3l-4.9-0.4c-0.8,1.3-1.6,2.7-2.5,4.1c-0.1,14.1,10,23.1,10,23.1s-8.8,24.3-12.2,36.4
				c-4.3,15.4-3.1,22.3,1.5,27.7c2.1,0.1,4.6,0.2,7.2,0.1h0.6h2.3h0.8L228.9,346.9z"/>
			<path class="st7" d="M311.6,323.4c2.6,0.2,2.6,0.7,4.2,4.3c1.7,3.6,0.6,8.6,2.5,11.2c1.9,2.5,7.7,9.3,9.2,12.6s3.6,8-1.7,16.7
				c-5.3,8.7-11.4,10.3-13,10.2c-1.6-0.1-4.1-5.3-4.1-5.3L311.6,323.4z"/>
			<path class="st8" d="M294.7,325.2c0.7,0,1.3,0,1.9-0.1c0,0,1.9,3.6,1.9,6.2c-0.2,2.4,0.7,4.7,2.6,6.2c-2.4-1-5.1-0.5-7.1,1.1
				c-2.1,2-4.6,5.6-4.2,7.1c0.4,1.4,3.6,0.1,6.6,2.5s9.7,13.4,10.1,15.8s-1.9,9.8,4.7,12.4c4.6-0.7,12.1-6.7,14.7-14.2
				s-0.2-10.6-5.2-17.4s-5.5-6.8-5.6-10.9c-0.3-3.8-1.5-7.6-3.6-10.8c-4.3-2.5-9.3-0.9-11.8,0C297.4,324.2,294.9,323.5,294.7,325.2z
				"/>
			<path class="st5" d="M221.2,255.4l61.8,5.3c1.3,9,1.1,19.7-2.7,29.6c-5.6,14.5-28,45.4-28,45.4s6.3,1.4,15.1,13.7
				c6.1,8.5,11.1,20.6,18.3,28c2.6,2.7,5.7,2.9,9.1,3.9c1.3,0.3,2.5,0.8,3.5,1.6c1.8,1.6,2.8,3.8,2.7,6.2c-0.1,2.3-0.3,4.7-0.8,7
				c-0.4,2.8-0.4,5.7,0.1,8.6c0.5,2.7,1.7,5.2,2.4,7.8c0.7,2.1,1,4.3,0.7,6.5c-0.3,1.3-0.8,2.4-1.4,3.5c-1.6,2.8-3.9,5.2-6.6,7
				c-1.4,0.8-2.9,1.6-4.5,2.2c-1.6,0.8-2.8,1.5-4.7,0.9c-2.3-0.8-3.7-3.3-3.1-5.7c0.5-1.6,1.3-3.1,1.5-4.8c0.2-4.7-0.4-9.5-1.9-14
				c-0.6-1.4-1.3-2.7-2-4c-1.3-2.4-2.4-5.3-4.3-7.3c-1.4-1.5-2.8-2.9-4.3-4.3c-7.8-7.4-16.5-13.8-24.7-20.7
				c-19.2-15.9-21.7-18.1-27.3-24.6c-4.7-5.5-5.9-12.3-1.6-27.9c3.4-12.1,12.2-36.4,12.2-36.4S218.6,272,221.2,255.4z"/>
			<path class="st6" d="M252.3,335.7l1.5,0.6c0.3,0.1,0.6,0.3,1,0.5l-5.7,3.3L252.3,335.7z"/>
			<path class="st7" d="M301.4,382.2c2.4,1.1,2.2,1.6,2.7,5.8c0.4,4.2-2.1,8.8-1.1,12s4.4,12,4.8,15.8s0.9,9.2-7,16
				c-7.8,6.8-14.1,6.1-15.6,5.5s-2.2-6.6-2.2-6.6L301.4,382.2z"/>
			<path class="st8" d="M285.6,377.3l0.9,1.3c0,0,0.7,4.2-0.2,6.9c-1,2.3-0.8,4.9,0.5,7.1c-1.9-1.8-4.7-2.3-7.1-1.3
				c-2.6,1.2-6.2,4-6.2,5.5c-0.1,1.6,3.4,1.4,5.5,4.9s5,16.7,4.6,19.3c-0.4,2.6-4.9,9.1,0.5,14c4.7,0.9,13.7-2.4,18.5-8.9
				s3.2-10.6,0.6-19.1s-3.1-8.6-1.9-12.7c1-3.9,1-8,0-12c-3.3-4-8.6-4.2-11.2-4.2S286.6,375.8,285.6,377.3z"/>
			<path class="st9" d="M222.8,248.9c-17.1,17.4-31.9,68.9-31.9,68.9s2.1,8,24.4,13.9c13.2,3.6,27.1,3.8,40.4,0.7
				c0,0,17.4-23.9,24.8-38.7s3.8-32.1,0.3-41.2L222.8,248.9z"/>
			<path class="st10" d="M243.3,279.2c-2.4-0.1-4.8-0.5-7.1-1.1c-4.5-1-8.5-3.2-11.7-6.6c-4.2-4.8-5.4-11.4-5.7-17.8
				c-15.3,20.6-27.8,64.1-27.8,64.1s2.1,7.9,23.8,13.8c1.3-7.9,4-15.5,7.8-22.6c5.6-10.4,17-19.5,26.1-26.8c0.9-0.7,1.8-2,1-2.8
				C247.5,279.4,245.4,279.4,243.3,279.2z"/>
		</g>
		<path class="st9" d="M314.3,254c0,0-3.7-14-15.1-35.9c-11.3-21.8-43.6-38.8-43.6-38.8h-6.2c0,0,34.4,22.2,44.4,41.1
			c6,11.4,10.6,23.5,13.7,36L314.3,254z"/>
		<g id="freepik--Top--inject-55">
			<path class="st7" d="M205.6,164.1c3.2-4.6,8.9-6.5,14.4-7.2c5.5-0.8,11.1-0.7,16.4-2.4c4.7-1.6,8.9-4.4,12-8.3
				c-0.1-1.2,0-2.4,0.4-3.5c-2.4,0.1-4.3-2.2-4.5-4.6c0-2.4,0.8-4.7,2.3-6.5c1.7-2.4,3.7-4.4,6.1-6.1c8.8-6.1,21-6.3,30.4-0.9
				c5.3,3,10.2,8.1,10,14.6l0,0c3.6,0.6,5.9,4.5,6.4,10.2c1.1,12.2-0.9,19.9-6.3,28.4c-5.5,8.5-13.7,14.9-23.2,18.4
				c-9.5,3.4-19.7,4.4-29.7,3c3.8-1.9,7.4-4,8.7-7.7c-6.8,1.4-13.8,1.8-20.7,1c-7.3-0.8-14.8-3.1-19.9-8.3
				C203.4,178.9,201.4,170.1,205.6,164.1z"/>
			<g id="freepik--Arm--inject-55">
				<path class="st5" d="M192.4,151.6c-1.9,6-0.4,7.7,7.5,16.2c12.7,13.7,29.8,29.6,29.8,29.6l18-18.1c-5.5-2.1-9.3-3.3-12.1-5.8
					c-11.4-10.3-19.7-18.2-22.3-21l0,0c0,0,8.4-24.2,9.7-26.9s4.6-4.9,5.2-5.5c5-4,5.6-6.4,7.9-12.3c0.4-1,0.8-2,1.1-3
					c0.2-0.5,0.4-1,0.6-1.5c0.2-0.4,0.4-0.8,0-1.3c-0.3-0.3-0.8-0.4-1.2-0.4c-1.5,0-2.9,0.7-3.9,1.8c-1,1.1-1.8,2.3-2.6,3.6
					c-0.6,0.9-1.1-0.3-1.1-0.9c-0.6-2.9,1.1-7.4,2.1-10.2c0.8-1.8,1.5-3.6,2-5.4c0.3-1.2,0.2-2.4-0.3-3.5c-0.3-0.8-0.9-1.3-1.8-0.8
					c-0.5,0.4-0.9,0.9-1.2,1.4c-0.7,1.1-1.4,0.8-2.8,1.1c-0.9,0.1-1.7,0.3-2.6,0.6c-1,0.5-1.8,1.3-2.3,2.2c-0.9-0.4-1.9-0.1-2.5,0.7
					c-2.1,2.3-3.7,5-4.9,7.9c-1.2,3.5-1.9,7.1-1.9,10.8c-0.2,2.3-0.7,4.5-1.7,6.6c-1.1,2.6-3.9,7.6-8.8,16
					C197.5,141.9,194.3,145.6,192.4,151.6z"/>
				<path class="st11" d="M227.1,109c-3.5,1.2-6.2,4.1-7.2,7.6c-0.1-1.9,0.5-3.8,1.7-5.3C223,109.7,225,108.9,227.1,109z"/>
			</g>
			<path class="st8" d="M281.4,252.5c-0.8-4.1-1.2-8.3-1.1-12.4c0.1-4.2,2.3-7.9,6.5-17.7c3.7-9,5-18.7,3.8-28.4
				c-3.2-2.6-6.8-4.8-10.6-6.4c-3.3-1.5-7.6-2.1-11.7-3.4c-6-2-9.8-3.5-13.6-4c-3.3-0.4-7.1-0.7-7.1-0.7s-12.6,9.6-20.6,18.9
				c-5.4,6.3-6.2,15.2-0.4,21.7l-0.1,14.4l-5,15.1c0,0,0.6,7.7,20.9,10.8C262.8,263.5,281.4,252.5,281.4,252.5z"/>
			<path class="st12" d="M261.8,225.6c-3.7,2.6-15.5,4.4-21.4-3.8C240.5,229.7,256.9,234.2,261.8,225.6z"/>
			<g id="freepik--arm--inject-55">
				<path class="st5" d="M319.1,179.8c-20.8,28.1-24.4,31.8-32,43.5c-5.9-1.1-15.2-22.1-4.2-34.4c8-8.4,15-17.8,20.8-27.9
					c0.5-5.1,1.5-29.4,0.7-38.6c-0.2-1.5-0.9-2.9-2-4c-3.2-3.1-4.6-6.9-6.7-10.4c-1.7-2.7-3.4-3.7-2.9-4.3c0.6-0.8,2.4-2,4.9-0.7
					c1.2,0.7,4.1,4.1,5.1,4.6c1.1,0.5-0.4-4.8-3.2-10.2c-1.6-3.1-2.4-5.8-1.7-8.2c0.3-1.1,1.1-1.8,2-1.4c0.3,0.2,0.6,0.4,0.8,0.6
					c-0.2-0.8,0-1.7,0.7-2.3c1.1-1.1,2.1-0.4,2.8,0.6l0.9,1.3c1.2-0.5,2.6-0.1,3.3,0.9c0.3,0.4,0.9,1.4,0.9,1.4c1-0.4,2.5-0.7,4,1.5
					c1.7,2.2,3.2,4.6,4.5,7.1c0.9,2.1,1.7,4.3,2.1,6.5c0.6,2.2,1,4.5,1.1,6.9c-0.4,5.4-0.2,10.8,0.5,16.2c1.5,13,1.8,16.4,3.7,34
					C325.9,169.4,325.6,171.1,319.1,179.8z"/>
				<path class="st5" d="M305.1,107.9c3.7,0.5,6.4,5.4,7.1,9.1C312.5,112.4,310.7,108.1,305.1,107.9z"/>
			</g>
			<g id="freepik--Head--inject-55">
				<path class="st5" d="M277,182.4c0.7-4.2,2.6-13.6,2.6-13.6c0.5,1.3,3.9,3.4,8.3,0.7c3.5-2.3,4.8-6.8,2.9-10.6
					c-1.9-3.4-5.8-3.8-8.9-0.3c-2.7-0.1-3.4-2.6-0.7-7.4c1.6-5.8-4.5-7.4-5.2-15.7c-8.7,1.6-14.6-3.6-21.1,0.6
					c-3.5,4.2-5.9,9.2-7.1,14.5c-2.3,10.3-1.4,15.6,1.9,19c1.7,1.7,3.7,2.8,7.7,3.7c0,0-0.3,1.4-0.8,4.3c-0.3,1.5-0.7,2.5-2,2.4
					c-2.4,1.8-8.9,5.2,1.4,8.7c13.2,4.6,22.1,0.1,23.9-1.2C277.3,186.4,276.7,184.4,277,182.4z"/>
				<path class="st6" d="M257.6,173.3c7.3,1.5,14,0.6,18.4-3.6c-0.9,2.1-2.6,3.9-4.8,4.9c-8.1,3.1-14.1,0.9-14.1,0.9L257.6,173.3z"
					/>
				<path class="st13" d="M258.3,162.1l7.5-0.7c0.3,2-1,3.8-3,4.1c-0.1,0-0.2,0-0.2,0C260.5,165.6,258.6,164.2,258.3,162.1z"/>
				<path class="st14" d="M261,165.3c0.5,0.2,1.1,0.2,1.6,0.2c1.4-0.1,2.6-1,3-2.3C263.8,162.7,261.9,163.6,261,165.3z"/>
				<path class="st7" d="M271.4,152.1c-0.3,1.1-0.9-0.6-2-0.9c-1.1-0.3-2.3,0.9-2-0.2c0.3-1.1,1.5-1.7,2.6-1.4
					C271,150,271.6,151,271.4,152.1L271.4,152.1z"/>
				<path class="st7" d="M257.2,148.5c-0.3,1.1-0.9-0.5-2-0.8s-2.3,0.8-2-0.3s1.5-1.7,2.6-1.4C256.8,146.4,257.4,147.5,257.2,148.5
					L257.2,148.5z"/>
				<polygon class="st6" points="265,145.4 260.5,158.4 254.8,154.3 				"/>
				<path class="st7" d="M253.2,143.3l4.9-0.8c-0.2-1.3-1.3-2.2-2.6-2.1c-0.1,0-0.1,0-0.2,0C254,140.7,253,141.9,253.2,143.3z"/>
				<path class="st7" d="M274.8,148.6l-4-3c0.8-1.1,2.3-1.3,3.4-0.5c0,0,0,0,0.1,0.1C275.4,146,275.6,147.5,274.8,148.6z"/>
				<path class="st6" d="M269.7,155.4c-0.1,1.7,1.7,3.3,4.1,3.4c2.4,0.1,4.4-1.1,4.6-2.9s-1.7-3.3-4.1-3.4
					C271.9,152.3,269.8,153.6,269.7,155.4z"/>
				<path class="st6" d="M245.3,147.9c-0.7,1.6,0.6,3.7,2.8,4.6c2.2,0.9,4.6,0.4,5.2-1.2c0.6-1.6-0.6-3.7-2.8-4.6
					S246,146.2,245.3,147.9z"/>
			</g>
		</g>
		<g id="freepik--Bag--inject-55">
			<path class="st9" d="M250.3,179.5c-10.3,13.1-10.3,34.6-2.5,55.2c7.7,20.6,27,34.9,27,34.9l-4.7,4.1c0,0-19.2-10.8-28.1-38
				s-5.5-45.2,2.5-58L250.3,179.5z"/>
			<path class="st9" d="M270,273.8c0.4,12.2,5.3,30.6,7.5,35s7.1,8.4,16,6.7c8.9-1.7,31.3-10,39.7-14.7c8.4-4.7,12.1-7.6,12.1-12.6
				v-6.8l-70.5-11.8L270,273.8z"/>
			<path class="st15" d="M270,273.8c0.4,12.2,5.3,30.6,7.5,35s7.1,8.4,16,6.7c8.9-1.7,31.3-10,39.7-14.7c8.4-4.7,12.1-7.6,12.1-12.6
				v-6.8l-70.5-11.8L270,273.8z"/>
			<path class="st9" d="M274.7,269.6l42.1-13.2c0,0,22,16.2,27.1,22c5.1,5.9-4.9,10.4-20.1,17.1s-34.3,13.8-40.1,6.7
				C277.9,295.1,274.7,269.6,274.7,269.6z"/>
			<path class="st9" d="M273.6,268.7c2.2-0.9,4.4,4.8,6.6,9.6c2.2,4.9,2.8,10.8,8,9.6c8-1.9,15.8-4.3,23.5-7.1
				c7.3-2.6,14.4-5.8,21.2-9.5c5.7-2.9-9.8-13.6-13.1-16c-3.3-2.4-4.3-1.7-13.2,0.6c-8.9,2.4-35.4,10.9-35.4,10.9L273.6,268.7z"/>
			<path class="st16" d="M273.6,268.7c2.2-0.9,4.4,4.8,6.6,9.6c2.2,4.9,2.8,10.8,8,9.6c8-1.9,15.8-4.3,23.5-7.1
				c7.3-2.6,14.4-5.8,21.2-9.5c5.7-2.9-9.8-13.6-13.1-16c-3.3-2.4-4.3-1.7-13.2,0.6c-8.9,2.4-35.4,10.9-35.4,10.9L273.6,268.7z"/>
		</g>
	</g>
</g>
<g id="freepik--Book--inject-55">
	<g id="freepik--book--inject-55">
		<g id="freepik--Comic--inject-55">
			<path class="st9" d="M296.7,17.9c3.2,1.9,6.2,4.1,9,6.5c4.7,3.9,9.2,7.8,11.9,11.8c1.1,1.7,1.7,4.3,2.4,5l-44.5,12.2
				c-0.7-0.7-1.5-3.1-2.4-5c-2.4-5-5.4-7.9-10.2-11.4c-4.2-3.1-9.6-6.1-10.8-7c-0.3-0.2-0.2-0.4,0.1-0.5l43.5-11.9
				C296,17.7,296.4,17.7,296.7,17.9z"/>
			<path class="st17" d="M296.7,17.9c3.2,1.9,6.2,4.1,9,6.5c4.7,3.9,9.2,7.8,11.9,11.8c1.1,1.7,1.7,4.3,2.4,5l-44.5,12.2
				c-0.7-0.7-1.5-3.1-2.4-5c-2.4-5-5.4-7.9-10.2-11.4c-4.2-3.1-9.6-6.1-10.8-7c-0.3-0.2-0.2-0.4,0.1-0.5l43.5-11.9
				C296,17.7,296.4,17.7,296.7,17.9z"/>
			<path class="st17" d="M253.9,29.1l41.8-11.4c0.3-0.1,0.7,0,1,0.2c3.2,1.9,6.2,4.1,9,6.5c4.7,3.9,9.2,7.8,11.9,11.8
				c1.1,1.7,1.7,4.3,2.4,5l-44,12c-1.1-0.7-1.2-2-1.7-3.1c-0.9-2.5-2.1-4.8-3.7-7c-2.8-3.8-6.1-7.2-10-9.9
				C258.5,31.7,256.3,30.3,253.9,29.1z"/>
			<path class="st9" d="M325.1,43.6c4,2.7,7,5.7,11.9,11.8c2.4,2.8,4.6,5.8,6.6,9c0.1,0.3,0.1,0.5-0.2,0.6l-43.5,11.9
				c-0.3,0.1-0.7,0-0.9-0.3c-0.9-1.1-2.5-4.4-6.1-9.4c-5.1-7.1-7.5-9.7-11.3-11.4c-3.4-1.6-5.3-1.6-6.1-2.4l44.6-12.2
				C320.8,42,321.9,41.5,325.1,43.6z"/>
			<path class="st17" d="M286.7,57.8c-2.3-1.8-4.9-3.1-7.7-3.8c-1-0.3-2.3-0.5-3.1-0.7l44-12c0.7,0.7,1.9,0.3,5,2.4
				c4,2.7,7,5.7,11.9,11.8c2.1,2.5,4,5.1,5.8,7.8L299.9,75c0,0-1.6-2.8-4.1-6.6C293.3,64.4,290.3,60.8,286.7,57.8z"/>
			<path class="st1" d="M253.6,22.2L298.2,10c0,0,4.8,2.3,10.8,8.8c4.2,4.4,7.1,7.6,9.5,14c1.1,3.2,1.3,5.7,2.1,6.4l-0.3,1
				l-44.5,12.2c-0.7-0.7-1.2-3.3-2.1-5.2c-1.9-4-4.6-8.7-11.5-14.5c-3-2.5-6.1-4.8-9.5-6.7L253.6,22.2z"/>
			<path class="st18" d="M298.2,10.1c0,0,4.8,2.3,10.8,8.8c4.2,4.4,7.1,7.6,9.5,14c1.1,3.2,1.3,5.7,2.1,6.4L276,51.5
				c-0.7-0.7-1.1-3.3-1.7-5.3c-1.7-5.2-2.5-8.5-10.6-16.5c-3-2.9-6.4-5.4-10-7.4L298.2,10.1z"/>
			<path class="st18" d="M276,51.5l44.6-12.2c0.7,0.7,2.5,0.2,6.5,1.1c4,0.9,7.8,1.8,13.1,7.5c2.4,2.5,4.4,5.3,6,8.3l-1.1,4.5
				L300.4,73c0,0-3-4.8-6.3-9.3c-4.7-6.4-7-7.7-12-9.5c-4.2-1.6-5.7-1-6.4-1.7L276,51.5z"/>
			<path class="st4" d="M320.6,39.3c0.7,0.7,2.5,0.2,6.5,1.1c4,0.9,7.8,1.8,13.1,7.5c2.4,2.5,4.4,5.3,6,8.3l-44.6,12.2
				c0,0-2.1-3.3-6-8.3c-3.1-4.2-7.7-7-12.9-7.8c-4-0.7-6.1-0.1-6.8-0.9L320.6,39.3z"/>
			<path class="st1" d="M318.6,60.5c-1.3-1.9-2.7-3.8-4.3-5.5c-5.3-5.7-9.1-6.6-13.1-7.5h-0.1c-0.7-0.2-1.3-0.3-1.9-0.4l-0.7,0.2
				c0.8,0.1,1.7,0.3,2.5,0.4h0.1c4,0.9,7.7,1.8,12.9,7.4c1.5,1.7,3,3.5,4.2,5.4L318.6,60.5z"/>
			<path class="st1" d="M314.3,61.7c-1.3-1.9-2.7-3.8-4.3-5.5c-5.3-5.7-9.1-6.6-13.1-7.5h-0.1c-0.7-0.2-1.3-0.3-1.9-0.4l-0.7,0.2
				c0.7,0.1,1.5,0.2,2.5,0.5h0.1c3.9,0.9,7.7,1.8,12.9,7.4c1.6,1.7,3,3.5,4.3,5.4L314.3,61.7z"/>
			<path class="st1" d="M315.7,61.3c-1.3-1.9-2.7-3.8-4.3-5.5c-5.3-5.7-9.1-6.6-13.1-7.5h-0.1c-0.7-0.2-1.3-0.3-1.9-0.4l-0.7,0.2
				c0.8,0.1,1.7,0.3,2.5,0.4h0.1c3.9,0.9,7.7,1.8,12.9,7.4c1.6,1.7,3,3.5,4.3,5.4L315.7,61.3z"/>
			<path class="st1" d="M317.1,60.9c-1.3-1.9-2.7-3.8-4.3-5.5c-5.3-5.7-9.1-6.6-13.1-7.5h-0.1c-0.7-0.2-1.3-0.3-1.9-0.4l-0.7,0.2
				c0.7,0.1,1.5,0.2,2.5,0.5h0.1c4,0.9,7.7,1.8,12.9,7.4c1.6,1.7,3,3.5,4.3,5.4L317.1,60.9z"/>
			<path class="st1" d="M323,59.3c-1.3-1.9-2.8-3.8-4.4-5.5c-5.3-5.7-9.1-6.6-13.1-7.5h-0.1c-0.7-0.2-1.3-0.3-1.8-0.4l-0.7,0.2
				c0.7,0.1,1.5,0.2,2.4,0.5h0.1c3.9,0.9,7.7,1.8,12.9,7.4c1.6,1.7,3,3.5,4.3,5.4L323,59.3z"/>
			<path class="st1" d="M320.1,60.1c-1.3-1.9-2.7-3.8-4.3-5.5c-5.3-5.7-9.1-6.6-13.1-7.5h-0.1c-0.7-0.2-1.3-0.3-1.8-0.4l-0.7,0.2
				c0.7,0.1,1.5,0.2,2.5,0.5h0.1c3.9,0.9,7.7,1.8,12.9,7.4c1.6,1.7,3,3.5,4.3,5.4L320.1,60.1z"/>
			<path class="st1" d="M321.5,59.7c-1.3-1.9-2.8-3.8-4.4-5.5c-5.3-5.7-9.1-6.6-13.1-7.5h-0.1c-0.7-0.2-1.3-0.3-1.8-0.4l-0.7,0.2
				c0.7,0.1,1.5,0.2,2.5,0.4h0.1c3.9,0.9,7.7,1.8,12.9,7.4c1.6,1.7,3,3.5,4.3,5.4L321.5,59.7z"/>
			<path class="st1" d="M288.2,51.1h-0.1c-0.7-0.2-1.3-0.3-1.9-0.4l-0.7,0.2c0.9,0.1,1.7,0.3,2.5,0.5h0.1c4,0.9,7.7,1.8,12.9,7.4
				c1.6,1.7,3,3.4,4.3,5.3l0.3-0.1c-1.3-1.9-2.7-3.8-4.3-5.5C295.9,52.9,292.2,52,288.2,51.1z"/>
			<path class="st1" d="M324.4,58.9c-1.3-1.9-2.7-3.8-4.3-5.5c-5.3-5.7-9.1-6.6-13.1-7.5h-0.1c-0.7-0.2-1.3-0.3-1.8-0.4l-0.7,0.2
				c0.8,0.1,1.6,0.3,2.4,0.4h0.1c4,0.9,7.7,1.8,12.9,7.4c1.6,1.7,3,3.5,4.3,5.4L324.4,58.9z"/>
			<path class="st1" d="M312.8,62.1c-1.3-1.9-2.7-3.8-4.3-5.5c-5.3-5.7-9.1-6.6-13.1-7.5h-0.1c-0.7-0.2-1.3-0.3-1.9-0.4l-0.7,0.2
				c0.7,0.1,1.5,0.2,2.5,0.4h0.1c4,0.9,7.7,1.8,12.9,7.4c1.6,1.6,3,3.4,4.3,5.3L312.8,62.1L312.8,62.1z"/>
			<path class="st1" d="M310,62.9c-1.3-1.9-2.7-3.8-4.3-5.5c-5.3-5.7-9.1-6.6-13.1-7.5h-0.1c-0.7-0.2-1.3-0.3-1.9-0.4l-0.7,0.2
				c0.7,0.1,1.5,0.2,2.5,0.5h0.1c3.9,0.9,7.7,1.8,12.9,7.4c1.6,1.7,3,3.5,4.3,5.4L310,62.9z"/>
			<path class="st1" d="M311.4,62.5c-1.3-1.9-2.7-3.8-4.3-5.5c-5.3-5.7-9.1-6.6-13.1-7.5h-0.1c-0.7-0.2-1.3-0.3-1.9-0.4l-0.7,0.2
				c0.8,0.1,1.7,0.3,2.5,0.5h0.1c4,0.9,7.7,1.8,12.9,7.4c1.6,1.7,3,3.5,4.3,5.4L311.4,62.5z"/>
			<path class="st1" d="M291.1,50.3H291c-0.7-0.2-1.3-0.3-1.9-0.4l-0.7,0.2c0.8,0.1,1.7,0.3,2.5,0.5h0.1c3.9,0.9,7.7,1.8,12.9,7.4
				c1.6,1.7,3,3.4,4.3,5.3l0.3-0.1c-1.3-1.9-2.7-3.8-4.3-5.5C298.8,52.1,295.1,51.2,291.1,50.3z"/>
			<path class="st1" d="M331.6,56.9c-1.3-1.9-2.8-3.8-4.4-5.5c-5.3-5.7-9.1-6.6-13.1-7.5H314c-0.7-0.2-1.3-0.3-1.8-0.4l-0.7,0.2
				c0.8,0.1,1.6,0.3,2.4,0.4h0.1c4,0.9,7.7,1.8,12.9,7.4c1.6,1.7,3,3.5,4.3,5.4L331.6,56.9z"/>
			<path class="st1" d="M340.3,54.6c-1.3-2-2.8-3.8-4.4-5.5c-5.3-5.7-9.1-6.6-13.1-7.5h-0.1c-0.7-0.1-1.2-0.3-1.8-0.3l-0.7,0.2
				c0.7,0.1,1.5,0.2,2.4,0.4h0.1c3.9,0.9,7.7,1.8,12.9,7.4c1.6,1.7,3,3.5,4.3,5.4L340.3,54.6z"/>
			<path class="st1" d="M338.9,55c-1.3-1.9-2.8-3.8-4.4-5.5c-5.3-5.7-9.1-6.6-13.1-7.5h-0.1c-0.7-0.1-1.2-0.3-1.8-0.3l-0.7,0.2
				c0.7,0.1,1.5,0.2,2.4,0.4h0.1c3.9,0.9,7.7,1.8,12.9,7.4c1.6,1.7,3,3.5,4.3,5.4L338.9,55z"/>
			<path class="st1" d="M307.1,63.7c-1.3-1.9-2.7-3.8-4.3-5.5c-5.3-5.7-9.1-6.6-13.1-7.5h-0.1c-0.7-0.2-1.3-0.3-1.9-0.4l-0.7,0.2
				c0.7,0.1,1.6,0.2,2.5,0.5h0.1c3.9,0.9,7.7,1.8,12.9,7.4c1.6,1.7,3,3.5,4.2,5.4L307.1,63.7z"/>
			<path class="st1" d="M337.4,55.4c-1.3-2-2.7-3.8-4.4-5.5c-5.3-5.7-9.1-6.6-13.1-7.5h-0.1c-0.7-0.1-1.3-0.3-1.8-0.3l-0.7,0.2
				c0.7,0.1,1.5,0.2,2.4,0.4h0.1c3.9,0.9,7.7,1.8,12.9,7.4c1.6,1.7,3,3.5,4.3,5.4L337.4,55.4z"/>
			<path class="st1" d="M333.1,56.6c-1.3-2-2.8-3.8-4.4-5.5c-5.3-5.7-9.1-6.6-13.1-7.5h-0.1c-0.7-0.2-1.3-0.3-1.8-0.3l-0.7,0.2
				c0.7,0.1,1.5,0.2,2.4,0.4h0.1c4,0.9,7.7,1.8,12.9,7.4c1.6,1.7,3,3.5,4.3,5.4L333.1,56.6z"/>
			<path class="st1" d="M336,55.8c-1.3-2-2.8-3.8-4.4-5.5c-5.3-5.7-9.1-6.6-13.1-7.5h-0.1c-0.7-0.1-1.3-0.3-1.8-0.3l-0.6,0.2
				c0.8,0.1,1.6,0.2,2.4,0.4h0.1c3.9,0.9,7.7,1.8,12.9,7.4c1.6,1.7,3,3.5,4.3,5.4L336,55.8z"/>
			<path class="st1" d="M330.2,57.4c-1.3-2-2.7-3.8-4.4-5.5c-5.3-5.7-9.1-6.6-13.1-7.5h-0.1c-0.7-0.2-1.3-0.3-1.8-0.4l-0.7,0.2
				c0.7,0.1,1.5,0.2,2.4,0.4h0.1c4,0.9,7.7,1.8,12.9,7.4c1.6,1.7,3,3.5,4.3,5.4L330.2,57.4z"/>
			<path class="st1" d="M327.3,58.1c-1.3-1.9-2.7-3.8-4.3-5.5c-5.3-5.7-9.1-6.6-13.1-7.5h-0.1c-0.7-0.2-1.3-0.3-1.8-0.4l-0.7,0.2
				c0.8,0.1,1.6,0.3,2.4,0.4h0.1c3.9,0.9,7.7,1.8,12.9,7.4c1.6,1.7,3,3.5,4.3,5.4L327.3,58.1z"/>
			<path class="st1" d="M328.7,57.7c-1.3-2-2.7-3.8-4.4-5.5c-5.3-5.7-9.1-6.6-13.1-7.5h-0.1c-0.7-0.2-1.3-0.3-1.8-0.4l-0.7,0.2
				c0.8,0.1,1.6,0.3,2.4,0.4h0.1c3.9,0.9,7.7,1.8,12.9,7.4c1.6,1.7,3,3.5,4.3,5.4L328.7,57.7z"/>
			<path class="st1" d="M334.5,56.2c-1.3-1.9-2.8-3.8-4.4-5.5c-5.3-5.7-9.1-6.6-13.1-7.5l0,0c-0.7-0.1-1.3-0.3-1.8-0.3l-0.7,0.2
				c0.8,0.1,1.6,0.3,2.4,0.4h0.1c3.9,0.9,7.7,1.8,12.9,7.4c1.6,1.7,3,3.5,4.3,5.4L334.5,56.2z"/>
			<path class="st1" d="M325.9,58.5c-1.3-1.9-2.7-3.8-4.3-5.5c-5.3-5.7-9.1-6.6-13.1-7.5h-0.1c-0.7-0.2-1.3-0.3-1.8-0.4l-0.7,0.2
				c0.8,0.1,1.6,0.3,2.4,0.4h0.1c4,0.9,7.7,1.8,12.9,7.4c1.6,1.7,3,3.5,4.3,5.4L325.9,58.5z"/>
			<polygon class="st1" points="300.4,73 301.6,68.4 346.2,56.3 345,60.8 			"/>
			<path class="st19" d="M323.3,65.8l-2.7,0.8l2.7-0.7l2.7-0.7l5.4-1.5l5.4-1.5c1.8-0.5,3.6-1,5.4-1.6c-1.8,0.4-3.6,0.9-5.5,1.4
				l-5.4,1.5l-5.4,1.5L323.3,65.8z M340.7,58.9l4.6-1.3l-4.7,1.2l-4.7,1.2l-9.4,2.5l-9.3,2.6l-4.7,1.3l-4.6,1.3l4.7-1.2l4.7-1.2
				l9.4-2.5l9.3-2.6L340.7,58.9z M295.8,62.7c0.3,0.3,0.5,0.7,0.8,1c-0.9-1.4-2-2.7-3.1-4c-0.6-0.6-1.2-1.2-1.8-1.7
				c-0.3-0.3-0.7-0.5-1-0.8c-0.3-0.2-0.7-0.5-1.1-0.7c0.7,0.5,1.3,1,2,1.6c0.6,0.6,1.2,1.1,1.8,1.7c0.6,0.6,1.1,1.2,1.7,1.9
				C295.3,62,295.5,62.3,295.8,62.7L295.8,62.7z M304.8,69.8l-2.7,0.8l2.7-0.7l2.7-0.7l5.5-1.5l5.4-1.5c1.8-0.5,3.6-1,5.4-1.6
				l-5.5,1.4l-5.4,1.5l-5.4,1.6L304.8,69.8z M264.5,31.6l0.6,0.6L264.5,31.6l-0.6-0.7l-0.6-0.6l-0.6-0.6c-0.9-0.8-1.8-1.5-2.7-2.3
				c-0.9-0.8-1.8-1.4-2.8-2s-2-1.3-3-1.8c0.5,0.3,1,0.6,1.4,1c0.5,0.3,1,0.7,1.4,1c0.9,0.7,1.9,1.4,2.8,2.1s1.8,1.4,2.7,2.2l0.7,0.6
				l0.6,0.6L264.5,31.6z M266.2,34.2c0.7,0.7,1.3,1.4,1.9,2.2c1.2,1.5,2.3,3.1,3.2,4.8c0.9,1.7,1.7,3.4,2.4,5.2
				c0.2,0.4,0.3,0.9,0.5,1.4s0.3,0.9,0.4,1.4s0.3,0.9,0.5,1.4s0.4,0.9,0.6,1.3c-0.2-0.4-0.4-0.9-0.6-1.3c-0.1-0.4-0.3-0.9-0.4-1.4
				s-0.3-0.9-0.4-1.4s-0.3-0.9-0.4-1.4c-0.3-0.9-0.7-1.8-1.1-2.7s-0.8-1.7-1.3-2.6c-0.5-0.8-1-1.7-1.5-2.5c-0.6-0.8-1.1-1.5-1.8-2.3
				C267.6,35.5,266.9,34.8,266.2,34.2c-0.6-0.8-1.3-1.4-2-2C264.9,32.8,265.6,33.5,266.2,34.2L266.2,34.2z M253.6,25.4
				c1.3,0.8,2.5,1.7,3.8,2.6s2.4,1.8,3.6,2.8s2.3,2,3.4,3l0.8,0.8c0.3,0.3,0.5,0.5,0.8,0.8c0.6,0.5,1.1,1.1,1.6,1.6
				c-0.5-0.6-1-1.1-1.5-1.7c-0.3-0.3-0.5-0.6-0.8-0.8c-0.3-0.3-0.5-0.6-0.8-0.8c-1.1-1.1-2.2-2.1-3.4-3s-2.4-1.9-3.6-2.7
				c-0.6-0.4-1.3-0.9-1.9-1.3S254.3,25.8,253.6,25.4L253.6,25.4z M286.7,55.5c-0.8-0.4-1.7-0.7-2.6-1c1.7,0.6,3.4,1.4,4.9,2.5
				s2.9,2.4,4,3.8c1.2,1.4,2.3,2.9,3.3,4.4c1,1.5,2.1,3,3.1,4.6c-0.5-0.8-1-1.6-1.4-2.3s-1-1.6-1.5-2.3s-1-1.5-1.6-2.3
				c-0.5-0.8-1.1-1.5-1.7-2.2c-1.2-1.4-2.5-2.7-4-3.8C288.4,56.5,287.6,56,286.7,55.5z M276.2,52.2c0.4,0.2,0.8,0.2,1.1,0.3l1.1,0.1
				c0.8,0.1,1.5,0.1,2.3,0.2c1.5,0.2,3,0.5,4.4,1s2.8,1.1,4.1,1.8c0.7,0.4,1.3,0.8,1.9,1.3c0.6,0.4,1.1,0.9,1.8,1.4
				c-1.1-1.1-2.3-2-3.6-2.8c-1.3-0.8-2.7-1.4-4.2-1.9s-3-0.8-4.5-0.9c-0.8-0.1-1.5-0.1-2.3-0.2l-1.1-0.1
				C277,52.4,276.6,52.4,276.2,52.2z"/>
			<path class="st17" d="M275.2,46.8c0.1-4.4-1-8.8-3-12.7c-2.7-5.2-6.2-10-10.6-14l36.6-10c0,0,4.8,2.3,10.8,8.8
				c4.2,4.4,7.1,7.6,9.5,14c1.1,3.2,1.3,5.7,2.1,6.4L276,51.5C275.3,50,275,48.4,275.2,46.8z"/>
			<path class="st0" d="M261.1,16.5l44.6-12.2l0,0c1.8,2.6,4.7,4.8,9.2,11.9c3.5,5,5.3,11,5.2,17.2c0,2.2-0.2,5.1,0.5,5.9L276,51.5
				c-0.7-0.9-0.5-3.7-0.5-5.9c0.1-6.1-1.7-12.1-5.2-17.1C265.7,21.3,262.9,19.1,261.1,16.5L261.1,16.5z"/>
			<path class="st1" d="M304.4,37.7c0.1-6.2-1.7-12.2-5.2-17.2c-1.9-3-4.1-5.9-6.4-8.6l-0.3,0.1c2.4,2.7,4.6,5.6,6.5,8.6
				c3.5,5,5.3,11,5.2,17.1c0,0.3,0,0.6,0,0.9c0,0.3,0,0.6,0,0.8l0.3-0.1c0-0.3,0-0.5,0-0.7C304.4,38.3,304.4,38,304.4,37.7z"/>
			<path class="st1" d="M305.8,37.3c0.1-6.1-1.7-12.2-5.2-17.2c-1.9-3-4.1-5.8-6.5-8.5l-0.3,0.1c2.4,2.7,4.6,5.6,6.5,8.7
				c3.5,5,5.3,10.9,5.2,17c0,0.3,0,0.6,0,0.9c0,0.3,0,0.5,0,0.8l0.3-0.1c0-0.2,0-0.5,0-0.7C305.8,37.9,305.8,37.6,305.8,37.3z"/>
			<path class="st1" d="M302.9,38.1c0.1-6.2-1.7-12.2-5.2-17.2c-1.9-3-4.1-5.9-6.4-8.6l-0.3,0.1c2.4,2.7,4.6,5.6,6.5,8.6
				c3.5,5,5.3,11,5.2,17.1c0,0.3,0,0.6,0,0.9c0,0.3,0,0.5,0,0.8l0.3-0.1c0-0.2,0-0.5,0-0.7C302.9,38.7,302.9,38.4,302.9,38.1z"/>
			<path class="st1" d="M301.5,38.5c0.1-6.2-1.7-12.2-5.2-17.2c-1.9-3-4.1-5.9-6.4-8.5l-0.3,0.1c2.4,2.7,4.5,5.6,6.5,8.6
				c3.5,5,5.3,11,5.2,17.1c0,0.3,0,0.6,0,0.9c0,0.3,0,0.5,0,0.8l0.3-0.1c0-0.3,0-0.5,0-0.7S301.5,38.8,301.5,38.5z"/>
			<path class="st1" d="M307.3,36.9c0.1-6.1-1.7-12.2-5.2-17.2c-1.9-3-4.1-5.9-6.4-8.6l-0.3,0.1c2.4,2.7,4.6,5.6,6.5,8.7
				c3.5,5,5.3,11,5.2,17c0,0.3,0,0.6,0,0.9s0,0.6,0,0.8l0.3-0.1c0-0.3,0-0.5,0-0.7C307.3,37.5,307.3,37.2,307.3,36.9z"/>
			<path class="st1" d="M300.1,38.9c0.1-6.1-1.7-12.2-5.2-17.2c-1.9-3-4.1-5.9-6.4-8.5l-0.3,0.1c2.4,2.7,4.5,5.6,6.5,8.6
				c3.5,5,5.3,11,5.2,17.1c0,0.3,0,0.6,0,0.9c0,0.3,0,0.5,0,0.8l0.3-0.1c0-0.3,0-0.5,0-0.7C300.1,39.5,300.1,39.2,300.1,38.9z"/>
			<path class="st1" d="M317.3,34.2c0.1-6.1-1.7-12.2-5.2-17.2c-1.9-3-4.1-5.9-6.5-8.6l-0.3,0.1c2.4,2.7,4.6,5.6,6.5,8.7
				c3.5,5,5.3,11,5.2,17c0,0.3,0,0.6,0,0.9s0,0.6,0,0.8l0.3-0.1c0-0.3,0-0.5,0-0.7C317.3,34.8,317.3,34.5,317.3,34.2z"/>
			<path class="st1" d="M314.4,35c0.1-6.2-1.7-12.2-5.2-17.2c-1.9-3-4.1-5.9-6.4-8.6l-0.3,0.1c2.4,2.7,4.6,5.6,6.5,8.6
				c3.5,5,5.3,11,5.1,17.1c0,0.3,0,0.6,0,0.9s0,0.5,0,0.8l0.3-0.1c0-0.2,0-0.5,0-0.7S314.4,35.2,314.4,35z"/>
			<path class="st1" d="M313,35.4c0.1-6.1-1.7-12.2-5.2-17.2c-1.9-3-4.1-5.9-6.4-8.6l-0.3,0.1c2.4,2.7,4.6,5.6,6.5,8.6
				c3.5,5,5.3,11,5.2,17.1c0,0.3,0,0.6,0,0.9c0,0.3,0,0.5,0,0.8l0.3-0.1c0-0.3,0-0.5,0-0.7C313,35.9,313,35.6,313,35.4z"/>
			<path class="st1" d="M298.6,39.3c0.1-6.1-1.7-12.2-5.2-17.2c-1.9-3-4.1-5.9-6.4-8.6l-0.3,0.1c2.4,2.7,4.5,5.6,6.5,8.6
				c3.5,5,5.3,11,5.2,17.1c0,0.3,0,0.6,0,0.9c0,0.3,0,0.6,0,0.8l0.3-0.1c0-0.3,0-0.5,0-0.7C298.6,39.9,298.6,39.6,298.6,39.3z"/>
			<path class="st1" d="M308.7,36.5c0.1-6.1-1.7-12.2-5.2-17.2c-1.9-3-4.1-5.9-6.4-8.6l-0.3,0.1c2.4,2.7,4.5,5.6,6.5,8.6
				c3.5,5,5.3,11,5.2,17.1c0,0.3,0,0.6,0,0.9c0,0.3,0,0.6,0,0.8l0.3-0.1c0-0.3,0-0.5,0-0.7C308.7,37.2,308.7,36.9,308.7,36.5z"/>
			<path class="st1" d="M310.1,36.1c0.1-6.1-1.7-12.2-5.2-17.2c-1.9-3-4.1-5.9-6.4-8.6l-0.3,0.1c2.4,2.7,4.5,5.6,6.5,8.6
				c3.5,5,5.3,11,5.2,17.1c0,0.3,0,0.6,0,0.9c0,0.3,0,0.6,0,0.8l0.3-0.1c0-0.3,0-0.5,0-0.7C310.1,36.7,310.1,36.4,310.1,36.1z"/>
			<path class="st1" d="M311.6,35.7c0.1-6.1-1.7-12.2-5.2-17.2c-1.9-3-4.1-5.8-6.5-8.5l-0.3,0.1c2.4,2.7,4.5,5.6,6.5,8.6
				c3.5,5,5.3,10.9,5.2,17c0,0.3,0,0.6,0,0.9c0,0.3,0,0.5,0,0.8l0.3-0.1c0-0.3,0-0.5,0-0.7C311.6,36.3,311.6,36,311.6,35.7z"/>
			<path class="st1" d="M315.9,34.6c0.1-6.2-1.7-12.2-5.2-17.2c-1.9-3-4.1-5.9-6.4-8.6l-0.3,0c2.4,2.7,4.6,5.6,6.5,8.6
				c3.5,5,5.3,11,5.2,17.1c0,0.3,0,0.6,0,0.9s0,0.6,0,0.8l0.3-0.1c0-0.3,0-0.5,0-0.7C315.9,35.2,315.9,34.8,315.9,34.6z"/>
			<path class="st1" d="M284.3,43.2c0.1-6.1-1.7-12.2-5.2-17.2c-1.9-3-4.1-5.9-6.4-8.6l-0.3,0.1c2.4,2.7,4.6,5.6,6.5,8.7
				c3.5,5,5.3,11,5.2,17c0,0.3,0,0.6,0,0.9c0,0.3,0,0.6,0,0.8l0.3-0.1c0-0.3,0-0.5,0-0.7C284.3,43.8,284.3,43.5,284.3,43.2z"/>
			<path class="st1" d="M282.8,43.6c0.1-6.1-1.7-12.2-5.2-17.2c-1.9-3-4.1-5.9-6.4-8.6l-0.3,0.1c2.4,2.7,4.6,5.6,6.5,8.6
				c3.5,5,5.3,11,5.2,17c0,0.3,0,0.6,0,0.9c0,0.3,0,0.6,0,0.8l0.3-0.1c0-0.3,0-0.5,0-0.7C282.8,44.2,282.8,43.9,282.8,43.6z"/>
			<path class="st1" d="M285.7,42.8c0.1-6.1-1.7-12.2-5.2-17.2c-1.9-3-4.1-5.9-6.4-8.6l-0.3,0.1c2.4,2.7,4.5,5.6,6.5,8.6
				c3.5,5,5.3,11,5.2,17.1c0,0.3,0,0.6,0,0.9c0,0.3,0,0.5,0,0.8l0.3-0.1c0-0.3,0-0.5,0-0.7C285.7,43.4,285.7,43.1,285.7,42.8z"/>
			<path class="st1" d="M279.9,44.4c0.1-6.1-1.7-12.2-5.2-17.2c-1.9-3-4.1-5.9-6.4-8.6l-0.3,0.1c2.4,2.7,4.6,5.6,6.5,8.6
				c3.5,5,5.3,11,5.2,17.1c0,0.3,0,0.6,0,0.9c0,0.3,0,0.5,0,0.8L280,46c0-0.2,0-0.5,0-0.7C280,45,279.9,44.7,279.9,44.4z"/>
			<path class="st1" d="M297.2,39.7c0.1-6.1-1.7-12.2-5.2-17.2c-1.9-3-4.1-5.9-6.4-8.6l-0.3,0.1c2.4,2.7,4.5,5.6,6.5,8.6
				c3.5,5,5.3,11,5.2,17.1c0,0.3,0,0.6,0,0.9c0,0.3,0,0.6,0,0.8l0.3-0.1c0-0.3,0-0.5,0-0.7C297.2,40.3,297.2,39.9,297.2,39.7z"/>
			<path class="st1" d="M281.4,44c0.1-6.1-1.7-12.2-5.2-17.2c-1.9-3-4.1-5.9-6.4-8.6l-0.3,0.1c2.4,2.7,4.6,5.6,6.5,8.6
				c3.5,5,5.3,11,5.2,17.1c0,0.3,0,0.6,0,0.9c0,0.3,0,0.6,0,0.8l0.3-0.1c0-0.3,0-0.5,0-0.7C281.4,44.6,281.4,44.3,281.4,44z"/>
			<path class="st1" d="M287.1,42.4c0.1-6.1-1.7-12.2-5.2-17.2c-1.9-3-4.1-5.9-6.4-8.6l-0.3,0.1c2.4,2.7,4.5,5.6,6.5,8.7
				c3.5,5,5.3,11,5.2,17.1c0,0.3,0,0.6,0,0.9c0,0.3,0,0.6,0,0.8l0.3-0.1c0-0.3,0-0.5,0-0.7S287.1,42.7,287.1,42.4z"/>
			<path class="st1" d="M294.3,40.5c0.1-6.1-1.7-12.2-5.2-17.2c-1.9-3-4.1-5.9-6.4-8.6l-0.3,0.1c2.4,2.7,4.6,5.6,6.5,8.7
				c3.5,5,5.3,11,5.2,17c0,0.3,0,0.6,0,0.9s0,0.6,0,0.8l0.3-0.1c0-0.3,0-0.5,0-0.7C294.3,41.1,294.3,40.7,294.3,40.5z"/>
			<path class="st1" d="M295.8,40.1c0.1-6.1-1.7-12.2-5.2-17.2c-1.9-3-4.1-5.9-6.4-8.6l-0.3,0.1c2.4,2.7,4.6,5.6,6.5,8.7
				c3.5,5,5.3,11,5.2,17c0,0.3,0,0.6,0,0.9c0,0.3,0,0.5,0,0.8l0.3-0.1c0-0.2,0-0.5,0-0.7S295.8,40.3,295.8,40.1z"/>
			<path class="st1" d="M292.9,40.8c0.1-6.1-1.7-12.2-5.2-17.2c-1.9-3-4.1-5.9-6.4-8.6l-0.3,0.1c2.4,2.7,4.6,5.6,6.5,8.6
				c3.5,5,5.3,11,5.2,17.1c0,0.3,0,0.6,0,0.9s0,0.6,0,0.8l0.3-0.1c0-0.2,0-0.5,0-0.7C292.9,41.4,292.9,41.1,292.9,40.8z"/>
			<path class="st1" d="M288.6,42c0.1-6.2-1.7-12.2-5.2-17.2c-1.9-3-4.1-5.9-6.4-8.5l-0.3,0.1c2.4,2.7,4.6,5.6,6.5,8.6
				c3.5,5,5.3,11,5.1,17.1c0,0.3,0,0.6,0,0.9s0,0.5,0,0.8l0.3-0.1c0-0.3,0-0.5,0-0.7C288.6,42.6,288.6,42.3,288.6,42z"/>
			<path class="st1" d="M291.4,41.2c0.1-6.2-1.7-12.2-5.2-17.2c-1.9-3-4.1-5.9-6.4-8.6l-0.3,0.1c2.4,2.7,4.6,5.6,6.5,8.7
				c3.5,5,5.3,11,5.2,17.1c0,0.3,0,0.6,0,0.9c0,0.3,0,0.5,0,0.8l0.3-0.1c0-0.2,0-0.5,0-0.7C291.5,41.9,291.4,41.5,291.4,41.2z"/>
			<path class="st1" d="M290,41.6c0.1-6.2-1.7-12.2-5.2-17.2c-1.9-3-4.1-5.9-6.4-8.6l-0.3,0.1c2.4,2.7,4.6,5.6,6.5,8.6
				c3.5,5,5.3,11,5.2,17.1c0,0.3,0,0.6,0,0.9c0,0.3,0,0.5,0,0.8l0.3-0.1c0-0.3,0-0.5,0-0.7C290,42.2,290,41.9,290,41.6z"/>
			<path id="freepik--Shadow--inject-55" class="st19" d="M320.6,39.3L276,51.5l44.2-12.9C320.3,38.8,320.4,39.1,320.6,39.3z"/>
		</g>
	</g>
</g>
<g id="freepik--Notebooks--inject-55">
	<g id="freepik--Notebook--inject-55">
		<polygon class="st9" points="108.4,201 108.5,200.5 108.7,200.1 114.4,186.2 127.9,152.8 164.3,147.7 164.1,147.5 127.8,152.5 
			108.4,200.2 108.2,200.6 108.2,200.7 		"/>
		<polygon class="st10" points="108.4,201 108.5,200.5 108.7,200.1 114.4,186.2 127.9,152.8 164.3,147.7 164.1,147.5 127.8,152.5 
			108.4,200.2 108.2,200.6 108.2,200.7 		"/>
		<path class="st9" d="M108.4,201l36.3-5l0.2-0.4l0.2-0.4l18.7-46l0.5-1.1l0.1-0.3l-36.4,5.1l-13.5,33.4l-5.7,13.9l-0.2,0.4
			L108.4,201z"/>
		<polygon class="st9" points="108.2,200.7 108.4,201 127.9,152.8 127.8,152.5 		"/>
		<polygon class="st20" points="108.2,200.7 108.4,201 127.9,152.8 127.8,152.5 		"/>
		<polygon class="st3" points="110.2,202.8 129.6,155.1 165.8,150.1 164.2,148.1 128,153.1 108.7,200.7 		"/>
		<polygon class="st4" points="108.7,200.7 110.2,202.8 129.6,155.1 128,153.1 		"/>
		<polygon class="st9" points="110.2,203.4 110.4,202.9 110.6,202.5 116.2,188.6 129.8,155.2 166.1,150.1 165.9,149.9 129.6,154.9 
			110.3,202.5 110.1,202.9 110,203.1 		"/>
		<polygon class="st10" points="110.2,203.4 110.4,202.9 110.6,202.5 116.2,188.6 129.8,155.2 166.1,150.1 165.9,149.9 129.6,154.9 
			110.3,202.5 110.1,202.9 110,203.1 		"/>
		<path class="st9" d="M110.2,203.4l36.3-5l0.2-0.4l0.2-0.4l18.7-46l0.5-1.1l0.1-0.3l-36.3,5.1l-13.6,33.4l-5.7,13.9l-0.2,0.4
			L110.2,203.4z"/>
		<path class="st21" d="M110.2,203.4l36.3-5l0.2-0.4l0.2-0.4l18.7-46l0.5-1.1l0.1-0.3l-36.3,5.1l-13.6,33.4l-5.7,13.9l-0.2,0.4
			L110.2,203.4z"/>
		<polygon class="st9" points="110,203.1 110.2,203.4 129.8,155.2 129.6,154.9 		"/>
		<polygon class="st20" points="110,203.1 110.2,203.4 129.8,155.2 129.6,154.9 		"/>
		<g id="freepik--notebook--inject-55">
			<path class="st12" d="M130.1,157.2c-0.1,0.3,0,0.6,0.4,0.5s0.7-0.3,0.9-0.7c0.1-0.3,0-0.6-0.4-0.5S130.2,156.9,130.1,157.2z"/>
			<path class="st9" d="M125.4,156.3c-0.6-0.5-0.6-1.4-0.1-2c0.3-0.3,0.7-0.5,1.1-0.5c0.3,0,0.5,0,0.8,0l-0.2,0.4
				c-0.2,0-0.4,0-0.6,0c-0.6-0.1-1.1,0.3-1.1,0.9c0,0.4,0.1,0.7,0.4,0.9c0.9,1,2.2,1.6,3.5,1.4c0.3,0,0.5-0.1,0.7-0.3
				c0.1-0.1,0.2-0.2,0.3-0.4l0,0c0.1-0.1,0.3-0.2,0.5-0.2c0,0.1,0,0.3-0.1,0.4c-0.1,0.3-0.4,0.5-0.6,0.7c-0.2,0.1-0.5,0.2-0.7,0.2
				C127.9,158,126.4,157.4,125.4,156.3z"/>
			<path class="st12" d="M128.9,160.1c-0.1,0.3,0,0.6,0.4,0.5s0.7-0.3,0.9-0.7c0.1-0.3,0-0.6-0.4-0.5
				C129.4,159.5,129,159.8,128.9,160.1z"/>
			<path class="st9" d="M124.3,159.2c-0.6-0.6-0.5-1.5,0-2c0.3-0.3,0.6-0.4,1-0.4c0.3,0,0.5,0,0.8,0l-0.2,0.4c-0.2,0-0.4,0-0.6,0
				c-0.6-0.1-1.1,0.4-1.1,0.9c0,0.3,0.1,0.7,0.4,0.9c0.9,1,2.2,1.6,3.6,1.4c0.3,0,0.5-0.1,0.7-0.3c0.1-0.1,0.3-0.2,0.3-0.4l0,0
				c0.1-0.1,0.3-0.2,0.4-0.2c0,0.1,0,0.3-0.1,0.4c-0.1,0.3-0.4,0.5-0.6,0.7c-0.2,0.1-0.5,0.2-0.7,0.2
				C126.7,161,125.2,160.4,124.3,159.2z"/>
			<path class="st12" d="M127.7,163c-0.1,0.3,0,0.6,0.4,0.5s0.7-0.3,0.9-0.7c0.1-0.3,0-0.6-0.4-0.5
				C128.2,162.4,127.9,162.7,127.7,163z"/>
			<path class="st9" d="M123.1,162.1c-0.6-0.5-0.6-1.4-0.1-2c0.3-0.3,0.7-0.5,1.1-0.5c0.3,0,0.5,0,0.8,0l-0.2,0.4
				c-0.2,0-0.4,0-0.6,0c-0.4,0-0.8,0.3-1.1,0.6c-0.1,0.4,0,0.8,0.3,1.1c0.9,1,2.2,1.6,3.6,1.4c0.3,0,0.5-0.1,0.7-0.3
				c0.1-0.1,0.2-0.2,0.3-0.4l0,0c0.1-0.1,0.3-0.2,0.5-0.2c0,0.1,0,0.3-0.1,0.4c-0.1,0.3-0.4,0.5-0.6,0.7c-0.2,0.1-0.5,0.2-0.7,0.2
				C125.5,163.8,124.1,163.2,123.1,162.1z"/>
			<path class="st12" d="M126.5,165.9c-0.1,0.3,0,0.6,0.4,0.5s0.7-0.3,0.9-0.7c0.1-0.3,0-0.6-0.4-0.5S126.7,165.6,126.5,165.9z"/>
			<path class="st9" d="M121.9,165c-0.4-0.4-0.5-1-0.4-1.6c0.3-0.5,0.8-0.9,1.4-0.9c0.3,0,0.5,0,0.8,0l-0.2,0.4c-0.2,0-0.4,0-0.6,0
				c-0.6-0.1-1.1,0.4-1.1,0.9c0,0.3,0.1,0.7,0.4,0.9c0.9,1,2.2,1.6,3.5,1.4c0.3,0,0.5-0.1,0.7-0.3c0.1-0.1,0.2-0.2,0.3-0.4l0,0
				c0.1-0.1,0.3-0.2,0.5-0.2c0,0.1,0,0.3-0.1,0.4c-0.1,0.3-0.4,0.5-0.6,0.7c-0.2,0.1-0.5,0.2-0.7,0.2
				C124.3,166.7,122.9,166.1,121.9,165z"/>
			<path class="st12" d="M125.4,168.8c-0.1,0.3,0,0.6,0.4,0.5s0.7-0.3,0.9-0.7c0.1-0.3,0-0.6-0.4-0.5
				C125.9,168.2,125.5,168.5,125.4,168.8z"/>
			<path class="st9" d="M120.7,167.9c-0.6-0.5-0.6-1.4-0.1-2c0.3-0.3,0.7-0.5,1.1-0.5c0.3,0,0.5,0,0.8,0l-0.2,0.4
				c-0.2,0-0.4,0-0.6,0c-0.6-0.1-1.1,0.3-1.2,0.9c-0.1,0.4,0.1,0.7,0.4,1c0.9,1,2.2,1.6,3.6,1.4c0.3,0,0.5-0.1,0.7-0.3
				c0.1-0.1,0.3-0.2,0.3-0.4l0,0c0.1-0.1,0.3-0.2,0.4-0.2c0,0.1,0,0.3-0.1,0.4c-0.1,0.3-0.4,0.5-0.6,0.7c-0.2,0.1-0.5,0.2-0.7,0.2
				C123.1,169.6,121.7,169,120.7,167.9z"/>
			<path class="st12" d="M124.2,171.7c-0.1,0.3,0,0.6,0.4,0.5s0.7-0.3,0.9-0.7c0.1-0.3,0-0.6-0.4-0.5S124.3,171.3,124.2,171.7z"/>
			<path class="st9" d="M119.6,170.8c-0.4-0.4-0.5-1-0.4-1.6c0.3-0.5,0.8-0.9,1.4-0.9c0.3,0,0.5,0,0.8,0l-0.2,0.4
				c-0.2,0-0.4,0-0.6,0c-0.5-0.1-1.1,0.2-1.2,0.7c-0.1,0.4,0.1,0.9,0.5,1.1c0.9,1,2.2,1.6,3.5,1.4c0.3,0,0.5-0.1,0.7-0.3
				c0.1-0.1,0.2-0.2,0.3-0.4l0,0c0.1-0.1,0.3-0.2,0.5-0.2c0,0.2,0,0.3-0.1,0.4c-0.1,0.3-0.4,0.5-0.6,0.7c-0.2,0.1-0.5,0.2-0.7,0.2
				C122,172.5,120.5,171.9,119.6,170.8z"/>
			<path class="st12" d="M123,174.6c-0.1,0.3,0,0.6,0.4,0.5s0.7-0.3,0.9-0.7c0.1-0.3,0-0.6-0.4-0.5C123.5,174,123.2,174.2,123,174.6
				z"/>
			<path class="st9" d="M118.4,173.7c-0.4-0.4-0.5-1-0.4-1.6c0.3-0.5,0.8-0.9,1.4-0.9c0.3,0,0.5,0,0.8,0l-0.2,0.4
				c-0.2,0-0.4,0-0.6,0c-0.4,0-0.8,0.3-1.1,0.6c-0.1,0.4,0,0.8,0.3,1.1c0.9,1,2.2,1.6,3.5,1.4c0.3,0,0.5-0.1,0.7-0.3
				c0.1-0.1,0.3-0.2,0.3-0.4l0,0c0.1-0.1,0.3-0.2,0.5-0.2c0,0.1,0,0.3-0.1,0.4c-0.1,0.3-0.4,0.5-0.6,0.7c-0.2,0.1-0.5,0.2-0.7,0.2
				C120.8,175.4,119.4,174.8,118.4,173.7z"/>
			<path class="st12" d="M121.8,177.5c-0.1,0.3,0,0.6,0.4,0.5s0.7-0.3,0.9-0.7c0.1-0.3,0-0.6-0.4-0.5
				C122.3,176.9,122,177.1,121.8,177.5z"/>
			<path class="st9" d="M117.2,176.5c-0.6-0.5-0.6-1.4-0.1-2c0.3-0.3,0.7-0.5,1.1-0.5c0.3,0,0.5,0,0.8,0l-0.2,0.4
				c-0.2,0-0.4,0-0.6,0c-0.4,0-0.8,0.3-1.1,0.6c-0.1,0.4,0,0.9,0.3,1.2c0.9,1,2.2,1.6,3.6,1.4c0.3,0,0.5-0.1,0.7-0.3
				c0.1-0.1,0.2-0.2,0.3-0.4l0,0c0.1-0.1,0.3-0.2,0.4-0.2c0,0.1,0,0.3-0.1,0.4c-0.1,0.3-0.4,0.5-0.6,0.7c-0.2,0.1-0.5,0.2-0.7,0.2
				C119.7,178.3,118.2,177.7,117.2,176.5z"/>
			<path class="st12" d="M120.6,180.4c-0.1,0.3,0,0.6,0.4,0.5s0.7-0.3,0.9-0.7c0.1-0.3,0-0.6-0.4-0.5S120.8,180,120.6,180.4z"/>
			<path class="st9" d="M116,179.4c-0.6-0.5-0.6-1.4-0.1-2c0.3-0.3,0.7-0.5,1.1-0.5c0.3,0,0.5,0,0.8,0l-0.2,0.4c-0.2,0-0.4,0-0.6,0
				c-0.6-0.1-1.1,0.4-1.1,0.9c0,0.3,0.1,0.7,0.4,0.9c0.9,1,2.2,1.5,3.5,1.4c0.3,0,0.5-0.1,0.7-0.3c0.1-0.1,0.2-0.2,0.3-0.4l0,0
				c0.1-0.1,0.3-0.2,0.5-0.2c0,0.1,0,0.3-0.1,0.4c-0.1,0.3-0.4,0.5-0.6,0.7c-0.2,0.1-0.5,0.2-0.7,0.2
				C118.4,181.2,117,180.6,116,179.4z"/>
			<path class="st12" d="M119.5,183.3c-0.1,0.3,0,0.6,0.4,0.5s0.7-0.3,0.9-0.7c0.1-0.3,0-0.6-0.4-0.5
				C120,182.7,119.6,182.9,119.5,183.3z"/>
			<path class="st9" d="M114.9,182.3c-0.6-0.5-0.6-1.4-0.1-2c0.3-0.3,0.7-0.5,1.1-0.5c0.3,0,0.5,0,0.8,0l-0.2,0.4
				c-0.2,0-0.4,0-0.6,0c-0.6,0-1.1,0.4-1.1,1c0,0.3,0.1,0.6,0.3,0.8c0.9,1,2.2,1.6,3.5,1.5c0.3,0,0.5-0.1,0.7-0.3
				c0.1-0.1,0.3-0.2,0.3-0.4l0,0c0.1-0.1,0.3-0.2,0.5-0.2c0,0.1,0,0.3-0.1,0.4c-0.1,0.3-0.4,0.5-0.6,0.7c-0.2,0.1-0.5,0.2-0.7,0.2
				C117.3,184.1,115.8,183.5,114.9,182.3z"/>
			<path class="st12" d="M118.3,186.2c-0.1,0.3,0,0.6,0.4,0.5s0.7-0.3,0.9-0.7c0.1-0.3,0-0.6-0.4-0.5S118.5,185.8,118.3,186.2z"/>
			<path class="st9" d="M113.7,185.2c-0.6-0.5-0.6-1.4-0.1-2c0.3-0.3,0.7-0.5,1.1-0.5c0.3,0,0.5,0,0.8,0l-0.2,0.4
				c-0.2,0-0.4,0-0.6,0c-0.6-0.1-1.1,0.3-1.1,0.9c0,0.4,0.1,0.7,0.4,0.9c0.9,1,2.2,1.6,3.6,1.5c0.3,0,0.5-0.1,0.7-0.3
				c0.1-0.1,0.2-0.2,0.3-0.4l0,0c0.1-0.1,0.3-0.2,0.4-0.2c0,0.1,0,0.3-0.1,0.4c-0.1,0.3-0.4,0.5-0.6,0.7c-0.2,0.1-0.5,0.2-0.7,0.2
				C116.1,187,114.7,186.4,113.7,185.2z"/>
			<path class="st12" d="M117.1,189.1c-0.1,0.3,0,0.6,0.4,0.5s0.7-0.3,0.9-0.7c0.1-0.3,0-0.6-0.4-0.5
				C117.6,188.4,117.3,188.7,117.1,189.1z"/>
			<path class="st9" d="M112.5,188.1c-0.6-0.5-0.6-1.4-0.1-2c0.3-0.3,0.7-0.5,1.1-0.5c0.3,0,0.5,0,0.8,0l-0.2,0.4
				c-0.2,0-0.4,0-0.6,0c-0.4,0-0.8,0.3-1.1,0.6c-0.1,0.4,0,0.8,0.3,1.1c0.9,1.1,2.2,1.6,3.6,1.5c0.3,0,0.5-0.1,0.7-0.3
				c0.1-0.1,0.2-0.2,0.3-0.4l0,0c0.1-0.1,0.3-0.2,0.5-0.2c0,0.1,0,0.3-0.1,0.4c-0.1,0.3-0.4,0.5-0.6,0.7c-0.2,0.1-0.5,0.2-0.7,0.2
				C115,189.9,113.5,189.3,112.5,188.1z"/>
			<path class="st12" d="M116,192c-0.1,0.3,0,0.6,0.4,0.5s0.7-0.3,0.9-0.7c0.1-0.3,0-0.6-0.4-0.5C116.4,191.3,116.1,191.6,116,192z"
				/>
			<path class="st9" d="M111.3,191c-0.4-0.4-0.5-1-0.4-1.6c0.3-0.5,0.8-0.9,1.4-0.9c0.3,0,0.5,0,0.8,0l-0.2,0.4c-0.2,0-0.4,0-0.6,0
				c-0.6-0.1-1.1,0.4-1.1,0.9c0,0.3,0.1,0.7,0.4,0.9c0.9,1,2.3,1.6,3.6,1.4c0.3,0,0.5-0.1,0.7-0.3c0.1-0.1,0.3-0.2,0.3-0.4l0,0
				c0.1-0.1,0.3-0.2,0.5-0.2c0,0.1,0,0.3-0.1,0.4c-0.1,0.3-0.4,0.5-0.6,0.7c-0.2,0.1-0.5,0.2-0.7,0.2
				C113.8,192.8,112.3,192.2,111.3,191z"/>
			<path class="st12" d="M114.8,194.8c-0.1,0.3,0,0.6,0.4,0.5s0.7-0.3,0.9-0.7c0.1-0.3,0-0.6-0.4-0.5
				C115.3,194.2,114.9,194.5,114.8,194.8z"/>
			<path class="st9" d="M110.2,193.9c-0.6-0.5-0.6-1.4-0.1-2c0.3-0.3,0.7-0.5,1.1-0.5c0.3,0,0.5,0,0.8,0l-0.1,0.4
				c-0.2,0-0.4,0-0.6,0c-0.6-0.1-1.1,0.3-1.1,0.9c0,0.4,0.1,0.7,0.4,0.9c0.9,1,2.2,1.6,3.6,1.4c0.3,0,0.5-0.1,0.7-0.3
				c0.1-0.1,0.3-0.2,0.3-0.4l0,0c0.1-0.1,0.3-0.2,0.4-0.2c0,0.1,0,0.3-0.1,0.4c-0.1,0.3-0.4,0.5-0.6,0.7c-0.2,0.1-0.5,0.2-0.7,0.2
				C112.6,195.6,111.1,195,110.2,193.9z"/>
			<path class="st12" d="M113.6,197.7c-0.1,0.3,0,0.6,0.4,0.5s0.7-0.3,0.9-0.7c0.1-0.3,0-0.6-0.4-0.5S113.8,197.4,113.6,197.7z"/>
			<path class="st9" d="M109,196.8c-0.4-0.4-0.5-1-0.4-1.6c0.3-0.5,0.8-0.9,1.4-0.9c0.3,0,0.5,0,0.8,0l-0.1,0.4c-0.2,0-0.4,0-0.6,0
				c-0.6-0.1-1.1,0.3-1.1,0.9c0,0.4,0.1,0.7,0.4,0.9c0.9,1,2.2,1.6,3.5,1.4c0.3,0,0.5-0.1,0.7-0.3c0.1-0.1,0.2-0.2,0.3-0.4l0,0
				c0.1-0.1,0.3-0.2,0.5-0.2c0,0.2,0,0.3-0.1,0.4c-0.1,0.3-0.4,0.5-0.6,0.7c-0.2,0.1-0.5,0.2-0.7,0.2
				C111.5,198.5,110,197.9,109,196.8z"/>
			<path class="st12" d="M112.4,200.6c-0.1,0.3,0,0.6,0.4,0.5s0.7-0.3,0.9-0.7c0.1-0.3,0-0.6-0.4-0.5
				C112.9,200,112.6,200.3,112.4,200.6z"/>
			<path class="st9" d="M107.8,199.7c-0.4-0.4-0.5-1-0.4-1.6c0.3-0.5,0.8-0.9,1.4-0.9c0.3,0,0.5,0,0.8,0l-0.2,0.4
				c-0.2,0-0.4,0-0.6,0c-0.4,0-0.8,0.3-1.1,0.6c-0.1,0.4,0,0.8,0.3,1.1c0.9,1,2.2,1.6,3.5,1.4c0.3,0,0.5-0.1,0.7-0.3
				c0.1-0.1,0.3-0.2,0.3-0.4l0,0c0.1-0.1,0.3-0.2,0.5-0.2c0,0.1,0,0.3-0.1,0.4c-0.1,0.3-0.4,0.5-0.6,0.7c-0.2,0.1-0.5,0.2-0.7,0.2
				C110.2,201.4,108.8,200.8,107.8,199.7z"/>
			<path class="st22" d="M107.8,199.7c-0.4-0.4-0.5-1-0.4-1.6c0.3-0.5,0.8-0.9,1.4-0.9c0.2,0,0.3,0,0.5,0c-0.1-0.1-0.2-0.2-0.3-0.4
				c-0.4-0.4-0.5-1-0.4-1.6c0.3-0.5,0.8-0.9,1.4-0.9c0.2,0,0.3,0,0.5,0c-0.1-0.1-0.2-0.2-0.3-0.4c-0.6-0.5-0.6-1.4-0.1-2
				c0.3-0.3,0.7-0.5,1.1-0.5c0.2,0,0.3,0,0.5,0c-0.1-0.1-0.2-0.2-0.3-0.4c-0.4-0.4-0.5-1-0.4-1.6c0.3-0.5,0.8-0.9,1.4-0.9
				c0.2,0,0.3,0,0.5,0c-0.1-0.1-0.2-0.2-0.3-0.4c-0.6-0.5-0.6-1.4-0.1-2c0.3-0.3,0.7-0.5,1.1-0.5c0.2,0,0.3,0,0.5,0
				c-0.1-0.1-0.2-0.3-0.3-0.4c-0.6-0.5-0.6-1.4-0.1-2c0.3-0.3,0.7-0.5,1.1-0.5c0.2,0,0.3,0,0.5,0c-0.1-0.1-0.2-0.2-0.3-0.4
				c-0.6-0.5-0.6-1.4-0.1-2c0.3-0.3,0.7-0.5,1.1-0.5c0.2,0,0.3,0,0.5,0c-0.1-0.1-0.2-0.2-0.3-0.4c-0.6-0.5-0.6-1.4-0.1-2
				c0.3-0.3,0.7-0.5,1.1-0.5c0.2,0,0.3,0,0.5,0c-0.1-0.1-0.2-0.2-0.3-0.4c-0.6-0.5-0.6-1.4-0.1-2c0.3-0.3,0.7-0.5,1.1-0.5
				c0.2-0.1,0.3-0.2,0.5-0.3c-0.1-0.1-0.2-0.2-0.4-0.4c-0.4-0.4-0.5-1-0.4-1.6c0.3-0.5,0.8-0.9,1.4-0.9c0.2,0,0.3,0,0.5,0
				c-0.1-0.1-0.2-0.2-0.3-0.4c-0.4-0.4-0.5-1-0.4-1.6c0.3-0.5,0.8-0.9,1.4-0.9c0.2,0,0.3,0,0.5,0c-0.1-0.1-0.2-0.2-0.3-0.4
				c-0.6-0.5-0.6-1.4-0.1-2c0.3-0.3,0.7-0.5,1.1-0.5c0.2,0,0.3,0,0.5,0c-0.1-0.1-0.2-0.2-0.4-0.4c-0.4-0.4-0.5-1-0.4-1.6
				c0.3-0.5,0.8-0.9,1.4-0.9c0.2,0,0.3,0,0.5,0c-0.1-0.1-0.2-0.2-0.3-0.4c-0.6-0.5-0.6-1.4-0.1-2c0.3-0.3,0.7-0.5,1.1-0.5
				c0.2,0,0.3,0,0.5,0c-0.1-0.1-0.2-0.3-0.3-0.4c-0.6-0.5-0.6-1.4-0.1-2c0.3-0.3,0.7-0.5,1.1-0.5c0.2,0,0.3,0,0.5,0
				c-0.1-0.1-0.3-0.2-0.4-0.4c-0.6-0.5-0.6-1.4-0.1-2c0.3-0.3,0.7-0.5,1.1-0.5c0.3,0,0.5,0,0.8,0l-0.2,0.4c-0.2,0-0.4,0-0.6,0
				c-0.6-0.1-1.1,0.3-1.1,0.9c0,0.4,0.1,0.7,0.4,0.9c0.9,1,2.2,1.6,3.5,1.4c0.3,0,0.5-0.1,0.7-0.3c0.1-0.1,0.2-0.2,0.3-0.4l0,0
				c0.1-0.1,0.3-0.2,0.5-0.2c0,0.1,0,0.3-0.1,0.4c-0.1,0.3-0.4,0.5-0.6,0.7c-0.2,0.1-0.5,0.2-0.7,0.2c-1.2,0.1-2.4-0.3-3.4-1
				l-0.1,0.2c-0.2,0-0.4,0-0.6,0c-0.6-0.1-1.1,0.4-1.1,0.9c0,0.3,0.1,0.7,0.4,0.9c0.9,1,2.2,1.6,3.6,1.4c0.3,0,0.5-0.1,0.7-0.3
				c0.1-0.1,0.3-0.2,0.3-0.4l0,0c0.1-0.1,0.3-0.2,0.4-0.2c0,0.1,0,0.3-0.1,0.4c-0.1,0.3-0.4,0.5-0.6,0.7c-0.2,0.1-0.5,0.2-0.7,0.2
				c-1.2,0.1-2.4-0.3-3.4-1l-0.1,0.2c-0.2,0-0.4,0-0.6,0c-0.4,0-0.8,0.3-1.1,0.6c-0.1,0.4,0,0.8,0.3,1.1c0.9,1,2.2,1.6,3.6,1.4
				c0.3,0,0.5-0.1,0.7-0.3c0.1-0.1,0.2-0.2,0.3-0.4l0,0c0.1-0.1,0.3-0.2,0.5-0.2c0,0.1,0,0.3-0.1,0.4c-0.1,0.3-0.4,0.5-0.6,0.7
				c-0.2,0.1-0.5,0.2-0.7,0.2c-1.2,0.1-2.4-0.3-3.4-1l-0.1,0.2c-0.2,0-0.4,0-0.6,0c-0.6-0.1-1.1,0.4-1.1,0.9c0,0.3,0.1,0.7,0.4,0.9
				c0.9,1,2.2,1.6,3.5,1.4c0.3,0,0.5-0.1,0.7-0.3c0.1-0.1,0.2-0.2,0.3-0.4l0,0c0.1-0.1,0.3-0.2,0.5-0.2c0,0.1,0,0.3-0.1,0.4
				c-0.1,0.3-0.4,0.5-0.6,0.7c-0.2,0.1-0.5,0.2-0.7,0.2c-1.2,0.1-2.4-0.3-3.4-1l-0.1,0.2c-0.2,0-0.4,0-0.6,0c-0.6,0-1,0.5-1,1
				c0,0.3,0.1,0.5,0.3,0.7c0.9,1,2.2,1.6,3.6,1.4c0.3,0,0.5-0.1,0.7-0.3c0.1-0.1,0.3-0.2,0.3-0.4l0,0c0.1-0.1,0.3-0.2,0.4-0.2
				c0,0.1,0,0.3-0.1,0.4c-0.1,0.3-0.4,0.5-0.6,0.7c-0.2,0.1-0.5,0.2-0.7,0.2c-1.2,0.1-2.4-0.3-3.4-1l-0.1,0.2c-0.2,0-0.4,0-0.6,0
				c-0.6-0.1-1.1,0.3-1.1,0.9c0,0.4,0.1,0.7,0.4,1c0.9,1,2.2,1.6,3.5,1.4c0.3,0,0.5-0.1,0.7-0.3c0.1-0.1,0.2-0.2,0.3-0.4l0,0
				c0.1-0.1,0.3-0.2,0.5-0.2c0,0.2,0,0.3-0.1,0.4c-0.1,0.3-0.4,0.5-0.6,0.7c-0.2,0.1-0.5,0.2-0.7,0.2c-1.2,0.1-2.4-0.3-3.4-1
				l-0.1,0.2c-0.2,0-0.4,0-0.6,0c-0.4,0-0.8,0.3-1.1,0.6c-0.1,0.4,0,0.8,0.3,1.1c0.9,1,2.2,1.6,3.5,1.4c0.3,0,0.5-0.1,0.7-0.3
				c0.1-0.1,0.3-0.2,0.3-0.4l0,0c0.1-0.1,0.3-0.2,0.5-0.2c0,0.1,0,0.3-0.1,0.4c-0.1,0.3-0.4,0.5-0.6,0.7c-0.2,0.1-0.5,0.2-0.7,0.2
				c-1.2,0.1-2.4-0.3-3.4-1l-0.1,0.2c-0.2,0-0.4,0-0.6,0c-0.4,0-0.8,0.3-1.1,0.6c-0.1,0.4,0.1,0.9,0.4,1.2c0.9,1,2.2,1.6,3.6,1.4
				c0.3,0,0.5-0.1,0.7-0.3c0.1-0.1,0.2-0.2,0.3-0.4l0,0c0.1-0.1,0.3-0.2,0.4-0.2c0,0.1,0,0.3-0.1,0.4c-0.1,0.3-0.4,0.5-0.6,0.7
				c-0.2,0.1-0.5,0.2-0.7,0.2c-1.2,0.1-2.4-0.3-3.4-1l-0.1,0.2c-0.2,0-0.4,0-0.6,0c-0.6-0.1-1.1,0.4-1.1,0.9c0,0.3,0.1,0.7,0.4,0.9
				c0.9,1,2.2,1.5,3.5,1.4c0.3,0,0.5-0.1,0.7-0.3c0.1-0.1,0.2-0.2,0.3-0.4l0,0c0.1-0.1,0.3-0.2,0.5-0.2c0,0.1,0,0.3-0.1,0.4
				c-0.1,0.3-0.4,0.5-0.6,0.7c-0.2,0.1-0.5,0.2-0.7,0.2c-1.2,0.1-2.4-0.3-3.4-1l-0.1,0.2c-0.2,0-0.4,0-0.6,0c-0.6,0-1,0.5-1,1.1
				c0,0.3,0.1,0.5,0.3,0.7c0.9,1,2.2,1.6,3.5,1.5c0.3,0,0.5-0.1,0.7-0.3c0.1-0.1,0.3-0.2,0.3-0.4l0,0c0.1-0.1,0.3-0.2,0.5-0.2
				c0,0.1,0,0.3-0.1,0.4c-0.1,0.3-0.4,0.5-0.6,0.7c-0.2,0.1-0.5,0.2-0.7,0.2c-1.2,0.1-2.4-0.3-3.4-1l-0.1,0.2c-0.2,0-0.4,0-0.6,0
				c-0.6-0.1-1.1,0.3-1.1,0.9c0,0.4,0.1,0.7,0.4,0.9c0.9,1,2.2,1.6,3.6,1.4c0.3,0,0.5-0.1,0.7-0.3c0.1-0.1,0.2-0.2,0.3-0.4l0,0
				c0.1-0.1,0.3-0.2,0.4-0.2c0,0.1,0,0.3-0.1,0.4c-0.1,0.3-0.4,0.5-0.6,0.7c-0.2,0.1-0.5,0.2-0.7,0.2c-1.2,0.1-2.4-0.3-3.4-1
				l-0.1,0.2c-0.2,0-0.4,0-0.6,0c-0.4,0-0.8,0.3-1.1,0.6c-0.1,0.4,0,0.8,0.3,1.1c0.9,1,2.2,1.6,3.6,1.5c0.3,0,0.5-0.1,0.7-0.3
				c0.1-0.1,0.2-0.2,0.3-0.4l0,0c0.1-0.1,0.3-0.2,0.5-0.2c0,0.1,0,0.3-0.1,0.4c-0.1,0.3-0.4,0.5-0.6,0.7c-0.2,0.1-0.5,0.2-0.7,0.2
				c-1.2,0.1-2.4-0.3-3.4-1l-0.1,0.2c-0.2,0-0.4,0-0.6,0c-0.6-0.1-1.1,0.4-1.1,0.9c0,0.3,0.1,0.7,0.4,0.9c0.9,1,2.3,1.6,3.6,1.4
				c0.3,0,0.5-0.1,0.7-0.3c0.1-0.1,0.3-0.2,0.3-0.4l0,0c0.1-0.1,0.3-0.2,0.5-0.2c0,0.1,0,0.3-0.1,0.4c-0.1,0.3-0.4,0.5-0.6,0.7
				c-0.2,0.1-0.5,0.2-0.7,0.2c-1.2,0.1-2.4-0.3-3.4-1l-0.1,0.2c-0.2,0-0.4,0-0.6,0c-0.6-0.1-1.1,0.3-1.1,0.9c0,0.4,0.1,0.7,0.4,0.9
				c0.9,1,2.2,1.6,3.6,1.4c0.3,0,0.5-0.1,0.7-0.3c0.1-0.1,0.3-0.2,0.3-0.4l0,0c0.1-0.1,0.3-0.2,0.4-0.2c0,0.1,0,0.3-0.1,0.4
				c-0.1,0.3-0.4,0.5-0.6,0.7c-0.2,0.1-0.5,0.2-0.7,0.2c-1.2,0.1-2.5-0.3-3.4-1.1v0.2c-0.2,0-0.4,0-0.6,0c-0.6-0.1-1.1,0.3-1.1,0.9
				c0,0.4,0.1,0.7,0.4,0.9c0.9,1,2.2,1.6,3.5,1.4c0.3,0,0.5-0.1,0.7-0.3c0.1-0.1,0.2-0.2,0.3-0.4l0,0c0.1-0.1,0.3-0.2,0.5-0.2
				c0,0.2,0,0.3-0.1,0.4c-0.1,0.3-0.4,0.5-0.6,0.7c-0.2,0.1-0.5,0.2-0.7,0.2c-1.2,0.1-2.4-0.3-3.4-1l-0.1,0.2c-0.2,0-0.4,0-0.6,0
				c-0.4,0-0.8,0.3-1.1,0.6c-0.1,0.4,0,0.8,0.3,1.1c0.9,1,2.2,1.6,3.5,1.4c0.3,0,0.5-0.1,0.7-0.3c0.1-0.1,0.3-0.2,0.3-0.4l0,0
				c0.1-0.1,0.3-0.2,0.5-0.2c0,0.1,0,0.3-0.1,0.4c-0.1,0.3-0.4,0.5-0.6,0.7c-0.2,0.1-0.5,0.2-0.7,0.2
				C110.3,201.4,108.8,200.8,107.8,199.7z"/>
		</g>
	</g>
	<g id="freepik--notebook--inject-55_00000106117299129227964960000006233390902101201322_">
		<path class="st9" d="M162.1,220.8L127.8,235l-0.9-0.1l-0.5-0.3c-0.2-0.2-0.4-0.5-0.3-0.8l6-47.9c0-0.3,0.1-0.5,0.3-0.7
			s0.4-0.4,0.6-0.5l33.6-14.2l0.5,0.4L162.1,220.8z"/>
		<path class="st23" d="M162.1,220.8L127.8,235l-0.9-0.1l-0.5-0.3c-0.2-0.2-0.4-0.5-0.3-0.8l6-47.9c0-0.3,0.1-0.5,0.3-0.7
			s0.4-0.4,0.6-0.5l33.6-14.2l0.5,0.4L162.1,220.8z"/>
		<path class="st9" d="M133,185.5c-0.2,0.2-0.3,0.5-0.3,0.7l-6,47.9c-0.1,0.3,0.1,0.6,0.3,0.8c0.3,0.2,0.6,0.2,0.9,0.1l34.2-13.1
			l5.2-51L133.8,185C133.4,185.2,133.2,185.3,133,185.5z"/>
		<path class="st0" d="M163.3,222.9l-32.8,13.8h-0.4l-2.9-2.2l0,0c-0.1-0.1-0.1-0.2-0.1-0.4l6-47.9c0.1-0.4,0.3-0.7,0.6-0.8
			l32.8-13.8l2.9,2.2L163.3,222.9z"/>
		<path class="st1" d="M136.3,188l-2.9-2.2c-0.1,0.1-0.2,0.3-0.2,0.5l-6,47.9c0,0.1,0,0.3,0.1,0.4l2.9,2.2c-0.1-0.1-0.1-0.2-0.1-0.3
			l6-47.9C136.1,188.3,136.2,188.2,136.3,188z"/>
		<path class="st9" d="M163.7,222l-33.2,15l-0.9-0.1l-0.5-0.4c-0.2-0.2-0.4-0.5-0.3-0.8l6-47.9c0-0.3,0.1-0.5,0.3-0.7
			s0.4-0.4,0.6-0.5l33.6-14.1l0.5,0.4L163.7,222z"/>
		<path class="st23" d="M163.7,222l-33.2,15l-0.9-0.1l-0.5-0.4c-0.2-0.2-0.4-0.5-0.3-0.8l6-47.9c0-0.3,0.1-0.5,0.3-0.7
			s0.4-0.4,0.6-0.5l33.6-14.1l0.5,0.4L163.7,222z"/>
		<path class="st9" d="M135.7,187.6c-0.2,0.2-0.3,0.5-0.3,0.7l-6,47.9c-0.1,0.3,0.1,0.6,0.3,0.8c0.3,0.2,0.6,0.2,0.9,0.1l33-13.9
			l6.3-50.2l-33.5,14.1C136.1,187.2,135.8,187.4,135.7,187.6z"/>
		<path class="st7" d="M167.6,177.3c-0.3,0.1-0.5,0-0.4-0.3s0.3-0.6,0.6-0.8c0.3-0.1,0.5,0,0.4,0.3
			C168.1,176.9,167.9,177.2,167.6,177.3z"/>
		<path class="st7" d="M167.2,180.7c-0.3,0.1-0.5,0-0.4-0.3s0.3-0.6,0.6-0.8c0.3-0.1,0.5,0,0.4,0.3
			C167.7,180.3,167.5,180.6,167.2,180.7z"/>
		<path class="st7" d="M166.7,184.1c-0.3,0.1-0.5,0-0.4-0.3s0.3-0.6,0.6-0.8c0.3-0.1,0.5,0,0.4,0.3
			C167.3,183.6,167.1,183.9,166.7,184.1z"/>
		<path class="st7" d="M166.3,187.4c-0.3,0.1-0.5,0-0.4-0.3s0.3-0.6,0.6-0.8c0.3-0.1,0.5,0,0.4,0.3
			C166.8,187,166.6,187.3,166.3,187.4z"/>
		<path class="st7" d="M165.9,190.8c-0.3,0.1-0.5,0-0.4-0.3s0.3-0.6,0.6-0.8c0.3-0.1,0.5,0,0.4,0.3
			C166.4,190.4,166.2,190.6,165.9,190.8z"/>
		<path class="st7" d="M165.5,194.2c-0.3,0.1-0.5,0-0.4-0.3s0.3-0.6,0.6-0.8c0.3-0.1,0.5,0,0.4,0.3S165.8,194,165.5,194.2z"/>
		<path class="st7" d="M165,197.5c-0.3,0.1-0.5,0-0.4-0.3s0.3-0.6,0.6-0.8c0.3-0.1,0.5,0,0.4,0.3C165.6,197.1,165.4,197.4,165,197.5
			z"/>
		<path class="st7" d="M164.7,200.9c-0.3,0.1-0.5,0-0.4-0.3s0.3-0.6,0.6-0.8c0.3-0.1,0.5,0,0.4,0.3
			C165.2,200.5,165,200.7,164.7,200.9z"/>
		<path class="st7" d="M164.2,204.3c-0.3,0.1-0.5,0-0.4-0.3s0.3-0.6,0.6-0.8c0.3-0.1,0.5,0,0.4,0.3S164.5,204.1,164.2,204.3z"/>
		<path class="st7" d="M163.7,207.8c-0.3,0.1-0.5,0-0.4-0.3s0.3-0.6,0.6-0.8c0.3-0.1,0.5,0,0.4,0.3
			C164.3,207.3,164,207.6,163.7,207.8z"/>
		<path class="st7" d="M163.3,211.3c-0.3,0.1-0.5,0-0.4-0.3s0.3-0.6,0.6-0.8c0.3-0.1,0.5,0,0.4,0.3
			C163.8,210.9,163.6,211.2,163.3,211.3z"/>
		<path class="st7" d="M162.9,214.9c-0.3,0.1-0.5,0-0.4-0.3s0.3-0.6,0.6-0.8c0.3-0.1,0.5,0,0.4,0.3S163.2,214.7,162.9,214.9z"/>
		<path class="st7" d="M162.4,218.4c-0.3,0.1-0.5,0-0.4-0.3s0.3-0.6,0.6-0.8c0.3-0.1,0.5,0,0.4,0.3S162.7,218.2,162.4,218.4z"/>
		<path class="st7" d="M162,221.9c-0.3,0.1-0.5,0-0.4-0.3s0.3-0.6,0.6-0.8c0.3-0.1,0.5,0,0.4,0.3C162.5,221.5,162.3,221.8,162,221.9
			z"/>
		<path class="st9" d="M170.1,174.5c-0.1-0.1-0.3-0.2-0.4-0.3l-0.1,0.4c0.1,0,0.2,0.1,0.2,0.2c0.4,0.2,0.7,0.7,0.7,1.1
			c0,0.1-0.1,0.3-0.2,0.4c-0.1,0.2-0.3,0.3-0.5,0.4c-0.8,0.3-1.7,0.3-2.6-0.1c-0.1,0.1-0.1,0.2-0.2,0.3c0.9,0.4,1.9,0.4,2.9,0.1
			c0.4-0.1,0.8-0.5,0.9-1C170.9,175.4,170.6,174.8,170.1,174.5z"/>
		<path class="st7" d="M169.6,174.1L169.6,174.1L169.6,174.1L169.6,174.1z"/>
		<path class="st9" d="M169.7,177.8l-0.4-0.3v0.4c0.1,0,0.2,0.1,0.2,0.2c0.4,0.2,0.7,0.7,0.7,1.1c0,0.1-0.1,0.2-0.1,0.3
			c-0.1,0.2-0.3,0.3-0.5,0.4c-0.8,0.3-1.8,0.2-2.6-0.1c-0.1,0.1-0.1,0.2-0.2,0.3c0.9,0.4,1.9,0.4,2.9,0.1c0.5-0.1,0.8-0.5,0.9-1
			C170.5,178.7,170.2,178.1,169.7,177.8z"/>
		<path class="st9" d="M169.3,181.2l-0.4-0.3v0.4c0.1,0,0.2,0.1,0.2,0.2c0.4,0.2,0.7,0.7,0.7,1.1c0,0.1-0.1,0.2-0.1,0.3
			c-0.1,0.2-0.3,0.3-0.5,0.4c-0.8,0.3-1.7,0.3-2.6-0.1c-0.1,0.1-0.1,0.2-0.2,0.3c0.9,0.4,1.9,0.4,2.9,0.1c0.5-0.1,0.8-0.5,0.9-1
			C170.1,182.1,169.8,181.5,169.3,181.2z"/>
		<path class="st9" d="M168.9,184.6l-0.4-0.3l-0.1,0.4l0.2,0.2c0.4,0.2,0.7,0.7,0.7,1.1c0,0.1-0.1,0.2-0.1,0.3
			c-0.1,0.2-0.3,0.3-0.5,0.4c-0.8,0.3-1.7,0.2-2.6-0.1c-0.1,0.1-0.1,0.2-0.2,0.3c0.9,0.4,1.9,0.4,2.9,0.1c0.5-0.1,0.8-0.5,0.9-1
			C169.7,185.5,169.4,184.9,168.9,184.6z"/>
		<path class="st9" d="M168.4,187.9l-0.4-0.3v0.4l0.2,0.2c0.4,0.2,0.7,0.7,0.7,1.1c0,0.1-0.1,0.2-0.1,0.3c-0.1,0.2-0.3,0.3-0.5,0.4
			c-0.8,0.3-1.7,0.2-2.6-0.1c-0.1,0.1-0.1,0.2-0.2,0.3c0.9,0.4,1.9,0.4,2.9,0.1c0.5-0.1,0.8-0.5,0.9-1
			C169.3,188.8,169,188.2,168.4,187.9z"/>
		<path class="st9" d="M168,191.3l-0.4-0.3v0.4l0.2,0.2c0.4,0.2,0.7,0.7,0.7,1.1c0,0.1-0.1,0.2-0.1,0.3c-0.1,0.2-0.3,0.3-0.5,0.4
			c-0.8,0.3-1.7,0.2-2.6-0.1c-0.1,0.1-0.1,0.2-0.2,0.3c0.9,0.4,1.9,0.4,2.9,0.1c0.5-0.1,0.8-0.5,0.9-1
			C168.9,192.2,168.5,191.6,168,191.3z"/>
		<path class="st9" d="M167.6,194.7c-0.1-0.1-0.3-0.2-0.4-0.3v0.4l0.2,0.2c0.4,0.2,0.7,0.7,0.7,1.1c0,0.1-0.1,0.2-0.1,0.3
			c-0.1,0.2-0.3,0.3-0.5,0.4c-0.8,0.3-1.7,0.2-2.6-0.1c-0.1,0.1-0.1,0.2-0.2,0.3c0.9,0.4,1.9,0.4,2.9,0.1c0.4-0.1,0.8-0.5,0.9-1
			C168.4,195.5,168.1,195,167.6,194.7z"/>
		<path class="st9" d="M167.2,198c-0.1-0.1-0.3-0.2-0.4-0.3v0.4l0.2,0.2c0.4,0.2,0.7,0.7,0.7,1.1c0,0.1-0.1,0.2-0.1,0.3
			c-0.1,0.2-0.3,0.3-0.5,0.4c-0.8,0.3-1.7,0.2-2.6-0.1c-0.1,0.1-0.1,0.2-0.2,0.3c0.9,0.4,1.9,0.4,2.9,0.1c0.4-0.1,0.8-0.5,0.9-1
			C168,198.9,167.7,198.4,167.2,198z"/>
		<path class="st9" d="M166.7,201.4c-0.1-0.1-0.3-0.2-0.4-0.3v0.4l0.2,0.2c0.4,0.2,0.7,0.7,0.7,1.1c0,0.1-0.1,0.2-0.1,0.3
			c-0.1,0.2-0.3,0.3-0.5,0.4c-0.8,0.3-1.7,0.2-2.6-0.1c-0.1,0.1-0.1,0.2-0.2,0.3c0.9,0.4,1.9,0.4,2.9,0.1c0.4-0.1,0.8-0.5,0.9-1
			C167.6,202.3,167.3,201.7,166.7,201.4z"/>
		<path class="st9" d="M166.3,204.9c-0.1-0.1-0.3-0.2-0.4-0.3v0.4l0.2,0.2c0.4,0.2,0.7,0.7,0.7,1.1c0,0.1-0.1,0.2-0.1,0.3
			c-0.1,0.2-0.3,0.3-0.5,0.4c-0.8,0.3-1.7,0.2-2.6-0.1c-0.1,0.1-0.1,0.2-0.2,0.3c0.9,0.4,1.9,0.4,2.9,0.1c0.4-0.1,0.8-0.5,0.9-1
			C167.2,205.8,166.8,205.2,166.3,204.9z"/>
		<path class="st9" d="M165.8,208.5c-0.1-0.1-0.3-0.2-0.4-0.3v0.4c0.1,0,0.2,0.1,0.2,0.2c0.4,0.2,0.7,0.7,0.7,1.1
			c0,0.1-0.1,0.2-0.1,0.3c-0.1,0.2-0.3,0.3-0.5,0.4c-0.8,0.3-1.7,0.3-2.6-0.1c-0.1,0.1-0.1,0.2-0.2,0.3c0.9,0.4,1.9,0.4,2.9,0.1
			c0.4-0.1,0.8-0.5,0.9-1C166.7,209.3,166.4,208.7,165.8,208.5z"/>
		<path class="st9" d="M165.4,212c-0.1-0.1-0.3-0.2-0.4-0.3v0.4l0.2,0.2c0.4,0.2,0.7,0.7,0.7,1.1c0,0.1-0.1,0.2-0.1,0.3
			c-0.1,0.2-0.3,0.3-0.5,0.4c-0.8,0.3-1.7,0.2-2.6-0.1c-0.1,0.1-0.1,0.2-0.2,0.3c0.9,0.4,1.9,0.4,2.9,0.1c0.4-0.1,0.8-0.5,0.9-1
			C166.3,212.9,165.9,212.3,165.4,212z"/>
		<path class="st9" d="M165,215.5c-0.1-0.1-0.3-0.2-0.4-0.3v0.4l0.2,0.2c0.4,0.2,0.7,0.7,0.7,1.1c0,0.1-0.1,0.2-0.1,0.3
			c-0.1,0.2-0.3,0.3-0.5,0.4c-0.8,0.3-1.7,0.3-2.6-0.1c-0.1,0.1-0.1,0.2-0.2,0.3c0.9,0.4,1.9,0.4,2.9,0.1c0.4-0.1,0.8-0.5,0.9-1
			C165.8,216.4,165.5,215.8,165,215.5z"/>
		<path class="st9" d="M164.5,219.1c-0.1-0.1-0.3-0.2-0.4-0.3l-0.1,0.4c0.1,0,0.2,0.1,0.2,0.2c0.4,0.2,0.7,0.7,0.7,1.1
			c0,0.1-0.1,0.2-0.1,0.3c-0.1,0.2-0.3,0.3-0.5,0.4c-0.8,0.3-1.7,0.2-2.6-0.1c-0.1,0.1-0.1,0.2-0.2,0.3c0.9,0.4,1.9,0.4,2.9,0.1
			c0.5-0.1,0.8-0.5,0.9-1C165.3,219.9,165,219.4,164.5,219.1z"/>
		<g class="st24">
			<path d="M170.1,174.5c-0.1-0.1-0.3-0.2-0.4-0.3l-0.1,0.4c0.1,0,0.2,0.1,0.2,0.2c0.4,0.2,0.7,0.7,0.7,1.1c0,0.1-0.1,0.3-0.2,0.4
				c-0.1,0.2-0.3,0.3-0.5,0.4c-0.8,0.3-1.7,0.3-2.6-0.1c-0.1,0.1-0.1,0.2-0.2,0.3c0.9,0.4,1.9,0.4,2.9,0.1c0.4-0.1,0.8-0.5,0.9-1
				C170.9,175.4,170.6,174.8,170.1,174.5z"/>
			<path d="M169.7,177.8l-0.4-0.3v0.4c0.1,0,0.2,0.1,0.2,0.2c0.4,0.2,0.7,0.7,0.7,1.1c0,0.1-0.1,0.2-0.1,0.3
				c-0.1,0.2-0.3,0.3-0.5,0.4c-0.8,0.3-1.8,0.2-2.6-0.1c-0.1,0.1-0.1,0.2-0.2,0.3c0.9,0.4,1.9,0.4,2.9,0.1c0.5-0.1,0.8-0.5,0.9-1
				C170.5,178.7,170.2,178.1,169.7,177.8z"/>
			<path d="M169.3,181.2l-0.4-0.3v0.4c0.1,0,0.2,0.1,0.2,0.2c0.4,0.2,0.7,0.7,0.7,1.1c0,0.1-0.1,0.2-0.1,0.3
				c-0.1,0.2-0.3,0.3-0.5,0.4c-0.8,0.3-1.7,0.3-2.6-0.1c-0.1,0.1-0.1,0.2-0.2,0.3c0.9,0.4,1.9,0.4,2.9,0.1c0.5-0.1,0.8-0.5,0.9-1
				C170.1,182.1,169.8,181.5,169.3,181.2z"/>
			<path d="M168.9,184.6l-0.4-0.3l-0.1,0.4l0.2,0.2c0.4,0.2,0.7,0.7,0.7,1.1c0,0.1-0.1,0.2-0.1,0.3c-0.1,0.2-0.3,0.3-0.5,0.4
				c-0.8,0.3-1.7,0.2-2.6-0.1c-0.1,0.1-0.1,0.2-0.2,0.3c0.9,0.4,1.9,0.4,2.9,0.1c0.5-0.1,0.8-0.5,0.9-1
				C169.7,185.5,169.4,184.9,168.9,184.6z"/>
			<path d="M168.4,187.9l-0.4-0.3v0.4l0.2,0.2c0.4,0.2,0.7,0.7,0.7,1.1c0,0.1-0.1,0.2-0.1,0.3c-0.1,0.2-0.3,0.3-0.5,0.4
				c-0.8,0.3-1.7,0.2-2.6-0.1c-0.1,0.1-0.1,0.2-0.2,0.3c0.9,0.4,1.9,0.4,2.9,0.1c0.5-0.1,0.8-0.5,0.9-1
				C169.3,188.8,169,188.2,168.4,187.9z"/>
			<path d="M168,191.3l-0.4-0.3v0.4l0.2,0.2c0.4,0.2,0.7,0.7,0.7,1.1c0,0.1-0.1,0.2-0.1,0.3c-0.1,0.2-0.3,0.3-0.5,0.4
				c-0.8,0.3-1.7,0.2-2.6-0.1c-0.1,0.1-0.1,0.2-0.2,0.3c0.9,0.4,1.9,0.4,2.9,0.1c0.5-0.1,0.8-0.5,0.9-1
				C168.9,192.2,168.5,191.6,168,191.3z"/>
			<path d="M167.6,194.7c-0.1-0.1-0.3-0.2-0.4-0.3v0.4l0.2,0.2c0.4,0.2,0.7,0.7,0.7,1.1c0,0.1-0.1,0.2-0.1,0.3
				c-0.1,0.2-0.3,0.3-0.5,0.4c-0.8,0.3-1.7,0.2-2.6-0.1c-0.1,0.1-0.1,0.2-0.2,0.3c0.9,0.4,1.9,0.4,2.9,0.1c0.4-0.1,0.8-0.5,0.9-1
				C168.4,195.5,168.1,195,167.6,194.7z"/>
			<path d="M167.2,198c-0.1-0.1-0.3-0.2-0.4-0.3v0.4l0.2,0.2c0.4,0.2,0.7,0.7,0.7,1.1c0,0.1-0.1,0.2-0.1,0.3
				c-0.1,0.2-0.3,0.3-0.5,0.4c-0.8,0.3-1.7,0.2-2.6-0.1c-0.1,0.1-0.1,0.2-0.2,0.3c0.9,0.4,1.9,0.4,2.9,0.1c0.4-0.1,0.8-0.5,0.9-1
				C168,198.9,167.7,198.4,167.2,198z"/>
			<path d="M164.5,219.1c-0.1-0.1-0.3-0.2-0.4-0.3l-0.1,0.4c0.1,0,0.2,0.1,0.2,0.2c0.4,0.2,0.7,0.7,0.7,1.1c0,0.1-0.1,0.2-0.1,0.3
				c-0.1,0.2-0.3,0.3-0.5,0.4c-0.8,0.3-1.7,0.2-2.6-0.1c-0.1,0.1-0.1,0.2-0.2,0.3c0.9,0.4,1.9,0.4,2.9,0.1c0.5-0.1,0.8-0.5,0.9-1
				C165.3,219.9,165,219.4,164.5,219.1z"/>
			<path d="M164.5,219.1c-0.1-0.1-0.3-0.2-0.4-0.3l-0.1,0.4c0.1,0,0.2,0.1,0.2,0.2c0.4,0.2,0.7,0.7,0.7,1.1c0,0.1-0.1,0.2-0.1,0.3
				c-0.1,0.2-0.3,0.3-0.5,0.4c-0.8,0.3-1.7,0.2-2.6-0.1c-0.1,0.1-0.1,0.2-0.2,0.3c0.9,0.4,1.9,0.4,2.9,0.1c0.5-0.1,0.8-0.5,0.9-1
				C165.3,219.9,165,219.4,164.5,219.1z"/>
			<path d="M164.5,219.1c-0.1-0.1-0.3-0.2-0.4-0.3l-0.1,0.4c0.1,0,0.2,0.1,0.2,0.2c0.4,0.2,0.7,0.7,0.7,1.1c0,0.1-0.1,0.2-0.1,0.3
				c-0.1,0.2-0.3,0.3-0.5,0.4c-0.8,0.3-1.7,0.2-2.6-0.1c-0.1,0.1-0.1,0.2-0.2,0.3c0.9,0.4,1.9,0.4,2.9,0.1c0.5-0.1,0.8-0.5,0.9-1
				C165.3,219.9,165,219.4,164.5,219.1z"/>
			<path d="M164.5,219.1c-0.1-0.1-0.3-0.2-0.4-0.3l-0.1,0.4c0.1,0,0.2,0.1,0.2,0.2c0.4,0.2,0.7,0.7,0.7,1.1c0,0.1-0.1,0.2-0.1,0.3
				c-0.1,0.2-0.3,0.3-0.5,0.4c-0.8,0.3-1.7,0.2-2.6-0.1c-0.1,0.1-0.1,0.2-0.2,0.3c0.9,0.4,1.9,0.4,2.9,0.1c0.5-0.1,0.8-0.5,0.9-1
				C165.3,219.9,165,219.4,164.5,219.1z"/>
			<path d="M164.5,219.1c-0.1-0.1-0.3-0.2-0.4-0.3l-0.1,0.4c0.1,0,0.2,0.1,0.2,0.2c0.4,0.2,0.7,0.7,0.7,1.1c0,0.1-0.1,0.2-0.1,0.3
				c-0.1,0.2-0.3,0.3-0.5,0.4c-0.8,0.3-1.7,0.2-2.6-0.1c-0.1,0.1-0.1,0.2-0.2,0.3c0.9,0.4,1.9,0.4,2.9,0.1c0.5-0.1,0.8-0.5,0.9-1
				C165.3,219.9,165,219.4,164.5,219.1z"/>
			<path d="M164.5,219.1c-0.1-0.1-0.3-0.2-0.4-0.3l-0.1,0.4c0.1,0,0.2,0.1,0.2,0.2c0.4,0.2,0.7,0.7,0.7,1.1c0,0.1-0.1,0.2-0.1,0.3
				c-0.1,0.2-0.3,0.3-0.5,0.4c-0.8,0.3-1.7,0.2-2.6-0.1c-0.1,0.1-0.1,0.2-0.2,0.3c0.9,0.4,1.9,0.4,2.9,0.1c0.5-0.1,0.8-0.5,0.9-1
				C165.3,219.9,165,219.4,164.5,219.1z"/>
		</g>
	</g>
</g>
<g id="freepik--Folder--inject-55">
	<g id="freepik--Carpet--inject-55">
		<polygon class="st9" points="183,123.4 172.3,76.6 118.9,68.3 128.5,114.9 		"/>
		<polygon class="st17" points="183,123.4 172.3,76.6 118.9,68.3 128.5,114.9 		"/>
		<polygon class="st18" points="179.9,120.1 169.2,80.5 112.4,71.8 128.3,112.1 		"/>
		<path class="st4" d="M159.8,96.8c-6.3-5.2-11.1-11.8-14.1-19.4c-5.2-12.8-4-22.6-4-22.6l-51.8-7.4c-0.2,7.2,0.8,14.4,3.1,21.2
			c3.1,9.5,12,20.1,12,20.1L159.8,96.8z"/>
		<path class="st18" d="M159.8,96.8c-12.3-10-19.2-26.3-18.4-42c1.6,0.9-51.9-7.2-51.6-6.9l0.5-0.4c-0.2,7.5,0.9,14.9,3.3,22
			c2.6,7,7,13.2,11.6,19C104.2,88.1,160.1,96.9,159.8,96.8L159.8,96.8z M159.8,96.8c-0.2-0.1-55-7.7-55.1-8
			c-4.7-5.9-9.1-12.1-11.8-19.2c-2.6-7.3-3.7-15-3.4-22.7L90,47c0.3,0.1,51.8,7.5,52,7.6C141.1,70.1,147.7,86.6,159.8,96.8
			L159.8,96.8z"/>
		<polygon class="st9" points="103.9,76.7 128.5,114.9 183,123.4 160.1,87.7 126.3,83.4 122.5,80.2 		"/>
	</g>
</g>
<g id="freepik--Lines--inject-55">
	<g id="freepik--lines--inject-55">
		<path class="st8" d="M253.3,415.5l-3.1,0.1c-0.5,0-1,0-1.6,0H247l-3.1-0.1c-1-0.1-2.1-0.2-3.1-0.2c-2.1-0.1-4.1-0.5-6.2-0.8
			c-4.1-0.7-8.1-1.8-12-3.1c-3.9-1.4-7.7-3.1-11.3-5.2c-7.2-4.1-13.8-9.4-19.4-15.5c-2.8-3.1-5.4-6.3-7.8-9.8
			c-2.4-3.4-4.5-7-6.3-10.8c3.4,7.7,8,14.8,13.6,21.1c5.6,6.3,12.1,11.7,19.4,15.9c3.7,2.1,7.5,3.8,11.5,5.2l3,1c1,0.3,2,0.5,3,0.8
			l1.5,0.4l1.5,0.3c1,0.2,2.1,0.4,3.1,0.5c2.1,0.2,4.2,0.6,6.3,0.6l3.1,0.2h3.1h1.6c0.5,0,1.1-0.1,1.6-0.1l3.1-0.2
			c2.1-0.2,4.2-0.5,6.2-0.8l-3.1,0.3C255.4,415.4,254.4,415.5,253.3,415.5z"/>
		<path class="st8" d="M240.9,424.6c-5.6,0.3-11.1,0.1-16.6-0.7c-5.5-0.8-10.9-2.2-16-4.4c-0.6-0.2-1.3-0.5-1.9-0.9l-1.9-0.9
			c-0.6-0.3-1.2-0.7-1.8-1s-1.2-0.7-1.8-1.1c-2.4-1.5-4.6-3.2-6.6-5.1c0.9,1,1.9,2,3,2.9c0.5,0.4,1,0.9,1.6,1.4l1.7,1.2
			c0.6,0.4,1.2,0.8,1.8,1.2c0.6,0.4,1.2,0.8,1.8,1.1l1.9,1c0.6,0.3,1.3,0.7,1.9,0.9c5.2,2.3,10.6,3.9,16.2,4.7
			c5.6,0.8,11.2,1,16.9,0.5c2.8-0.3,5.6-0.6,8.4-1.2c2.8-0.6,5.5-1.2,8.2-1.9c-2.8,0.5-5.5,1.2-8.3,1.4
			C246.4,424,243.7,424.4,240.9,424.6z"/>
		<path class="st8" d="M200.2,65.6c0.7-0.9,1.6-1.7,2.4-2.5c0.4-0.4,0.8-0.8,1.3-1.2c0.4-0.4,0.8-0.8,1.3-1.1
			c3.5-2.9,7.5-5.2,11.8-6.8c4.2-1.7,8.7-2.8,13.2-3.3c2.3-0.3,4.5-0.5,6.8-0.6s4.6,0,6.9,0.1c-4.6-0.7-9.2-0.8-13.8-0.3
			s-9.1,1.5-13.5,3.2c-4.3,1.7-8.3,4.1-11.9,7.1c-3.5,3-6.4,6.7-8.6,10.7C197.3,69.2,198.7,67.3,200.2,65.6z"/>
		<path class="st8" d="M221,62.3c-2.7,1.4-5.2,3.1-7.5,5c-1.1,1-2.2,2-3.2,3.2c-0.5,0.6-1,1.2-1.4,1.8c-0.4,0.6-0.8,1.3-1.2,1.9
			c0.5-0.6,1-1.2,1.4-1.7c0.5-0.6,1-1.1,1.5-1.6c1-1.1,2.2-2,3.3-2.9c2.4-1.8,4.9-3.4,7.5-4.7c2.6-1.4,5.4-2.6,8.2-3.5
			c1.4-0.5,2.8-0.9,4.3-1.2c1.4-0.4,2.9-0.6,4.4-0.8c-3,0-6,0.5-8.9,1.4C226.6,59.8,223.7,60.9,221,62.3z"/>
	</g>
</g>
</svg>
