<?xml version="1.0" encoding="utf-8"?>
<!-- Generator: Adobe Illustrator 26.3.0, SVG Export Plug-In . SVG Version: 6.00 Build 0)  -->
<svg version="1.1" id="Layer_1" xmlns="http://www.w3.org/2000/svg" xmlns:xlink="http://www.w3.org/1999/xlink" x="0px" y="0px"
	 viewBox="0 0 500 500" style="enable-background:new 0 0 500 500;" xml:space="preserve">
<style type="text/css">
	.st0{fill:#407BFF;}
	.st1{opacity:0.9;fill:#FFFFFF;enable-background:new    ;}
	.st2{fill:#F5F5F5;}
	.st3{fill:#263238;}
	.st4{opacity:0.4;fill:#FFFFFF;enable-background:new    ;}
	.st5{opacity:0.6;fill:#FFFFFF;enable-background:new    ;}
	.st6{fill:#FFB573;}
	.st7{opacity:0.2;enable-background:new    ;}
	.st8{fill:#ED847E;}
	.st9{fill:#FFFFFF;}
	.st10{fill:#ED893E;}
</style>
<g id="freepik--background-simple--inject-590">
	<path class="st0" d="M294.2,161.3c42.4,7.6,77.2,1.2,110.8,40.7c31.8,37.3,27.3,71.9,1.5,102.8c-67.4,80.6-151.4-13.2-246.4-24
		C77.4,271.3,40.4,137,105.9,86.2C127,69.8,170,53.5,198.4,72.6C238.3,99.5,236,150.9,294.2,161.3z"/>
	<path class="st1" d="M294.2,161.3c42.4,7.6,77.2,1.2,110.8,40.7c31.8,37.3,27.3,71.9,1.5,102.8c-67.4,80.6-151.4-13.2-246.4-24
		C77.4,271.3,40.4,137,105.9,86.2C127,69.8,170,53.5,198.4,72.6C238.3,99.5,236,150.9,294.2,161.3z"/>
</g>
<g id="freepik--Shadow--inject-590">
	<ellipse id="freepik--path--inject-590" class="st2" cx="250" cy="416.2" rx="193.9" ry="11.3"/>
</g>
<g id="freepik--Plant--inject-590">
	
		<rect x="389.4" y="394.8" transform="matrix(0.1378 -0.9905 0.9905 0.1378 -53.4267 729.1951)" class="st0" width="5.4" height="1"/>
	
		<rect x="383.9" y="374.3" transform="matrix(0.1378 -0.9905 0.9905 0.1378 -30.69 714.3414)" class="st0" width="22.2" height="1"/>
	<path class="st0" d="M395,352.9h-60.2l6.2,44.7c1.4,10.2,10.1,17.7,20.4,17.7h7.1c10.3,0,19-7.6,20.4-17.7L395,352.9z"/>
	<ellipse class="st3" cx="364.9" cy="352.9" rx="30.1" ry="3.5"/>
	<path class="st0" d="M374.4,334.1c-17.8-3.8-11-39.5,0.8-66.1c12-26.9,19.5-32.5,28.6-31.6c9.2,0.9-1.3,31.2-5.8,49.9
		S395.1,338.5,374.4,334.1z"/>
	<path class="st4" d="M374.4,334.1c-17.8-3.8-11-39.5,0.8-66.1c12-26.9,19.5-32.5,28.6-31.6c9.2,0.9-1.3,31.2-5.8,49.9
		S395.1,338.5,374.4,334.1z"/>
	<path class="st3" d="M373,353.8L373,353.8c-0.2,0-0.4-0.2-0.4-0.4c0.2-31.8,8-78.4,22-102.2c0.1-0.2,0.4-0.3,0.6-0.2
		c0.2,0.1,0.3,0.4,0.1,0.6c-14,23.7-21.7,70.1-21.9,101.8C373.5,353.7,373.3,353.8,373,353.8C373,353.8,373,353.8,373,353.8z"/>
	<path class="st3" d="M372.7,302c-3.3,2.3-6.7,2.6-8.8,4.9c-1.4,12.5,0.4,22.8,7.6,26.3C374.2,330.5,374.8,312.4,372.7,302z"/>
	<path class="st0" d="M372.6,283.1c-0.6,19.2,7.9,51.7-13.3,51.7c-18.2,0-18.9-36.4-12.7-64.9c6.3-28.8,14.8-42.8,23.8-43.8
		c3.7-0.4,4.9,5.5,4.9,13.9c-5.9,0.5-7.5,1.9-7.5,1.9c2.5,0.4,5,1,7.5,1.8C375,256.2,372.9,272.6,372.6,283.1z"/>
	<path class="st0" d="M349.5,342.1c11.8-3.7,4.9-27.3-4.9-44.5c-9.9-17.4-15.3-20.6-21.3-19.5s2.9,20.9,7.2,33.2
		S335.8,346.4,349.5,342.1z"/>
	<path class="st4" d="M349.5,342.1c11.8-3.7,4.9-27.3-4.9-44.5c-9.9-17.4-15.3-20.6-21.3-19.5s2.9,20.9,7.2,33.2
		S335.8,346.4,349.5,342.1z"/>
	<path class="st3" d="M351.7,355.5c-0.2,0-0.4-0.2-0.4-0.4c-2.2-21.3-10.4-52.1-21.3-67.1c-0.1-0.2-0.1-0.5,0.1-0.6c0,0,0,0,0,0
		c0.2-0.1,0.4-0.1,0.6,0.1c0,0,0,0,0,0c11,15.2,19.3,46.1,21.5,67.5C352.1,355.3,352,355.5,351.7,355.5
		C351.7,355.5,351.7,355.5,351.7,355.5L351.7,355.5z"/>
	<path class="st3" d="M361.9,354.4c-0.2,0-0.4-0.1-0.4-0.4c-6.3-31.1-8.3-78.4,0.6-104.5c0.1-0.2,0.3-0.3,0.5-0.3
		c0.2,0.1,0.3,0.3,0.3,0.5c0,0,0,0,0,0c-8.8,26-6.9,73.1-0.6,104.1C362.3,354.1,362.2,354.3,361.9,354.4
		C362,354.3,362,354.3,361.9,354.4L361.9,354.4z"/>
	<path class="st3" d="M386.2,271.9c-0.2,0-0.3-0.1-0.4-0.2c-0.1-0.2-0.1-0.5,0.1-0.6c4.4-2.6,10.7-2.8,11-2.9c0.2,0,0.4,0.3,0.4,0.5
		c0,0.2-0.2,0.3-0.4,0.4c-0.1,0-6.4,0.2-10.6,2.7C386.3,271.8,386.2,271.8,386.2,271.9z"/>
	<path class="st3" d="M379.5,296.5c-0.2,0-0.4-0.1-0.4-0.3c-1-3-1.7-6-2-9.1c0-0.2,0.2-0.4,0.4-0.4c0,0,0,0,0,0
		c0.2,0,0.4,0.2,0.4,0.4c0,0,0,0,0,0c0.3,3,1,6,2,8.9c0.1,0.2,0,0.5-0.3,0.5L379.5,296.5z"/>
</g>
<g id="freepik--Lamp--inject-590">
	<rect x="109.2" y="147.5" class="st0" width="3.2" height="266.3"/>
	<path class="st0" d="M109.3,237.1L109.3,237.1c-1.2,0-2.1-1-2.1-2.1l0,0c0-1.2,1-2.1,2.1-2.1l0,0l0,0c1.2,0,2.1,0.9,2.1,2.1
		c0,0,0,0,0,0l0,0C111.5,236.1,110.5,237.1,109.3,237.1z"/>
	<path class="st0" d="M123.1,415.3H98.6c0-1.7,1.3-3,3-3h18.5C121.8,412.3,123.1,413.6,123.1,415.3L123.1,415.3z"/>
	<path class="st0" d="M133.8,207.3H87.9c-2.2,0-4-1.8-4-4c0-0.2,0-0.4,0.1-0.6l8.6-49.8c0.3-1.9,2-3.3,3.9-3.3h28.6
		c1.9,0,3.6,1.4,3.9,3.3l8.6,49.8c0.4,2.2-1.1,4.2-3.3,4.6C134.1,207.3,133.9,207.3,133.8,207.3z"/>
	<path class="st5" d="M133.8,207.3H87.9c-2.2,0-4-1.8-4-4c0-0.2,0-0.4,0.1-0.6l8.6-49.8c0.3-1.9,2-3.3,3.9-3.3h28.6
		c1.9,0,3.6,1.4,3.9,3.3l8.6,49.8c0.4,2.2-1.1,4.2-3.3,4.6C134.1,207.3,133.9,207.3,133.8,207.3z"/>
</g>
<g id="freepik--Character--inject-590">
	<path class="st6" d="M257.1,65.6l1.4-1.1c1.3-1,3.1-0.8,4.2,0.4l2.5,2.7c0.8,1,1,2.3,0.5,3.5l-0.6,1.3c-0.9,1.7-2.5,2.9-4.4,3.1
		l-4,0.5c-2.1,0.3-4.2-0.4-5.8-1.9l-0.9-0.9C251.7,68.9,257.1,65.6,257.1,65.6z"/>
	<path class="st6" d="M210.1,130.2l0.1-1.4l0.1-1.2c0.1-0.8,0.2-1.6,0.2-2.4c0.2-1.6,0.4-3.2,0.7-4.8c0.6-3.2,1.3-6.4,2.2-9.5
		c0.9-3.2,2-6.3,3.4-9.3c1.3-3.1,2.9-6.1,4.8-8.9c0.6-0.9,1.3-1.8,2.1-2.6c0.6-0.7,1.3-1.3,1.9-1.9c1.2-1.2,2.5-2.2,3.7-3.2
		c2.5-2,5-3.8,7.5-5.7c5-3.6,10.3-6.9,15.6-9.9c1.7-0.9,3.8-0.3,4.7,1.3c0.8,1.4,0.5,3.1-0.6,4.2l0,0c-4.3,4.2-8.8,8.3-13.1,12.4
		c-2.2,2-4.3,4.1-6.3,6.2c-1,1-2,2.1-2.9,3.1c-0.4,0.5-0.8,1-1.2,1.4c-0.3,0.3-0.5,0.6-0.7,1c-2.5,4.9-4.4,10-5.6,15.4
		c-0.7,2.7-1.2,5.5-1.7,8.2c-0.2,1.4-0.4,2.8-0.6,4.2l-0.2,2.1l-0.1,1l-0.1,0.9v0.4c-0.4,3.8-3.8,6.6-7.6,6.3
		c-3.7-0.4-6.5-3.5-6.3-7.3L210.1,130.2z"/>
	<path class="st3" d="M272.1,97c17.1,14.4-5.5,27.8,10.4,43.2s27.8,26.6,14.8,42.1c-10.5,12.5-41.4,18.8-64.3-1.5
		s12.7-34.8-3.8-46.9s4.4-39.1,10.4-41.5C239.2,79.3,266.5,77.5,272.1,97z"/>
	<path class="st3" d="M312.7,178.9c-0.1,0-0.1,0-0.2,0c-10.5-5-12.2-12.9-13.9-20.5c-1.6-7.2-3.3-14.8-12.1-20.4
		c-13.1-8.4-10.4-16.1-8-22.8c2.2-6.4,4.2-12-6.9-17.5c-0.3-0.1-0.4-0.4-0.2-0.7c0.1-0.2,0.4-0.3,0.7-0.2
		c11.9,5.9,9.7,12.2,7.4,18.8s-4.8,13.7,7.6,21.6c9.2,5.9,11,13.6,12.6,21.1c1.7,7.7,3.3,15,13.4,19.8c0.3,0.1,0.4,0.4,0.2,0.7
		C313.1,178.8,312.9,178.9,312.7,178.9z"/>
	<path class="st3" d="M193.7,176.6c0,0-14.2,43.8-22.4,75.1c-1,3.9-1.5,7.8-1.5,11.8c0.3,32.2,1,96.4,1,96.4l7.7,1
		c0,0,18.8-70,14.2-96.3c26.6-47.4,34.6-71.8,34.6-71.8L193.7,176.6z"/>
	<path class="st7" d="M206.2,213.3l7.4,11.5c-3,6.3-6.7,13.5-10.9,21.7c0.6-9.5-0.3-19.1-2.6-28.4L206.2,213.3z"/>
	<path class="st3" d="M198.5,203c-3.5,6.5-1.9,13.9,1.5,20.4c6.5,12.5,21.6,33.2,28.9,52.5c6.2,16.4,71.5,46.3,78.8,52.3l5.3-5.3
		c0,0-44-50.6-62.6-53.8c-5.4-63.1-24.1-79.9-24.1-79.9C213.3,186.9,204.3,192.1,198.5,203z"/>
	<path class="st0" d="M316.7,321.9c-2.3-0.6-4.4-2.6-8.2-6c-0.5-0.5-1.3-0.4-1.8,0.1c-0.1,0.1-0.2,0.3-0.3,0.4
		c-1.1,2.9-2.4,5.7-4,8.3c-0.4,0.6-0.3,1.3,0.2,1.7c9.2,7.5,8,9.1,8.4,12.3c0.5,3.9-1.2,11.2,1.6,10.5c4-1,6.4-6.1,6.1-10.2
		c-0.2-3.5,0.1-7.7,1.1-10.3C320.8,326.5,320,322.7,316.7,321.9z"/>
	<path class="st0" d="M181.5,364.3c-1-2.4-1-4.3,1.9-12.8c0.2-0.7-0.1-1.4-0.8-1.6c-0.1,0-0.1,0-0.2-0.1c-2.8-0.4-8.9-1.2-12-0.9
		c-0.7,0.1-1.2,0.7-1.2,1.4c0,0,0,0,0,0c0.6,6.4-2.8,17.4-10.4,22.4c-3.2,2.2-1.1,4,1.8,3.6c4.6-0.6,7.7-3.1,11.3-5
		c2.3-1.2,4.7-0.8,7.4-1.7c2-0.6,3.2-2.6,2.6-4.6C181.7,364.8,181.6,364.5,181.5,364.3z"/>
	<path class="st0" d="M208.8,132.5c-1.5,3.6-10.9,8.9-6.4,16.9c-2.6,7.4-5,14.8-8.7,27.2l35.4,17.2c3.4-10.7,9.2-21.9,24.8-42
		c3.4-4.3,2.5-10.6-1.8-13.9c-0.3-0.2-0.6-0.4-0.9-0.6c-1.3-0.8-2.8-1.7-4.3-2.5c-5.2-3-10.5-5.6-16.1-7.8c-1.8-0.7-3.7-1.3-5.5-1.9
		C218.7,122.9,211.6,126.1,208.8,132.5z"/>
	<path class="st0" d="M230.8,126.9c-4.2-1.8-7.7-8.6-6.1-14.2c-5.8,0.4-12.6,4-14.9,9.3c-0.9,5.4-1,16.1-1,16.1L230.8,126.9z"/>
	<path class="st6" d="M332.5,141.7l1.5-1.1c1.3-1,1.6-2.8,0.8-4.1l-2-3.1c-0.7-1.1-2-1.6-3.2-1.4l-1.5,0.3c-1.9,0.4-3.4,1.7-4.2,3.4
		l-1.6,3.7c-0.8,2-0.7,4.2,0.3,6.1l0.6,1.1C327.9,146.1,332.5,141.7,332.5,141.7z"/>
	<path class="st6" d="M250,139.4l18.7,2c3.1,0.3,6.2,0.6,9.3,0.9l4.6,0.4c1.5,0.1,3.1,0.2,4.1,0.2c2.8-0.1,6-0.4,9-0.7l9.4-1
		c6.3-0.7,12.6-1.3,19-1.8l0,0c1.9-0.1,3.6,1.3,3.7,3.2c0.1,1.6-0.9,3.1-2.4,3.6c-6.1,2-12.3,3.7-18.5,5.2c-3.1,0.8-6.3,1.5-9.4,2.2
		s-6.3,1.3-9.9,1.7c-2.2,0.2-3.7,0.2-5.4,0.2s-3.3,0-5,0c-3.3-0.1-6.5-0.2-9.8-0.4c-6.5-0.4-12.9-1-19.3-1.9
		c-3.8-0.9-6.1-4.7-5.2-8.4c0.8-3.2,3.6-5.4,6.9-5.4L250,139.4z"/>
	<path class="st0" d="M232.9,184.9c1.5,1-2.1,7.4-0.7,10s2,4,0.7,4.4s-26.8-4.9-40.7-15.4c-0.5-0.4-0.8-1.1-0.8-1.7
		c0.4-5.5,3-13.1,4.6-13.2S227.2,181.2,232.9,184.9z"/>
	<path class="st4" d="M232.9,184.9c1.5,1-2.1,7.4-0.7,10s2,4,0.7,4.4s-26.8-4.9-40.7-15.4c-0.5-0.4-0.8-1.1-0.8-1.7
		c0.4-5.5,3-13.1,4.6-13.2S227.2,181.2,232.9,184.9z"/>
	<path class="st6" d="M254.1,115.8c-3.5,4.7-9.1,13.6-7.2,18.9c0,0-12.6-3.8-25,3c0.6-10.3,8.9-10.8,8.9-10.8
		c6.4,1.4,8.4-2.9,9.3-7.4L254.1,115.8z"/>
	<path class="st7" d="M248.4,117.3l-8.2,2.2c-0.2,1.1-0.5,2.1-0.9,3.1c2.4,0.8,6.6-0.2,7.9-2.4C247.7,119.3,248.2,118.3,248.4,117.3
		z"/>
	<path class="st6" d="M263.5,110.1c-6.1,7.4-8.4,11.6-15.3,11.9c-11.7,0.5-16-9-13.1-15.9c3.5-8.1,12-19.3,21.7-17
		C266.5,91.4,269.6,102.6,263.5,110.1z"/>
	<path class="st3" d="M247.1,86.6c0.5,5.8,11.1,13.8,14.4,15.7c-4.4,2.1-6.4,11.6,1.6,12.4C271.2,115.6,278.3,82.9,247.1,86.6z"/>
	<path class="st3" d="M238.5,105.2c0,0,3.2,0.7,11.2,4.4c-2,1.7-4.6,2.7-8.8,0.8S238.5,105.2,238.5,105.2z"/>
	<path class="st8" d="M243.7,109.5c-1.5-0.8-3.3-1.1-5-1c0.6,0.8,1.3,1.4,2.3,1.8c1.5,0.8,3.3,1.2,5,1
		C245.4,110.5,244.6,109.9,243.7,109.5z"/>
	<path class="st9" d="M238.9,105.3c-0.1,0.6,0.2,1.3,0.7,1.7c2.4,1.1,4.9,2,7.4,2.7c0.8,0.3,1.6,0.2,2.3-0.2
		C246,107.8,242.5,106.4,238.9,105.3z"/>
	<path class="st10" d="M245.2,99c-1.6,1-3.3,1.8-5.2,2.4c0.3,1.4,1.9,2.1,1.9,2.1L245.2,99z"/>
	<path class="st6" d="M261.1,117.4c-1.5,0.9-3.3,1.1-5,0.5c-2.1-0.8-1.6-3.3,0.3-4.8c1.7-1.4,4.8-2.7,6.3-1.1
		S263.1,116.3,261.1,117.4z"/>
	<path class="st3" d="M254.1,102.7c-0.1-0.1-0.1-0.2,0-0.4c0.5-1.1,0.5-2.3-0.1-3.3c-0.1-0.2-0.1-0.5,0.1-0.6
		c0.2-0.1,0.5-0.1,0.6,0.1c0,0,0,0,0,0c0.8,1.3,0.8,2.8,0.2,4.2c-0.1,0.2-0.4,0.3-0.6,0.2C254.3,102.9,254.2,102.8,254.1,102.7z"/>
	<path class="st3" d="M250.4,103c-0.1-0.1-0.1-0.1-0.1-0.2c0-0.8-0.3-1.6-1-2.1c-0.1-0.1-0.2-0.3-0.1-0.4c0.1-0.1,0.3-0.2,0.4-0.1
		c0,0,0,0,0,0c0.8,0.6,1.3,1.6,1.2,2.6c0,0.2-0.2,0.3-0.3,0.3C250.5,103.1,250.4,103,250.4,103z"/>
	<path class="st3" d="M244.1,97.4c-0.1,0-0.2,0-0.2-0.1c-0.6-0.5-1.4-0.8-2.2-0.6c-0.2,0.1-0.3,0-0.4-0.2c0,0,0,0,0,0
		c-0.1-0.2,0-0.3,0.2-0.4c1-0.2,2,0,2.8,0.7c0.1,0.1,0.1,0.3,0,0.4C244.2,97.3,244.1,97.4,244.1,97.4z"/>
	<path class="st3" d="M243.9,92.6c-0.1,0-0.2-0.1-0.2-0.2c-0.1-0.2,0-0.5,0.2-0.6c1.3-0.6,2.9-0.6,4.2,0.1c0.2,0.1,0.3,0.4,0.1,0.6
		c-0.1,0.2-0.4,0.3-0.6,0.2c-1-0.6-2.3-0.6-3.3-0.1C244.2,92.6,244,92.6,243.9,92.6z"/>
	<path class="st7" d="M216.4,148.6c2.1,5.2,5.8,9.5,10.6,12.3C218.5,159.2,216.2,152.4,216.4,148.6z"/>
	<path class="st0" d="M246.9,134.7c4.6,3.1,17.4,4.2,21.6,4.5c0.4,0,0.8,0.4,0.8,0.8c0,0.2-0.1,0.3-0.2,0.4
		c-1.9,2-8.2,10.9-8.4,15.3c-0.1,0.9-0.7,1.7-1.6,1.9c-12.3,2.7-17.9,1.2-20.2-1.9C236.4,152.4,246.9,134.7,246.9,134.7z"/>
</g>
</svg>
